<?xml version="1.0" encoding="utf-8"?>
<!-- Generator: Adobe Illustrator 23.1.1, SVG Export Plug-In . SVG Version: 6.00 Build 0)  -->
<svg version="1.1" id="Layer_1" xmlns="http://www.w3.org/2000/svg" xmlns:xlink="http://www.w3.org/1999/xlink" x="0px" y="0px"
	 viewBox="0 0 55 55" style="enable-background:new 0 0 55 55;" xml:space="preserve">
<style type="text/css">
	.st0{fill:none;}
	.st1{fill:#264A9F;}
	.st2{fill:none;stroke:#264A9F;stroke-miterlimit:10;}
</style>
<g>
	<path class="st1" d="M34.5,32l-5.8-4.4c-0.1-0.1-0.2-0.1-0.3-0.2l0,0h-0.1c-0.2-0.1-0.4-0.1-0.6,0h-0.1l0,0c-0.1,0-0.2,0.1-0.3,0.2
		L21.5,32c-0.5,0.4-0.6,1.2-0.2,1.7c0.2,0.3,0.5,0.4,0.8,0.5c0.3,0,0.6,0,0.9-0.2l3.8-2.9v10.1c0,0.7,0.5,1.2,1.2,1.2
		c0.7,0,1.2-0.5,1.2-1.2V31L33,34c0.3,0.2,0.6,0.3,0.9,0.2c0.3,0,0.6-0.2,0.8-0.5C35.1,33.2,35,32.5,34.5,32z"/>
	<path class="st1" d="M21.1,24.9c0,0.7,0.5,1.2,1.2,1.2h11.5c0.7,0,1.2-0.5,1.2-1.2c0-0.7-0.5-1.2-1.2-1.2H22.2
		C21.6,23.7,21.1,24.2,21.1,24.9z"/>
	<path class="st1" d="M44.2,17.8h-15v-3.1c0-2.5-2.1-4.6-4.6-4.6H11.5c0,0,0,0,0,0c-2.7,0-5,2.2-5,5V44c0,2.6,2.1,4.7,4.7,4.7h33.6
		c2.6,0,4.7-2.1,4.7-4.7V23.1C49.5,20.2,47.1,17.8,44.2,17.8z M28,20.2h16.2c1.6,0,2.9,1.3,2.9,2.9V44c0,1.3-1,2.3-2.3,2.3H11.2
		c-1.3,0-2.3-1-2.3-2.3V15.2c0-1.4,1.2-2.6,2.6-2.6h13.1c0,0,0,0,0,0c1.2,0,2.2,1,2.2,2.2V19C26.8,19.7,27.3,20.2,28,20.2z"/>
</g>
</svg>
