<?xml version="1.0" encoding="utf-8"?>
<!-- Generator: Adobe Illustrator 23.1.1, SVG Export Plug-In . SVG Version: 6.00 Build 0)  -->
<svg version="1.1" id="Layer_1" xmlns="http://www.w3.org/2000/svg" xmlns:xlink="http://www.w3.org/1999/xlink" x="0px" y="0px"
	 viewBox="0 0 55 55" style="enable-background:new 0 0 55 55;" xml:space="preserve">
<style type="text/css">
	.st0{fill:none;}
	.st1{fill:#264A9F;}
	.st2{font-family:'MyriadPro-Regular';}
	.st3{font-size:3px;}
	.st4{fill:none;stroke:#264A9F;stroke-miterlimit:10;}
</style>
<g>
	<polygon class="st0" points="30.9,25.7 32.3,25.7 32.3,18.5 30.9,18.5 	"/>
	<path class="st0" d="M20.1,14.1c0.6,0.1,1.2-0.4,1.3-1l0,0c0,0,0,0,0-0.1c-0.3-0.9-0.7-1.8-1.1-2.7c-0.5,0.8-0.9,1.7-1.1,2.7
		c0,0,0,0,0,0.1l0,0v0C19.2,13.6,19.6,14,20.1,14.1z"/>
	<path class="st0" d="M31.5,14.1c0.6,0.1,1.2-0.4,1.2-1l0,0c0,0,0,0,0-0.1c-0.3-0.9-0.6-1.8-1.1-2.7c-0.5,0.8-0.9,1.7-1.1,2.7
		c0,0,0,0,0,0.1l0,0v0C30.5,13.6,30.9,14,31.5,14.1z"/>
	<polygon class="st0" points="19.7,25.7 21.1,25.7 21.1,18.5 19.7,18.5 	"/>
	<path class="st0" d="M42.9,28.7H9c-0.6,0-1.1,0.5-1.1,1.1V36c0,0.5,0.2,1,0.5,1.3c0.2,0.2,0.3,0.3,0.5,0.4c0.1,0,0.2,0.1,0.3,0.1
		c0.2,0,0.5,0,0.7,0l0,8.2L42,46l0-5v-3.3c0.1,0,0.2,0,0.3,0c1,0,1.8-0.8,1.7-1.8l0-6.1C44,29.2,43.5,28.7,42.9,28.7z M38,39.2h-24
		c0,0-0.1,0-0.1,0c-0.8,0-1.3-0.7-1.3-1.4c0-0.8,0.7-1.3,1.4-1.3h24c0,0,0.1,0,0.1,0c0.8,0,1.3,0.7,1.3,1.4
		C39.4,38.7,38.7,39.3,38,39.2z"/>
	<path class="st1" d="M45.7,45.9C45.7,45.9,45.7,45.9,45.7,45.9h-0.5v-6c1.3-0.9,2-2.4,2-4v-6.1c0-2.4-1.9-4.3-4.3-4.3h-7.8v-7.2
		c0-0.9-0.7-1.6-1.6-1.6c0,0,0,0,0,0h-0.2c1.5-0.7,2.5-2.2,2.5-3.9l0-0.2c-0.6-2.2-1.6-4.3-3-6.1c-0.5-0.7-1.5-0.8-2.2-0.3
		c0,0,0,0,0,0l-0.3,0.3c-1.4,1.8-2.4,3.9-3,6.1l0,0.2c0,1.7,1,3.2,2.5,3.9h-0.2c-0.9,0-1.6,0.7-1.6,1.6v7.2h-4v-7.2
		c0-0.9-0.7-1.6-1.6-1.6h-0.2c1.5-0.7,2.5-2.2,2.5-3.9l0-0.2c-0.6-2.2-1.6-4.3-3-6.1C21.4,6.2,21,6,20.5,6c-0.4-0.1-0.8,0.1-1.2,0.3
		l-0.3,0.3c-1.4,1.8-2.4,3.9-3,6.1l0,0.2c0,1.7,1,3.2,2.5,3.9h-0.2c-0.9,0-1.6,0.7-1.6,1.6l0,0v7.2H9c-2.4,0-4.3,1.9-4.3,4.3v6.1
		c0,1.6,0.7,3.1,2,4v6H6.3c-0.9,0-1.6,0.7-1.6,1.5c0,0.9,0.7,1.6,1.5,1.6c0,0,0.1,0,0.1,0h39.4c0.9,0,1.6-0.7,1.6-1.5
		C47.3,46.7,46.6,45.9,45.7,45.9z M30.4,13.1L30.4,13.1C30.5,13,30.4,13,30.4,13.1c0.3-1,0.7-1.9,1.1-2.8c0.5,0.8,0.9,1.7,1.1,2.7
		c0,0,0,0,0,0.1l0,0c-0.1,0.6-0.6,1.1-1.2,1C30.9,14,30.5,13.6,30.4,13.1L30.4,13.1z M32.3,18.5v7.1h-1.4v-7.2L32.3,18.5z
		 M19.1,13.1L19.1,13.1C19.1,13,19.1,13,19.1,13.1c0.3-1,0.6-1.9,1.1-2.8c0.5,0.8,0.9,1.7,1.1,2.7c0,0,0,0,0,0.1l0,0
		c-0.1,0.6-0.6,1.1-1.3,1C19.6,14,19.2,13.6,19.1,13.1L19.1,13.1z M21.1,18.5v7.1h-1.4v-7.2L21.1,18.5z M42.3,37.8
		c-0.1,0-0.2,0-0.3,0V41l0,5L9.9,46l0-8.2c-0.2,0-0.5,0.1-0.7,0c-0.1,0-0.2-0.1-0.3-0.1c-0.2-0.1-0.4-0.2-0.5-0.4
		C8,36.9,7.9,36.5,7.9,36v-6.1c0-0.6,0.5-1.1,1.1-1.1h33.9c0.6,0,1.1,0.5,1.1,1.1l0,6.1C44.1,36.9,43.3,37.8,42.3,37.8z"/>
	<path class="st1" d="M38.1,36.5C38,36.5,38,36.5,38.1,36.5H13.9c-0.8,0-1.4,0.6-1.4,1.3c0,0.8,0.6,1.4,1.3,1.4c0,0,0.1,0,0.1,0h24
		c0.8,0,1.4-0.6,1.4-1.3C39.4,37.2,38.8,36.5,38.1,36.5z"/>
</g>
</svg>
