<?xml version="1.0" encoding="utf-8"?>
<!-- Generator: Adobe Illustrator 23.1.1, SVG Export Plug-In . SVG Version: 6.00 Build 0)  -->
<svg version="1.1" id="Layer_1" xmlns="http://www.w3.org/2000/svg" xmlns:xlink="http://www.w3.org/1999/xlink" x="0px" y="0px"
	 viewBox="0 0 55.1 55" style="enable-background:new 0 0 55.1 55;" xml:space="preserve">
<style type="text/css">
	.st0{fill:none;}
	.st1{fill:#264A9F;}
	.st2{fill:none;stroke:#264A9F;stroke-miterlimit:10;}
</style>
<g>
	<path class="st0" d="M15.4,28.2c0,0.1,0,0.2-0.1,0.4c0,0.1,0,0.2,0,0.3c0,0.2,0,0.5,0,0.7c0,1.6,0.5,3.2,1.5,4.5l5.2-5.1v-7.2
		c-3.2,0.6-5.6,2.8-6.4,5.7c0,0,0,0.1,0,0.1C15.5,27.8,15.5,28,15.4,28.2z"/>
	<path class="st0" d="M31.5,29.6c0-3.9-2.9-7.3-6.8-8v8c0,0.4-0.1,0.7-0.4,1l-5.7,5.6c1.4,1,3.1,1.5,4.7,1.5
		C27.8,37.7,31.5,34.1,31.5,29.6z"/>
	<path class="st0" d="M43.5,4.7H11.6C10,4.7,8.7,6,8.7,7.5v39.9c0,1.6,1.3,2.9,2.9,2.9h31.9c1.6,0,2.9-1.3,2.9-2.9V7.5
		C46.4,6,45.1,4.7,43.5,4.7z M36.1,31.8c0.1-0.1,0.3-0.2,0.4-0.3c0.2-0.1,0.3-0.1,0.5-0.1h4.3c0.4,0,0.7,0.2,1,0.4
		c0.2,0.3,0.4,0.6,0.4,1c0,0.7-0.6,1.3-1.3,1.3l-4.3,0h0c-0.7,0-1.3-0.6-1.4-1.3C35.7,32.5,35.8,32.1,36.1,31.8z M35.7,26.5
		c0-0.7,0.6-1.4,1.3-1.4l0.1,0h4.2c0.4,0,0.7,0.2,1,0.4c0.2,0.3,0.4,0.6,0.4,1c0,0.7-0.6,1.3-1.3,1.3h-4.3h0
		C36.3,27.8,35.8,27.2,35.7,26.5z M37,37.7L37,37.7l4.4,0c0.8,0,1.4,0.7,1.3,1.4c0,0.7-0.6,1.3-1.3,1.3l-4.3,0h0
		c-0.7,0-1.3-0.6-1.4-1.3C35.7,38.4,36.3,37.8,37,37.7z M12.4,27.5c0.2-1,0.6-2,1-2.9c0.1-0.1,0.1-0.2,0.2-0.3
		c0.3-0.5,0.6-1,0.9-1.4c0.2-0.2,0.4-0.5,0.6-0.7c1.2-1.3,2.7-2.3,4.5-2.9c0.3-0.1,0.6-0.2,0.9-0.3c0,0,0,0,0,0
		c0.2-0.1,0.4-0.1,0.6-0.1c0.1,0,0.3-0.1,0.4-0.1c0.1,0,0.1,0,0.2,0c0.3,0,0.6-0.1,0.9-0.1c0.1,0,0.2,0,0.2,0c0.3,0,0.6,0,0.9,0
		c0.1,0,0.2,0,0.2,0c5.8,0.4,10.4,5.2,10.4,10.9c0,6.1-5,11-11.1,11c-2.6,0-5.2-1-7.3-2.7c-0.1-0.1-0.1-0.1-0.2-0.2
		c-0.1-0.1-0.3-0.2-0.4-0.3l-0.1-0.1v0c0,0,0,0,0,0l0,0c-0.1-0.1-0.2-0.2-0.3-0.4c-0.1-0.1-0.1-0.1-0.2-0.2c-1.8-2-2.8-4.6-2.8-7.2
		C12.2,28.9,12.2,28.2,12.4,27.5z M41.5,46.7L41.5,46.7l-27.7,0c-0.4,0-0.7-0.2-1-0.4c-0.2-0.3-0.4-0.6-0.4-1c0-0.7,0.6-1.3,1.3-1.3
		l27.7,0h0l0,0c0.4,0,0.7,0.1,0.9,0.4c0.3,0.2,0.4,0.6,0.4,0.9C42.8,46.1,42.2,46.7,41.5,46.7z M41.5,21.5L41.5,21.5L41.5,21.5
		L41.5,21.5L41.5,21.5l-4.4,0c-0.8,0-1.4-0.6-1.4-1.3c0-0.7,0.6-1.4,1.3-1.4l0.1,0h4.3h0c0.8,0,1.4,0.6,1.4,1.3
		C42.8,20.8,42.2,21.5,41.5,21.5z"/>
	<path class="st1" d="M43.5,2H11.6C8.5,2,6,4.5,6,7.5v39.9c0,3.1,2.5,5.6,5.6,5.6h31.9c3.1,0,5.6-2.5,5.6-5.6V7.5
		C49.1,4.5,46.6,2,43.5,2z M46.4,47.5c0,1.6-1.3,2.9-2.9,2.9H11.6c-1.6,0-2.9-1.3-2.9-2.9V7.5c0-1.6,1.3-2.9,2.9-2.9h31.9
		c1.6,0,2.9,1.3,2.9,2.9V47.5z"/>
	<path class="st1" d="M37.1,27.8L37.1,27.8h4.3c0.7,0,1.3-0.6,1.3-1.3c0-0.4-0.1-0.7-0.4-1c-0.2-0.3-0.6-0.4-1-0.4h-4.2l-0.1,0
		c-0.8,0-1.3,0.7-1.3,1.4C35.8,27.2,36.3,27.8,37.1,27.8z"/>
	<path class="st1" d="M41.4,18.8L41.4,18.8h-4.3l-0.1,0c-0.8,0-1.3,0.7-1.3,1.4c0,0.7,0.6,1.3,1.4,1.3h4.3l0,0l0,0h0l0,0
		c0.8,0,1.3-0.7,1.3-1.4C42.8,19.4,42.1,18.8,41.4,18.8z"/>
	<path class="st1" d="M37.1,34.1L37.1,34.1l4.3,0c0.7,0,1.3-0.6,1.3-1.3c0-0.4-0.1-0.7-0.4-1c-0.2-0.3-0.6-0.4-1-0.4H37
		c-0.2,0-0.4,0-0.5,0.1c-0.2,0.1-0.3,0.2-0.4,0.3c-0.2,0.3-0.4,0.6-0.4,1C35.8,33.5,36.3,34.1,37.1,34.1z"/>
	<path class="st1" d="M37.1,40.4L37.1,40.4l4.3,0c0.7,0,1.3-0.6,1.3-1.3c0-0.7-0.6-1.4-1.3-1.4H37l0,0c-0.7,0-1.3,0.7-1.3,1.4
		C35.8,39.9,36.3,40.4,37.1,40.4z"/>
	<path class="st1" d="M41.4,44L41.4,44L41.4,44H13.7c-0.7,0-1.3,0.6-1.3,1.3c0,0.4,0.1,0.7,0.4,1c0.2,0.3,0.6,0.4,1,0.4h27.7l0,0
		c0.8,0,1.3-0.7,1.3-1.4c0-0.4-0.2-0.7-0.4-0.9C42.1,44.2,41.8,44.1,41.4,44z"/>
	<path class="st1" d="M15.1,37c0.1,0.1,0.2,0.3,0.3,0.4l0,0c0,0,0,0,0,0v0l0.1,0.1c0.1,0.1,0.2,0.2,0.4,0.3c0.1,0.1,0.1,0.1,0.2,0.2
		c2,1.8,4.6,2.7,7.3,2.7c6.1,0,11.1-4.9,11.1-11c0-5.8-4.6-10.6-10.4-10.9c-0.1,0-0.2,0-0.2,0c-0.3,0-0.6,0-0.9,0
		c-0.1,0-0.2,0-0.2,0c-0.3,0-0.6,0.1-0.9,0.1c-0.1,0-0.1,0-0.2,0c-0.1,0-0.3,0.1-0.4,0.1c-0.2,0-0.4,0.1-0.6,0.1c0,0,0,0,0,0
		c-0.3,0.1-0.6,0.2-0.9,0.3c-1.7,0.6-3.3,1.6-4.5,2.9c-0.2,0.2-0.4,0.4-0.6,0.7c-0.3,0.4-0.7,0.9-0.9,1.4c-0.1,0.1-0.1,0.2-0.2,0.3
		c-0.5,0.9-0.8,1.9-1,2.9c-0.1,0.7-0.2,1.4-0.2,2.1c0,2.6,1,5.2,2.8,7.2C15,36.9,15,36.9,15.1,37z M21.9,21.9V29l-5.2,5.1
		c-1-1.4-1.5-2.9-1.5-4.5c0-0.2,0-0.5,0-0.7c0-0.1,0-0.2,0-0.3c0-0.1,0-0.3,0.1-0.4c0-0.2,0.1-0.4,0.1-0.5c0,0,0-0.1,0-0.1
		C16.4,24.6,18.8,22.4,21.9,21.9z M24.3,30.6c0.3-0.3,0.4-0.6,0.4-1v-8c3.9,0.7,6.8,4,6.8,8c0,4.5-3.7,8.1-8.2,8.1
		c-1.7,0-3.3-0.5-4.7-1.5L24.3,30.6z"/>
</g>
</svg>
