<?xml version="1.0" encoding="utf-8"?>
<!-- Generator: Adobe Illustrator 23.1.1, SVG Export Plug-In . SVG Version: 6.00 Build 0)  -->
<svg version="1.1" id="Layer_1" xmlns="http://www.w3.org/2000/svg" xmlns:xlink="http://www.w3.org/1999/xlink" x="0px" y="0px"
	 viewBox="0 0 55 55" style="enable-background:new 0 0 55 55;" xml:space="preserve">
<style type="text/css">
	.st0{fill:none;}
	.st1{fill:#264A9F;}
	.st2{fill:none;stroke:#264A9F;stroke-miterlimit:10;}
</style>
<path class="st1" d="M32.5,22.6c2.8-1.3,4.7-4.1,4.7-7.3c0-2.8-1.5-5.3-3.7-6.8c0.1-0.3,0.1-0.6,0.1-1c0-2.5-2-4.5-4.5-4.5
	c-2.5,0-4.5,2-4.5,4.5c0,0.3,0,0.7,0.1,1c-2.2,1.4-3.7,3.9-3.7,6.8c0,3.2,1.9,6,4.7,7.3c-3.5,0.6-6.2,3.7-6.2,7.5v3.4v18.7h6h10.9
	h1.2h1.2V30.1C38.8,26.3,36.1,23.2,32.5,22.6z M34.9,15.3c-2.7-0.1-5.2-0.7-7.4-1.9c-1.4-0.8-2.3-1.5-2.6-1.9c1-1.2,2.6-1.9,4.3-1.9
	C32.3,9.6,34.9,12.1,34.9,15.3z M26.7,7.6c0-1.3,1.1-2.4,2.4-2.4c1.3,0,2.4,1.1,2.4,2.4c0,0,0,0,0,0.1c-0.8-0.2-1.6-0.4-2.4-0.4
	C28.3,7.3,27.5,7.4,26.7,7.6C26.7,7.6,26.7,7.6,26.7,7.6z M23.4,15.3c0-0.7,0.1-1.4,0.4-2c1.4,1.2,4.9,3.8,10.7,4
	c-0.8,2.1-2.9,3.7-5.3,3.7C26,21,23.4,18.5,23.4,15.3z M36.4,49.8H25.5h-3.7V34.4v-4.4c0-2.9,2.4-5.3,5.3-5.3h4
	c2.9,0,5.3,2.4,5.3,5.3V49.8z"/>
<rect x="5.5" y="1.9" class="st2" width="43.1" height="51.1"/>
</svg>
