<?xml version="1.0" encoding="utf-8"?>
<!-- Generator: Adobe Illustrator 23.1.1, SVG Export Plug-In . SVG Version: 6.00 Build 0)  -->
<svg version="1.1" id="Layer_1" xmlns="http://www.w3.org/2000/svg" xmlns:xlink="http://www.w3.org/1999/xlink" x="0px" y="0px"
	 viewBox="0 0 55 55" style="enable-background:new 0 0 55 55;" xml:space="preserve">
<style type="text/css">
	.st0{fill:none;}
	.st1{fill:#264A9F;}
	.st2{fill:none;stroke:#264A9F;stroke-miterlimit:10;}
</style>
<g>
	<path class="st1" d="M39.4,19.2c3.1-1.4,5.2-4.6,5.2-8.2c0-5-4-9-9-9c-5,0-9,4-9,9c0,3.6,2.2,6.8,5.2,8.2c-4,0.7-7,4.2-7,8.4v3.8
		c-0.3,0-0.6-0.1-0.9-0.1c-0.6,0-1.1,0.1-1.7,0.2c-0.8-2.5-3.1-4.4-5.9-4.4h-3.9c-3.4,0-6.1,2.8-6.1,6.1v18.9h6.9v0.1h2.9V53h0.2
		v1.8h15v-0.2h0.2v-1.1v-1.2h12.3h1.3v-0.1h1.3V27.6C46.4,23.4,43.4,19.9,39.4,19.2z M29.2,11c0-3.5,2.9-6.4,6.4-6.4
		c3.5,0,6.4,2.9,6.4,6.4c0,3.5-2.9,6.4-6.4,6.4C32,17.4,29.2,14.5,29.2,11z M23.8,33.9c1.9,0,3.5,1.6,3.5,3.5c0,1.9-1.6,3.5-3.5,3.5
		c-1.9,0-3.5-1.6-3.5-3.5S21.9,33.9,23.8,33.9z M16.1,47.9v1.7H8.9V33.3c0-1.9,1.6-3.5,3.5-3.5h3.9c1.8,0,3.3,1.3,3.5,3.1
		c-1.2,1.1-2,2.7-2,4.5c0,1.8,0.8,3.5,2.1,4.6v0.4C17.6,43.3,16.1,45.5,16.1,47.9z M28.9,52.2H18.7v-4.2c0-1.6,1.1-3,2.6-3.4
		c0.2,0,0.3-0.1,0.5-0.1l0,0c0.1,0,0.3,0,0.4,0h3.1c0.1,0,0.2,0,0.3,0c0,0,0.1,0,0.1,0l0.1,0c1.7,0.3,3,1.8,3,3.5V52.2z M43.8,49.7
		H31.5v-1.8c0-2.6-1.6-4.9-4-5.8c1.4-1.1,2.4-2.8,2.4-4.8c0-2-1-3.8-2.5-4.9v-4.9c0-3.3,2.7-5.9,5.9-5.9h4.5c3.3,0,5.9,2.7,5.9,5.9
		V49.7z"/>
	<path class="st1" d="M14.4,26.8c4.2,0,7.7-3.4,7.7-7.7c0-4.2-3.4-7.7-7.7-7.7c-4.2,0-7.7,3.4-7.7,7.7C6.7,23.3,10.1,26.8,14.4,26.8
		z M14.4,14.1c2.8,0,5.1,2.3,5.1,5.1s-2.3,5.1-5.1,5.1c-2.8,0-5.1-2.3-5.1-5.1S11.6,14.1,14.4,14.1z"/>
</g>
</svg>
