<?xml version="1.0" encoding="utf-8"?>
<!-- Generator: Adobe Illustrator 23.1.1, SVG Export Plug-In . SVG Version: 6.00 Build 0)  -->
<svg version="1.1" id="Layer_1" xmlns="http://www.w3.org/2000/svg" xmlns:xlink="http://www.w3.org/1999/xlink" x="0px" y="0px"
	 viewBox="0 0 55 55" style="enable-background:new 0 0 55 55;" xml:space="preserve">
<style type="text/css">
	.st0{fill:none;}
	.st1{fill:#264A9F;}
	.st2{fill:none;stroke:#264A9F;stroke-miterlimit:10;}
</style>
<path class="st1" d="M41.9,26.7c-0.7,0-1.3,0.1-2,0.4l-0.7-1.2c0,0,0,0,0,0c0.6-0.2,2-0.3,2.8-0.3l2.1,0c0.4,0,0.9-0.2,1.1-0.5
	c0.3-0.3,0.5-0.7,0.4-1.2c-0.1-4.5-2.9-9.9-10.3-9.9c-0.1,0-0.2,0-0.3,0.1c-0.5,0.2-1.3,0.8-0.8,2.1L33.6,16c-0.2-0.1-0.4,0-0.6,0.1
	c-0.2,0.1-0.3,0.3-0.4,0.5c-0.1,0.2,0,0.5,0.1,0.7c0.1,0.2,0.3,0.3,0.5,0.4l2.1,0.5c0.1,0.2,0.1,0.3,0.2,0.4
	c-1.2-0.3-2.2-0.5-3.8-0.6l-0.3,0c-4,0-6.7,1.7-7.5,2.9c-1.3-0.1-2.6-0.3-3.7-0.4l-0.9-0.1c0-0.9-0.5-1.4-1.4-1.6l-5.1-1
	c-0.5-0.1-1.1-0.2-1.7-0.3c-0.7-0.1-1.2,0-1.6,0.5c-0.2,0.2-0.6,0.9-0.1,1.8L9.8,21l-1.1,0.4c-0.4,0.1-0.8,0.3-1.2,0.4
	c-0.7,0.2-1.2,0.7-1.3,1.6C6.1,24.1,6,25,5.8,25.8l-0.2,1.1c0,0.1-0.1,0.6-0.1,0.9c0,0.4,0.1,0.7,0.3,1c0.2,0.3,0.6,0.5,1,0.5
	c0.7,0,1.3-0.5,1.7-1c1.4-1.8,3.3-2.7,5.6-2.7l0.2,0c1.9,0,3.6,0.8,4.8,2l-1,0.7c-1.1-1-2.4-1.5-3.9-1.5c-3.2,0-5.8,2.6-5.8,5.8
	s2.6,5.8,5.8,5.8c3.2,0,5.8-2.6,5.8-5.8c0-0.1,0-0.2,0-0.3c0,0,0,0,0,0L21,32l0.1,1.2c-0.1,0.6,0.1,1.2,0.5,1.6
	c0.3,0.3,0.7,0.5,1.2,0.5H23v0l10.1,0c1.2-0.1,1.7-0.7,1.7-1.8c-0.1-1.8,0.7-5.1,3.1-6.8l0.7,1.3c-1.4,1.1-2.3,2.8-2.3,4.6
	c0,3.2,2.6,5.8,5.8,5.8s5.8-2.6,5.8-5.8S45.1,26.7,41.9,26.7z M22.9,33.2c0-1.1-0.3-2.6-0.3-2.7l0,0c-0.1-0.4-0.2-0.8-0.2-0.8
	c0-0.1-0.1-0.1-0.1-0.2c0,0,0-0.1-0.1-0.1l-0.1-0.2c0-0.1-0.1-0.1-0.1-0.2c-0.3-0.7-0.6-1.2-0.9-1.7l0,0l0,0c0,0,0,0,0,0
	c-1.5-2.1-3.9-3.3-6.7-3.4l-0.3,0c-2.7,0-5,1-6.7,3.1l0.1-0.6c0.2-0.9,0.3-1.8,0.4-2.8c0-0.1,0-0.1,0-0.1c0,0,0,0,0,0
	c0.4-0.1,0.9-0.3,1.3-0.4l1.9-0.6l7.1-0.2l1.6,0.2c1.3,0.1,2.6,0.3,4.1,0.4l0,0c0,0,0.1,0,0.1,0c1.6,0.8,3.3,1.2,4.9,1.2
	c4.7,0,8.2-3.2,8.3-3.3c0.1-0.1,0.2-0.2,0.2-0.3c0,0,0,0,0-0.1c0-0.1,0-0.2,0-0.3c0,0,0,0,0-0.1c0-0.2-0.1-0.6-1-2.8l-0.1-0.3
	c-0.1-0.3-0.2-0.6-0.3-0.9c0,0,0,0,0,0c5.7,0.2,7.9,4.3,8,8.1l-2,0l0,0c-0.5,0-2.4,0.1-3.4,0.4c-3.3,1-5,4.3-5.6,7
	c0,0-0.1,0.9-0.2,1.4c0,0.1,0,0.1,0,0.2c0,0.2,0,0.4,0,0.7c0,0,0,0,0,0.1c0,0,0,0,0,0H22.9C22.9,33.5,22.9,33.4,22.9,33.2L22.9,33.2
	L22.9,33.2z M39.3,29.5l1.6,2.9c0.1,0.3,0.4,0.5,0.8,0.5c0.1,0,0.3,0,0.4-0.1c0.2-0.1,0.3-0.3,0.4-0.5c0.1-0.2,0-0.5-0.1-0.7
	l-1.6-2.9c0.4-0.1,0.8-0.2,1.1-0.2c2.2,0,4,1.8,4,4c0,2.2-1.8,4-4,4c-2.2,0-4-1.8-4-4C37.9,31.3,38.4,30.2,39.3,29.5z M20.7,30.3
	l-3.4,0.6l2.9-2c0.2,0.3,0.3,0.6,0.4,0.9L20.7,30.3z M11.6,20.6L11,19.3c0.5,0.1,1,0.2,1.4,0.3l4.5,0.8L11.6,20.6z M25.6,21.4
	c0.9-0.7,2.8-1.7,5.7-1.7l0.3,0c1.4,0,2.2,0.2,3.3,0.5C33,21.5,29.6,23,25.6,21.4z M14.2,36.6c-2.2,0-4-1.8-4-4c0-2.2,1.8-4,4-4
	c0.9,0,1.7,0.3,2.4,0.8L13,31.8c-0.3,0.2-0.5,0.7-0.3,1c0.1,0.3,0.4,0.5,0.8,0.5c0,0,0.1,0,0.2,0l4.6-0.9c0,0,0,0,0,0
	C18.3,34.7,16.4,36.6,14.2,36.6z"/>
</svg>
