<?xml version="1.0" encoding="utf-8"?>
<!-- Generator: Adobe Illustrator 23.1.1, SVG Export Plug-In . SVG Version: 6.00 Build 0)  -->
<svg version="1.1" id="Layer_1" xmlns="http://www.w3.org/2000/svg" xmlns:xlink="http://www.w3.org/1999/xlink" x="0px" y="0px"
	 viewBox="0 0 55 55" style="enable-background:new 0 0 55 55;" xml:space="preserve">
<style type="text/css">
	.st0{fill:none;}
	.st1{fill:#264A9F;}
	.st2{fill:none;stroke:#264A9F;stroke-miterlimit:10;}
</style>
<g>
	<path class="st0" d="M27.2,25c-1.5,0-2.8,1.2-2.8,2.8c0,1.5,1.2,2.8,2.8,2.8v0c1.5,0,2.8-1.2,2.8-2.8c0,0,0,0,0,0
		C30,26.2,28.7,25,27.2,25z"/>
	<path class="st0" d="M44.7,29c-0.7,0-1.3-0.6-1.3-1.3c0-0.7,0.6-1.3,1.3-1.3h1.4c-0.3-4.2-1.9-8.1-4.7-11.2l-1,1c0,0,0,0,0,0
		c-0.5,0.5-1.3,0.5-1.8,0s-0.5-1.3,0-1.8l1-1c-3.1-2.7-7.1-4.4-11.2-4.7v1.4c0,0,0,0,0,0c0,0.7-0.6,1.3-1.3,1.3
		c-0.7,0-1.3-0.6-1.3-1.3V8.8c-4.2,0.3-8.1,1.9-11.2,4.7l1,1c0.5,0.5,0.5,1.3,0,1.7c-0.5,0.5-1.3,0.5-1.8,0l-1-1
		c-2.7,3.1-4.4,7.1-4.7,11.2h1.4c0,0,0,0,0,0c0.7,0,1.3,0.6,1.3,1.3c0,0.7-0.6,1.3-1.3,1.3H8.2c0.2,3.5,1.4,6.8,3.4,9.6h31.1
		c2-2.8,3.2-6.2,3.4-9.6H44.7z M35.1,21.6L31.7,25c1,1.7,1,3.8,0,5.5c-1.5,2.5-4.8,3.3-7.3,1.8c-2.5-1.5-3.3-4.8-1.8-7.3
		c1.5-2.5,4.8-3.3,7.3-1.8l3.4-3.4c0.5-0.5,1.3-0.5,1.8,0C35.5,20.4,35.5,21.1,35.1,21.6z"/>
	<path class="st1" d="M42.4,12.6c-8.4-8.4-22-8.4-30.4,0c-4,4-6.3,9.5-6.3,15.2c0,4.6,1.5,9.2,4.3,12.9c0.2,0.3,0.6,0.5,1,0.5h32.3
		c0.4,0,0.8-0.2,1-0.5c2.8-3.7,4.3-8.2,4.3-12.9C48.7,22,46.4,16.6,42.4,12.6z M42.7,38.6H11.6c-2-2.8-3.2-6.2-3.4-9.6h1.4
		c0.7,0,1.3-0.6,1.3-1.3c0-0.7-0.6-1.3-1.3-1.3c0,0,0,0,0,0H8.3c0.3-4.2,1.9-8.1,4.7-11.2l1,1c0.5,0.5,1.3,0.5,1.8,0
		c0.5-0.5,0.5-1.3,0-1.7l-1-1c3.1-2.7,7.1-4.4,11.2-4.7v1.4c0,0.7,0.6,1.3,1.3,1.3c0.7,0,1.3-0.6,1.3-1.3c0,0,0,0,0,0V8.8
		c4.2,0.3,8.1,1.9,11.2,4.7l-1,1c-0.5,0.5-0.5,1.3,0,1.8s1.3,0.5,1.8,0c0,0,0,0,0,0l1-1c2.7,3.1,4.4,7.1,4.7,11.2h-1.4
		c-0.7,0-1.3,0.6-1.3,1.3c0,0.7,0.6,1.3,1.3,1.3h1.4C45.9,32.5,44.7,35.8,42.7,38.6z"/>
	<path class="st1" d="M35.3,46.7C35.3,46.7,35.3,46.7,35.3,46.7H19.1c-0.7,0-1.3,0.6-1.3,1.3c0,0.7,0.6,1.3,1.3,1.3h16.2
		c0.7,0,1.3-0.6,1.3-1.3C36.5,47.3,36,46.7,35.3,46.7z"/>
	<path class="st1" d="M33.3,19.9l-3.4,3.4c-2.5-1.5-5.8-0.7-7.3,1.8c-1.5,2.5-0.7,5.8,1.8,7.3c2.5,1.5,5.8,0.7,7.3-1.8
		c1-1.7,1-3.8,0-5.5l3.4-3.4c0.5-0.5,0.5-1.3,0-1.8C34.6,19.4,33.8,19.4,33.3,19.9z M30,27.8c0,1.5-1.2,2.8-2.8,2.8v0
		c-1.5,0-2.8-1.2-2.8-2.8c0-1.5,1.2-2.8,2.8-2.8S30,26.2,30,27.8C30,27.7,30,27.8,30,27.8z"/>
</g>
</svg>
