<?xml version="1.0" encoding="utf-8"?>
<!-- Generator: Adobe Illustrator 23.1.1, SVG Export Plug-In . SVG Version: 6.00 Build 0)  -->
<svg version="1.1" id="Layer_1" xmlns="http://www.w3.org/2000/svg" xmlns:xlink="http://www.w3.org/1999/xlink" x="0px" y="0px"
	 viewBox="0 0 55 55" style="enable-background:new 0 0 55 55;" xml:space="preserve">
<style type="text/css">
	.st0{fill:none;}
	.st1{fill:#264A9F;}
	.st2{fill:none;stroke:#264A9F;stroke-miterlimit:10;}
</style>
<g>
	<path class="st1" d="M15.8,28l-1.3-0.8c-0.1,0-0.3,0-0.4,0.1L13,30.7c-0.4,0.2-0.7,0.6-0.7,1.1c0,0.7,0.6,1.3,1.3,1.3
		c0.7,0,1.3-0.6,1.3-1.3c0-0.2,0-0.3-0.1-0.5l1.1-3C16,28.2,15.9,28.1,15.8,28z"/>
	<path class="st1" d="M19.1,32.6h2c0,0,0.1,0,0.1-0.1c0-0.2,0-0.5,0-0.7c0-2.8-1.4-5.2-3.6-6.5l-0.9,2.1c1.3,1,2.3,2.6,2.3,4.4
		c0,0.2,0,0.4,0,0.6C18.9,32.5,19,32.6,19.1,32.6z"/>
	<path class="st1" d="M16.4,27.6L16.4,27.6c0.1-0.2,0-0.4-0.1-0.5l-1.4-0.8c-0.1-0.1-0.3,0-0.4,0.1l0,0.1c0,0.1,0,0.2,0.1,0.3
		l1.4,0.8C16.1,27.8,16.3,27.8,16.4,27.6z"/>
	<path class="st1" d="M12,22l4.1,0.5l0,0c0,0.1,0,0.2,0.1,0.3l1.4,0.8c0.1,0,0.2,0,0.3-0.1l0.4-0.8l3.4,0.4c0.6,0,1.1-0.4,1.1-1
		l0.2-2.3c0.1-0.7-0.4-1.2-1.1-1.2l-10.1,0C10.6,18.8,10,21.7,12,22z"/>
	<path class="st1" d="M39.1,20c0,0.2,0.2,0.2,0.5,0.2h0.6c0.2,0,0.5-0.2,0.5-0.5c0.1-2.2,1.6-3.3,0-3.3h-2c-0.4,0-0.7,0.4-0.6,0.8
		L39.1,20z"/>
	<path class="st1" d="M26.3,27.7l-1.5-3.4c0-0.1-0.2-0.3-0.4-0.3l-5.7-0.6c-0.2,0.5-0.5,1,0.2,1.1c2.9,0.9,3.4,5.2,3.6,7.6
		c0,0.2,0.2,0.5,0.5,0.5l3,0c0.4,0,0.6-0.5,0.4-0.7c-1-1.1-0.6-3.1-0.2-3.8C26.4,28,26.4,27.9,26.3,27.7z"/>
	<path class="st1" d="M17,26.1L17,26.1c0.1-0.2,0-0.4-0.1-0.5l-1.4-0.8c-0.1-0.1-0.3,0-0.4,0.1l0,0.1c0,0.1,0,0.2,0.1,0.3l1.4,0.8
		C16.7,26.3,16.9,26.3,17,26.1z"/>
	<path class="st1" d="M31.1,27.8l1-3.5c0-0.2-0.1-0.3-0.3-0.3h-5.4c-0.2,0-0.3,0.2-0.2,0.4l1.4,3.8c-0.5,0.5-0.8,1.1-0.8,1.9
		c0,1,0.4,1.9,1.4,2.3v0.7H16.4c-0.8,0-1.5,0.7-4.3,0.7v1c2.9,0,3.5,0.7,4.3,0.7h11.8c1.5,0,2.5-0.7,2.5-2.2v-0.7
		c1-0.4,1.6-1.4,1.6-2.5C32.3,29.2,31.8,28.4,31.1,27.8z"/>
	<path class="st1" d="M41.1,23.3c-0.6,0-1.1,0-1.7,0.2L39,22.3c0-0.1-0.2-0.2-0.4-0.1h0L38,20.7l0.3-0.1c0.1,0,0.2-0.2,0.1-0.4
		l-0.8-2.3c0-0.1-0.2-0.2-0.4-0.1l-0.4,0.1l-1-2.9c-0.2-0.5-0.8-1-1.3-1h-3c-0.1,0-0.4,0.3-0.4,0.5v0.6c0,0.1,0.2,0.4,0.4,0.4h2.4
		c0.2,0,0.4,0,0.4,0.2l0.8,2c-0.2-0.1-0.3-0.2-0.6-0.2c-2.6,0-7.1,1.3-10.2,2c-0.4,0.1-0.7,0.5-0.8,0.9l-0.1,2
		c0,0.6,0.5,1.2,1.1,1.2h10.1c0.8-0.5,1.3-1,1.4-2l0.5-0.2l0.6,1.4C37,22.7,37,22.9,37,23l0.5,1.2c-2.4,1.3-4,3.8-4,6.7
		c0,4.2,3.4,7.7,7.7,7.7s7.7-3.4,7.7-7.7C48.8,26.7,45.3,23.3,41.1,23.3z M41.1,36.4c-3,0-5.4-2.4-5.4-5.4c0-2,1-3.7,2.6-4.6
		l1.7,4.1c-0.1,0.2-0.1,0.3-0.1,0.6c0,0.7,0.6,1.3,1.3,1.3c0.7,0,1.3-0.6,1.3-1.3c0-0.5-0.2-0.9-0.7-1.1l-1.5-4.3
		c0.3,0,0.6-0.1,0.9-0.1c3,0,5.4,2.4,5.4,5.4C46.5,34,44.1,36.4,41.1,36.4z"/>
	<path class="st1" d="M19.7,35.9h-2.6h0c-1,1-2.2,1.3-3.5,1.3c-3,0-5.4-2.4-5.4-5.4s2.4-5.4,5.4-5.4c0.2,0,0.4,0,0.6,0l0.7-2.2
		c-0.4,0-0.9-0.1-1.3-0.1c-4.2,0-7.7,3.4-7.7,7.7s3.4,7.7,7.7,7.7c2.6,0,4.9-1.3,6.3-3.3C20,36.1,19.8,35.9,19.7,35.9z"/>
	<path class="st1" d="M16.6,26.8L16.6,26.8c0.1-0.2,0-0.4-0.1-0.5l-1.4-0.8c-0.1-0.1-0.3,0-0.4,0.1l0,0.1c0,0.1,0,0.2,0.1,0.3
		l1.4,0.8C16.4,27,16.6,27,16.6,26.8z"/>
	<path class="st1" d="M15.4,24.1L15.4,24.1c-0.1,0.2,0,0.3,0.1,0.4l1.4,0.8c0.1,0,0.2,0,0.3-0.1l0-0.1c0-0.1,0-0.3-0.1-0.4L15.8,24
		C15.6,23.9,15.5,24,15.4,24.1z"/>
	<path class="st1" d="M15.9,23.8l1.4,0.8c0.1,0,0.2,0,0.3-0.1l0-0.1c0-0.1,0-0.3-0.1-0.4l-1.4-0.8c-0.1-0.1-0.3,0-0.4,0.1l0,0.1
		C15.6,23.5,15.8,23.7,15.9,23.8z"/>
</g>
</svg>
