<?xml version="1.0" encoding="utf-8"?>
<!-- Generator: Adobe Illustrator 23.1.1, SVG Export Plug-In . SVG Version: 6.00 Build 0)  -->
<svg version="1.1" id="Layer_1" xmlns="http://www.w3.org/2000/svg" xmlns:xlink="http://www.w3.org/1999/xlink" x="0px" y="0px"
	 viewBox="0 0 55 55" style="enable-background:new 0 0 55 55;" xml:space="preserve">
<style type="text/css">
	.st0{fill:none;}
	.st1{fill:#264A9F;}
	.st2{fill:none;stroke:#264A9F;stroke-miterlimit:10;}
</style>
<g>
	<path class="st1" d="M45.8,11H25.9c-1.2,0-2.1,1-2.1,2.1v3.8h-8.5c-1.4,0-1.8,1.1-2.1,1.8l-2.5,5.5c-1.3,0.2-2.9,0.4-3.6,0.6h0
		c-1.2,0.3-1.9,1.3-1.9,2.8v5.3c0,1.2,1,2.1,2.1,2.1h4c0,0,0,0,0,0c0.5,2,2.3,3.3,4.3,3.3c2,0,3.8-1.4,4.3-3.3h14.6
		c0.5,2,2.3,3.3,4.3,3.3c2,0,3.8-1.4,4.3-3.3c0,0,0,0,0,0h2.6c1.2,0,2.1-1,2.1-2.1V13.1C47.9,11.9,46.9,11,45.8,11z M38.8,31.1
		c1.6,0,2.8,1.3,2.8,2.8c0,1.6-1.3,2.8-2.8,2.8c-1.6,0-2.8-1.3-2.8-2.8C36,32.4,37.3,31.1,38.8,31.1z M25.4,13.1
		c0-0.3,0.2-0.5,0.5-0.5h19.9c0.3,0,0.5,0.2,0.5,0.5v19.9c0,0.3-0.2,0.5-0.5,0.5h-2.6c-0.1-1.1-0.6-2.1-1.4-2.8
		c-0.8-0.8-1.9-1.2-3-1.2c-2.3,0-4.2,1.7-4.4,4h-9V13.1z M12.6,24.2l2.2-4.9l0,0c0.3-0.8,0.4-0.8,0.6-0.8h8.5v5.7H12.6z M15.7,31.1
		c1.6,0,2.8,1.3,2.8,2.8c0,1.6-1.3,2.8-2.8,2.8c-1.6,0-2.8-1.3-2.8-2.8C12.8,32.4,14.1,31.1,15.7,31.1z M10.6,31.6
		c0-0.4-0.4-0.8-0.8-0.8H6.9v-3.2c0-0.9,0.4-1.1,0.7-1.2c0.8-0.2,3.4-0.6,3.8-0.6h12.4v7.7h-3.7c-0.1-1.1-0.6-2.1-1.4-2.8
		c-0.8-0.8-1.9-1.2-3-1.2c-1.1,0-2.2,0.4-3,1.2c-0.8,0.7-1.3,1.7-1.4,2.8H7.4c-0.3,0-0.5-0.2-0.5-0.5v-0.5h2.9
		C10.3,32.4,10.6,32.1,10.6,31.6z"/>
	<path class="st1" d="M20,28.2h2c0.4,0,0.8-0.4,0.8-0.8c0-0.4-0.4-0.8-0.8-0.8h-2c-0.4,0-0.8,0.4-0.8,0.8
		C19.2,27.9,19.5,28.2,20,28.2z"/>
</g>
</svg>
