<?xml version="1.0" encoding="utf-8"?>
<!-- Generator: Adobe Illustrator 23.1.1, SVG Export Plug-In . SVG Version: 6.00 Build 0)  -->
<svg version="1.1" id="Layer_1" xmlns="http://www.w3.org/2000/svg" xmlns:xlink="http://www.w3.org/1999/xlink" x="0px" y="0px"
	 viewBox="0 0 55 55" style="enable-background:new 0 0 55 55;" xml:space="preserve">
<style type="text/css">
	.st0{fill:none;}
	.st1{fill:#264A9F;}
	.st2{fill:none;stroke:#264A9F;stroke-miterlimit:10;}
</style>
<g>
	<path class="st1" d="M27,14.9C27.1,14.9,27.1,14.9,27,14.9C27.1,14.9,27.1,14.9,27,14.9c0.1,0,0.1,0,0.1,0c0,0,0,0,0.1,0
		c0,0,0,0,0,0c0,0,0.1,0,0.1,0c0,0,0,0,0,0c0,0,0.1,0,0.1,0c0,0,0,0,0,0c0.7-0.2,1-0.1,1,0c0.1,0,0.2,0.2,0.3,0.3
		c0.3,0.3,0.9,0.9,1.7,0.9c0.2,0,0.3,0,0.5-0.1c0.5-0.2,0.8-0.7,0.6-1.2c-0.1-0.5-0.6-0.7-1.1-0.6c-0.1-0.1-0.2-0.2-0.3-0.3
		c-0.2-0.2-0.5-0.5-0.8-0.6c-0.6-0.3-1.3-0.4-2.1-0.2c-0.8-0.2-1.6-0.1-2.1,0.2c-0.3,0.2-0.6,0.4-0.8,0.6c-0.1,0.1-0.3,0.3-0.3,0.3
		c-0.5-0.1-1,0.2-1.1,0.6c-0.2,0.5,0.1,1,0.6,1.2c0.2,0.1,0.4,0.1,0.5,0.1c0.8,0,1.3-0.6,1.7-0.9c0.1-0.1,0.3-0.3,0.3-0.3
		C26,14.8,26.3,14.7,27,14.9C26.9,14.9,26.9,14.9,27,14.9C27,14.9,27,14.9,27,14.9C27,14.9,27,14.9,27,14.9z"/>
	<path class="st1" d="M30.9,19.6c3.1-1.4,5.2-4.5,5.2-8.1c0-4.9-4-9-9-9c-4.9,0-9,4-9,9c0,3.6,2.1,6.7,5.2,8.1c-4,0.7-7,4.2-7,8.3
		v3.8v20.8h6.7h12.2h1.3h1.3V27.9C37.9,23.8,34.9,20.3,30.9,19.6z M20.8,11.5c0-3.5,2.9-6.4,6.4-6.4s6.4,2.9,6.4,6.4
		s-2.9,6.4-6.4,6.4C23.7,17.8,20.8,15,20.8,11.5z M35.3,49.9H23.1H19V32.8v-4.9c0-3.2,2.6-5.9,5.9-5.9h4.5c3.2,0,5.9,2.6,5.9,5.9
		V49.9z"/>
</g>
</svg>
