<?xml version="1.0" encoding="utf-8"?>
<!-- Generator: Adobe Illustrator 23.1.1, SVG Export Plug-In . SVG Version: 6.00 Build 0)  -->
<svg version="1.1" id="Layer_1" xmlns="http://www.w3.org/2000/svg" xmlns:xlink="http://www.w3.org/1999/xlink" x="0px" y="0px"
	 viewBox="0 0 55 55" style="enable-background:new 0 0 55 55;" xml:space="preserve">
<style type="text/css">
	.st0{fill:none;}
	.st1{fill:#264A9F;}
	.st2{fill:none;stroke:#264A9F;stroke-miterlimit:10;}
</style>
<g>
	<path class="st0" d="M22.6,9.5c-7.4,0-13.5,6-13.5,13.5c0,7.4,6,13.5,13.5,13.5c7.4,0,13.5-6,13.5-13.5
		C36.1,15.5,30.1,9.5,22.6,9.5z"/>
	<path class="st1" d="M48.4,46.2L35.9,33.7c5.9-7.3,4.8-18.1-2.5-24c-7.3-5.9-18.1-4.8-24,2.5c-5.9,7.3-4.8,18.1,2.5,24
		c6.3,5.1,15.2,5.1,21.5,0l12.5,12.5c0.4,0.4,0.9,0.4,1.3,0l1.3-1.3C48.7,47.1,48.7,46.5,48.4,46.2z M22.6,36.4
		c-7.4,0-13.5-6-13.5-13.5c0-7.4,6-13.5,13.5-13.5c7.4,0,13.5,6,13.5,13.5C36.1,30.4,30.1,36.4,22.6,36.4z"/>
</g>
</svg>
