<?xml version="1.0" encoding="utf-8"?>
<!-- Generator: Adobe Illustrator 23.1.1, SVG Export Plug-In . SVG Version: 6.00 Build 0)  -->
<svg version="1.1" id="Layer_1" xmlns="http://www.w3.org/2000/svg" xmlns:xlink="http://www.w3.org/1999/xlink" x="0px" y="0px"
	 viewBox="0 0 55 55" style="enable-background:new 0 0 55 55;" xml:space="preserve">
<style type="text/css">
	.st0{fill:none;}
	.st1{fill:#264A9F;}
	.st2{fill:none;stroke:#264A9F;stroke-miterlimit:10;}
</style>
<g>
	<rect x="30.8" y="14.5" transform="matrix(0.7071 -0.7071 0.7071 0.7071 -3.4129 27.7788)" class="st0" width="2.1" height="6.9"/>
	<path class="st0" d="M38.6,16.1c1.1-1.1,1.1-2.9,0-4l-0.9-0.9c-0.5-0.5-1.2-0.8-2-0.8c-0.8,0-1.5,0.3-2,0.8l-1.3,1.3l4.9,4.9
		L38.6,16.1z"/>
	
		<rect x="16.2" y="22.8" transform="matrix(0.7071 -0.7071 0.7071 0.7071 -11.6645 24.3602)" class="st0" width="14.7" height="6.9"/>
	<polygon class="st0" points="14.3,32.1 13,36.8 17.7,35.4 	"/>
	<path class="st1" d="M10.6,40.7c0.1,0,0.3,0,0.4-0.1l9.6-2.7c0.6-0.2,1.2-0.5,1.7-1l18.6-18.6c2.4-2.4,2.4-6.2,0-8.6L40,8.9
		c-2.4-2.4-6.2-2.4-8.6,0L12.8,27.5c-0.4,0.4-0.8,1-1,1.6L9,38.7c-0.2,0.6,0,1.2,0.4,1.6C9.7,40.6,10.1,40.7,10.6,40.7z M33.7,11.2
		c0.5-0.5,1.2-0.8,2-0.8c0.8,0,1.5,0.3,2,0.8l0.9,0.9c1.1,1.1,1.1,2.9,0,4l-1.3,1.3l-4.9-4.9L33.7,11.2z M30.1,14.8l4.9,4.9
		l-1.5,1.5l-4.9-4.9L30.1,14.8z M26.3,18.6l4.9,4.9L20.8,33.9L15.9,29L26.3,18.6z M14.3,32.1l3.4,3.4L13,36.8L14.3,32.1z"/>
	<path class="st1" d="M44.1,46.9H10.7c-0.9,0-1.6,0.7-1.6,1.6c0,0.9,0.7,1.6,1.6,1.6h33.4c0.9,0,1.6-0.7,1.6-1.6
		C45.7,47.7,45,46.9,44.1,46.9z"/>
</g>
</svg>
