<?xml version="1.0" encoding="utf-8"?>
<!-- Generator: Adobe Illustrator 23.1.1, SVG Export Plug-In . SVG Version: 6.00 Build 0)  -->
<svg version="1.1" id="Layer_1" xmlns="http://www.w3.org/2000/svg" xmlns:xlink="http://www.w3.org/1999/xlink" x="0px" y="0px"
	 viewBox="0 0 55 55" style="enable-background:new 0 0 55 55;" xml:space="preserve">
<style type="text/css">
	.st0{fill:none;}
	.st1{fill:#264A9F;}
	.st2{fill:none;stroke:#264A9F;stroke-miterlimit:10;}
</style>
<g>
	<path class="st0" d="M16.6,9.2c-1.1-0.9-2.7-1-3.9-0.2c-0.5,0.4-0.9,0.9-1,1.4c-0.1,0.7,0.1,1.4,0.4,2.3c0.1,0.3,0.2,0.6,0.3,0.9
		c0.4,1.3,0.3,2.5-0.2,3.4c0.4,0,0.7-0.1,1.1-0.2c1.2-0.3,2.2-1,2.8-2c0-0.1,0.1-0.1,0.1-0.2c-0.1-0.6-0.2-1.3-0.2-2
		C16,11.5,16.3,10.3,16.6,9.2C16.6,9.2,16.6,9.2,16.6,9.2z"/>
	<path class="st0" d="M24.2,25.6c-3.9,0-7.1,3.2-7.1,7.1v5.9v11.2h5h14.7V32.7c0-3.9-3.2-7.1-7.1-7.1H24.2z"/>
	<path class="st0" d="M26.9,5.1c-4.3,0-7.7,3.5-7.7,7.7c0,4.3,3.5,7.7,7.7,7.7c4.3,0,7.7-3.5,7.7-7.7C34.6,8.5,31.2,5.1,26.9,5.1z"
		/>
	<path class="st0" d="M40.6,9c-1-0.7-2.5-0.7-3.6,0c0.5,1.2,0.7,2.5,0.7,3.8c0,0.8-0.1,1.7-0.3,2.5c0.6,0.8,1.5,1.4,2.6,1.7
		c0.4,0.1,0.7,0.2,1.1,0.2c-0.5-1-0.6-2.1-0.2-3.4c0.1-0.3,0.2-0.6,0.3-0.9c0.3-0.9,0.5-1.6,0.4-2.3C41.5,9.8,41.1,9.3,40.6,9z"/>
	<path class="st1" d="M45,17.2c-0.2-0.4-0.6-0.7-0.8-0.8c0,0-0.1-0.1-0.1-0.1c-0.2-0.2-0.3-0.3-0.4-0.4c-0.3-0.4-0.2-1-0.1-1.5
		c0.1-0.3,0.2-0.5,0.3-0.8c0.4-1.1,0.8-2.3,0.5-3.8c-0.3-1.3-1-2.4-2.1-3.2c-1.9-1.3-4.5-1.3-6.4-0.2c-2-2.8-5.2-4.6-8.8-4.6
		c-3.7,0-7,1.9-9,4.8c-2-1.4-4.7-1.4-6.7,0C10.1,7.4,9.3,8.6,9,9.8c-0.3,1.4,0.1,2.7,0.5,3.8c0.1,0.3,0.2,0.5,0.3,0.8
		c0.1,0.5,0.2,1.1-0.1,1.5c-0.1,0.1-0.2,0.3-0.4,0.4c0,0-0.1,0.1-0.1,0.1c-0.2,0.2-0.6,0.4-0.8,0.8C8,17.8,8.2,18.6,8.8,19
		c1,0.7,2.1,0.8,3.1,0.8c0.9,0,1.7-0.2,2.1-0.3c1.2-0.3,2.4-1,3.3-1.8c1.1,2.1,2.9,3.8,5.1,4.8c-4.8,0.9-8.4,5.1-8.4,10.1v4.6V53H22
		h14.7h1.6h1.6V32.7c0-5-3.6-9.2-8.4-10.1c2.1-1,3.8-2.6,4.9-4.6c0.9,0.7,1.9,1.2,3,1.5c0.5,0.1,1.2,0.3,2.1,0.3
		c1,0,2.1-0.2,3.1-0.8C45.1,18.6,45.3,17.8,45,17.2z M16.2,14.8c0,0.1-0.1,0.1-0.1,0.2c-0.6,0.9-1.6,1.7-2.8,2
		c-0.4,0.1-0.7,0.2-1.1,0.2c0.5-1,0.6-2.1,0.2-3.4c-0.1-0.3-0.2-0.6-0.3-0.9c-0.3-0.9-0.5-1.6-0.4-2.3c0.1-0.6,0.5-1.1,1-1.4
		c1.1-0.8,2.8-0.7,3.9,0.2c0,0,0,0,0,0c-0.4,1.1-0.6,2.3-0.6,3.6C16,13.5,16.1,14.1,16.2,14.8z M36.8,32.7v17.1H22h-5V38.6v-5.9
		c0-3.9,3.2-7.1,7.1-7.1h5.5C33.6,25.6,36.8,28.8,36.8,32.7z M26.9,20.5c-4.3,0-7.7-3.5-7.7-7.7c0-4.3,3.5-7.7,7.7-7.7
		c4.3,0,7.7,3.5,7.7,7.7C34.6,17,31.2,20.5,26.9,20.5z M41.2,12.7c-0.1,0.3-0.2,0.6-0.3,0.9c-0.4,1.3-0.3,2.5,0.2,3.4
		c-0.4,0-0.7-0.1-1.1-0.2c-1-0.3-2-0.9-2.6-1.7c0.2-0.8,0.3-1.6,0.3-2.5c0-1.4-0.2-2.6-0.7-3.8c1.1-0.7,2.5-0.7,3.6,0
		c0.5,0.4,0.9,0.9,1,1.4C41.8,11.1,41.5,11.8,41.2,12.7z"/>
</g>
</svg>
