<?xml version="1.0" encoding="utf-8"?>
<!-- Generator: Adobe Illustrator 23.1.1, SVG Export Plug-In . SVG Version: 6.00 Build 0)  -->
<svg version="1.1" id="Layer_1" xmlns="http://www.w3.org/2000/svg" xmlns:xlink="http://www.w3.org/1999/xlink" x="0px" y="0px"
	 viewBox="0 0 55 55" style="enable-background:new 0 0 55 55;" xml:space="preserve">
<style type="text/css">
	.st0{fill:none;}
	.st1{fill:#264A9F;}
	.st2{fill:none;stroke:#264A9F;stroke-miterlimit:10;}
</style>
<g>
	<path class="st0" d="M8.1,31v7.2c0,0,0,0,0,0.1c0,1.2,0.9,2.3,2.2,2.3h3v-12h-3C9,28.6,8.1,29.7,8.1,31z"/>
	<path class="st0" d="M43.8,28.5h-2.4v12h2.4c0.7,0,2.2-0.2,2.2-1.8v-7.2C46,30.3,45.1,28.5,43.8,28.5z"/>
	<path class="st0" d="M28.4,44.3c-1.9,0-3.4,1.6-3.3,3.5c0.1,1.9,1.6,3.4,3.4,3.4c0.9,0,1.8-0.4,2.5-1.1c0.6-0.6,0.9-1.4,0.9-2.3
		c0,0,0-0.1,0-0.1C31.8,45.7,30.3,44.2,28.4,44.3z"/>
	<path class="st1" d="M43.8,26.2h-0.1v-2.8c0-9-7.3-16.4-16.4-16.4C18.3,7,11,14.4,11,23.4v2.8h-0.7c-2.6,0.1-4.6,2.3-4.5,4.8v7.2
		c-0.1,2.5,1.9,4.6,4.4,4.6h4.3c0.6,0,1.1-0.5,1-1.1c0,0,0,0,0-0.1V27.6c0-0.7-0.4-1.4-1-1.4h-1.3v-2.8c0-7.8,6.3-14.1,14.1-14.1
		c7.8,0,14.1,6.3,14.1,14.1v2.8h-1.3c-0.6,0-1,0.7-1,1.4v14.1c-0.1,0.6,0.4,1.1,1,1.2h0.1h1.3L41.4,43c-1.7,2.3-4.4,3.6-7.3,3.6
		c-0.6-3.1-3.6-5.1-6.7-4.4c-2.6,0.5-4.5,2.8-4.5,5.5c0,3.1,2.6,5.7,5.7,5.7c1.6,0,3-0.7,4.1-1.8c0.7-0.8,1.2-1.7,1.4-2.7
		c3.6,0,7-1.7,9.1-4.5l1.1-1.6c2.2,0.1,4-1.6,4-3.8c0-0.1,0-0.1,0-0.2v-7.2C48.3,29.1,46.5,26.2,43.8,26.2z M13.3,40.6h-3
		c-1.2,0-2.2-1.1-2.2-2.3c0,0,0,0,0-0.1V31c-0.1-1.3,0.9-2.4,2.2-2.5h3V40.6z M31.9,47.7c0,0.9-0.3,1.7-0.9,2.3
		c-0.6,0.7-1.5,1.1-2.5,1.1c-1.9,0-3.4-1.5-3.4-3.4c0-1.9,1.4-3.4,3.3-3.5c1.9,0,3.4,1.4,3.5,3.3C31.9,47.6,31.9,47.7,31.9,47.7z
		 M46,38.8c0,1.5-1.5,1.8-2.2,1.8h-2.4v-12h2.4c1.3,0,2.2,1.8,2.2,3.1V38.8z"/>
</g>
</svg>
