<?xml version="1.0" encoding="utf-8"?>
<!-- Generator: Adobe Illustrator 23.1.1, SVG Export Plug-In . SVG Version: 6.00 Build 0)  -->
<svg version="1.1" id="Layer_1" xmlns="http://www.w3.org/2000/svg" xmlns:xlink="http://www.w3.org/1999/xlink" x="0px" y="0px"
	 viewBox="0 0 55 55" style="enable-background:new 0 0 55 55;" xml:space="preserve">
<style type="text/css">
	.st0{fill:none;}
	.st1{fill:#264A9F;}
	.st2{fill:none;stroke:#264A9F;stroke-miterlimit:10;}
</style>
<g>
	<path class="st1" d="M30.2,19c3.2-1.5,5.4-4.7,5.4-8.4c0-5.1-4.1-9.2-9.2-9.2c-5.1,0-9.2,4.1-9.2,9.2c0,3.7,2.2,6.9,5.4,8.4
		c-4.1,0.7-7.2,4.3-7.2,8.6v3.9V53h6.9h12.6h1.3h1.3V27.6C37.4,23.3,34.3,19.8,30.2,19z M19.8,10.7c0-3.6,2.9-6.6,6.6-6.6
		s6.6,2.9,6.6,6.6c0,3.6-2.9,6.6-6.6,6.6C22.7,17.2,19.8,14.3,19.8,10.7z M34.7,50.3H22.2H18V32.6v-5c0-3.3,2.7-6.1,6.1-6.1h4.6
		c3.3,0,6.1,2.7,6.1,6.1V50.3z"/>
</g>
</svg>
