<?xml version="1.0" encoding="utf-8"?>
<!-- Generator: Adobe Illustrator 23.1.1, SVG Export Plug-In . SVG Version: 6.00 Build 0)  -->
<svg version="1.1" id="Layer_1" xmlns="http://www.w3.org/2000/svg" xmlns:xlink="http://www.w3.org/1999/xlink" x="0px" y="0px"
	 viewBox="0 0 55 55" style="enable-background:new 0 0 55 55;" xml:space="preserve">
<style type="text/css">
	.st0{fill:none;}
	.st1{fill:#264A9F;}
	.st2{fill:none;stroke:#264A9F;stroke-miterlimit:10;}
</style>
<g>
	<path class="st1" d="M20.1,40.7c0.3,0.3,7.7,6.5,16,7.8c0.3,0.1,1,0.2,2.1,0.2c2.3,0,5.9-0.6,8.8-3.9c0.4-0.4,1.5-1.4,1.7-3
		c0.2-1.4-0.3-2.7-1.3-4.1c-0.1-0.1-0.1-0.1-0.2-0.2L41,31.6c-0.9-0.9-3-2.1-5.7-0.5c-0.1,0.1-0.2,0.2-0.3,0.2l-2.8,2.8
		c-2.4-1.4-8.7-5.6-11.9-11.8l2-2c0.3-0.3,1.7-1.6,1.7-3.6c0.1-1-0.2-2.4-1.6-3.8l-6-6c-0.1-0.1-0.1-0.1-0.2-0.2
		c-1.1-0.8-3.8-1.7-6.1,0.4c-0.3,0.3-5.9,5-4.1,13.1C6.2,21.6,7.3,29.5,20.1,40.7z M12.1,9.5c1.1-0.9,2.1-0.5,2.4-0.3l5.9,5.8
		c0.5,0.6,0.8,1.1,0.8,1.5c0,0.7-0.6,1.3-0.8,1.5c-0.1,0-0.1,0.1-0.1,0.1l-2.8,2.8c-0.5,0.5-0.6,1.1-0.3,1.7
		c4.1,9.3,14.1,14.5,14.6,14.7c0.6,0.3,1.3,0.2,1.8-0.3l3.5-3.4c1-0.6,1.6-0.2,1.8,0c0.1,0.1,0.1,0.1,0.1,0.1l6,5.9
		c0.5,0.6,0.7,1.2,0.7,1.7C45.5,42,45,42.4,45,42.4l0,0c-0.1,0.1-0.2,0.2-0.3,0.3c-3.2,3.8-7.9,2.9-8.1,2.8c-0.1,0-0.1,0-0.1,0
		c-7.5-1.1-14.4-7-14.5-7.1C9.6,27.5,9.1,20.2,9,20c0-0.1,0-0.2-0.1-0.3C7.6,13.4,11.9,9.7,12.1,9.5z"/>
</g>
</svg>
