<?xml version="1.0" encoding="utf-8"?>
<!-- Generator: Adobe Illustrator 23.1.1, SVG Export Plug-In . SVG Version: 6.00 Build 0)  -->
<svg version="1.1" id="Layer_1" xmlns="http://www.w3.org/2000/svg" xmlns:xlink="http://www.w3.org/1999/xlink" x="0px" y="0px"
	 viewBox="0 0 55 55" style="enable-background:new 0 0 55 55;" xml:space="preserve">
<style type="text/css">
	.st0{fill:none;}
	.st1{fill:#264A9F;}
	.st2{fill:none;stroke:#264A9F;stroke-miterlimit:10;}
</style>
<g>
	<path class="st1" d="M26.1,36.6L26.1,36.6C26.1,36.6,26.1,36.6,26.1,36.6c0.1,0.1,0.3,0.2,0.4,0.3c0,0,0.1,0,0.1,0c0,0,0.1,0,0.1,0
		c0.1,0,0.2,0,0.3,0c0.1,0,0.2,0,0.3,0c0.1,0,0.1,0,0.2,0c0,0,0.1,0,0.1,0c0,0,0.1,0,0.1-0.1c0,0,0.1,0,0.1-0.1c0,0,0.1,0,0.1-0.1
		c0,0,0.1-0.1,0.1-0.1l7.2-7.2c0.5-0.5,0.5-1.4,0-1.9c-0.5-0.5-1.4-0.5-1.9,0l-4.9,4.9V7.8c0-0.7-0.6-1.3-1.3-1.3
		c-0.7,0-1.3,0.6-1.3,1.3v24.6l-4.9-4.9c-0.5-0.5-1.4-0.5-1.9,0c-0.5,0.5-0.5,1.4,0,1.9L26.1,36.6z"/>
	<path class="st1" d="M47.3,35.2c-0.7,0-1.3,0.6-1.3,1.3v8.1c0,1.2-1,2.2-2.2,2.2H10.4c-1.2,0-2.2-1-2.2-2.2v-8.1
		c0-0.7-0.6-1.3-1.3-1.3s-1.3,0.6-1.3,1.3v8.1c0,2.7,2.2,4.9,4.9,4.9h33.3c2.7,0,4.9-2.2,4.9-4.9v-8.1C48.6,35.8,48,35.2,47.3,35.2z
		"/>
</g>
</svg>
