<?xml version="1.0" encoding="utf-8"?>
<!-- Generator: Adobe Illustrator 23.1.1, SVG Export Plug-In . SVG Version: 6.00 Build 0)  -->
<svg version="1.1" id="Layer_1" xmlns="http://www.w3.org/2000/svg" xmlns:xlink="http://www.w3.org/1999/xlink" x="0px" y="0px"
	 viewBox="0 0 55 55" style="enable-background:new 0 0 55 55;" xml:space="preserve">
<style type="text/css">
	.st0{fill:none;}
	.st1{fill:#264A9F;}
	.st2{fill:none;stroke:#264A9F;stroke-miterlimit:10;}
</style>
<g>
	<path class="st0" d="M21,9.4H10.9c-0.9,0-1.7,0.7-1.7,1.7v10.1c0,0.9,0.7,1.7,1.7,1.7H21c0.9,0,1.7-0.7,1.7-1.7V11
		C22.7,10.1,22,9.4,21,9.4z"/>
	<path class="st0" d="M44.6,32.7H34.5c-0.9,0-1.7,0.7-1.7,1.7v10.1c0,0.9,0.7,1.7,1.7,1.7h10.1c0.9,0,1.7-0.7,1.7-1.7V34.3
		C46.2,33.4,45.5,32.7,44.6,32.7z"/>
	<path class="st0" d="M44.6,9.4H34.5c-0.9,0-1.7,0.7-1.7,1.7v10.1c0,0.9,0.7,1.7,1.7,1.7h10.1c0.9,0,1.7-0.7,1.7-1.7V11
		C46.2,10.1,45.5,9.4,44.6,9.4z"/>
	<path class="st0" d="M21,32.7H10.9c-0.9,0-1.7,0.7-1.7,1.7v10.1c0,0.9,0.7,1.7,1.7,1.7H21c0.9,0,1.7-0.7,1.7-1.7V34.3
		C22.7,33.4,22,32.7,21,32.7z"/>
	<path class="st1" d="M21,29.7H10.9c-2.5,0-4.6,2.1-4.6,4.6v10.1c0,2.5,2.1,4.6,4.6,4.6H21c2.5,0,4.6-2.1,4.6-4.6V34.3
		C25.7,31.8,23.6,29.7,21,29.7z M22.7,44.5c0,0.9-0.7,1.7-1.7,1.7H10.9c-0.9,0-1.7-0.7-1.7-1.7V34.3c0-0.9,0.7-1.7,1.7-1.7H21
		c0.9,0,1.7,0.7,1.7,1.7V44.5z"/>
	<path class="st1" d="M21,6.4H10.9c-2.5,0-4.6,2.1-4.6,4.6v10.1c0,2.5,2.1,4.6,4.6,4.6H21c2.5,0,4.6-2.1,4.6-4.6V11
		C25.7,8.5,23.6,6.4,21,6.4z M22.7,21.2c0,0.9-0.7,1.7-1.7,1.7H10.9c-0.9,0-1.7-0.7-1.7-1.7V11c0-0.9,0.7-1.7,1.7-1.7H21
		c0.9,0,1.7,0.7,1.7,1.7V21.2z"/>
	<path class="st1" d="M44.6,6.4H34.5c-2.5,0-4.6,2.1-4.6,4.6v10.1c0,2.5,2.1,4.6,4.6,4.6h10.1c2.5,0,4.6-2.1,4.6-4.6V11
		C49.2,8.5,47.1,6.4,44.6,6.4z M46.2,21.2c0,0.9-0.7,1.7-1.7,1.7H34.5c-0.9,0-1.7-0.7-1.7-1.7V11c0-0.9,0.7-1.7,1.7-1.7h10.1
		c0.9,0,1.7,0.7,1.7,1.7V21.2z"/>
	<path class="st1" d="M44.6,29.7H34.5c-2.5,0-4.6,2.1-4.6,4.6v10.1c0,2.5,2.1,4.6,4.6,4.6h10.1c2.5,0,4.6-2.1,4.6-4.6V34.3
		C49.2,31.8,47.1,29.7,44.6,29.7z M46.2,44.5c0,0.9-0.7,1.7-1.7,1.7H34.5c-0.9,0-1.7-0.7-1.7-1.7V34.3c0-0.9,0.7-1.7,1.7-1.7h10.1
		c0.9,0,1.7,0.7,1.7,1.7V44.5z"/>
</g>
</svg>
