<svg xmlns="http://www.w3.org/2000/svg" width="22.307" height="23.185" viewBox="0 0 22.307 23.185">
  <g id="Opened_icon_on_card" data-name="Opened icon on card" transform="translate(-562.693 -407)">
    <g id="Group_4393" data-name="Group 4393" transform="translate(562.693 407)" opacity="0.5">
      <path id="Path_2266" data-name="Path 2266" d="M1643.325,617.39h-17.253a2.534,2.534,0,0,1-2.527-2.528V605.1l.248-.181,4.188-2.794v-6.16a1.8,1.8,0,0,1,1.822-1.76h9.787a1.823,1.823,0,0,1,1.821,1.821v3.494a.693.693,0,0,1,.006.1v2.565l4.172,2.749.265.192v9.741A2.534,2.534,0,0,1,1643.325,617.39Zm-18.878-11.013v8.485a1.63,1.63,0,0,0,1.625,1.626h17.252a1.631,1.631,0,0,0,1.625-1.626v-8.485l-9.813,6a.837.837,0,0,1-.876,0l-6.546-4a.834.834,0,0,1-.207-.126Zm3.63,1.17.033.011.042.025,6.547,4,10.038-6.135-3.321-2.189v3.346a.791.791,0,0,1-.393.678l-5.912,3.449a.819.819,0,0,1-.824,0l-5.912-3.449a.79.79,0,0,1-.394-.678v-3.4l-3.339,2.228,3.411,2.085Zm.806-1.009,5.815,3.392,5.815-3.392v-6.224h-.006v-.655l-.012-.013h-2.138a2.557,2.557,0,0,1-2.6-2.5v-2.038H1629.8a.893.893,0,0,0-.919.858Zm7.78-11.43v2.037a1.654,1.654,0,0,0,1.7,1.6h2.149v-2.717a.92.92,0,0,0-.918-.918Z" transform="translate(-1623.545 -594.205)" fill="#071e54"/>
    </g>
    <g id="Group_4394" data-name="Group 4394" transform="translate(572.02 414.198)">
      <path id="Path_2267" data-name="Path 2267" d="M1720.906,666a.381.381,0,0,1,.151.025.388.388,0,0,1,.1.668l-3.092,2.356a.388.388,0,0,1-.54-.049l-.863-1.01a.388.388,0,1,1,.591-.5l.616.722,2.8-2.117A.387.387,0,0,1,1720.906,666Z" transform="translate(-1716.571 -666)" fill="#071e54" opacity="0.5"/>
    </g>
  </g>
</svg>
