<svg id="share" xmlns="http://www.w3.org/2000/svg" width="16.048" height="17.507" viewBox="0 0 16.048 17.507">
  <path id="Path_2341" data-name="Path 2341" d="M312.067,5.471A2.735,2.735,0,1,1,314.8,2.735,2.739,2.739,0,0,1,312.067,5.471Zm0-4.377a1.641,1.641,0,1,0,1.641,1.641A1.643,1.643,0,0,0,312.067,1.094Zm0,0" transform="translate(-298.755)" fill="#263453"/>
  <path id="Path_2342" data-name="Path 2342" d="M312.067,357.471a2.735,2.735,0,1,1,2.735-2.735A2.739,2.739,0,0,1,312.067,357.471Zm0-4.377a1.641,1.641,0,1,0,1.641,1.641A1.643,1.643,0,0,0,312.067,353.094Zm0,0" transform="translate(-298.755 -339.964)" fill="#263453"/>
  <path id="Path_2343" data-name="Path 2343" d="M2.735,181.471a2.735,2.735,0,1,1,2.735-2.735A2.739,2.739,0,0,1,2.735,181.471Zm0-4.377a1.641,1.641,0,1,0,1.641,1.641A1.643,1.643,0,0,0,2.735,177.094Zm0,0" transform="translate(0 -169.982)" fill="#263453"/>
  <path id="Path_2344" data-name="Path 2344" d="M120.237,100.513a.547.547,0,0,1-.271-1.022l6.769-3.859a.547.547,0,0,1,.541.951l-6.769,3.859a.548.548,0,0,1-.27.071Zm0,0" transform="translate(-115.597 -92.292)" fill="#263453"/>
  <path id="Path_2345" data-name="Path 2345" d="M127.026,276.5a.543.543,0,0,1-.27-.072l-6.769-3.859a.547.547,0,0,1,.541-.95l6.768,3.859a.547.547,0,0,1-.271,1.023Zm0,0" transform="translate(-115.618 -262.263)" fill="#263453"/>
</svg>
