<svg xmlns="http://www.w3.org/2000/svg" xmlns:xlink="http://www.w3.org/1999/xlink" width="63.398" height="37" viewBox="0 0 63.398 37"><defs><style>.a{stroke:rgba(0,0,0,0);fill:#071e54;opacity:0.5}</style><linearGradient id="a" x1="-0.15" x2="1" y2="1" gradientUnits="objectBoundingBox"><stop offset="0" stop-color="#2b3d67"/><stop offset="0.005" stop-color="#283a61"/><stop offset="1" stop-color="#18478b"/></linearGradient></defs><path class="a" d="M2763.354,1642.975a8.4,8.4,0,0,0-2.893.526l-.974-1.8.049-.018a16.075,16.075,0,0,1,4.187-.505l3.146.016a2.38,2.38,0,0,0,1.7-.719,2.432,2.432,0,0,0,.66-1.79c-.21-6.743-4.322-14.619-15.213-14.619a1.3,1.3,0,0,0-.507.106c-.747.327-1.861,1.166-1.2,3.154l-1.336-.332a1.23,1.23,0,0,0-.955.129,1.286,1.286,0,0,0-.593.8,1.269,1.269,0,0,0,.928,1.543l3.07.765c.092.23.176.438.25.627a20.111,20.111,0,0,0-5.589-.837l-.482-.008c-5.989,0-9.96,2.585-11.162,4.3-1.946-.2-3.845-.389-5.456-.546l-1.284-.123a2.3,2.3,0,0,0-2.055-2.318l-7.572-1.485c-.767-.151-1.635-.322-2.48-.51a2.3,2.3,0,0,0-2.413.8,2.332,2.332,0,0,0-.2,2.632l.825,1.617-1.593.534c-.593.2-1.207.413-1.814.59a2.609,2.609,0,0,0-1.926,2.3c-.185,1.256-.4,2.532-.6,3.765l-.27,1.612c-.02.105-.111.946-.111,1.285a2.5,2.5,0,0,0,.387,1.45,1.755,1.755,0,0,0,1.467.769,3.589,3.589,0,0,0,2.519-1.509,10.033,10.033,0,0,1,8.242-3.995l.333,0a10.112,10.112,0,0,1,7.1,3.019l-1.52,1.049a8.466,8.466,0,0,0-5.729-2.272,8.543,8.543,0,1,0,8.546,8.544,2.98,2.98,0,0,0-.042-.442c0-.014,0-.029-.006-.044l1.635-.3.161,1.8a3.111,3.111,0,0,0,.711,2.344,2.294,2.294,0,0,0,1.719.765h.236v-.008h14.916a2.324,2.324,0,0,0,2.487-2.708c-.086-2.718,1.062-7.582,4.552-10.063l1,1.857a8.514,8.514,0,1,0,5.132-1.744Zm-28.217,9.567a27.134,27.134,0,0,0-.516-3.94v0c-.143-.62-.278-1.14-.291-1.173a3.288,3.288,0,0,0-.122-.313c-.026-.061-.053-.122-.077-.186l-.089-.3a1.151,1.151,0,0,0-.148-.292,12.684,12.684,0,0,0-1.38-2.565l-.012-.036-.029-.03a.349.349,0,0,0-.054-.054,12.349,12.349,0,0,0-9.909-5.01l-.393-.005a12.427,12.427,0,0,0-9.926,4.574l.154-.925c.228-1.344.463-2.733.663-4.1a1.164,1.164,0,0,1,.043-.205l.064-.019c.658-.19,1.319-.415,1.938-.629l2.806-.941,10.523-.315,2.364.232c1.941.189,3.851.376,6.01.591h.023a.4.4,0,0,0,.138-.025,16.125,16.125,0,0,0,7.277,1.795c6.984,0,12.134-4.733,12.357-4.941a1.279,1.279,0,0,0,.3-.454.416.416,0,0,0,.021-.1,1.235,1.235,0,0,0,.053-.445.32.32,0,0,0,0-.108,19.861,19.861,0,0,0-1.474-4.171l-.158-.43c-.15-.411-.328-.893-.513-1.358l-.012-.03c8.433.336,11.643,6.352,11.841,12.012l-2.91-.014h-.021a18.127,18.127,0,0,0-5,.656c-4.894,1.515-7.471,6.344-8.252,10.367-.009.051-.2,1.262-.262,2.1-.005.1-.011.191-.017.287-.021.319-.042.649-.032.968,0,.03,0,.057,0,.083l-.022,0h-14.93a1.631,1.631,0,0,1-.031-.524v-.022Zm24.323-5.538,2.341,4.328a1.274,1.274,0,1,0,2.24-1.213l-2.342-4.33a5.7,5.7,0,0,1,1.657-.259,6.063,6.063,0,1,1-3.9,1.475Zm-27.6,1.237-5.037.936,4.228-2.92a10.094,10.094,0,0,1,.64,1.4Zm-13.442-14.423-.9-1.9c.715.154,1.43.3,2.061.42l6.615,1.25Zm20.769,1.271a13.615,13.615,0,0,1,8.418-2.535l.425.008a17.5,17.5,0,0,1,4.907.739C2750.176,1635.134,2745.073,1637.461,2739.19,1635.088Zm-16.888,22.425a5.992,5.992,0,1,1,3.579-10.775l-5.408,3.735a1.274,1.274,0,0,0,.724,2.322,1.422,1.422,0,0,0,.233-.022l6.867-1.275c0,.008,0,.015,0,.023A6,6,0,0,1,2722.3,1657.513Z" transform="translate(-2709 -1623.564)"/></svg>