<svg xmlns="http://www.w3.org/2000/svg" xmlns:xlink="http://www.w3.org/1999/xlink" width="114.073" height="139.169" viewBox="0 0 114.073 139.169"><defs><linearGradient id="a" x1="0.472" y1="0.073" x2="0.85" y2="0.5" gradientUnits="objectBoundingBox"><stop offset="0" stop-color="#b7c1da"/><stop offset="1" stop-color="#93a4cc"/></linearGradient></defs><path d="M44.608,54.605a18.319,18.319,0,0,1,25.915,0,18.119,18.119,0,0,1,4.348,6.9s2.622.746,6.206-2.838c1.45-1.461,4.2-4.122,4.2-4.122A29.551,29.551,0,0,0,37.36,45.582L8.651,74.281h0a29.537,29.537,0,0,0,41.766,41.777L76.923,89.549a35.289,35.289,0,0,1-7.59.845,30.233,30.233,0,0,1-7.6-1.09L43.874,107.162A18.32,18.32,0,0,1,17.962,81.256Z" transform="translate(0 14.464)" fill="url(#a)"/><path d="M72.547,59.032a18.328,18.328,0,0,1-30.258-6.9s-2.619-.752-6.207,2.832c-1.452,1.456-4.2,4.126-4.2,4.126A29.558,29.558,0,0,0,79.8,68.053Z" transform="translate(12.489 20.394)" fill="url(#a)"/><path d="M80.525,14.743c6.775,4.08,12.982,10.413,7.05,31.178l12.066,3.45C107.138,23.146,99.5,11.6,91.1,6.077c-1.02-.671-4.192-2.512-4.192-2.512A29.526,29.526,0,0,0,46.882,15.489L29.049,48.465a35.3,35.3,0,0,1,7.032-2.98,30.458,30.458,0,0,1,7.59-1.122l12.02-22.218A18.321,18.321,0,0,1,80.525,14.743Z" transform="translate(11.378 -0.001)" fill="url(#a)"/></svg>