<svg xmlns="http://www.w3.org/2000/svg" width="60.273" height="72" viewBox="0 0 60.273 72"><defs><style>.a,.b{fill:#7a86a2;}.b{stroke:#7a86a2;stroke-miterlimit:10;stroke-width:0.7px;}</style></defs><g transform="translate(-1227 -646)"><g transform="translate(1227 646)"><g transform="translate(0 0)"><g transform="translate(0 0)"><path class="a" d="M44.006,959.368a.837.837,0,0,0-.366.157,107.476,107.476,0,0,1-29.09,15.8.837.837,0,0,0-.549.785c0,18.834,3.89,30.423,9.6,38.4s13.187,12.3,20.091,16.716a.836.836,0,0,0,.889,0c6.9-4.42,14.38-8.737,20.091-16.716s9.6-19.569,9.6-38.4a.837.837,0,0,0-.549-.785,107.473,107.473,0,0,1-29.09-15.8.837.837,0,0,0-.628-.157Zm.131,1.831A108.914,108.914,0,0,0,72.573,976.66c-.082,18.242-3.845,29.319-9.261,36.886-5.359,7.488-12.366,11.64-19.175,15.984-6.809-4.344-13.816-8.5-19.175-15.984-5.416-7.567-9.179-18.644-9.261-36.886A108.913,108.913,0,0,0,44.137,961.2Z" transform="translate(-14 -959.358)"/></g></g></g><g transform="translate(1244.326 659.112)"><g transform="translate(0 0)"><path class="b" d="M70.756,9a6.294,6.294,0,1,1-4.451,1.844A6.275,6.275,0,0,1,70.756,9ZM67.145,23.811l3.1,10.854h2.407A2.571,2.571,0,0,1,75.166,36.3a2.972,2.972,0,0,1,.21,1.1h0a2.975,2.975,0,0,1-.212,1.1,2.572,2.572,0,0,1-2.513,1.638H71.379a.451.451,0,0,0-.165,0H63.642v7.5h14.4V32.594a.453.453,0,0,1,.906,0V42.762a1.61,1.61,0,0,0,3.219,0V32.422a9.616,9.616,0,0,0-.3-1.75,9.137,9.137,0,0,0-4.737-5.7,14.408,14.408,0,0,0-7.753-1.5,14.741,14.741,0,0,0-2.228.344ZM70.5,35.57l1.05,3.674h1.1a1.7,1.7,0,0,0,1.674-1.069,2.068,2.068,0,0,0,.144-.769h0a2.07,2.07,0,0,0-.146-.768,1.7,1.7,0,0,0-1.674-1.068H70.5Zm-7.683,3.674.769-3.674h-.913a.453.453,0,1,1,0-.906h1.1l2.2-10.526A10.361,10.361,0,0,0,61.255,27.2a8.228,8.228,0,0,0-1.906,5.432v4.778a1.841,1.841,0,0,0,1.836,1.837Zm3.624-16.189.034-.009a15.505,15.505,0,0,1,2.826-.481,15.313,15.313,0,0,1,8.242,1.6,10.027,10.027,0,0,1,5.19,6.27,10.547,10.547,0,0,1,.33,1.938c0,.011,0,.022,0,.034h0V42.762a2.513,2.513,0,0,1-4.125,1.93V48.1a.453.453,0,0,1-.453.453h-15.3a.453.453,0,0,1-.453-.453V40.15H61.185a2.753,2.753,0,0,1-2.742-2.743V32.629a9.112,9.112,0,0,1,2.122-6.013A11.557,11.557,0,0,1,66.446,23.055Zm4.167,16.189L66.649,25.369l-2.9,13.875h6.868Zm3.953-27.76a5.389,5.389,0,1,0,1.578,3.81A5.372,5.372,0,0,0,74.566,11.484Z" transform="translate(-58.443 -9)"/></g></g></g></svg>