<svg xmlns="http://www.w3.org/2000/svg" width="64.549" height="63.611" viewBox="0 0 64.549 63.611"><defs><style>.a,.c{fill:#7a86a2;stroke-miterlimit:10;}.a,.b,.c{stroke:#7a86a2;}.a{stroke-width:1.2px;}.b{fill:none;stroke-linecap:round;stroke-width:2px;}.c{stroke-width:0.7px;}</style></defs><g transform="translate(-612.664 -648.775)"><g transform="translate(648.219 649.376)"><g transform="translate(0 0)"><g transform="translate(0 0)"><path class="a" d="M28.135,959.363a.394.394,0,0,0-.173.074,50.631,50.631,0,0,1-13.7,7.444.394.394,0,0,0-.259.37c0,8.872,1.832,14.332,4.523,18.091s6.212,5.793,9.465,7.875a.394.394,0,0,0,.419,0c3.252-2.082,6.774-4.116,9.465-7.875s4.523-9.219,4.523-18.091a.394.394,0,0,0-.259-.37,50.631,50.631,0,0,1-13.7-7.444.394.394,0,0,0-.3-.074Zm.062.863a51.306,51.306,0,0,0,13.4,7.283c-.039,8.593-1.811,13.812-4.363,17.377-2.525,3.527-5.826,5.484-9.033,7.53-3.208-2.046-6.509-4-9.033-7.53-2.551-3.565-4.324-8.783-4.363-17.377A51.306,51.306,0,0,0,28.2,960.226Z" transform="translate(-14 -959.358)"/></g></g><g transform="translate(6.467 9.487)"><line class="b" y2="14.878" transform="translate(7.439)"/><line class="b" x2="14.878" transform="translate(0 7.438)"/></g></g><g transform="translate(613.014 649.488)"><g transform="translate(0 0)"><path class="c" d="M77.913,9a9.953,9.953,0,1,1-7.037,2.915A9.922,9.922,0,0,1,77.913,9ZM72.2,32.42l4.9,17.163h3.807a4.066,4.066,0,0,1,3.973,2.59,4.7,4.7,0,0,1,.332,1.747h0a4.7,4.7,0,0,1-.335,1.747,4.067,4.067,0,0,1-3.973,2.591H78.9a.714.714,0,0,0-.261,0H66.664V70.115H89.428V46.309a.716.716,0,0,1,1.432,0V62.387a2.545,2.545,0,0,0,5.09,0V46.037a15.2,15.2,0,0,0-.475-2.767,14.448,14.448,0,0,0-7.49-9.02,22.783,22.783,0,0,0-12.26-2.375,23.309,23.309,0,0,0-3.524.545Zm5.313,18.595,1.66,5.809h1.737a2.692,2.692,0,0,0,2.647-1.69,3.27,3.27,0,0,0,.228-1.215h0A3.273,3.273,0,0,0,83.56,52.7a2.692,2.692,0,0,0-2.647-1.689ZM65.367,56.824l1.216-5.809H65.14a.716.716,0,1,1,0-1.432h1.743l3.483-16.645a16.384,16.384,0,0,0-7.476,4.836,13.01,13.01,0,0,0-3.014,8.59v7.555a2.911,2.911,0,0,0,2.9,2.905Zm5.73-25.6.054-.015a24.517,24.517,0,0,1,4.469-.761,24.213,24.213,0,0,1,13.032,2.537A15.855,15.855,0,0,1,96.858,42.9a16.677,16.677,0,0,1,.522,3.065c0,.018,0,.035,0,.053h0V62.387a3.973,3.973,0,0,1-6.523,3.051v5.393a.716.716,0,0,1-.716.716h-24.2a.716.716,0,0,1-.716-.716V58.256H62.779a4.353,4.353,0,0,1-4.336-4.338V46.364A14.408,14.408,0,0,1,61.8,36.857,18.275,18.275,0,0,1,71.1,31.225Zm6.59,25.6-6.269-21.94-4.591,21.94h10.86Zm6.251-43.9a8.521,8.521,0,1,0,2.5,6.025A8.495,8.495,0,0,0,83.938,12.928Z" transform="translate(-58.443 -9)"/></g></g></g></svg>