<svg xmlns="http://www.w3.org/2000/svg" width="21.427" height="24.427" viewBox="0 0 21.427 24.427"><defs><style>.a{fill:#071e54;stroke:rgba(0,0,0,0);opacity:0.5;}</style></defs><g transform="translate(0.5 0.5)"><path class="a" d="M17.378,15.327h2.267a.378.378,0,0,0,.378-.378V13.438a.378.378,0,0,0-.378-.378H17.378a.378.378,0,0,0-.378.378v1.511A.378.378,0,0,0,17.378,15.327Zm.378-1.511h1.511v.756H17.756Z" transform="translate(-12.065 -9.992)"/><path class="a" d="M22.378,15.327h2.267a.378.378,0,0,0,.378-.378V13.438a.378.378,0,0,0-.378-.378H22.378a.378.378,0,0,0-.378.378v1.511A.378.378,0,0,0,22.378,15.327Zm.378-1.511h1.511v.756H22.756Z" transform="translate(-13.287 -9.992)"/><path class="a" d="M27.378,15.327h2.267a.378.378,0,0,0,.378-.378V13.438a.378.378,0,0,0-.378-.378H27.378a.378.378,0,0,0-.378.378v1.511A.378.378,0,0,0,27.378,15.327Zm.378-1.511h1.511v.756H27.756Z" transform="translate(-14.508 -9.992)"/><path class="a" d="M17.378,20.327h2.267a.378.378,0,0,0,.378-.378V18.438a.378.378,0,0,0-.378-.378H17.378a.378.378,0,0,0-.378.378v1.511A.378.378,0,0,0,17.378,20.327Zm.378-1.511h1.511v.756H17.756Z" transform="translate(-12.065 -11.213)"/><path class="a" d="M22.378,20.327h2.267a.378.378,0,0,0,.378-.378V18.438a.378.378,0,0,0-.378-.378H22.378a.378.378,0,0,0-.378.378v1.511A.378.378,0,0,0,22.378,20.327Zm.378-1.511h1.511v.756H22.756Z" transform="translate(-13.287 -11.213)"/><path class="a" d="M27.378,20.327h2.267a.378.378,0,0,0,.378-.378V18.438a.378.378,0,0,0-.378-.378H27.378a.378.378,0,0,0-.378.378v1.511A.378.378,0,0,0,27.378,20.327Zm.378-1.511h1.511v.756H27.756Z" transform="translate(-14.508 -11.213)"/><path class="a" d="M17.378,25.327h2.267a.378.378,0,0,0,.378-.378V23.438a.378.378,0,0,0-.378-.378H17.378a.378.378,0,0,0-.378.378v1.511A.378.378,0,0,0,17.378,25.327Zm.378-1.511h1.511v.756H17.756Z" transform="translate(-12.065 -12.435)"/><path class="a" d="M22.378,25.327h2.267a.378.378,0,0,0,.378-.378V23.438a.378.378,0,0,0-.378-.378H22.378a.378.378,0,0,0-.378.378v1.511A.378.378,0,0,0,22.378,25.327Zm.378-1.511h1.511v.756H22.756Z" transform="translate(-13.287 -12.435)"/><path class="a" d="M27.378,25.327h2.267a.378.378,0,0,0,.378-.378V23.438a.378.378,0,0,0-.378-.378H27.378a.378.378,0,0,0-.378.378v1.511A.378.378,0,0,0,27.378,25.327Zm.378-1.511h1.511v.756H27.756Z" transform="translate(-14.508 -12.435)"/><path class="a" d="M19.645,30.327a.378.378,0,0,0,.378-.378V28.438a.378.378,0,0,0-.378-.378H17.378a.378.378,0,0,0-.378.378v1.511a.378.378,0,0,0,.378.378Zm-1.889-1.511h1.511v.756H17.756Z" transform="translate(-12.065 -13.656)"/><path class="a" d="M22.378,30.327h2.267a.378.378,0,0,0,.378-.378V28.438a.378.378,0,0,0-.378-.378H22.378a.378.378,0,0,0-.378.378v1.511A.378.378,0,0,0,22.378,30.327Zm.378-1.511h1.511v.756H22.756Z" transform="translate(-13.287 -13.656)"/><path class="a" d="M10.47,32.049a.378.378,0,0,0,.378.378H30.519a.378.378,0,1,0,0-.756H28.252V10.927A1.935,1.935,0,0,0,26.325,9H15.065a1.935,1.935,0,0,0-1.927,1.927V31.671H10.871a.385.385,0,0,0-.4.378Zm12.092-.378H18.783V27.893h3.779ZM13.893,10.927a1.179,1.179,0,0,1,1.171-1.171h11.26A1.179,1.179,0,0,1,27.5,10.927V31.671H23.34V27.515a.378.378,0,0,0-.378-.378H18.428a.378.378,0,0,0-.378.378v4.156H13.893Z" transform="translate(-10.47 -9)"/></g></svg>