<svg id="Layer_1" data-name="Layer 1" xmlns="http://www.w3.org/2000/svg" viewBox="0 0 22.7 23.73"><defs><style>.cls-1{fill:#071e54;opacity:0.5;isolation:isolate;}.cls-2{fill:#dadce5;stroke:#6e7b9a;stroke-linecap:round;stroke-width:0.7px;}</style></defs><path class="cls-1" d="M5.81,5.84H8.08a.38.38,0,0,0,.38-.38h0V4a.38.38,0,0,0-.38-.38H5.81A.38.38,0,0,0,5.44,4h0V5.46a.38.38,0,0,0,.37.38Zm.38-1.52H7.7v.76H6.19Z" transform="translate(-0.5 -0.5)"/><path class="cls-1" d="M9.59,5.84h2.27a.38.38,0,0,0,.38-.38h0V4a.38.38,0,0,0-.38-.38H9.59A.38.38,0,0,0,9.21,4h0V5.46a.38.38,0,0,0,.38.38ZM10,4.32h1.51v.76H10Z" transform="translate(-0.5 -0.5)"/><path class="cls-1" d="M13.37,5.84h2.27A.38.38,0,0,0,16,5.46h0V4a.38.38,0,0,0-.38-.38H13.37A.38.38,0,0,0,13,4h0V5.46a.38.38,0,0,0,.38.38Zm.38-1.52h1.51v.76H13.75Z" transform="translate(-0.5 -0.5)"/><path class="cls-1" d="M5.81,9.61H8.08a.38.38,0,0,0,.38-.37h0V7.72a.38.38,0,0,0-.38-.37H5.81a.38.38,0,0,0-.37.37h0V9.24a.38.38,0,0,0,.37.37ZM6.19,8.1H7.7v.76H6.19Z" transform="translate(-0.5 -0.5)"/><path class="cls-1" d="M9.59,9.61h2.27a.38.38,0,0,0,.38-.37h0V7.72a.38.38,0,0,0-.38-.37H9.59a.38.38,0,0,0-.38.37h0V9.24a.38.38,0,0,0,.38.37ZM10,8.1h1.51v.76H10Z" transform="translate(-0.5 -0.5)"/><path class="cls-1" d="M13.37,9.61h2.27A.38.38,0,0,0,16,9.24h0V7.72a.38.38,0,0,0-.38-.37H13.37a.38.38,0,0,0-.38.37h0V9.24a.38.38,0,0,0,.38.37Zm.38-1.51h1.51v.76H13.75Z" transform="translate(-0.5 -0.5)"/><path class="cls-1" d="M5.81,13.39H8.08A.38.38,0,0,0,8.46,13h0V11.5a.38.38,0,0,0-.38-.38H5.81a.38.38,0,0,0-.37.38h0V13a.38.38,0,0,0,.37.38Zm.38-1.51H7.7v.76H6.19Z" transform="translate(-0.5 -0.5)"/><path class="cls-1" d="M9.59,13.39h2.27a.38.38,0,0,0,.38-.38h0V11.5a.38.38,0,0,0-.38-.38H9.59a.38.38,0,0,0-.38.38h0V13a.38.38,0,0,0,.38.38ZM10,11.88h1.51v.76H10Z" transform="translate(-0.5 -0.5)"/><path class="cls-1" d="M13.37,13.39h2.27A.38.38,0,0,0,16,13h0V11.5a.38.38,0,0,0-.38-.38H13.37a.38.38,0,0,0-.38.38h0V13a.38.38,0,0,0,.38.38Zm.38-1.51h1.51v.76H13.75Z" transform="translate(-0.5 -0.5)"/><path class="cls-1" d="M8.08,17.17a.38.38,0,0,0,.38-.38h0V15.28a.38.38,0,0,0-.38-.38H5.81a.38.38,0,0,0-.37.38h0v1.51a.38.38,0,0,0,.37.38H8.08ZM6.19,15.66H7.7v.76H6.19Z" transform="translate(-0.5 -0.5)"/><path class="cls-1" d="M9.59,17.17h2.27a.38.38,0,0,0,.38-.38h0V15.28a.38.38,0,0,0-.38-.38H9.59a.38.38,0,0,0-.38.38h0v1.51a.38.38,0,0,0,.38.38ZM10,15.66h1.51v.76H10Z" transform="translate(-0.5 -0.5)"/><path class="cls-1" d="M.5,23.55a.38.38,0,0,0,.38.38H20.55a.38.38,0,0,0,0-.76H18.28V2.43A1.92,1.92,0,0,0,16.35.5H5.09A1.92,1.92,0,0,0,3.17,2.43V23.17H.9a.39.39,0,0,0-.4.37Zm12.09-.38H8.81V19.39h3.78ZM3.92,2.43A1.18,1.18,0,0,1,5.09,1.26H16.35a1.17,1.17,0,0,1,1.18,1.17V23.17H13.37V19a.38.38,0,0,0-.38-.37H8.46a.38.38,0,0,0-.38.37h0v4.16H3.92Z" transform="translate(-0.5 -0.5)"/><path class="cls-2" d="M22.84,19.4a4.48,4.48,0,1,1-8.31-2.32s.57,1.21,1.55.82a.84.84,0,0,0,.55-1,.77.77,0,0,0-.14-.25,1.6,1.6,0,0,1,.57-2.18l.21-.11c1.1-.46,1.1-2,1.1-2s1.73,1.14,1.13,2.53c-.35.82-.4,1.83.34,2.05.89.26,1.36-1,1.36-1a4.48,4.48,0,0,1,1.65,3.47Z" transform="translate(-0.5 -0.5)"/><path class="cls-2" d="M20.52,21.73a2.15,2.15,0,0,1-4.3,0h0a3.66,3.66,0,0,1,.36-1.59l.88.26a2.37,2.37,0,0,1,.91-1.86,2.67,2.67,0,0,1,.7-.44,5.4,5.4,0,0,0,1.16,2.59A1.9,1.9,0,0,1,20.52,21.73Z" transform="translate(-0.5 -0.5)"/></svg>