<svg xmlns="http://www.w3.org/2000/svg" width="74" height="74" viewBox="0 0 74 74"><defs><style>.a,.b{fill:none;}.a,.d{stroke:#7a86a2;}.a{stroke-width:2px;}.c,.d{fill:#7a86a2;}.d{stroke-miterlimit:10;stroke-width:0.7px;}.e{stroke:none;}</style></defs><g transform="translate(-761 -644)"><g class="a" transform="translate(761 644)"><circle class="e" cx="37" cy="37" r="37"/><circle class="b" cx="37" cy="37" r="36"/></g><g transform="translate(0.914 -0.11)"><g transform="translate(780.086 659.56)"><g transform="translate(0 0)"><path class="b" d="M29.787,63.3v-.309a5.257,5.257,0,0,1-.031-7.9,3.068,3.068,0,0,0-3.035-2.653h-3.35A3.07,3.07,0,0,0,20.305,55.5V69.656h6.267V68.2A5.377,5.377,0,0,1,29.787,63.3Z" transform="translate(-18.038 -28.232)"/><path class="b" d="M42.8,65.473a3.007,3.007,0,1,0-3.007-3.007A3.01,3.01,0,0,0,42.8,65.473Z" transform="translate(-27.583 -31.671)"/><path class="b" d="M37.031,84.054h8.837V80.37a3.1,3.1,0,0,0-2.63-3.053l-.058-.01-.116-.017c-.094-.007-.191-.011-.288-.011H40.123c-.112,0-.218.005-.33.015l-.016,0a2.57,2.57,0,0,0-.454.092,3.112,3.112,0,0,0-2.292,2.984Z" transform="translate(-26.23 -40.398)"/><path class="b" d="M25.383,34.436a4.391,4.391,0,1,0-4.391-4.391A4.4,4.4,0,0,0,25.383,34.436Z" transform="translate(-18.375 -15.116)"/><path class="b" d="M65.947,15.028a5.586,5.586,0,1,0-5.586,5.586A5.592,5.592,0,0,0,65.947,15.028Z" transform="translate(-34.921 -7.175)"/><path class="b" d="M53.927,52.22a5.26,5.26,0,0,1-2.056,4.172A5.39,5.39,0,0,1,55.34,61.4v1.579H66.006V43.7a5.163,5.163,0,0,0-5.153-5.16H56.9a5.166,5.166,0,0,0-5.16,5.16v4.254A5.263,5.263,0,0,1,53.927,52.22Z" transform="translate(-33.436 -21.426)"/><path class="c" d="M37.568,50.922v-.135h.2V48.816h11.8v-.11H50.7V27.273a7.432,7.432,0,0,0-6.1-7.3,7.853,7.853,0,1,0-6.593,0,7.434,7.434,0,0,0-6.1,7.3v3.318a5.055,5.055,0,0,0-2.258.132,5.352,5.352,0,0,0-5.1-3.786H21.2a5.348,5.348,0,0,0-5.333,5.333V48.69H21.87v.127H24.4v.518h.182v1.587Zm-1.851-38.07A5.586,5.586,0,1,1,41.3,18.438,5.592,5.592,0,0,1,35.718,12.852ZM34.171,27.273a5.166,5.166,0,0,1,5.16-5.16h3.948a5.162,5.162,0,0,1,5.153,5.16V46.55H37.767V44.971A5.391,5.391,0,0,0,34.3,39.966a5.26,5.26,0,0,0-.128-8.439Zm-3.09,5.514a3.007,3.007,0,1,1-3.007,3.007A3.01,3.01,0,0,1,31.081,32.788Zm-2.126,9.2a2.57,2.57,0,0,1,.454-.092l.016,0c.112-.01.218-.015.33-.015h2.653c.1,0,.194,0,.288.011l.116.017.058.01a3.105,3.105,0,0,1,2.63,3.053v3.684H26.664V44.971A3.111,3.111,0,0,1,28.955,41.988ZM24.4,44.971v1.452H18.13V32.27A3.07,3.07,0,0,1,21.2,29.2h3.35a3.068,3.068,0,0,1,3.035,2.653,5.257,5.257,0,0,0,.031,7.9v.309A5.376,5.376,0,0,0,24.4,44.971Z" transform="translate(-15.863 -5)"/><path class="c" d="M23.208,34.527a6.657,6.657,0,1,0-6.657-6.657A6.657,6.657,0,0,0,23.208,34.527Zm0-11.047a4.391,4.391,0,1,1-4.391,4.391A4.4,4.4,0,0,1,23.208,23.48Z" transform="translate(-16.2 -12.94)"/></g></g><path class="d" d="M39.7,21.371a.726.726,0,0,0,1.027,0l4.429-4.429a3.855,3.855,0,0,0,1.128-2.728,3.887,3.887,0,0,0-.216-1.276c-.041-.118-.088-.235-.141-.348a3.859,3.859,0,0,0-5.713-1.535,3.858,3.858,0,0,0-4.943,5.887Zm-3.873-9.328a3.072,3.072,0,0,1,4.135-.191l.252.21.252-.21a3.072,3.072,0,0,1,4.749,1.069c.042.091.079.183.112.276a3.065,3.065,0,0,1,.116.43,3.126,3.126,0,0,1,.056.588,3.089,3.089,0,0,1-.032.442,3.042,3.042,0,0,1-.866,1.73l-4.386,4.386-4.387-4.386a3.076,3.076,0,0,1,0-4.344Z" transform="translate(751.873 645.753)"/></g></g></svg>