<svg xmlns="http://www.w3.org/2000/svg" width="70.865" height="41.155" viewBox="0 0 70.865 41.155"><defs><style>.a{fill:#7a86a2;}</style></defs><path class="a" d="M71.54,12.125H65.928A1.074,1.074,0,0,0,64.855,13.2V24.643c-.816-1.752-.757-2.911-1.643-2.809a.715.715,0,0,0-.637.585l-.453,2.507-2.834-2.384a.716.716,0,0,0-1.139.777l1.5,4.464-3.05-.1a.669.669,0,0,0-.7.5.717.717,0,0,0,.287.814l2.577,1.708-1.531,1.233a1.012,1.012,0,0,0-.15-.03H53.266L48.687,23.14A6.832,6.832,0,0,0,42.566,19.3H19.2a6.771,6.771,0,0,0-6.227,4.086L9.014,31.908h-4.2A3.057,3.057,0,0,0,1.8,35.518L2.945,41.96a1.073,1.073,0,0,0,.375.641c1.127.928,1.854,1.541,2.966,2.481a1.07,1.07,0,0,0,.693.254H9.836c0,.078-.023.15-.023.229a7.692,7.692,0,1,0,15.381-.229H42.346c0,.079-.023.15-.023.229a7.7,7.7,0,0,0,15.4,0c0-.08-.02-.15-.023-.229h4.059a3.085,3.085,0,0,0,2.962-2.2l.13-.439v9.511a1.074,1.074,0,0,0,1.074,1.074H71.54a1.074,1.074,0,0,0,1.074-1.074V13.2A1.074,1.074,0,0,0,71.54,12.125ZM60.369,30.052,59.077,29.2l1.562.049a.737.737,0,0,0,.6-.288.715.715,0,0,0,.1-.656l-1.017-3.02,1.825,1.535a.718.718,0,0,0,.7.125c.609-.22.453-.9.679-1.754.531,1.163.472,1.8,1.1,1.926a.729.729,0,0,0,.228,0V34.9a.7.7,0,0,0-.1.218l-.17.933-.06.2-.545-1.422a.716.716,0,0,0-1.181-.243l-1.924,1.976c.434-2.326.83-2.707.4-3.176a.715.715,0,0,0-.623-.226l-2.657.353a1.044,1.044,0,0,0,.149-.471c1.974-1.7,2.573-1.8,2.545-2.427A.717.717,0,0,0,60.369,30.052ZM46.768,24.1l4.075,7.8H32.208V21.444H42.566A4.627,4.627,0,0,1,46.768,24.1Zm-31.831.154A4.638,4.638,0,0,1,19.2,21.444H30.06V31.907H11.382Zm2.578,26.862a5.554,5.554,0,1,1,5.554-5.554A5.56,5.56,0,0,1,17.515,51.119Zm32.509,0a5.554,5.554,0,1,1,5.554-5.554A5.56,5.56,0,0,1,50.024,51.119Zm11.738-7.931h-4.41a7.7,7.7,0,0,0-14.656,0H24.843a7.849,7.849,0,0,0-7.328-5.325,7.829,7.829,0,0,0-7.328,5.325H7.372c-.861-.728-1.513-1.276-2.383-1.994l-1.078-6.06a.9.9,0,0,1,.192-.747.914.914,0,0,1,.714-.331H54.6l-.019.015a.716.716,0,0,0,.544,1.267l4.692-.623-.9,4.008a.716.716,0,0,0,1.211.656l2.913-2.992.813,2.123-1.19,4.023A.931.931,0,0,1,61.762,43.188Zm8.7,7.945H67V14.272h3.464Z" transform="translate(-1.748 -12.125)"/></svg>