<svg xmlns="http://www.w3.org/2000/svg" width="196.471" height="154.935" viewBox="0 0 196.471 154.935"><g transform="translate(-267.677 -1227.687)"><g transform="translate(277.28 1227.687)"><g transform="translate(0 8.461)" opacity="0.8"><path d="M234.854,119.511h64.794s-5.73-10.427-22.408-8.909c-15.928,1.45-16.739-5.129-24.837-5.939S237.553,110.062,234.854,119.511Z" transform="translate(-234.854 -104.592)" fill="#fafafa" stroke="rgba(0,0,0,0)" stroke-width="1"/></g><g transform="translate(94.472)" opacity="0.8"><path d="M427.381,95.483H462.71s-3.124-5.685-12.218-4.858c-8.685.791-9.127-2.8-13.543-3.239S428.853,90.331,427.381,95.483Z" transform="translate(-427.381 -87.348)" fill="#fafafa"/></g></g><path d="M3.88,35.943a45.319,45.319,0,0,0,9.62,2.022c11.1,1.465,26.318,1.986,26.318,1.986s78.215,7.135,136.836-19.4c0,0,8.527-4.917.617-11.534a25.45,25.45,0,0,0-3.87-2.6l-.1-.106A20.9,20.9,0,0,0,170.4,3.849,18.906,18.906,0,0,0,155.993.289L2.03,27.679S-3.594,32.906,3.88,35.943Z" transform="matrix(0.995, -0.105, 0.105, 0.995, 279.984, 1303.588)" fill="#99a9d2" stroke="#343434" stroke-width="0.4"/><path d="M46.437,25.153,14.205,0,0,2.7,13.909,29.3S46.067,29.586,46.437,25.153Z" transform="matrix(0.995, -0.105, 0.105, 0.995, 268, 1303.214)" fill="#99a9d2" stroke="#343434" stroke-width="0.4"/><path d="M74.549,19.8,10.348,0,0,2.379l29,14.35,9.063,11.154Z" transform="matrix(0.995, -0.105, 0.105, 0.995, 319.705, 1287.792)" fill="#99a9d2" stroke="#343434" stroke-width="0.4"/><path d="M0,28.951c11.1,1.465,26.318,1.986,26.318,1.986s78.215,7.135,136.836-19.4c0,0,8.527-4.917.617-11.534l-.027.122S151.1,9.526,90.659,17.376Z" transform="matrix(0.995, -0.105, 0.105, 0.995, 294.353, 1311.142)" fill="#f0f5fd" stroke="#343434" stroke-width="0.3"/><path d="M35.914,3.822,7.211,16.713,0,15.834,17.168,1.64S37.935-3.234,35.914,3.822Z" transform="matrix(0.995, -0.105, 0.105, 0.995, 271.47, 1338.268)" fill="#99a9d2" stroke="#343434" stroke-width="0.4"/><path d="M3.249,6.665c1.369.025,4.507-2.5,6.458-4.2A20.91,20.91,0,0,0,6.8,0C5.228,1.328,2.43,3.476.874,3.392-1.374,3.291,1.186,6.624,3.249,6.665Z" transform="matrix(0.995, -0.105, 0.105, 0.995, 443.079, 1290.316)" fill="#292949" stroke="#343434" stroke-width="0.3"/><path d="M0,50.932l18.429,1.061L70.242,13.564,79.86,6.428l4.671-3.467C75.767-5.18,40.005,6.048,40.005,6.048a3.686,3.686,0,0,0-.872,2.859,19.068,19.068,0,0,0,1.353,5.672c.086.226.14.346.14.346Z" transform="matrix(0.995, -0.105, 0.105, 0.995, 319.469, 1330.66)" fill="#99a9d2" stroke="#343434" stroke-width="0.4"/></g></svg>