<svg xmlns="http://www.w3.org/2000/svg" width="63.491" height="59.314" viewBox="0 0 63.491 59.314"><g transform="translate(0 -16.843)"><g transform="translate(0 16.843)"><path d="M60.15,26.868H44.67a13.345,13.345,0,0,0-25.851,0H3.342A3.351,3.351,0,0,0,0,30.21V72.815a3.352,3.352,0,0,0,3.342,3.342H60.15a3.351,3.351,0,0,0,3.342-3.342V30.21A3.351,3.351,0,0,0,60.15,26.868Zm-28.4-7.519a10.867,10.867,0,0,1,10.319,7.519H21.425A10.871,10.871,0,0,1,31.747,19.349ZM60.985,72.815a.847.847,0,0,1-.835.835H3.342a.847.847,0,0,1-.835-.835V55.689H23.391v2.089a3.352,3.352,0,0,0,3.342,3.342H36.758A3.352,3.352,0,0,0,40.1,57.778V55.689H60.985V72.815ZM25.9,57.778V51.095a.847.847,0,0,1,.835-.835H36.758a.847.847,0,0,1,.835.835v6.683a.847.847,0,0,1-.835.835H26.733A.847.847,0,0,1,25.9,57.778Zm35.087-4.595H40.1V51.095a3.352,3.352,0,0,0-3.342-3.342H26.733a3.352,3.352,0,0,0-3.342,3.342v2.089H2.506V30.21a.847.847,0,0,1,.835-.836H60.15a.847.847,0,0,1,.835.835V53.183Z" transform="translate(0 -16.843)" fill="#7b86a2"/></g></g></svg>