<svg xmlns="http://www.w3.org/2000/svg" width="265.807" height="182.772" viewBox="0 0 265.807 182.772"><g transform="translate(-579 -919.687)"><g transform="translate(594.28 928.148)" opacity="0.8"><path d="M234.854,119.511h64.794s-5.73-10.427-22.408-8.909c-15.928,1.45-16.739-5.129-24.837-5.939S237.553,110.062,234.854,119.511Z" transform="translate(-234.854 -104.592)" fill="#fafafa" stroke="rgba(0,0,0,0)" stroke-width="1"/></g><g transform="translate(688.752 919.687)" opacity="0.8"><g transform="translate(73)"><path d="M427.381,95.483H462.71s-3.124-5.685-12.218-4.858c-8.685.791-9.127-2.8-13.543-3.239S428.853,90.331,427.381,95.483Z" transform="translate(-427.381 -87.348)" fill="#fafafa"/></g></g><path d="M194.937,153.08l-.263-.4c-.047-.07-.567-.008-.648-.008-.365,0-.27-.093-.27-.5,0-.194-.432-.093-.574-.093-.324,0,.014.412-.135.6-.067.093-.675,0-.783,0-.182,0-.236.07-.236-.132V149.57c0-.287-.169-1.056.216-.955a15.826,15.826,0,0,0-1.107-1.708c-.371-.567-.743-1.126-1.107-1.692-.391.6-.783,1.188-1.168,1.786a15.081,15.081,0,0,0-1.053,1.615c.371-.1.222.5.222.784v2.065a4.309,4.309,0,0,1,0,1.18c-.067.07-.506,0-.581,0H186.8c-.04,0,.027-.567-.027-.567h-.641c-.054,0,.027.567-.027.567h-.729c-.277,0-.553.676-.708.916-.25.388-.507.784-.763,1.18V142.9c0-.179-.183-.093-.317-.093-.331,0-.317.047-.317-.326v-1.964c0-.342-.256-.21-.506-.21h-.992c-.176,0-.081-.878-.081-1.056v-5.567c0-.023-.668-.007-.736-.007-.23,0-.115-.567-.115-.792a5.188,5.188,0,0,0-.79-.015c-.419,0-.317.085-.317.559,0,.349-.1.249-.4.249H178.2c-.209,0-.115-.3-.115-.5v-1.157c0-.023-.682-.015-.756-.015-.108,0-.047-.761-.047-.893,0-.279.034-.272-.189-.272h-2.842c-.014,0-.007.823-.007.893,0,.419-.2.272-.54.272s-.27.023-.27.4v1.234c0,.085-.5.039-.574.039h-1.04c-.067,0-.034-.684-.034-.792a6.3,6.3,0,0,0-.87-.015c-.344,0-.229.179-.229.559,0,.194.047.249-.115.249h-.547c-.189,0-.189-.047-.189.155v6.436a6.254,6.254,0,0,1-1.31.039c-.364,0-.277.1-.277.489v1.087a3.246,3.246,0,0,1,0,.924c-.06.085-.627-.093-.627.031v2a8.078,8.078,0,0,0-11.071.186V127.389c0-.357-.587-.163-.83-.163-.054,0,.027-.357-.014-.4s-.338,0-.391,0c-.1,0-.29.047-.385,0-.034-.007.034-.163-.02-.163h-7.25c-.142,0-.148.163-.148.163-.1,0-.763-.031-.763.031,0,.109.054.373-.054.373h-.513c-.1,0-.277-.07-.277.07v11.918c-.182-.365-.365-.722-.547-1.087-.067-.124-.351-.885-.479-.885h-1.256c-.135,0-.243.062-.243-.1,0-.272.047-.3-.182-.3h-.581c-.1,0-.054.2-.054.3,0,.163-.108.1-.243.1H137.66c-.007,0-.007-.334-.007-.373,0-.062-.223-.031-.27-.031h-.533a1.6,1.6,0,0,0-.014.373c0,.062-.594.031-.668.031-.183,0-.7-.109-.857,0-.081.054-.155.31-.2.4-.621,1.226-1.235,2.461-1.856,3.688.2,0,.385-.116.385.14v5.411c0,.163-1.188.07-1.371.07-.047,0-.236.039-.236-.023s.021-.373-.013-.373c-.135,0-.722-.093-.8,0-.027.039.034.4-.007.4h-1.364c-.149,0-.074-1.234-.074-1.522V117.21a17.7,17.7,0,0,0-.034-1.926c-.229,0-.209.024-.209-.233v-.528c0-.078-.182-.225-.223-.272-.952-1.071-1.9-2.135-2.855-3.207-.209-.233-.81-.093-1.121-.078v-1.359h-.864V108.5H121v1.109h-.864v1.359c-.331-.008-.9-.163-1.148.109-.459.513-.918,1.025-1.37,1.537l-1.5,1.677c-.122.132-.189.163-.189.357v.574c0,.171-.169-.024-.236.062-.081.1,0,.652,0,.823V141.5a26.6,26.6,0,0,1-.06,3.137h-7.905c-.283,0-.014-1.211-.121-1.211-.162,0-1.647.008-1.647-.015v-6.033c0-.3-.128-1.056.034-1.32.371-.629.736-1.25,1.107-1.879.189-.318.054-1.087.054-1.452v-3.991a3.466,3.466,0,0,0,0-.916c-.095-.093-.668,0-.79,0-.223,0-.607.093-.7-.085a3.282,3.282,0,0,1,0-.963c0-.031-1.579-.015-1.735-.015-.257,0-.263.039-.263-.249v-1.056a7.469,7.469,0,0,0-.857-.015c-.115,0-.054-.707-.054-.831,0-.5-.047-.388-.479-.388-.391,0-.378-.062-.378.388a4.649,4.649,0,0,1-.02.831H96.57a3.062,3.062,0,0,1-.027-.722c0-.5.067-.5-.378-.5-.344,0-.472-.132-.472.279,0,.14.061.94-.054.94-.155,0-.756-.109-.864,0a4.053,4.053,0,0,0,0,1.071c0,.249.027.249-.2.249H93.445c-.1,0-.588-.077-.669,0-.135.155.1.776,0,.978-.081.163-.384.085-.594.085-.142,0-.783-.109-.885,0a2.948,2.948,0,0,0,0,.807v5.155a.784.784,0,0,0,.027.357c.371.629.743,1.25,1.114,1.879a1.6,1.6,0,0,1,.054.7v10.823a16.1,16.1,0,0,1-1.978.039H81.963c-.284,0-.527.132-.527-.225,0-.249-.587-.124-.769-.124-.041,0-.284-.031-.31,0s.027.349-.007.349H79.4c-.189,0-.587-.093-.756,0-.2.1-.412.59-.547.776-.162.233-.324.458-.479.691V126.55c0-.373-.121-.233-.472-.233-.331,0,.074-.481-.277-.481a1.266,1.266,0,0,1-.419,0c-.034-.024.047-.21-.02-.21H71.168c-.074,0,.027.21-.04.21h-.472c-.223,0,.1.481-.2.481-.439,0-.472-.116-.472.334v15.031c0,.3-.675.21-.675,0,0-.163.081-.839-.074-.839H68.218c-.391,0-.344-.023-.344.435,0,.381.108.536-.229.536h-.878V117.707c0-.147-.412-.062-.513-.062-.344,0-.216-.272-.216-.637,0-.1-.675.07-.675-.07,0-.248.034-.241-.155-.241H59.261c-.041,0-.284-.039-.317,0-.067.085.095.287-.054.287H58.4c-.29,0-.034.66-.142.66-.074,0-.709-.008-.709.007v23.719c0,.567-.034.443-.567.443H54.421c-.183,0-.432.109-.432-.132,0-.163.088-.839-.074-.839H52.9c-.391,0-.344-.023-.344.435,0,.272.108.536-.155.536H51.255c-.108,0-.479-.07-.553.023-.391.489-.783.978-1.181,1.459v-3.276c.108.14.223.279.331.419.1-.155.52-.574.385-.745-.189-.241-.371-.481-.56-.714-.756-.971-1.505-1.933-2.261-2.9q-1.8-2.305-3.605-4.6-1.792,2.294-3.6,4.6c-.756.963-1.512,1.925-2.261,2.9-.189.233-.378.473-.56.714-.135.171.317.528.432.668.081-.1.155-.2.236-.3v8.68c-.763-.66-1.472-1.436-2.207-2.15-.236-.225-.426-.551-.743-.551H33.285c-.236,0-3.47.008-3.47,0v-5.823c0-.031,1.417-.023,1.579-.023-.662-.947-1.323-1.9-1.984-2.849q-1.489-2.143-2.984-4.286c-.345-.5-.7-1-1.047-1.506-.088-.124-.236-.466-.385-.466H22.039c-.25,0-.176-.078-.176-.373,0-.365-.067-.272-.371-.272H19.609c-.027,0,.027.645-.02.645H17.766c-.183,0-1.249-.155-1.364.007-.581.839-1.168,1.677-1.748,2.516q-2.288,3.3-4.577,6.584c.465,0,.931.008,1.4.008.2,0,.175-.024.175.2v9.286a3.5,3.5,0,0,1,0,.994c-.074.093-.661,0-.769,0H9.821c-.216,0-.2-.023-.2.225v3.114c-.527-.342-1.053-.684-1.586-1.017-.351-.233-.709-.458-1.067-.691-.047-.031-.3-.249-.351-.218l-.049.032v-8.88H0V157.5H0v13.648H.559v.45H196.315V156.045c0-.132.4-.054.493-.054C196.186,155.021,195.558,154.05,194.937,153.08Z" transform="translate(648 886.5)" fill="#e5e7ed"/><g transform="translate(241.352 759.674)"><g transform="translate(337.648 207.434)" opacity="0"><g transform="translate(183.892)"><path d="M530.884,210.855c-1.295-.647-2.057-.977-2.063-.98l.367-.85c.032.014.79.342,2.11,1Z" transform="translate(-528.821 -209.024)" fill="rgba(68,69,70,0.8)"/></g><g transform="translate(0 3.171)" opacity="0"><path d="M348.805,338.862c-.861-1.28-1.685-2.593-2.452-3.9l.8-.468c.756,1.291,1.572,2.587,2.422,3.851Zm-4.653-7.949c-.694-1.382-1.341-2.792-1.923-4.19l.854-.356c.573,1.377,1.212,2.767,1.9,4.132Zm-3.541-8.509c-.486-1.46-.919-2.95-1.286-4.431l.9-.222c.362,1.456.788,2.923,1.266,4.359Zm187.371-8.325a46.191,46.191,0,0,1-4.609-.364l.117-.918a45.221,45.221,0,0,0,4.517.356Zm4.626-.13-.08-.922a36.039,36.039,0,0,0,4.465-.665l.2.905A37.2,37.2,0,0,1,532.608,313.949Zm-194.215-.494c-.25-1.519-.44-3.061-.564-4.582l.923-.074c.121,1.495.308,3.012.553,4.506Zm180.429-.532c-.958-.21-1.932-.45-2.894-.712q-.784-.215-1.57-.451l.267-.886q.773.232,1.547.444c.946.258,1.906.493,2.849.7Zm22.821-.931-.315-.869a32.057,32.057,0,0,0,4.119-1.829l.434.817A32.555,32.555,0,0,1,541.644,311.991Zm-31.652-1.7c-1.391-.517-2.827-1.1-4.271-1.722l.369-.849c1.427.619,2.848,1.193,4.224,1.7Zm39.82-2.642-.545-.746a33.451,33.451,0,0,0,3.448-2.9l.643.665A33.968,33.968,0,0,1,549.812,307.648Zm-48.266-1.011c-1.328-.649-2.7-1.356-4.09-2.1l.437-.816c1.376.739,2.741,1.44,4.06,2.084Zm-162.973-2.375-.925,0c0-1.532.07-3.083.2-4.611l.922.08C338.643,301.231,338.576,302.756,338.573,304.263ZM493.444,302.3q-1.97-1.138-3.947-2.354l.485-.789q1.967,1.206,3.925,2.342Zm63.029-1.065-.722-.576a38.408,38.408,0,0,0,2.6-3.7l.786.487A38.614,38.614,0,0,1,556.473,301.232Zm-70.86-3.736q-1.916-1.234-3.836-2.523l.516-.769q1.915,1.283,3.822,2.514Zm-146.269-2.268-.913-.154c.255-1.506.576-3.024.954-4.515l.9.227C339.91,292.253,339.594,293.748,339.344,295.228Zm222.008-1.849-.835-.4c.639-1.34,1.224-2.747,1.741-4.184l.872.313C562.6,290.576,562,292.013,561.352,293.379Zm-83.367-.991q-1.879-1.3-3.759-2.631l.535-.755q1.877,1.329,3.75,2.625Zm-7.488-5.3q-1.85-1.333-3.7-2.688l.546-.748q1.851,1.352,3.7,2.687Zm-128.923-.655-.876-.3c.49-1.441,1.044-2.889,1.649-4.3l.851.363C342.6,283.588,342.055,285.015,341.574,286.433ZM564.49,284.7l-.9-.231c.373-1.441.692-2.934.948-4.44l.913.156C565.194,281.711,564.868,283.23,564.49,284.7Zm-101.388-3-3.69-2.717.549-.746,3.689,2.718Zm-117.965-3.6-.821-.427c.7-1.353,1.466-2.7,2.268-4.012l.79.485C346.581,275.426,345.829,276.757,345.137,278.092Zm110.581-1.835q-1.853-1.361-3.7-2.711l.544-.748q1.853,1.351,3.707,2.713Zm110.328-.652-.922-.084c.134-1.491.212-3.018.234-4.537l.925.012C566.261,272.539,566.182,274.089,566.046,275.6ZM448.3,270.859q-1.866-1.34-3.728-2.656l.533-.757q1.866,1.314,3.736,2.661Zm-98.42-.508-.752-.539c.886-1.24,1.831-2.468,2.81-3.651l.713.589C351.691,267.917,350.759,269.128,349.884,270.351Zm215.373-3.913c-.089-1.5-.231-3.028-.422-4.527l.918-.117c.194,1.52.339,3.065.428,4.59Zm-124.437-.851q-1.9-1.3-3.789-2.565l.514-.77q1.9,1.264,3.8,2.572Zm-85.153-2.238-.672-.637c1.055-1.113,2.161-2.2,3.286-3.236l.626.682C357.8,261.178,356.707,262.251,355.668,263.348Zm77.534-2.827q-1.942-1.242-3.878-2.421l.481-.79q1.944,1.182,3.9,2.432Zm130.9-3.1c-.294-1.467-.663-2.947-1.1-4.4l.888-.266c.44,1.478.817,2.987,1.116,4.482ZM362.36,257.2l-.577-.723c1.2-.96,2.446-1.885,3.7-2.751l.524.763C364.772,255.339,363.544,256.251,362.36,257.2Zm63.029-1.418c-1.361-.778-2.706-1.519-4-2.2l.434-.819c1.3.689,2.656,1.435,4.025,2.217Zm-55.544-3.734-.468-.8c1.332-.78,2.7-1.512,4.07-2.177l.4.833C372.5,250.555,371.156,251.277,369.845,252.045Zm47.473-.529c-1.4-.673-2.8-1.307-4.15-1.885l.363-.851c1.368.583,2.777,1.224,4.188,1.9Zm144.194-2.772c-.554-1.384-1.182-2.776-1.866-4.135l.826-.416c.7,1.383,1.335,2.8,1.9,4.207Zm-183.5-.658-.334-.863c1.452-.562,2.924-1.059,4.378-1.477l.255.89C380.886,247.046,379.439,247.534,378.013,248.086Zm30.922-.131c-1.453-.528-2.907-1.006-4.32-1.42l.261-.889c1.431.419,2.9.9,4.376,1.439ZM386.722,245.6l-.166-.91a42.828,42.828,0,0,1,4.588-.593l.067.922A42.022,42.022,0,0,0,386.722,245.6Zm13.5-.139a34.545,34.545,0,0,0-4.486-.505l.043-.924a35.365,35.365,0,0,1,4.608.518Zm157.225-4.819c-.775-1.272-1.618-2.547-2.508-3.789l.752-.539c.9,1.26,1.758,2.555,2.545,3.848Zm-5.282-7.392c-.948-1.149-1.959-2.3-3.008-3.416l.675-.633c1.062,1.132,2.086,2.3,3.046,3.459Zm-6.22-6.645c-1.081-1.027-2.22-2.053-3.387-3.046l.6-.7c1.179,1,2.332,2.04,3.425,3.08Zm-6.928-5.915c-1.192-.918-2.431-1.824-3.68-2.694l.53-.76c1.261.879,2.512,1.795,3.714,2.72Zm-7.482-5.215c-1.3-.818-2.613-1.607-3.914-2.345l.457-.805c1.314.745,2.643,1.542,3.951,2.367Z" transform="translate(-337.648 -212.321)" fill="rgba(68,69,70,0.8)"/></g><g transform="translate(13.877 132.957)"><path d="M353.505,349.639q-.734-.916-1.431-1.834l.738-.559q.688.908,1.416,1.813Z" transform="translate(-352.074 -347.246)" fill="rgba(68,69,70,0.8)"/></g></g><g transform="translate(468.566 161.275)"><g transform="translate(0 8.35)"><path d="M486.617,176.46a4.91,4.91,0,0,0-5.023,2l0,0s-.034.046-.089.131-.088.132-.088.132l0,0a4.912,4.912,0,0,0,.074,5.408c.906,1.282,3.62,3.259,13.851,9.48s32.464,19.079,32.464,19.079l1.379-2.065.175-.264,1.379-2.065s-20.4-15.61-30.062-22.677S488.148,176.805,486.617,176.46Z" transform="translate(-479.012 -175.971)" fill="#e5e7ed"/><ellipse cx="2.577" cy="2.434" rx="2.577" ry="2.434" transform="translate(0 4.286) rotate(-56.264)" fill="#e5e7ed"/></g><g transform="translate(8.492)"><path d="M526.758,206.1l10.47-5.673,1.7,1.542-8.262,9.587Z" transform="translate(-489.261 -168.538)" fill="#e5e7ed"/><path d="M500.649,185.857l23.734-18.582,3.069,2.05-18.3,23.281Z" transform="translate(-488.267 -167.275)" fill="#e5e7ed"/><path d="M524.344,209.863l-1.229,11.844,2.076.98,5.69-11.3Z" transform="translate(-489.122 -168.897)" fill="#e5e7ed"/><path d="M495.847,193.3l-8.071,29.042,3.069,2.05,14.492-25.825Z" transform="translate(-487.777 -168.266)" fill="#e5e7ed"/></g><rect width="2.911" height="10.423" rx="1.455" transform="matrix(0.555, -0.832, 0.832, 0.555, 9.924, 33.799)" fill="#e5e7ed"/><rect width="2.911" height="10.423" rx="1.455" transform="translate(7.157 42.678) rotate(-56.264)" fill="#e5e7ed"/><rect width="2.911" height="10.423" rx="1.455" transform="translate(35.032 14.97) rotate(123.736)" fill="#e5e7ed"/><rect width="2.911" height="10.423" rx="1.455" transform="matrix(-0.555, 0.832, -0.832, -0.555, 42.172, 9.012)" fill="#e5e7ed"/></g></g><g transform="translate(264.142 623.223)"><g transform="translate(324.859 296.664)"><path d="M899.558,531.838c-.767,2.062-2.1,4.455-3.49,5.05a5.4,5.4,0,0,0-2.241,1.628l-1.277-.741-1.525-.886s.036-.169.111-.445.188-.657.343-1.081a1.476,1.476,0,0,0,.181-1.357,3.151,3.151,0,0,1,.26-2.633c.489-.71.961-2.462,1.256-2.41.713.123-.351,2.53-.045,2.977a.527.527,0,0,0,.685.235l.012-.007c2-.88,4.428-5.622,5.5-4.982C899.729,527.423,899.884,530.96,899.558,531.838Z" transform="translate(-802.401 -491.049)" fill="#f9feff" stroke="#4e4c4c" stroke-width="0.2"/><g transform="translate(90.068 33.808)"><path d="M900.421,522.5l2.507,1.762a.394.394,0,0,0,.548-.1l6.421-9.136a.4.4,0,0,0-.1-.548l-2.506-1.761a.394.394,0,0,0-.548.1l-6.421,9.136A.4.4,0,0,0,900.421,522.5Z" transform="translate(-900.255 -512.647)" fill="#5f5f5f"/><path d="M915.3,532.892l1.469,1.033a.3.3,0,0,0,.417-.073l6.529-9.29a.3.3,0,0,0-.073-.417l-1.469-1.033a.3.3,0,0,0-.417.073l-6.529,9.29A.3.3,0,0,0,915.3,532.892Z" transform="translate(-912.834 -521.428)" fill="#5f5f5f"/></g><path d="M634.208,491.828s12.754,22.245,17.381,26.338l16.965-12.649a6.193,6.193,0,0,1,3.54,3.226s-10.3,20.99-20.446,21.879-24.381-25.159-24.381-25.159Z" transform="translate(-579.931 -461.278)" fill="#e7e8ee" stroke="#4e4c4c" stroke-width="0.2"/><g transform="translate(12.36 81.956)"><path d="M416.876,1377.807h-7.369a4.467,4.467,0,0,1-2.016-3.377c-.36-2.374-3.02-3.669-3.6-5.611s2.374-4.674,2.374-4.674l.493-.636.513-.66,4.891,1.151s.121,1.165.195,2.649a33.89,33.89,0,0,1,.021,3.393c-.144,2.589.724,5.377,3.025,5.881C417.108,1376.3,417.032,1377.306,416.876,1377.807Z" transform="translate(-403.821 -1277.913)" fill="#292949"/><path d="M666.692,1411.964H649.839c-.81-.989-.512-4.639-.389-5.831.025-.24.043-.38.043-.38s5.755-4.6,6.545-1.079c.024.111.053.219.085.325,1,3.3,5.463,4.795,8.042,5.212A2.922,2.922,0,0,1,666.692,1411.964Z" transform="translate(-610.869 -1312.07)" fill="#292949"/><path d="M608.364,849.312s-.874,10.9-1.9,24.008c-1.4,17.8-3.074,39.67-3.241,43.812-.287,7.193-1.439,18.7-1.439,18.7s-2.732,2.733-8.2,1.581a188.236,188.236,0,0,1-6.264-33.805c-.022-.285-.043-.572-.065-.859-1.294-17.692-3.308-54.948-3.308-54.948Z" transform="translate(-555.752 -843.487)" fill="#d8d9de" stroke="#4e4c4c" stroke-width="0.2"/><path d="M465.634,827.355s-15.75,39.484-26.107,58.039-13.593,23.733-13.593,23.733-5.933-2.373-6.473-3.992c0,0,3.96-35.822,10.9-44.554,3.919-4.934,8.523-19.742,8.738-24.92s1.4-15.427,1.4-15.427Z" transform="translate(-417.013 -820.235)" fill="#d8d9de" stroke="#4e4c4c" stroke-width="0.2"/></g><path d="M598.833,409.56c-6.155,1.942-16.8-3.3-16.8-3.3s5.675-4.259,5.378-13.115l4.759,3.835,3.233,2.6a38.732,38.732,0,0,1-.367,4.227c-.093.708-.209,1.5-.356,2.36A14.727,14.727,0,0,1,598.833,409.56Z" transform="translate(-541.773 -378.043)" fill="#f9feff" stroke="#4e4c4c" stroke-width="0.2"/><path d="M613.936,342.728s-10.166,1.689-11.121-4.658-2.909-10.4,3.542-11.751,8.079.885,8.913,2.926S616.556,342.125,613.936,342.728Z" transform="translate(-558.429 -321.331)" fill="#f9feff" stroke="#4e4c4c" stroke-width="0.2"/><path d="M577.187,524.2a1,1,0,0,1-.647.247c-2.311-.031-9.051,1.252-14.754.667a42.484,42.484,0,0,1-13.633-3.934c-.607-.272-2-1.018-1.972-1.7.02-.743.094-1.82.187-3.177a169.942,169.942,0,0,0,.338-22.189c-.1-1.743-.151-3.472-.157-5.174-.047-12.685,2.469-23.843,7.523-27.619.432-.309,3.082.986,5.517,2.187a8.1,8.1,0,0,0,5.916.737l2.836,1.945A21.244,21.244,0,0,1,575,476.828c1.049,4.222,1.664,11.836,2,19.726.154,3.575.278,7.182.309,10.6v.122c.03.339.03.71.03,1.049C577.465,517.112,577.341,524.077,577.187,524.2Z" transform="translate(-511.537 -435.512)" fill="#e7e8ee" stroke="#4e4c4c" stroke-width="0.2"/><g transform="translate(0 87.4)"><path d="M374.223,877.085l-22.635-3.225a5.426,5.426,0,0,0-6.119,4.593l-1.4,9.809a5.426,5.426,0,0,0,4.593,6.119l22.635,3.225a5.426,5.426,0,0,0,6.119-4.593l1.4-9.809A5.426,5.426,0,0,0,374.223,877.085Z" transform="translate(-341.018 -870.864)" fill="#676767"/><path d="M359.342,864.159h0a5.45,5.45,0,0,0-3.75-3.275h-.005c-.171-.041-.344-.076-.523-.1l-4.507-.641.3-2.117A1.793,1.793,0,0,0,349.338,856l-1.176-.168-4.732-.675-.853-.121a1.794,1.794,0,0,0-2.026,1.521l-.3,2.117-7.78-1.109a5.448,5.448,0,0,0-6.143,4.61l-1.413,9.923a5.446,5.446,0,0,0,4.61,6.141l22.594,3.221a5.311,5.311,0,0,0,1.178.037h0a5.342,5.342,0,0,0,1.763-.445,5.441,5.441,0,0,0,3.2-4.2l1.414-9.922A5.383,5.383,0,0,0,359.342,864.159Zm-17.68-7.448a.67.67,0,0,1,.556-.565.678.678,0,0,1,.2,0l1.005.143,3.724.532,2.03.289a.669.669,0,0,1,.568.756l-.3,2.117-8.085-1.153Z" transform="translate(-324.859 -855.014)" fill="#d8d9de"/></g><path d="M445.375,812.912q.008-.181.023-.372a7.859,7.859,0,0,1,1.236-2.216l-2.98-1.547-1.18,1.95c-1.782,1.418-1.815,1.443-1.49,4.158.281,2.354-1.258,2.382-1.221,4.063s2.2.855,2.2.855c3.356-1.576,3.634-2.369,3.531-3.967.318.452.674.715.977.518.267-.173-.266-.861-.5-2.455A2.857,2.857,0,0,0,445.375,812.912Z" transform="translate(-421.776 -728.615)" fill="#f9feff" stroke="#4e4c4c" stroke-width="0.2"/><path d="M450.2,523.231a17.389,17.389,0,0,0,3.983.222s5.674-17.527,6.4-19.128,10.136-15.5,10.136-15.5l-1.2-20.228s-16.556,22.428-18.006,31.593c-2.926,6.763-3.942,21.927-3.942,21.927A7.3,7.3,0,0,0,450.2,523.231Z" transform="translate(-429.36 -440.307)" fill="#e7e8ee" stroke="#4e4c4c" stroke-width="0.2"/><path d="M595.036,312.791s1.043-.174.875-1.611-.166-3.315,1-2.965,1.226,1.285,1.707.739.489-2.848,3.965-3.008,4.889,1.05,6.505.339,1.7-3.158,1.7-3.158a2.782,2.782,0,0,1-1.154,1.152s2.7-3.689-.425-6.218-6.306-.873-8.114-.764c-3.981.241-6.553.48-7.854,3.1S592.481,310.273,595.036,312.791Z" transform="translate(-550.658 -296.664)" fill="#2d2d2d"/></g></g><g transform="translate(-803.69 270.234)"><path d="M1673.417,713.025l-1.15.437v1.972l2.007,2.086,1.908-.464V714.32l-1.372-.991Z" transform="translate(-230.696 -34.541)" fill="#d8d9de" stroke="#4e4c4c" stroke-width="0.2"/><path d="M1612.192,673.172a26.585,26.585,0,0,0-2.875,3.469s2.625,6.092,8.95,6.854a30.708,30.708,0,0,1,.55-5.1S1612.525,676.6,1612.192,673.172Z" transform="translate(-175.69 0)" fill="#d8d9de" stroke="#4e4c4c" stroke-width="0.2"/><path d="M1682.677,701.389s3.048,2,3.277,4.558c0,0,1.18-1.869.838-3.164a12.218,12.218,0,0,0-1.333-2.832S1685.535,701.2,1682.677,701.389Z" transform="translate(-239.706 -22.967)" fill="#d8d9de" stroke="#4e4c4c" stroke-width="0.2"/></g><path d="M6589.5,200.714l4.214,33.429,3.714,4,2.143-5.286-7.714-32.143Z" transform="translate(-5950 752)" fill="#d8d9de" stroke="#4e4c4c" stroke-width="0.2"/></g></svg>