<svg xmlns="http://www.w3.org/2000/svg" xmlns:xlink="http://www.w3.org/1999/xlink" width="259" height="243" viewBox="0 0 259 243"><defs><style>.a{fill:#c9cdd9;opacity:0.2;}.b{clip-path:url(#a);}.c{fill:#65617d;}.c,.d,.e,.f,.g,.h,.i,.j,.k,.l,.m,.o,.q,.r,.s,.t{stroke:#4d4d4d;stroke-width:0.3px;}.d{fill:#263238;}.e{fill:#fafafa;}.f{fill:#676767;}.g{fill:#2f2f2f;}.h{fill:#e6e8ee;}.i{fill:#444546;}.j{fill:#33323d;}.k{fill:#f0f5fd;}.l{fill:#e7e9ef;}.m{fill:#e0e0e0;}.n{opacity:0.7;}.p{opacity:0.4;}.q{fill:#fff;stroke-miterlimit:10;}.r{fill:#4e4c4c;}.s{fill:#455a64;}.t{fill:#f5f5f5;}</style><clipPath id="a"><rect class="a" width="259" height="243" rx="20" transform="translate(0)"/></clipPath></defs><g class="b"><g transform="matrix(0.996, -0.087, 0.087, 0.996, 120.618, 119.226)"><path class="c" d="M48.849,23.489c.048,12.536-10.22,22.808-23.289,23.3S1.264,37.812.093,25.318c-.037-.38-.065-.761-.078-1.146v-.02Q0,23.73-.006,23.309C-.056,10.382,10.84-.056,24.331-.007S48.8,10.563,48.849,23.489Z" transform="translate(131.738 30.818)"/><path class="d" d="M48.849,23.489c.048,12.536-10.22,22.808-23.289,23.3S1.264,37.812.093,25.318c-.037-.38-.065-.761-.078-1.146v-.02Q0,23.73-.006,23.309C-.056,10.382,10.84-.056,24.331-.007S48.8,10.563,48.849,23.489Z" transform="translate(131.738 30.818)"/><path class="e" d="M13.272,0C20.63.024,26.618,5.761,26.645,12.812A12.936,12.936,0,0,1,13.37,25.53C6.011,25.5.024,19.765,0,12.714A12.936,12.936,0,0,1,13.272,0Z" transform="translate(142.838 41.454)"/><path class="d" d="M7.963,0a7.9,7.9,0,0,1,8.024,7.69,7.762,7.762,0,0,1-7.965,7.631A7.9,7.9,0,0,1,0,7.628,7.762,7.762,0,0,1,7.963,0Z" transform="translate(148.166 46.559)"/><path class="c" d="M48.849,23.489c.048,12.536-10.22,22.808-23.289,23.3S1.264,37.812.093,25.318c-.037-.38-.065-.761-.078-1.146v-.02Q0,23.73-.006,23.309C-.056,10.382,10.84-.056,24.331-.007S48.8,10.563,48.849,23.489Z" transform="translate(1.328 30.336)"/><path class="f" d="M48.849,23.489c.048,12.536-10.22,22.808-23.289,23.3S1.264,37.812.093,25.318c-.037-.38-.065-.761-.078-1.146v-.02Q0,23.73-.006,23.309C-.056,10.382,10.84-.056,24.331-.007S48.8,10.563,48.849,23.489Z" transform="translate(1.328 30.336)"/><path class="e" d="M13.272,0C20.63.024,26.618,5.761,26.645,12.812A12.936,12.936,0,0,1,13.37,25.53C6.011,25.5.024,19.765,0,12.714A12.936,12.936,0,0,1,13.272,0Z" transform="translate(12.428 40.972)"/><path class="g" d="M7.963,0a7.9,7.9,0,0,1,8.024,7.69,7.762,7.762,0,0,1-7.965,7.631A7.9,7.9,0,0,1,0,7.628,7.762,7.762,0,0,1,7.963,0Z" transform="translate(17.757 46.078)"/><path class="h" d="M183.3,48.266l-8.152-.37-7.493-13.27-26.231-2.134L128.726,48.4l.726,4.417L127.7,56.889l-83.275.372-.008-2.037-.709,0-.721-3.059,6.379.024-4.625-4.771-16.352-13.3s-27.993.576-28.35-.1S1.6,26.375,1.6,26.375l12.036-3.351,41.1-2.9C63.715,6.4,71.84-.02,71.84-.02l105.6.39L182.5,24.835v.058Z" transform="translate(4.891 1.683)"/><path class="i" d="M.615,18.94S11.173-.035,19.323-.005L39.168.068s4.961.018,7.1,3.761l8.209,15.31L48.1,19.115S42.73,4.835,36.7,4.473s-16.3-.06-16.3-.06S16.86,4.4,14.749,8.466,5.484,21.382,5.484,21.382-2.2,23.683.615,18.94Z" transform="translate(128.755 32.49)"/><path class="j" d="M13.424.049.094,0,0,10.186,13.451,7.18Z" transform="translate(179.367 48.559)"/><path class="i" d="M0,8.676A9.564,9.564,0,0,1,5.64,1.567l32.6-1.577s5.317.359,8.177,6.821l9.265,13.276.008,2.037-10.277-.038S40.378,4.072,26.205,4.7L9.2,4.636S5.3,4.621,3.9,10.728Z" transform="translate(-0.009 33.109)"/><path class="i" d="M0,4.2l2.587.026,106.349-.116h0A3.811,3.811,0,0,0,105.1.363L6.216,0C4.108-.009-.009,2.139,0,4.2Z" transform="translate(73.972 -0.021)"/><path class="k" d="M32.144,18.4,2.038,18.29A2.077,2.077,0,0,1,.328,17.4a1.883,1.883,0,0,1-.16-1.855L4.892,5.288A9.3,9.3,0,0,1,13.42,0L31.712.064a2.533,2.533,0,0,1,2.571,2.464L34.336,16.3a2.136,2.136,0,0,1-2.192,2.1Z" transform="translate(67.633 5.417)"/><path class="j" d="M1.059,0l9.214.034A1.051,1.051,0,0,1,11.34,1.056,1.032,1.032,0,0,1,10.28,2.071L1.067,2.037A1.051,1.051,0,0,1,0,1.014,1.032,1.032,0,0,1,1.059,0Z" transform="translate(92.792 30.248)"/></g><g transform="translate(-79.318 89.979) rotate(11)"><g transform="translate(0 0)"><path class="l" d="M2.824,33h0A9.57,9.57,0,0,0,2.3,45.945,14.4,14.4,0,0,0,7.541,49.75l17.437,7.434,12.346,1.739L199.1,56.647l10.152-1.986a10.2,10.2,0,0,0,8.4-9.915l-.045-6.764a2.362,2.362,0,0,0-1.743-2.242l-.716-.206s-.545-6.628-4.7-8.1c-15.129-6.163-25.165-8.1-50.57-8.918L138.516,6.367s-8.62-5.25-16.69-5.882a346.2,346.2,0,0,0-34.72.033c-9.837.622-22.349,5.019-29.334,8.388-5.471,2.639-18.639,9.158-18.639,9.158L31.7,19.317c-1.116.059-21.615,1.423-23.972,1.788a4.764,4.764,0,0,0-3.753,3.1c-.6,1.873-1.155,8.736-1.155,8.736"/><g transform="translate(54.544 2.946)"><g transform="translate(0 0)"><path class="d" d="M11.109,6.256c3.511-1.707,12.91-4.1,18.163-5.085S45.187-.03,49.448.041,65.54.212,71.764,1.865a43.538,43.538,0,0,1,11.36,5.5c1.049.737,5.605,4.151,6.624,4.927l7.881,7.056L.085,17.165S-.449,13.9,1.321,12.007,11.109,6.256,11.109,6.256Z"/></g></g><g transform="translate(204.128 28.502)"><g transform="translate(0 0)"><g transform="translate(0 0)"><path class="e" d="M6.028,6.671l4.936-.108c-.181-1.276-.806-4.671-2.9-6.559L1.53.147A1.5,1.5,0,0,0,.225,2.407L1.4,4.254A5.324,5.324,0,0,0,6.028,6.671Z"/></g></g><g transform="translate(0 0.124)"><g transform="translate(0 0)"><path class="m" d="M5.433,6.268C4.937,4.182,4.313,1.445,2.492,0L1.53.022A1.5,1.5,0,0,0,.225,2.282L1.4,4.129a5.287,5.287,0,0,0,4.1,2.4C5.476,6.439,5.454,6.356,5.433,6.268Z"/></g></g></g><g transform="translate(24.972 31.319)"><g class="n" transform="translate(136.041 0.082)"><g transform="translate(0 0)"><path class="o" d="M.474,25.834A22.444,22.444,0,0,1,.2,18.421C1.563,7.886,8.8.254,19.642.018c9.433-.206,17.179,5.394,18.684,15.866a25.985,25.985,0,0,1-.407,9.41Z"/></g></g><g class="n" transform="translate(0.001 1.895)"><g transform="translate(0 0)"><path class="o" d="M.014,24.014c.019-.388.055-.783.065-1.2C.382,9.534,9.734.258,20.769.017,30.851-.2,39.106,7.5,39.171,17.177a53.441,53.441,0,0,1-.24,8.192l-26.571.383Z"/></g></g></g><g transform="translate(29.92 35.478)"><g transform="translate(0 0)"><path class="d" d="M31.872,14.966c.057,8.449-7.03,15.455-15.828,15.647S.066,24.11.01,15.661,7.04.206,15.838.014,31.815,6.516,31.872,14.966Z"/></g><g transform="translate(0.009 14.907)"><g transform="translate(0 0)"><path class="d" d="M31.86.019c0,.013,0,.026,0,.039.057,8.449-7.03,15.455-15.828,15.647S.057,9.2,0,.754C0,.74,0,.727,0,.714Z"/></g></g><g transform="translate(4.749 4.562)"><g transform="translate(0 0)"><path class="e" d="M22.376,10.507A11.173,11.173,0,0,1,11.264,21.492,10.774,10.774,0,0,1,.007,10.995,11.173,11.173,0,0,1,11.12.01,10.773,10.773,0,0,1,22.376,10.507Z"/></g></g><g transform="translate(4.749 4.562)"><g transform="translate(0 0)"><path class="m" d="M11.12.01a10.773,10.773,0,0,1,11.257,10.5l-22.37.488A11.173,11.173,0,0,1,11.12.01Z"/></g></g><g transform="translate(9.123 8.764)"><g transform="translate(0 0)"><path class="d" d="M13.63,6.4a6.805,6.805,0,0,1-6.769,6.692A6.563,6.563,0,0,1,0,6.7,6.806,6.806,0,0,1,6.774.006,6.562,6.562,0,0,1,13.63,6.4Z"/></g></g></g><g transform="translate(163.581 34.086)"><g transform="translate(0 0)"><g transform="translate(0)"><path class="f" d="M16.085.013c8.791-.085,15.849,6.7,15.764,15.161s-7.282,15.385-16.073,15.47S-.073,23.941.012,15.483,7.294.1,16.085.013Z" transform="translate(31.824 32.057) rotate(-177.426)"/></g></g><g transform="translate(0.666 15.623)"><g transform="translate(0 0)"><path class="f" d="M31.86.019c0,.013,0,.026,0,.039.057,8.449-7.03,15.455-15.828,15.647S.057,9.2,0,.754C0,.74,0,.727,0,.714Z"/></g></g><g transform="translate(5.406 5.278)"><g transform="translate(0 0)"><path class="e" d="M22.376,10.507A11.173,11.173,0,0,1,11.264,21.492,10.773,10.773,0,0,1,.007,10.995,11.173,11.173,0,0,1,11.119.01,10.773,10.773,0,0,1,22.376,10.507Z"/></g></g><g transform="translate(5.406 5.278)"><g transform="translate(0 0)"><path class="m" d="M11.119.01a10.773,10.773,0,0,1,11.257,10.5L.007,10.995A11.173,11.173,0,0,1,11.119.01Z"/></g></g><g transform="translate(9.78 9.48)"><g transform="translate(0 0)"><path class="g" d="M13.631,6.4a6.806,6.806,0,0,1-6.769,6.692A6.563,6.563,0,0,1,0,6.7,6.806,6.806,0,0,1,6.774.006,6.563,6.563,0,0,1,13.631,6.4Z"/></g></g></g><g class="p" transform="translate(211.024 43.214)"><g transform="translate(0 0)"><path class="o" d="M0,3.148c.011,1.714.9,3.085,1.992,3.061s1.961-1.433,1.95-3.147S3.04-.022,1.952,0-.009,1.434,0,3.148Z"/></g></g><g transform="translate(2.824 32.943)"><g transform="translate(0 0)"><path class="d" d="M0,.056A1.613,1.613,0,0,0,.307.079L1.188.1C1.953.114,3.06.127,4.427.17S7.42.271,9.22.4a41.819,41.819,0,0,1,5.795.775,14.916,14.916,0,0,1,2.846.924A11.839,11.839,0,0,1,20.2,3.559,35.775,35.775,0,0,1,23.649,6.7,13.837,13.837,0,0,0,26.13,8.676a6.7,6.7,0,0,0,.774.4,1.547,1.547,0,0,0,.284.11c.011-.022-.378-.181-1.01-.581a14.893,14.893,0,0,1-2.415-2.013A33.683,33.683,0,0,0,20.33,3.4a11.88,11.88,0,0,0-2.369-1.5,14.957,14.957,0,0,0-2.89-.943A40.257,40.257,0,0,0,9.239.2C7.432.081,5.8.029,4.433.015S1.956,0,1.19.016L.308.034A1.647,1.647,0,0,0,0,.056Z"/></g></g><g transform="translate(56.287 54.098)"><g transform="translate(0 0)"><path class="q" d="M0,0"/></g></g><g transform="translate(199.002 41.662)"><g transform="translate(0 0)"><path class="r" d="M0,5.62a7.541,7.541,0,0,0,.519-.588A11.669,11.669,0,0,1,2.081,3.575,15.68,15.68,0,0,1,8.519.708,30.98,30.98,0,0,1,15.633.214C16.548.24,17.289.276,17.8.3a5.716,5.716,0,0,0,.8.014.733.733,0,0,0-.2-.037L17.808.213C17.3.165,16.559.105,15.642.059A28.688,28.688,0,0,0,8.474.494a15.216,15.216,0,0,0-6.5,2.962A10.2,10.2,0,0,0,.455,4.98c-.165.193-.268.361-.346.468A.693.693,0,0,0,0,5.62Z"/></g></g><g transform="translate(197.746 35.493)"><g transform="translate(0 0)"><path class="r" d="M0,.41C0,.47,3.8.436,8.494.334S16.987.1,16.987.039s-3.8-.027-8.494.076S0,.35,0,.41Z"/></g></g><g transform="translate(54.63 20.111)"><g transform="translate(0 0)"><path class="d" d="M0,0S.014.066.048.193L.2.76l.62,2.207L3.2,11.326l.006.021.021.009a19.289,19.289,0,0,1,4.873,3.1,19.4,19.4,0,0,1,2.262,2.314A22.437,22.437,0,0,1,12.335,19.6a27.134,27.134,0,0,1,2.8,6.935,32.264,32.264,0,0,1,1.035,8.174v.081h.082l35.725-.274,46.082-.385h.066l.009-.063c1.231-9.084,2.024-16.562,2.508-21.766.243-2.6.411-4.635.521-6.018.052-.689.092-1.216.119-1.576s.033-.539.033-.539-.023.182-.055.538-.079.886-.141,1.575c-.129,1.385-.319,3.415-.562,6.015-.508,5.2-1.323,12.675-2.571,21.755l.074-.063-46.081.349-35.725.295.081.08A32.3,32.3,0,0,0,15.284,26.5a27.219,27.219,0,0,0-2.83-6.965,22.518,22.518,0,0,0-1.991-2.838,19.494,19.494,0,0,0-2.282-2.322,19.349,19.349,0,0,0-4.911-3.1l.027.03L.875,2.953.23.753.061.189C.023.063,0,0,0,0Z"/></g></g><g transform="translate(155.557 18.562)"><g transform="translate(0 0)"><path class="d" d="M0,1.5a5.668,5.668,0,0,0,4.232.717A4.616,4.616,0,0,0,7.464.112L4.33,0Z"/></g></g><g transform="translate(131.371 4.012)"><g transform="translate(0 0)"><path class="k" d="M28.516,14.552s-3.175,1.875-4.092,1.631S8.859,4.864,0,.613A11.04,11.04,0,0,1,2.707,0S6.83,1.981,11.967,4.924c3.908,2.239,7.885,4.587,9.745,5.669Z"/></g></g><g transform="translate(152.174 22.292)"><g transform="translate(0 0)"><path class="r" d="M0,0A.718.718,0,0,0,.1.053L.394.2,1.552.742,5.924,2.777l.013.006h.016c2.751-.105,6.285-.194,10.33-.087,2.022.056,4.171.161,6.41.336s4.565.424,6.947.725c4.173.516,8.11,1.176,11.712,1.7a93.726,93.726,0,0,0,9.661.9c2.769.112,5.015.06,6.564.009.775-.026,1.376-.057,1.784-.082l.463-.028c.1-.007.158-.015.158-.015s-.054,0-.158,0l-.464.013c-.408.015-1.009.037-1.784.053-1.548.032-3.792.069-6.555-.057a95.983,95.983,0,0,1-9.638-.928c-3.595-.534-7.537-1.2-11.713-1.715-2.385-.3-4.715-.546-6.958-.722s-4.4-.273-6.421-.325c-4.052-.1-7.589.005-10.341.128l.029.006-4.4-2L.409.173.105.041A.685.685,0,0,0,0,0Z"/></g></g><g transform="translate(56.338 4.036)"><g transform="translate(0 0)"><path class="k" d="M90.055,17.362c-22.384-.782-67.545-1.221-89.929-2a3.57,3.57,0,0,1,1.4-3.85,50.03,50.03,0,0,1,10.9-5.993A87.219,87.219,0,0,1,33.148.711C37.139.366,44.437.027,44.437.027s13.354.4,17.079.7A39.318,39.318,0,0,1,75,4.153c4.65,2.182,12.718,8.653,12.718,8.653l5.673,4.531Z"/></g></g><g transform="translate(100.265 3.385)"><g transform="translate(0 0)"><path class="d" d="M5.074,0,9.248,17.719l-7.835-.178L0,.043Z"/></g></g><g transform="translate(70.355 7.955)"><g transform="translate(0 0)"><path class="d" d="M1.068,0,1.73,12.019l-1.09.009L0,.385Z"/></g></g><g transform="translate(143.206 17.332)"><g transform="translate(0 0)"><path class="d" d="M2.376,0C2.028.447,0,4.759,0,4.759L7.57,4.224Z"/></g></g><g transform="translate(102.883 3.205)"><g transform="translate(0 0)"><path class="s" d="M0,0C-.048.008.53,4.049,1.292,9.024s1.422,9,1.473,9S2.238,13.973,1.476,9,.054-.008,0,0Z"/></g></g><g transform="translate(113.487 6.551)"><g transform="translate(0 0)"><path class="d" d="M0,0A.59.59,0,0,0,.083.146l.265.4,1,1.448C2.191,3.214,3.356,4.9,4.624,6.778s2.4,3.587,3.217,4.825l.972,1.465.271.394a.6.6,0,0,0,.1.131.556.556,0,0,0-.073-.15l-.241-.412c-.212-.356-.527-.867-.922-1.5-.789-1.257-1.9-2.978-3.173-4.856S2.328,3.124,1.454,1.921C1.017,1.319.66.835.407.5L.113.125C.045.04.006,0,0,0Z"/></g></g><g transform="translate(116.751 9.212)"><g transform="translate(0 0)"><path class="d" d="M0,0a25.345,25.345,0,0,0,1.74,2.511A25.46,25.46,0,0,0,3.634,4.918,25.32,25.32,0,0,0,1.893,2.407,25.5,25.5,0,0,0,0,0Z"/></g></g><g transform="translate(2.896 23.795)"><g transform="translate(0 0)"><path class="t" d="M0,8.257a8.706,8.706,0,0,0,3.263-.491A4.126,4.126,0,0,0,5.546,2.2l-.019-.038A3.957,3.957,0,0,0,2.016,0L1.239.008A4.669,4.669,0,0,0,.718,1.79C.494,3.426.157,5.9,0,8.257Z"/></g></g><path class="d" d="M8.1,0,2.14.052C.965.062.007.707,0,1.494S.941,2.911,2.116,2.9l5.956-.047C9.247,2.845,10.2,2.2,10.211,1.413S9.271,0,8.1,0Z" transform="translate(109.883 23.389)"/><path class="d" d="M8.1,0,2.14.052C.965.062.007.707,0,1.494S.941,2.911,2.116,2.9l5.956-.047C9.247,2.845,10.2,2.2,10.211,1.413S9.271,0,8.1,0Z" transform="translate(71.436 22.998)"/><g transform="translate(85.356 7.352)"><g transform="translate(0 0)"><path class="d" d="M0,0C-.043.027,1.645,2.672,3.769,5.906s3.883,5.837,3.927,5.81S6.052,9.045,3.927,5.81.044-.026,0,0Z"/></g></g><g transform="translate(85.906 10.703)"><g transform="translate(0 0)"><path class="d" d="M0,0A15.7,15.7,0,0,0,1.26,2.053,15.861,15.861,0,0,0,2.675,4.008,15.706,15.706,0,0,0,1.417,1.955,15.91,15.91,0,0,0,0,0Z"/></g></g></g></g></g></svg>