<svg xmlns="http://www.w3.org/2000/svg" xmlns:xlink="http://www.w3.org/1999/xlink" width="259" height="243" viewBox="0 0 259 243"><defs><clipPath id="a"><rect width="259" height="243" rx="20" fill="#c9cdd9" opacity="0.2"/></clipPath></defs><g transform="translate(-21 -13)"><g transform="translate(21 13)" clip-path="url(#a)"><g transform="matrix(0.996, -0.087, 0.087, 0.996, 120.874, 119.581)"><path d="M48.809,23.424C48.857,35.97,38.582,46.249,25.5,46.739S1.189,37.757.018,25.254c-.037-.381-.065-.761-.078-1.147v-.02q-.019-.422-.021-.843C-.131,10.308,10.773-.139,24.274-.089S48.759,10.488,48.809,23.424Z" transform="translate(131.772 30.649)" fill="#65617d"/><path d="M48.809,23.424C48.857,35.97,38.582,46.249,25.5,46.739S1.189,37.757.018,25.254c-.037-.381-.065-.761-.078-1.147v-.02q-.019-.422-.021-.843C-.131,10.308,10.773-.139,24.274-.089S48.759,10.488,48.809,23.424Z" transform="translate(131.772 30.649)" fill="#263238"/><path d="M13.24-.048C20.6-.021,26.6,5.721,26.623,12.777A12.946,12.946,0,0,1,13.339,25.5C5.974,25.476-.017,19.734-.045,12.678A12.946,12.946,0,0,1,13.24-.048Z" transform="translate(142.846 41.255)" fill="#fafafa"/><path d="M7.944-.029a7.91,7.91,0,0,1,8.03,7.7A7.767,7.767,0,0,1,8,15.3a7.91,7.91,0,0,1-8.03-7.7A7.767,7.767,0,0,1,7.944-.029Z" transform="translate(148.162 46.346)" fill="#263238"/><path d="M48.809,23.424C48.857,35.97,38.582,46.249,25.5,46.739S1.189,37.757.018,25.254c-.037-.381-.065-.761-.078-1.147v-.02q-.019-.422-.021-.843C-.131,10.308,10.773-.139,24.274-.089S48.759,10.488,48.809,23.424Z" transform="translate(1.269 30.168)" fill="#65617d"/><path d="M48.809,23.424C48.857,35.97,38.582,46.249,25.5,46.739S1.189,37.757.018,25.254c-.037-.381-.065-.761-.078-1.147v-.02q-.019-.422-.021-.843C-.131,10.308,10.773-.139,24.274-.089S48.759,10.488,48.809,23.424Z" transform="translate(1.269 30.168)" fill="#263238"/><path d="M13.24-.048C20.6-.021,26.6,5.721,26.623,12.777A12.946,12.946,0,0,1,13.339,25.5C5.974,25.476-.017,19.734-.045,12.678A12.946,12.946,0,0,1,13.24-.048Z" transform="translate(12.343 40.774)" fill="#fafafa"/><path d="M7.944-.029a7.91,7.91,0,0,1,8.03,7.7A7.767,7.767,0,0,1,8,15.3a7.91,7.91,0,0,1-8.03-7.7A7.767,7.767,0,0,1,7.944-.029Z" transform="translate(17.659 45.865)" fill="#263238"/><path d="M183.321,48.057l-8.158-.37-7.5-13.279-26.25-2.136L128.709,48.195l.726,4.42-1.757,4.071-83.335.372-.008-2.039-.709,0-.721-3.061,6.383.024L44.66,47.205,28.3,33.893s-28.013.576-28.37-.1,1.566-7.639,1.566-7.639L13.536,22.8l41.125-2.906C63.652,6.161,71.783-.265,71.783-.265l105.679.39,5.059,24.483v.058Z" transform="translate(4.868 1.656)" fill="#b7c9e2" stroke="#707070" stroke-width="0.3"/><path d="M.548,18.888S11.114-.1,19.27-.071L39.129,0s4.965.018,7.107,3.764l8.215,15.321-6.383-.024S42.694,4.773,36.664,4.41s-16.313-.06-16.313-.06S16.8,4.337,14.693,8.407,5.421,21.332,5.421,21.332-2.271,23.635.548,18.888Z" transform="translate(128.779 32.306)" fill="#2c313d"/><path d="M13.4.049.061,0l-.1,10.193L13.428,7.185Z" transform="translate(179.394 48.321)" fill="#33323d"/><path d="M-.03,8.552A9.571,9.571,0,0,1,5.616,1.438L38.236-.141s5.321.359,8.183,6.826l9.271,13.286L55.7,22.01l-10.284-.038S40.379,3.944,26.2,4.572L9.174,4.509s-3.9-.014-5.3,6.1Z" transform="translate(-0.117 32.99)" fill="#2c313d"/><path d="M-.015,4.184l2.589.026L109,4.094h0A3.814,3.814,0,0,0,105.166.342L6.207-.023C4.1-.031-.023,2.12-.015,4.184Z" transform="translate(73.903 -0.272)" fill="#292949"/><path d="M32.114,18.368,1.987,18.257a2.078,2.078,0,0,1-1.711-.894,1.885,1.885,0,0,1-.161-1.857L4.842,5.246a9.3,9.3,0,0,1,8.534-5.3l18.3.068a2.534,2.534,0,0,1,2.573,2.466l.053,13.783a2.138,2.138,0,0,1-2.194,2.1Z" transform="translate(67.6 5.194)" fill="#292949"/><path d="M1.056,0l9.22.034a1.052,1.052,0,0,1,1.068,1.023,1.033,1.033,0,0,1-1.06,1.015l-9.22-.034A1.052,1.052,0,0,1,0,1.012,1.033,1.033,0,0,1,1.056,0Z" transform="translate(92.727 30)" fill="#33323d"/></g><g transform="translate(-79.495 89.218) rotate(11)"><g transform="translate(0 0)"><path d="M3.113,33.817h0a9.577,9.577,0,0,0-.529,12.956,14.413,14.413,0,0,0,5.25,3.808l17.45,7.439,12.355,1.74L199.53,57.483,209.689,55.5a10.206,10.206,0,0,0,8.406-9.922l-.045-6.769a2.364,2.364,0,0,0-1.744-2.243l-.716-.206s-.545-6.633-4.7-8.1c-15.14-6.168-25.183-8.106-50.607-8.925L138.9,7.166s-8.626-5.254-16.7-5.886a346.453,346.453,0,0,0-34.745.033C77.612,1.935,65.091,6.335,58.1,9.707c-5.475,2.641-18.653,9.164-18.653,9.164l-7.434,1.254c-1.117.06-21.631,1.424-23.99,1.79A4.768,4.768,0,0,0,4.27,25.021c-.6,1.875-1.156,8.743-1.156,8.743" fill="rgba(117,140,196,0.7)" stroke="#4e4c4c" stroke-width="0.2"/><g transform="translate(54.755 3.387)"><g transform="translate(0 0)"><path d="M11.233,6.617c3.513-1.709,12.92-4.1,18.176-5.088S45.336.326,49.6.4,65.7.568,71.932,2.222A43.569,43.569,0,0,1,83.3,7.725c1.05.737,5.609,4.154,6.628,4.931l7.887,7.061L.2,17.534s-.535-3.264,1.237-5.162S11.233,6.617,11.233,6.617Z" fill="#263238"/></g></g><g transform="translate(204.551 29.257)"><g transform="translate(0 0)"><g transform="translate(0 0)"><path d="M6.045,6.736l4.94-.108C10.8,5.35,10.179,1.953,8.084.064L1.544.206A1.5,1.5,0,0,0,.237,2.468L1.412,4.317A5.328,5.328,0,0,0,6.045,6.736Z" fill="#fafafa" stroke="#4e4c4c" stroke-width="0.2"/></g></g><g transform="translate(0.001 0.165)"><g transform="translate(0 0)"><path d="M5.448,6.29C4.952,4.2,4.327,1.464,2.5.02L1.542.041A1.5,1.5,0,0,0,.236,2.3L1.41,4.151a5.291,5.291,0,0,0,4.1,2.4C5.49,6.462,5.469,6.379,5.448,6.29Z" fill="#e0e0e0" stroke="#4e4c4c" stroke-width="0.2"/></g></g></g><g transform="translate(25.086 30.986)"><g transform="translate(136.179 1.082)" opacity="0.7"><g transform="translate(0 0)"><path d="M.626,26a22.46,22.46,0,0,1-.275-7.418C1.716,8.042,8.961.4,19.808.168c9.44-.206,17.191,5.4,18.7,15.878a26,26,0,0,1-.407,9.416Z" stroke="#4e4c4c" stroke-width="0.2"/></g></g><g transform="translate(0.022 2.889)" opacity="0.7"><g transform="translate(0 0)"><path d="M.185,24.189c.019-.389.055-.784.065-1.2C.553,9.7,9.911.416,20.955.175c10.088-.22,18.35,7.483,18.415,17.172a53.479,53.479,0,0,1-.24,8.2l-26.591.384Z" stroke="#4e4c4c" stroke-width="0.2"/></g></g></g><g transform="translate(30.117 36.177)"><g transform="translate(0 0)"><path d="M32.006,15.1c.057,8.455-7.035,15.466-15.84,15.658S.177,24.248.121,15.792,7.156.327,15.96.134,31.949,6.641,32.006,15.1Z" fill="#263238" stroke="#4e4c4c" stroke-width="0.2"/></g><g transform="translate(0.113 14.804)"><g transform="translate(0 0)"><path d="M31.89.253c0,.013,0,.026,0,.039.057,8.455-7.035,15.466-15.84,15.658S.064,9.444.008.988c0-.013,0-.026,0-.039Z" fill="#263238" stroke="#4e4c4c" stroke-width="0.2"/></g></g><g transform="translate(4.785 4.601)"><g transform="translate(0 0)"><path d="M22.471,10.6A11.181,11.181,0,0,1,11.35,21.592,10.781,10.781,0,0,1,.085,11.087,11.181,11.181,0,0,1,11.206.094,10.781,10.781,0,0,1,22.471,10.6Z" fill="#fafafa" stroke="#4e4c4c" stroke-width="0.2"/></g></g><g transform="translate(4.785 4.601)"><g transform="translate(0 0)"><path d="M11.206.094A10.781,10.781,0,0,1,22.471,10.6L.085,11.087A11.181,11.181,0,0,1,11.206.094Z" fill="#e0e0e0" stroke="#4e4c4c" stroke-width="0.2"/></g></g><g transform="translate(9.193 8.84)"><g transform="translate(0 0)"><path d="M13.688,6.456a6.81,6.81,0,0,1-6.774,6.7,6.567,6.567,0,0,1-6.862-6.4A6.811,6.811,0,0,1,6.826.057,6.567,6.567,0,0,1,13.688,6.456Z" fill="#263238" stroke="#4e4c4c" stroke-width="0.2"/></g></g></g><g transform="translate(163.904 34.742)"><g transform="translate(0 0)"><path d="M16.233.16c8.8-.085,15.861,6.707,15.775,15.172s-7.287,15.4-16.085,15.481S.063,24.106.149,15.641,7.435.246,16.233.16Z" transform="translate(32.059 32.397) rotate(-177.426)" fill="#263238" stroke="#4e4c4c" stroke-width="0.2"/></g><g transform="translate(0.743 15.563)"><g transform="translate(0 0)"><path d="M31.891.253c0,.013,0,.026,0,.039.057,8.455-7.035,15.466-15.84,15.658S.064,9.444.008.989c0-.013,0-.026,0-.04Z" fill="#263238" stroke="#4e4c4c" stroke-width="0.2"/></g></g><g transform="translate(5.415 5.361)"><g transform="translate(0 0)"><path d="M22.47,10.6A11.181,11.181,0,0,1,11.35,21.592,10.781,10.781,0,0,1,.085,11.087,11.181,11.181,0,0,1,11.205.094,10.781,10.781,0,0,1,22.47,10.6Z" fill="#fafafa" stroke="#4e4c4c" stroke-width="0.2"/></g></g><g transform="translate(5.415 5.361)"><g transform="translate(0 0)"><path d="M11.205.094A10.78,10.78,0,0,1,22.47,10.6L.085,11.087A11.181,11.181,0,0,1,11.205.094Z" fill="#e0e0e0" stroke="#4e4c4c" stroke-width="0.2"/></g></g><g transform="translate(9.823 9.599)"><g transform="translate(0 0)"><path d="M13.688,6.456a6.811,6.811,0,0,1-6.774,6.7,6.567,6.567,0,0,1-6.862-6.4A6.811,6.811,0,0,1,6.826.057,6.567,6.567,0,0,1,13.688,6.456Z" fill="#263238" stroke="#4e4c4c" stroke-width="0.2"/></g></g></g><g transform="translate(211.441 44.025)" opacity="0.4"><g transform="translate(0 0)"><path d="M.024,3.165c.011,1.715.9,3.087,1.993,3.063S3.98,4.795,3.969,3.08,3.064-.007,1.976.016.013,1.45.024,3.165Z" stroke="#4e4c4c" stroke-width="0.2"/></g></g><g transform="translate(3.113 33.737)"><g transform="translate(0 0)"><path d="M0,.08A1.614,1.614,0,0,0,.308.1l.881.022C1.955.138,3.063.151,4.43.194s3,.1,4.8.227a41.849,41.849,0,0,1,5.8.776,14.927,14.927,0,0,1,2.848.924,11.847,11.847,0,0,1,2.338,1.464,35.8,35.8,0,0,1,3.454,3.144,13.847,13.847,0,0,0,2.483,1.976,6.7,6.7,0,0,0,.775.4,1.548,1.548,0,0,0,.284.11c.011-.022-.378-.181-1.011-.581a14.9,14.9,0,0,1-2.416-2.015,33.707,33.707,0,0,0-3.436-3.192,11.889,11.889,0,0,0-2.371-1.5A14.968,14.968,0,0,0,15.083.984,40.286,40.286,0,0,0,9.246.22C7.438.1,5.807.053,4.437.039S1.958.026,1.191.04L.308.058A1.648,1.648,0,0,0,0,.08Z" fill="#263238" stroke="#4e4c4c" stroke-width="0.2"/></g></g><g transform="translate(56.615 54.931)"><g transform="translate(0 0)"><path d="M0,0" fill="#fff" stroke="#4e4c4c" stroke-miterlimit="10" stroke-width="0.2"/></g></g><g transform="translate(199.393 42.385)"><g transform="translate(0 0)"><path d="M.044,5.726a7.547,7.547,0,0,0,.52-.588A11.678,11.678,0,0,1,2.123,3.679,15.692,15.692,0,0,1,8.565.81,31,31,0,0,1,15.685.316C16.6.342,17.341.378,17.854.4a5.72,5.72,0,0,0,.8.014.733.733,0,0,0-.2-.037L17.862.315C17.351.267,16.611.207,15.694.161A28.709,28.709,0,0,0,8.521.6a15.227,15.227,0,0,0-6.5,2.964A10.206,10.206,0,0,0,.5,5.085c-.165.193-.268.361-.347.468A.694.694,0,0,0,.044,5.726Z" fill="#4e4c4c" stroke="#4e4c4c" stroke-width="0.1"/></g></g><g transform="translate(198.172 36.195)"><g transform="translate(0 0)"><path d="M0,.529C0,.589,3.81.555,8.5.453S17,.218,17,.158,13.2.131,8.5.234,0,.468,0,.529Z" fill="#4e4c4c" stroke="#4e4c4c" stroke-width="0.1"/></g></g><g transform="translate(54.956 20.92)"><g transform="translate(0 0)"><path d="M0,0S.014.066.048.193L.2.761.825,2.969,3.2,11.334l.006.021.021.009a19.3,19.3,0,0,1,4.877,3.1,19.418,19.418,0,0,1,2.264,2.315,22.453,22.453,0,0,1,1.974,2.829,27.154,27.154,0,0,1,2.8,6.94,32.287,32.287,0,0,1,1.035,8.18v.081h.082l35.75-.275,46.115-.385H98.2l.009-.063c1.232-9.091,2.026-16.574,2.509-21.781.243-2.6.411-4.639.522-6.022.052-.689.092-1.217.119-1.577s.033-.54.033-.54-.023.183-.055.538-.079.887-.141,1.576c-.129,1.386-.319,3.418-.562,6.019-.509,5.2-1.324,12.684-2.573,21.771l.074-.063-46.115.35-35.751.3.081.08a32.324,32.324,0,0,0-1.052-8.22,27.239,27.239,0,0,0-2.832-6.97A22.534,22.534,0,0,0,10.47,16.7a19.508,19.508,0,0,0-2.284-2.323,19.363,19.363,0,0,0-4.914-3.1l.027.03L.876,2.955.23.754.062.19C.023.063,0,0,0,0Z" fill="#263238" stroke="#4e4c4c" stroke-width="0.2"/></g></g><g transform="translate(155.946 19.338)"><g transform="translate(0 0)"><path d="M.012,1.537a5.672,5.672,0,0,0,4.235.718A4.62,4.62,0,0,0,7.48.144L4.344.035Z" fill="#263238" stroke="#4e4c4c" stroke-width="0.2"/></g></g><g transform="translate(131.748 4.789)"><g transform="translate(0 0)"><path d="M28.541,14.583s-3.178,1.877-4.1,1.632S8.87,4.887,0,.633A11.048,11.048,0,0,1,2.714.022S6.839,2,11.98,4.948c3.911,2.241,7.891,4.591,9.752,5.673Z" fill="#f0f5fd" stroke="#4e4c4c" stroke-width="0.2"/></g></g><g transform="translate(152.571 23.103)"><g transform="translate(0 0)"><path d="M0,0A.719.719,0,0,0,.1.053L.394.2,1.553.743,5.928,2.779l.013.006h.016c2.753-.105,6.289-.194,10.337-.087,2.023.056,4.174.161,6.414.336s4.568.424,6.952.725c4.176.516,8.116,1.176,11.721,1.7a93.794,93.794,0,0,0,9.668.9c2.771.112,5.019.06,6.569.009.776-.026,1.377-.057,1.785-.082l.464-.028c.1-.007.158-.015.158-.015s-.054,0-.158,0l-.465.014c-.408.015-1.01.037-1.785.053-1.549.032-3.8.069-6.56-.057a96.052,96.052,0,0,1-9.645-.929c-3.6-.535-7.542-1.2-11.722-1.716-2.387-.3-4.719-.547-6.963-.723s-4.4-.273-6.425-.325c-4.055-.1-7.594.005-10.349.128l.029.006-4.4-2L.41.173.105.041A.685.685,0,0,0,0,0Z" fill="#4e4c4c" stroke="#4e4c4c" stroke-width="0.1"/></g></g><g transform="translate(56.561 4.506)"><g transform="translate(0 0)"><path d="M90.224,17.7c-22.4-.783-67.594-1.222-89.994-2a3.573,3.573,0,0,1,1.4-3.853,50.066,50.066,0,0,1,10.9-6A87.282,87.282,0,0,1,33.276,1.039c3.994-.345,11.3-.685,11.3-.685s13.363.405,17.091.7a39.346,39.346,0,0,1,13.5,3.429c4.653,2.184,12.727,8.659,12.727,8.659l5.677,4.534Z" fill="#f0f5fd"/></g></g><g transform="translate(100.623 4.145)"><g transform="translate(0 0)"><path d="M5.078.04,9.256,17.77l-7.84-.178L0,.081Z" fill="#263238"/></g></g><g transform="translate(70.69 8.747)"><g transform="translate(0 0)"><path d="M1.072.009l.663,12.027-1.09.009L0,.393Z" fill="#263238"/></g></g><g transform="translate(143.562 18.121)"><g transform="translate(0 0)"><path d="M2.411.019C2.064.465.037,4.78.037,4.78l7.572-.536Z" fill="#263238"/></g></g><g transform="translate(103.245 4.002)"><g transform="translate(0 0)"><path d="M0,0C-.047.008.53,4.052,1.293,9.031s1.423,9.011,1.474,9S2.24,13.983,1.477,9,.054-.008,0,0Z" fill="#455a64"/></g></g><g transform="translate(113.856 7.351)"><g transform="translate(0 0)"><path d="M0,0A.59.59,0,0,0,.083.146l.265.4,1,1.45c.846,1.222,2.012,2.911,3.281,4.788s2.4,3.589,3.22,4.829l.972,1.466.271.395A.6.6,0,0,0,9.2,13.6a.556.556,0,0,0-.073-.15l-.241-.413c-.213-.356-.528-.868-.923-1.5-.79-1.257-1.9-2.98-3.175-4.86S2.329,3.126,1.455,1.922C1.018,1.32.66.836.408.5L.114.126C.045.04.006,0,0,0Z" fill="#263238"/></g></g><g transform="translate(117.123 10.014)"><g transform="translate(0 0)"><path d="M0,0A25.363,25.363,0,0,0,1.743,2.513,25.478,25.478,0,0,0,3.637,4.921,25.339,25.339,0,0,0,1.895,2.409,25.52,25.52,0,0,0,0,0Z" fill="#263238"/></g></g><g transform="translate(3.128 24.591)"><g transform="translate(0 0)"><path d="M.063,8.279a8.712,8.712,0,0,0,3.265-.492,4.129,4.129,0,0,0,2.28-5.569L5.589,2.18A3.96,3.96,0,0,0,2.076.017L1.3.024A4.673,4.673,0,0,0,.777,1.807C.553,3.444.215,5.922.063,8.279Z" fill="#f5f5f5" stroke="#4e4c4c" stroke-width="0.2"/></g></g><path d="M8.113.065,2.153.112C.977.122.019.768.012,1.555S.953,2.973,2.129,2.964l5.96-.047c1.176-.009,2.134-.655,2.141-1.443S9.289.055,8.113.065Z" transform="translate(110.238 24.14)" fill="#263238" stroke="#4e4c4c" stroke-width="0.2"/><path d="M8.113.065,2.153.112C.977.122.019.768.012,1.555S.953,2.973,2.129,2.964l5.96-.047c1.176-.009,2.134-.655,2.141-1.443S9.289.055,8.113.065Z" transform="translate(71.763 23.749)" fill="#263238" stroke="#4e4c4c" stroke-width="0.2"/><g transform="translate(85.705 8.152)"><g transform="translate(0 0)"><path d="M0,0c-.044.027,1.645,2.673,3.771,5.91s3.886,5.841,3.93,5.814S6.057,9.052,3.93,5.814.044-.026,0,0Z" fill="#263238"/></g></g><g transform="translate(86.255 11.505)"><g transform="translate(0 0)"><path d="M0,0A15.71,15.71,0,0,0,1.261,2.055,15.872,15.872,0,0,0,2.677,4.011,15.717,15.717,0,0,0,1.418,1.957,15.922,15.922,0,0,0,0,0Z" fill="#263238"/></g></g></g></g></g><path d="M2707.31-1380.325l-14.018,32.387h14.018l-9.463,30.676,24.386-37.744h-20.319Z" transform="translate(-2557.838 1465.394)" fill="#f9feff"/><path d="M7.721,0,0,17.839H7.721l-5.213,16.9L15.941,13.946H4.749Z" transform="translate(175.355 105.852) rotate(34)" fill="#f9feff"/><path d="M7.721,0,0,17.839H7.721l-5.213,16.9L15.941,13.946H4.749Z" transform="matrix(0.914, 0.407, -0.407, 0.914, 178.441, 81.095)" fill="#f9feff"/></g></svg>