<svg xmlns="http://www.w3.org/2000/svg" xmlns:xlink="http://www.w3.org/1999/xlink" width="27.239" height="14.966" viewBox="0 0 27.239 14.966"><defs><style>.a{opacity:0.8;}.b{fill:#6e7b9a;}.c{fill:none;}.d{fill:#f5f5f5;}.e{filter:url(#c);}.f{filter:url(#a);}</style><filter id="a" x="10.162" y="5.095" width="9" height="9" filterUnits="userSpaceOnUse"><feOffset dy="3" input="SourceAlpha"/><feGaussianBlur stdDeviation="1.5" result="b"/><feFlood flood-opacity="0.161"/><feComposite operator="in" in2="b"/><feComposite in="SourceGraphic"/></filter><filter id="c" x="4.089" y="1.613" width="9" height="9" filterUnits="userSpaceOnUse"><feOffset dy="3" input="SourceAlpha"/><feGaussianBlur stdDeviation="1.5" result="d"/><feFlood flood-opacity="0.161"/><feComposite operator="in" in2="d"/><feComposite in="SourceGraphic"/></filter></defs><g class="a"><path class="b" d="M22.759,64.664a2.551,2.551,0,1,1,3.051-1.925A2.554,2.554,0,0,1,22.759,64.664Zm.974-4.3a1.859,1.859,0,1,0,1.4,2.224A1.861,1.861,0,0,0,23.733,60.362Z" transform="translate(-17.574 -49.788)"/><path class="b" d="M21.732,38.358,18.8,37.694,17.64,34.581a5.935,5.935,0,0,0-3.189-3.244l-.376-.151L12.9,36.36l-.153.675-1.222,5.4,2.671.6.1-.3a3.018,3.018,0,0,1,3.6-2.052l.158.036a3.018,3.018,0,0,1,2.367,3.4l-.044.315,3.294.746.6-2.666A3.334,3.334,0,0,0,21.732,38.358ZM14.565,32.15a5.332,5.332,0,0,1,2.427,2.676l1,2.687-4.416-1Zm8.585,12.2L21.128,43.9a3.641,3.641,0,0,0-2.92-3.853l-.158-.036a3.641,3.641,0,0,0-4.294,2.219l-1.4-.317,1.069-4.723,5.663,1.282,2.492.564A2.636,2.636,0,0,1,23.6,42.362Z" transform="translate(-11.528 -31.186)"/><path class="b" d="M69.283,64.753a2.551,2.551,0,1,1,1.988-3.01A2.554,2.554,0,0,1,69.283,64.753ZM68.4,60.432a1.859,1.859,0,1,0,2.194,1.449A1.861,1.861,0,0,0,68.4,60.432Z" transform="translate(-47.303 -49.839)"/><path class="b" d="M63.328,31.609a5.936,5.936,0,0,0-3.258,3.18l-1.223,3.086-2.946.6a3.334,3.334,0,0,0-2.631,4.1l.548,2.678,3.307-.677-.036-.315a3.018,3.018,0,0,1,2.438-3.353l.159-.032a3.018,3.018,0,0,1,3.558,2.126l.089.305,2.684-.549-1.109-5.422-.139-.678-1.063-5.2ZM65.2,42.223l-1.407.288A3.641,3.641,0,0,0,59.547,40.2l-.159.032a3.641,3.641,0,0,0-3,3.791l-2.032.415-.409-2a2.636,2.636,0,0,1,2.092-3.286l2.5-.512,5.688-1.163Zm-5.544-4.515,1.055-2.662A5.334,5.334,0,0,1,63.2,32.419l.9,4.382Z" transform="translate(-38.777 -31.369)"/><g class="f" transform="matrix(1, 0, 0, 1, 0, 0)"><path class="c" d="M53.917,53.144" transform="translate(-39.26 -46.55)"/></g><g class="e" transform="matrix(1, 0, 0, 1, 0, 0)"><path class="d" d="M36.359,43.078Z" transform="translate(-27.77 -39.96)"/></g></g></svg>