<svg xmlns="http://www.w3.org/2000/svg" width="57.806" height="58.727" viewBox="0 0 57.806 58.727"><defs><style>.a,.b{fill:#7a86a2;}.a{stroke:#7a86a2;stroke-miterlimit:10;stroke-width:0.2px;}</style></defs><g transform="translate(-619.375 -436.906)"><g transform="translate(619.476 469.114)"><path class="a" d="M63.041,51.326a2.846,2.846,0,0,0-1.335-1.887.923.923,0,0,0-.081-.049,6.157,6.157,0,0,0-2.7-.59,6.887,6.887,0,0,0-4.382,1.616L43.527,59.431a1.48,1.48,0,0,1-.876.212H33.339c-.117-.03-.4-.127-.4-.335.016-.371.241-.371.389-.371h8.211a.591.591,0,0,0,.082-.005c1.145-.109,3.3-.895,3.327-3.091a3.068,3.068,0,0,0-.757-2.18,3.559,3.559,0,0,0-2.761-1.042l-16.206-.27a23.319,23.319,0,0,0-11.262,3.116.792.792,0,0,0-.076.053L5.812,61.826a.874.874,0,0,0-.074,1.312L17.813,74.97a.873.873,0,0,0,1.226-.005l3.157-3.14a1.007,1.007,0,0,0,.115-.14.778.778,0,0,1,.581-.326H42.265c.18-.006,4.44-.186,6.986-3.069L62.519,53.345l.044-.054A2.708,2.708,0,0,0,63.041,51.326Zm-1.863.9L47.944,67.13c-2.043,2.314-5.7,2.481-5.709,2.481H22.892a2.492,2.492,0,0,0-1.982,1.03L18.419,73.12,7.673,62.59l7.253-5.667a21.9,21.9,0,0,1,10.322-2.829h0l16.169.27a1.964,1.964,0,0,1,1.473.46,1.347,1.347,0,0,1,.317.9c0,.027,0,.054,0,.082,0,1.113-1.467,1.351-1.713,1.382H33.33a2.057,2.057,0,0,0-2.135,2.1A2.19,2.19,0,0,0,33.1,61.379a.766.766,0,0,0,.144.013h9.405a3,3,0,0,0,2-.622l10.99-8.995a5.175,5.175,0,0,1,3.283-1.228,4.679,4.679,0,0,1,1.856.374,1.16,1.16,0,0,1,.538.684A.949.949,0,0,1,61.178,52.224Z" transform="translate(-5.476 -48.8)"/></g><g transform="translate(622.686 436.906)"><g transform="translate(0 0)"><path class="b" d="M75.3,47.687l-6.045-13.1A1.008,1.008,0,0,0,68.313,34H32.076a1,1,0,0,0-.938.591l-6.045,13.1a1.327,1.327,0,0,0-.089.5c.1,9.229,14,9.236,14.1,0a1.3,1.3,0,0,0-.089-.5L33.63,36.016H49.187V59.683L42.555,64.42a1.009,1.009,0,0,0,.586,1.829H57.25a1.008,1.008,0,0,0,.586-1.828L51.2,59.683V36.016H66.761c-16.187,35.068,10.793-23.379-5.394,11.69a1.252,1.252,0,0,0-.083.481c.1,9.229,14,9.236,14.1,0A1.3,1.3,0,0,0,75.3,47.687Zm-48.18,1.43h9.874A5.043,5.043,0,0,1,27.117,49.117ZM36.526,47.1H27.583l4.472-9.689ZM54.1,64.234h-7.82l3.91-2.793ZM68.336,37.412,72.808,47.1H63.864ZM63.4,49.117h9.873A5.043,5.043,0,0,1,63.4,49.117Z" transform="translate(-25.001 -33.999)"/></g></g></g></svg>