<svg xmlns="http://www.w3.org/2000/svg" width="253.868" height="162.488" viewBox="0 0 253.868 162.488"><g transform="translate(0 0.15)"><path d="M246.574,121.473c-16.275-.517-31.776-5.315-46.58-10.565S170.533,99.84,154.647,97.07c-10.217-1.789-21.9-2.042-30.134,2.961-7.921,4.823-10.481,13.126-11.859,20.836-1.034,5.8-1.645,11.909,1.194,17.341,1.969,3.771,5.467,6.941,7.886,10.554,8.414,12.568,2.467,28.067-6.654,40.338-4.275,5.756-9.239,11.254-12.541,17.377s-4.828,13.149-1.941,19.4c2.864,6.2,9.687,10.85,17.075,14.123,15.01,6.647,32.691,8.551,49.947,9.628,38.178,2.386,76.562,1.353,114.841.319,14.168-.384,28.4-.772,42.332-2.772,7.74-1.112,15.732-2.876,21.35-7.12,7.132-5.4,8.9-14.557,4.122-21.332-8.017-11.367-30.176-14.192-35.787-26.39-3.086-6.713.083-14.194,4.564-20.421,9.616-13.36,25.733-25.079,26.583-40.35.583-10.487-7.164-20.99-19.144-25.954-12.558-5.2-29.97-4.548-39.229,4.063C277.706,118.517,260.943,121.928,246.574,121.473Z" transform="translate(-99.073 -89.008)" fill="#dfe4ef"/><g transform="translate(11.756)"><g transform="translate(56.854)"><path d="M215.743,143.094a11.017,11.017,0,0,0-11,11v126.78a11.017,11.017,0,0,0,11,11h93a11.017,11.017,0,0,0,11-11V154.1a11.017,11.017,0,0,0-11-11Z" transform="translate(-204.739 -129.695)" fill="#97a7d1" stroke="#4e4c4c" stroke-width="0.3"/><rect width="103.566" height="133.156" transform="translate(5.723 21.216)" fill="#f9feff" stroke="#4e4c4c" stroke-width="0.3"/><rect width="76.488" height="5.025" rx="2.512" transform="translate(19.262 45.083)" fill="#97a7d1"/><rect width="76.488" height="5.025" rx="2.512" transform="translate(19.262 58.483)" fill="#97a7d1"/><rect width="76.488" height="5.025" rx="2.512" transform="translate(19.262 71.882)" fill="#97a7d1"/><rect width="76.488" height="5.025" rx="2.512" transform="translate(19.262 85.281)" fill="#97a7d1"/><rect width="76.488" height="5.025" rx="2.512" transform="translate(19.262 98.681)" fill="#97a7d1"/><path d="M392.835,91.733h-9.126V89.865a5.11,5.11,0,0,0-5.11-5.11H368.72a5.11,5.11,0,0,0-5.111,5.11v1.868h-9.126a5.11,5.11,0,0,0-5.11,5.11v14.151h48.573V96.843a5.11,5.11,0,0,0-5.11-5.11Z" transform="translate(-316.154 -84.754)" fill="#97a7d1" stroke="#4e4c4c" stroke-width="0.3"/><path d="M438.8,696a16.08,16.08,0,0,1,4.852-2.576,5.1,5.1,0,0,1,4.805.882,2.944,2.944,0,0,1,.711,3.722,2.365,2.365,0,0,1-1.567,1.14,1.887,1.887,0,0,1-1.7-.663,1.731,1.731,0,0,1-.433-1.7,2.228,2.228,0,0,1,1.428-1.213,10.561,10.561,0,0,1,2.129-.44l2.961-.405,12.12-1.659,13.5-1.848a.422.422,0,0,0,.292-.515.43.43,0,0,0-.515-.292l-26.856,3.677c-.971.133-1.957.228-2.918.424a4.906,4.906,0,0,0-2.1.87,2.5,2.5,0,0,0-.011,3.886,2.77,2.77,0,0,0,3.988-.3,3.616,3.616,0,0,0,.274-4.431,5.372,5.372,0,0,0-5.239-2.151c-2.312.284-4.272,1.583-6.149,2.868-.442.3-.024,1.029.423.723Z" transform="translate(-384.572 -551.313)" fill="#3f3d56"/></g><rect width="49.907" height="20.212" rx="10" transform="translate(72.477 112.68)" fill="#f0f5fd" stroke="#4e4c4c" stroke-width="0.1"/><rect width="85.21" height="20.212" rx="10" transform="translate(72.221 112.68)" fill="none" stroke="#3f3d56" stroke-miterlimit="10" stroke-width="0.2"/><path d="M416.716,303.563a4.157,4.157,0,0,0-7.77-1.1,3.326,3.326,0,0,0,.361,6.633h7.216a2.781,2.781,0,0,0,2.775-2.786A2.74,2.74,0,0,0,416.716,303.563Zm-3.19,1.638v2.108h-1.778V305.2h-1.886l2.774-2.777,2.774,2.777Z" transform="translate(-307.292 -181.858)" fill="#97a7d1" stroke="#4e4c4c" stroke-width="0.1"/></g></g></svg>