<svg xmlns="http://www.w3.org/2000/svg" width="253.701" height="162.671" viewBox="0 0 253.701 162.671"><g transform="translate(0 0.3)"><path d="M246.477,121.455c-16.264-.516-31.755-5.311-46.549-10.558s-29.443-11.06-45.318-13.828c-10.21-1.788-21.886-2.04-30.114,2.958-7.916,4.82-10.474,13.117-11.851,20.821-1.033,5.8-1.644,11.9,1.194,17.328,1.968,3.769,5.463,6.936,7.881,10.546,8.409,12.559,2.465,28.046-6.649,40.309-4.272,5.752-9.233,11.246-12.533,17.365s-4.825,13.14-1.94,19.387c2.862,6.2,9.68,10.842,17.064,14.113,15,6.642,32.669,8.545,49.914,9.621,38.153,2.385,76.512,1.352,114.765.319,14.158-.383,28.377-.771,42.3-2.77,7.735-1.111,15.722-2.873,21.336-7.115,7.127-5.4,8.894-14.546,4.119-21.317-8.012-11.359-30.156-14.182-35.763-26.371-3.084-6.709.083-14.184,4.561-20.406,9.61-13.351,25.716-25.06,26.565-40.321.583-10.48-7.16-20.975-19.132-25.935-12.55-5.2-29.95-4.544-39.2,4.06C277.589,118.5,260.837,121.909,246.477,121.455Z" transform="translate(-99.073 -89.013)" fill="#e5e7ed"/><g transform="translate(12.807)"><g transform="translate(56.819)"><path d="M215.735,143.094a11.009,11.009,0,0,0-11,11V280.779a11.009,11.009,0,0,0,11,11H308.67a11.009,11.009,0,0,0,11-11V154.091a11.009,11.009,0,0,0-11-11Z" transform="translate(-204.739 -129.704)" fill="#e7e8ee" stroke="#4e4c4c" stroke-width="0.6"/><rect width="103.491" height="133.06" transform="translate(5.719 21.2)" fill="#e7e8ee" stroke="#4e4c4c" stroke-width="0.6"/><rect width="76.433" height="5.021" rx="2.511" transform="translate(19.248 45.051)" fill="#2f2f2f"/><rect width="76.433" height="5.021" rx="2.511" transform="translate(19.248 58.441)" fill="#2f2f2f"/><rect width="76.433" height="5.021" rx="2.511" transform="translate(19.248 71.83)" fill="#2f2f2f"/><rect width="76.433" height="5.021" rx="2.511" transform="translate(19.248 85.22)" fill="#2f2f2f"/><rect width="76.433" height="5.021" rx="2.511" transform="translate(19.248 98.61)" fill="#2f2f2f"/><path d="M392.8,91.728h-9.12V89.861a5.107,5.107,0,0,0-5.107-5.107h-9.871a5.107,5.107,0,0,0-5.107,5.107v1.867h-9.12a5.107,5.107,0,0,0-5.107,5.107v14.141H397.91V96.835A5.107,5.107,0,0,0,392.8,91.728Z" transform="translate(-316.178 -84.754)" fill="#e7e8ee" stroke="#4e4c4c" stroke-width="0.6"/><path d="M438.8,696a16.068,16.068,0,0,1,4.848-2.574,5.1,5.1,0,0,1,4.8.881,2.942,2.942,0,0,1,.711,3.719,2.364,2.364,0,0,1-1.566,1.139,1.886,1.886,0,0,1-1.7-.663,1.73,1.73,0,0,1-.432-1.7,2.226,2.226,0,0,1,1.427-1.212,10.551,10.551,0,0,1,2.128-.44l2.959-.405,12.111-1.658,13.487-1.846a.421.421,0,0,0,.292-.515.429.429,0,0,0-.515-.292l-26.837,3.674c-.971.133-1.955.228-2.916.423a4.9,4.9,0,0,0-2.094.87,2.5,2.5,0,0,0-.011,3.883,2.768,2.768,0,0,0,3.985-.3,3.613,3.613,0,0,0,.274-4.427,5.368,5.368,0,0,0-5.235-2.149c-2.31.284-4.269,1.582-6.145,2.866-.442.3-.024,1.028.422.723Z" transform="translate(-384.611 -551.414)" fill="#3f3d56"/></g><rect width="49.87" height="20.197" rx="10" transform="translate(72.432 112.599)" fill="#f0f5fd" stroke="#4e4c4c" stroke-width="0.4"/><rect width="85.149" height="20.197" rx="10" transform="translate(72.175 112.599)" fill="none" stroke="#3f3d56" stroke-miterlimit="10" stroke-width="0.4"/><path d="M416.708,303.56a4.154,4.154,0,0,0-7.764-1.1,3.323,3.323,0,0,0,.36,6.628h7.211a2.779,2.779,0,0,0,2.773-2.784A2.738,2.738,0,0,0,416.708,303.56ZM413.52,305.2V307.3h-1.776V305.2h-1.884l2.773-2.775L415.4,305.2Z" transform="translate(-307.363 -181.943)" fill="#d8d9de" stroke="#4e4c4c" stroke-width="0.4"/></g></g></svg>