<svg xmlns="http://www.w3.org/2000/svg" width="13.843" height="19.381" viewBox="0 0 13.843 19.381"><defs><style>.a{opacity:0.5;}.b{fill:#071e54;}</style></defs><g class="a"><path class="b" d="M18.022,3.036A.457.457,0,0,0,17.845,3H9.539a.461.461,0,0,0-.461.461V21.919a.461.461,0,0,0,.461.461H22.46a.461.461,0,0,0,.461-.461V8.076a.467.467,0,0,0-.136-.327L18.172,3.135A.468.468,0,0,0,18.022,3.036Zm.285,1.54,3.039,3.039H18.307ZM22,21.458H10V3.923h7.383V8.076a.461.461,0,0,0,.461.461H22Z" transform="translate(-9.078 -3)"/><path class="b" d="M21.023,18.488a.463.463,0,0,0-.5.1L18.213,20.9a.461.461,0,0,0,.652.652l1.52-1.52V26.3a.461.461,0,1,0,.923,0V20.028l1.52,1.52a.461.461,0,0,0,.652-.652l-2.307-2.307A.462.462,0,0,0,21.023,18.488Z" transform="translate(-13.925 -11.322)"/></g></svg>