<svg xmlns="http://www.w3.org/2000/svg" width="63.444" height="57.196" viewBox="0 0 63.444 57.196"><defs><style>.a{fill:none;stroke:#7a86a3;stroke-linecap:round;stroke-linejoin:round;stroke-width:3px;}</style></defs><g transform="translate(-0.5 -0.5)"><g transform="translate(2 2)"><path class="a" d="M60.427,17.86H4.017A2.017,2.017,0,0,0,2,19.877V59.619a2.017,2.017,0,0,0,2.017,2.017h56.41a2.024,2.024,0,0,0,2.017-2.017V19.877A2.024,2.024,0,0,0,60.427,17.86Z" transform="translate(-2 -7.44)"/><line class="a" x1="26.057" transform="translate(0 27.095)"/><line class="a" x1="26.057" transform="translate(34.388 27.095)"/><path class="a" d="M32.14,12.42V6.165A4.179,4.179,0,0,1,36.305,2H48.788a4.179,4.179,0,0,1,4.165,4.165V12.42" transform="translate(-12.338 -2)"/><path class="a" d="M49.987,37.894v6.255a4.169,4.169,0,1,1-8.337,0V37.894a4.169,4.169,0,1,1,8.337,0Z" transform="translate(-15.6 -12.882)"/></g></g></svg>