<svg xmlns="http://www.w3.org/2000/svg" width="62.53" height="40.2" viewBox="0 0 62.53 40.2"><defs><style>.a{fill:#7a86a2;}</style></defs><g transform="translate(0)"><path class="a" d="M3847.532,1535.494h-29.125a3.116,3.116,0,0,0-3.114,3.111v5.625h-12.416c-2.028,0-2.644,1.656-3.009,2.637l-3.62,8.14c-1.871.264-4.288.634-5.325.913h0a3.788,3.788,0,0,0-2.807,4.042v7.764a3.117,3.117,0,0,0,3.114,3.114h5.823l.033,0a6.484,6.484,0,0,0,12.552,0h21.427a6.485,6.485,0,0,0,12.552,0l.033,0h3.883a3.117,3.117,0,0,0,3.114-3.114v-29.122A3.116,3.116,0,0,0,3847.532,1535.494Zm-10.193,29.525a4.168,4.168,0,1,1-4.168,4.168A4.172,4.172,0,0,1,3837.339,1565.019Zm-19.7-26.414a.772.772,0,0,1,.772-.77h29.125a.772.772,0,0,1,.772.77v29.122a.773.773,0,0,1-.772.772h-3.752a6.524,6.524,0,0,0-2.052-4.1,6.466,6.466,0,0,0-10.832,4.1h-13.261Zm-18.785,16.306,3.177-7.15,0-.007c.445-1.182.581-1.182.848-1.182h12.416v8.339Zm4.511,10.108a4.168,4.168,0,1,1-4.168,4.168A4.173,4.173,0,0,1,3803.361,1565.019Zm-7.41.767a1.171,1.171,0,0,0-1.169-1.169h-4.325v-4.653c0-1.33.574-1.651,1.073-1.783,1.224-.328,4.933-.844,5.592-.929H3815.3V1568.5H3809.8a6.522,6.522,0,0,0-2.051-4.1,6.453,6.453,0,0,0-8.784,0,6.526,6.526,0,0,0-2.051,4.1h-5.691a.773.773,0,0,1-.772-.772v-.772h4.327A1.171,1.171,0,0,0,3795.951,1565.786Z" transform="translate(-3788.115 -1535.494)"/><path class="a" d="M3949.878,1718.766h2.915a1.17,1.17,0,1,0,0-2.339h-2.915a1.17,1.17,0,0,0,0,2.339Z" transform="translate(-3928.325 -1693.462)"/></g></svg>