<svg xmlns="http://www.w3.org/2000/svg" width="71.094" height="67.87" viewBox="0 0 71.094 67.87"><defs><style>.a{opacity:0.5;}.b{fill:#071e54;}</style></defs><g class="a" transform="translate(-0.07 -0.94)"><g transform="translate(0.07 0.94)"><g transform="translate(0)"><path class="b" d="M44.979,270.229H7.641A7.585,7.585,0,0,1,.07,262.644v-.781A7.585,7.585,0,0,1,7.641,254.3H44.979a7.585,7.585,0,0,1,7.571,7.571v.773A7.585,7.585,0,0,1,44.979,270.229ZM7.641,256.754a5.125,5.125,0,0,0-5.125,5.125v.765a5.125,5.125,0,0,0,5.125,5.125H44.979a5.125,5.125,0,0,0,5.125-5.125v-.781a5.125,5.125,0,0,0-5.125-5.125Z" transform="translate(-0.07 -202.359)"/><circle class="b" cx="3.075" cy="3.075" r="3.075" transform="translate(6.047 58.043) rotate(-19.64)"/><circle class="b" cx="3.075" cy="3.075" r="3.075" transform="translate(37.899 61.37) rotate(-64.64)"/><circle class="b" cx="3.075" cy="3.075" r="3.075" transform="translate(27.391 58.043) rotate(-19.64)"/><circle class="b" cx="3.075" cy="3.075" r="3.075" transform="translate(16.555 61.369) rotate(-64.64)"/><path class="b" d="M89.095,234.067H67.46a1.23,1.23,0,0,1-1.23-1.23V227.23A1.23,1.23,0,0,1,67.46,226H89.095a1.23,1.23,0,0,1,1.23,1.23v5.611A1.23,1.23,0,0,1,89.095,234.067Zm-20.411-2.46H87.867V228.46H68.686Z" transform="translate(-52.667 -179.861)"/><path class="b" d="M68.844,136.865H31.61a1.23,1.23,0,0,1-1.23-1.23V112.75a1.23,1.23,0,0,1,1.23-1.23H56.826a5.166,5.166,0,0,1,3.84,1.714l9.09,10.14a1.23,1.23,0,0,1,.314.82v11.444A1.23,1.23,0,0,1,68.844,136.865Zm-36-2.46H67.614v-9.74l-8.776-9.789a2.708,2.708,0,0,0-2.013-.9H32.838Z" transform="translate(-24.166 -88.85)"/><path class="b" d="M141.029,125.422H122.41a1.23,1.23,0,0,1-1.23-1.23V112.75a1.23,1.23,0,0,1,2.46,0v10.22h17.389a1.23,1.23,0,0,1,0,2.46Z" transform="translate(-96.351 -88.85)"/><path class="b" d="M175.853,35.579a1.23,1.23,0,0,1-.98-1.952L193.615,8.616,169.311,27.2a1.23,1.23,0,1,1-1.49-1.948L199.169,1.277a1.23,1.23,0,0,1,1.726,1.71l-24.054,32.1A1.23,1.23,0,0,1,175.853,35.579Z" transform="translate(-132.984 -1.019)"/><path class="b" d="M201.156,85.864a1.23,1.23,0,0,1-1.22-1.105l-.957-9.732a1.23,1.23,0,0,1,1.23-1.347h6.464l.9-6.394a1.23,1.23,0,0,1,1.214-1.056h6.331a1.23,1.23,0,0,1,0,2.46h-5.271l-.9,6.394a1.23,1.23,0,0,1-1.214,1.056h-6.187l.832,8.375a1.23,1.23,0,0,1-1.1,1.341Z" transform="translate(-158.196 -52.845)"/><path class="b" d="M320.79,19.551a1.23,1.23,0,0,1-1.23-1.23V2.17a1.23,1.23,0,0,1,2.46,0V18.323A1.23,1.23,0,0,1,320.79,19.551Z" transform="translate(-254.062 -0.94)"/><path class="b" d="M310.15,88.45a4.355,4.355,0,0,1-3.875-2.354,1.23,1.23,0,0,1,2.175-1.134,1.913,1.913,0,1,0,1.7-2.792,1.23,1.23,0,1,1,0-2.46,4.366,4.366,0,0,1,0,8.731Z" transform="translate(-243.422 -63.561)"/></g></g></g></svg>