<svg xmlns="http://www.w3.org/2000/svg" width="59.822" height="72.29" viewBox="0 0 59.822 72.29"><defs><style>.a{fill:#7a86a2;stroke:#7b86a2;stroke-miterlimit:10;}.b{fill:#7985a2;}</style></defs><g transform="translate(-611.678 -423.192)"><g transform="translate(616.067 472.541)"><path class="a" d="M26.979,104.041H9.657a.458.458,0,0,1-.457-.457V92.98A11.411,11.411,0,0,1,20.58,81.6a11.189,11.189,0,0,1,8.044,3.336,10.343,10.343,0,0,1,2.194,3.154L30,88.456a9.384,9.384,0,0,0-2.011-2.879,10.5,10.5,0,0,0-17.916,7.4v10.146H26.933v.914Z" transform="translate(-9.2 -81.6)"/></g><g transform="translate(620.454 459.47)"><path class="a" d="M25.793,66.986a6.993,6.993,0,1,1,6.993-6.993A7.022,7.022,0,0,1,25.793,66.986Zm0-13.117a6.124,6.124,0,1,0,6.124,6.124A6.125,6.125,0,0,0,25.793,53.868Z" transform="translate(-18.8 -53)"/></g><g transform="translate(647.192 472.541)"><path class="a" d="M98.553,104.041H81.231v-.914H98.1V92.98a10.5,10.5,0,0,0-19.973-4.525L77.3,88.09A11.389,11.389,0,0,1,87.584,81.6,11.391,11.391,0,0,1,98.964,92.98v10.6A.4.4,0,0,1,98.553,104.041Z" transform="translate(-77.3 -81.6)"/></g><g transform="translate(650.482 459.47)"><path class="a" d="M91.493,66.986a6.993,6.993,0,1,1,6.993-6.993A7.022,7.022,0,0,1,91.493,66.986Zm0-13.117a6.124,6.124,0,1,0,6.124,6.124A6.125,6.125,0,0,0,91.493,53.868Z" transform="translate(-84.5 -53)"/></g><g transform="translate(633.389 477.02)"><path class="a" d="M64.833,109.362H47.557a.458.458,0,0,1-.457-.457V100.5a9.1,9.1,0,0,1,18.191,0v8.41A.432.432,0,0,1,64.833,109.362Zm-16.865-.868H64.376v-7.953a8.227,8.227,0,0,0-16.454,0v7.953Z" transform="translate(-47.1 -91.4)"/></g><g transform="translate(636.862 466.691)"><path class="a" d="M60.322,80.043a5.622,5.622,0,1,1,5.622-5.622A5.618,5.618,0,0,1,60.322,80.043Zm0-10.375a4.753,4.753,0,1,0,4.753,4.753A4.75,4.75,0,0,0,60.322,69.668Z" transform="translate(-54.7 -68.8)"/></g><g transform="translate(612.178 446.046)"><path class="a" d="M72.562,46.751A.56.56,0,0,1,72,46.191c0-2.4-4.138-4.473-9.058-4.473s-9.058,2.069-9.058,4.473a.56.56,0,0,1-.559.559.528.528,0,0,1-.559-.559c0-2.4-4.138-4.473-9.058-4.473s-9.058,2.069-9.058,4.473a.56.56,0,0,1-.559.559.528.528,0,0,1-.559-.559c0-2.4-4.138-4.473-9.058-4.473s-9.058,2.069-9.058,4.473a.56.56,0,0,1-.559.559.528.528,0,0,1-.559-.559c0-3.131,4.473-5.591,10.12-5.591,4.529,0,8.219,1.566,9.617,3.746,1.342-2.181,5.088-3.746,9.617-3.746s8.219,1.566,9.617,3.746c1.342-2.181,5.088-3.746,9.617-3.746,5.7,0,10.12,2.46,10.12,5.591A.428.428,0,0,1,72.562,46.751Z" transform="translate(-14.3 -40.6)"/></g><g transform="translate(612.29 427.426)"><path class="a" d="M72.65,32.07a.56.56,0,0,1-.559-.559c0-12.8-12.692-23.2-28.237-23.2S15.618,18.762,15.618,31.567a.56.56,0,0,1-.559.559.528.528,0,0,1-.559-.559C14.5,18.147,27.64,7.3,43.855,7.3S73.21,18.2,73.21,31.567A.552.552,0,0,1,72.65,32.07Z" transform="translate(-14.5 -7.3)"/></g><g transform="translate(641.086 447.208)"><rect class="a" width="1.118" height="19.483" transform="translate(0)"/></g><g transform="translate(641.086 423.692)"><path class="a" d="M66.559,6.555A.56.56,0,0,1,66,6V3.759a.56.56,0,0,1,.559-.559.528.528,0,0,1,.559.559V6A.6.6,0,0,1,66.559,6.555Z" transform="translate(-66 -3.2)"/></g><path class="b" d="M1082.725,550.432l1.789-1.432h-4.639l1.894,1.515-1.372,8.691,2.088,1.392,2.088-1.392Z" transform="translate(-439.803 -70.713)"/><path class="b" d="M1083.653,550.9l2.372-1.9h-6.151l2.511,2.009-1.819,11.522,2.768,1.845,2.768-1.845Z" transform="translate(-425.385 -75.038)"/><path class="b" d="M1083.653,550.9l2.372-1.9h-6.151l2.511,2.009-1.819,11.522,2.768,1.845,2.768-1.845Z" transform="translate(-455.664 -75.038)"/></g></svg>