<svg xmlns="http://www.w3.org/2000/svg" width="71.649" height="61.493" viewBox="0 0 71.649 61.493"><defs><style>.a{fill:#7985a2;}.b{fill:#7b86a2;}.c{fill:#7a86a2;stroke:#7b86a2;stroke-miterlimit:10;stroke-width:0.5px;}</style></defs><g transform="translate(-762.318 -428.572)"><path class="a" d="M1086.782,552.469l4.336-3.469h-11.243l4.591,3.673-3.325,21.063,5.059,3.373,5.06-3.373Z" transform="translate(-305.611 -96.081)"/><g transform="translate(797.138 457.017)"><g transform="translate(0 5.228)"><g transform="translate(0 0)"><path class="b" d="M43.935,227.535H48.1l-1.168-1.168v22.121c0,1.02-.023,2.044,0,3.059v.043l1.168-1.168H44.282a6.567,6.567,0,0,1-.829-.031c.105.016.206.027.311.043a3.946,3.946,0,0,1-.961-.257l.28.117a3.968,3.968,0,0,1-.634-.339c-.019-.016-.167-.093-.167-.117,0,.023.265.214.078.058-.09-.074-.179-.156-.265-.241s-.163-.171-.241-.265c-.062-.074-.136-.222.058.078-.035-.058-.078-.109-.117-.167a3.812,3.812,0,0,1-.339-.634l.117.28a4.079,4.079,0,0,1-.257-.961c.016.105.027.206.043.311a17.516,17.516,0,0,1-.031-2.121V232.183c0-.677,0-1.358,0-2.036a4.213,4.213,0,0,1,.031-.494c-.016.105-.027.206-.043.311a3.946,3.946,0,0,1,.257-.961l-.117.28a3.972,3.972,0,0,1,.339-.634c.016-.019.093-.167.117-.167-.023,0-.214.265-.058.078.074-.09.156-.179.241-.265s.171-.164.265-.241c.074-.062.222-.136-.078.058.058-.035.109-.078.167-.117a3.811,3.811,0,0,1,.634-.339l-.28.117a4.079,4.079,0,0,1,.961-.257c-.105.016-.206.027-.311.043.156-.012.319-.023.483-.023a1.168,1.168,0,0,0,0-2.335,4.983,4.983,0,0,0-4.838,3.935,10.1,10.1,0,0,0-.105,1.876V247.4a5.45,5.45,0,0,0,.771,3.059,5.072,5.072,0,0,0,2.686,2.067,5.861,5.861,0,0,0,1.857.23h3.8a1.184,1.184,0,0,0,1.168-1.168V229.47c0-1.02.019-2.04,0-3.059v-.043A1.184,1.184,0,0,0,48.1,225.2H43.939a1.168,1.168,0,0,0,0,2.335Z" transform="translate(-38.992 -225.199)"/></g></g><g transform="translate(26.542 5.228)"><g transform="translate(0 0)"><path class="b" d="M728.823,230.143v15.675c0,.662,0,1.323,0,1.985a4.226,4.226,0,0,1-.031.494c.016-.105.027-.206.043-.311a3.944,3.944,0,0,1-.257.961l.117-.28a3.964,3.964,0,0,1-.339.634c-.016.019-.093.167-.117.167.023,0,.214-.265.058-.078-.074.089-.156.179-.241.265s-.171.163-.265.241c-.074.062-.222.136.078-.058-.058.035-.109.078-.167.117a3.8,3.8,0,0,1-.634.339l.28-.117a4.079,4.079,0,0,1-.961.257c.1-.016.206-.027.311-.043a14.248,14.248,0,0,1-1.682.031H722.05l1.168,1.168V229.47c0-1.02.023-2.044,0-3.059v-.043l-1.168,1.168h3.815a6.558,6.558,0,0,1,.829.031c-.105-.016-.206-.027-.311-.043a3.943,3.943,0,0,1,.961.257l-.28-.117a3.967,3.967,0,0,1,.634.339c.02.016.167.093.167.117,0-.023-.265-.214-.078-.058.09.074.179.156.265.241s.164.171.241.265c.062.074.136.222-.058-.078.035.058.078.109.117.167a3.825,3.825,0,0,1,.339.634l-.117-.28a4.071,4.071,0,0,1,.257.961c-.016-.105-.027-.206-.043-.311a3.281,3.281,0,0,1,.035.483,1.168,1.168,0,0,0,2.335,0,5.058,5.058,0,0,0-1.273-3.309,4.77,4.77,0,0,0-2.845-1.557,11.014,11.014,0,0,0-1.6-.078h-3.386a1.184,1.184,0,0,0-1.168,1.168v22.121c0,1.02-.02,2.04,0,3.06v.043a1.184,1.184,0,0,0,1.168,1.168h2.6a8.966,8.966,0,0,0,3.223-.292,5.161,5.161,0,0,0,2.44-1.9,4.917,4.917,0,0,0,.841-2.752V234.168c0-1.323.016-2.647,0-3.97v-.058a1.168,1.168,0,1,0-2.335,0Z" transform="translate(-720.878 -225.2)"/></g></g><g transform="translate(11.674 0)"><g transform="translate(0 0)"><path class="b" d="M350.036,93.943v3.351l1.168-1.168H340.072l1.168,1.168V94.267a4.274,4.274,0,0,1,.019-.592c-.016.105-.027.206-.043.311a2.047,2.047,0,0,1,.125-.452l-.117.28a2.033,2.033,0,0,1,.167-.315c.066-.1.156-.136-.062.074.043-.039.078-.09.121-.132a.929.929,0,0,1,.132-.121s-.284.2-.074.062a2.044,2.044,0,0,1,.315-.167l-.28.117a2.282,2.282,0,0,1,.452-.125c-.105.016-.206.027-.311.043a7.345,7.345,0,0,1,.926-.019h5.878a8.784,8.784,0,0,1,1.109.019c-.105-.016-.206-.027-.311-.043a2.046,2.046,0,0,1,.452.125l-.28-.117a2.045,2.045,0,0,1,.315.167c.1.066.136.156-.074-.062.039.043.09.078.132.121a.932.932,0,0,1,.121.132s-.2-.284-.062-.074a2.049,2.049,0,0,1,.167.315l-.117-.28a2.285,2.285,0,0,1,.125.452c-.016-.105-.027-.206-.043-.311.008.09.012.179.016.269a1.168,1.168,0,1,0,2.335,0A3.085,3.085,0,0,0,350.11,91a4.822,4.822,0,0,0-1.226-.1H342.2a3.419,3.419,0,0,0-1.81.428,3.121,3.121,0,0,0-1.487,2.69v3.277a1.184,1.184,0,0,0,1.168,1.168H351.2a1.184,1.184,0,0,0,1.168-1.168V93.943a1.166,1.166,0,1,0-2.332,0Z" transform="translate(-338.9 -90.9)"/></g></g><g transform="translate(7.932 5.221)"><g transform="translate(0 0)"><path class="b" d="M261.4,226.2v22.121c0,1.02-.023,2.044,0,3.059v.043l1.168-1.168H246.247c-.755,0-1.51-.023-2.262,0h-.031l1.168,1.168V229.3c0-1.02.023-2.044,0-3.059V226.2l-1.168,1.168h16.321c.755,0,1.51.016,2.262,0h.031a1.168,1.168,0,1,0,0-2.335H246.247c-.755,0-1.51-.016-2.262,0h-.031a1.184,1.184,0,0,0-1.168,1.168v22.121c0,1.02-.02,2.04,0,3.059v.043a1.184,1.184,0,0,0,1.168,1.168h16.321c.755,0,1.51.016,2.262,0h.031a1.184,1.184,0,0,0,1.168-1.168V229.3c0-1.02.019-2.04,0-3.059V226.2a1.168,1.168,0,0,0-2.336,0Z" transform="translate(-242.778 -225.022)"/></g></g></g><g transform="translate(762.568 451.091)"><path class="c" d="M82.037,130.124H48a.946.946,0,0,1-.9-.985v-18.13c0-10.839,8.014-19.608,17.919-19.608s17.919,8.769,17.919,19.608v18.13A.893.893,0,0,1,82.037,130.124Zm-33.226-1.872H81.137V111.107c0-9.755-7.294-17.736-16.208-17.736s-16.208,7.981-16.208,17.736v17.145Z" transform="translate(-47.1 -91.4)"/></g><g transform="translate(767.521 428.822)"><path class="c" d="M66.82,93.039A12.12,12.12,0,1,1,78.94,80.92,12.111,12.111,0,0,1,66.82,93.039Zm0-22.367A10.247,10.247,0,1,0,77.067,80.92,10.24,10.24,0,0,0,66.82,70.672Z" transform="translate(-54.7 -68.8)"/></g></g></svg>