<svg xmlns="http://www.w3.org/2000/svg" width="27.813" height="28.038" viewBox="0 0 27.813 28.038"><defs><style>.a,.c{fill:none;}.b,.e{fill:#6e7b9a;}.c{stroke:rgba(0,0,0,0);stroke-width:3px;font-size:1px;font-family:Arial-BoldMT, Arial;font-weight:700;}.d,.e{stroke:none;}</style></defs><g transform="translate(3)"><g class="a" transform="translate(-39.123 -316.392)"><path class="d" d="M47.708,335.951a2.853,2.853,0,0,1,1.521-.268l7.743.774a2.12,2.12,0,0,0,1.62-.527l5.137-4.586a.619.619,0,0,0-.411-1.081h-.009a.616.616,0,0,0-.346.111c-1.264.882-3.234,2.285-4.295,3.043a2.844,2.844,0,0,1-2.033.507l-4.55-.6a1.327,1.327,0,0,1-.952-.611l0,0a1.331,1.331,0,0,1,1.025-2.033h.006l2.195-.133a.793.793,0,0,0,.74-.81h0a.772.772,0,0,0-.782-.739h0l-5.071.014a2.118,2.118,0,0,0-1.1.313l-.017.01-6.827,3.7,2.662,4.727Z"/><path class="e" d="M 44.249755859375 336.8368225097656 L 47.40409088134766 335.3199462890625 C 47.88176345825195 335.0901489257813 48.41442108154297 334.9686584472656 48.94448089599609 334.9686584472656 C 49.06214141845703 334.9686584472656 49.18120193481445 334.974609375 49.29829025268555 334.986328125 L 57.04100036621094 335.7605590820313 C 57.08740234375 335.76513671875 57.13460159301758 335.7674865722656 57.18127059936523 335.7674865722656 C 57.5300407409668 335.7674865722656 57.86555099487305 335.6396179199219 58.1256103515625 335.4077758789063 L 62.23270034790039 331.7409057617188 C 61.11422348022461 332.5303955078125 59.85076904296875 333.4311218261719 59.07533264160156 333.9850158691406 C 58.46990203857422 334.4186401367188 57.75628280639648 334.6478881835938 57.01162338256836 334.6478881835938 C 56.85504150390625 334.6478881835938 56.69692230224609 334.6373596191406 56.54265213012695 334.61669921875 L 51.99333190917969 334.0145874023438 C 51.39135360717773 333.9358215332031 50.86124038696289 333.5956115722656 50.53686141967773 333.0779724121094 C 50.16257095336914 332.4797058105469 50.12741088867188 331.7166137695313 50.44510269165039 331.0864562988281 C 50.76072692871094 330.46044921875 51.38895797729492 330.0364074707031 52.08701324462891 329.9771728515625 L 52.10261154174805 329.9752502441406 L 52.12164688110352 329.9744262695313 L 52.12792205810547 329.9739379882813 L 52.13082504272461 329.9739379882813 L 54.31418228149414 329.8418884277344 L 54.31722259521484 329.8417053222656 L 54.32026290893555 329.841552734375 C 54.37123107910156 329.8389282226563 54.39494705200195 329.778564453125 54.39622497558594 329.7337341308594 C 54.38846969604492 329.7197265625 54.35451507568359 329.6910705566406 54.31481170654297 329.6910705566406 L 49.24461364746094 329.7053833007813 C 48.98625564575195 329.7066040039063 48.73329544067383 329.7782592773438 48.51283645629883 329.9127197265625 C 48.49579620361328 329.9234008789063 48.47756958007813 329.9342651367188 48.4601936340332 329.9436645507813 L 42.2591438293457 333.3019409179688 L 44.249755859375 336.8368225097656 M 43.9617805480957 337.7520446777344 L 41.30000305175781 333.0253295898438 L 48.1268424987793 329.328125 C 48.13248062133789 329.3250732421875 48.13822174072266 329.3213806152344 48.14350128173828 329.3180541992188 C 48.47394180297852 329.1153259277344 48.85368347167969 329.0072021484375 49.24136352539063 329.0054016113281 L 54.31283187866211 328.9910583496094 L 54.31442260742188 328.9910583496094 C 54.72631072998047 328.9910583496094 55.09628295898438 329.3182678222656 55.09628295898438 329.7299194335938 L 55.09628295898438 329.7306518554688 C 55.09628295898438 330.155029296875 54.78403091430664 330.5184936523438 54.35644149780273 330.5406188964844 L 52.1615104675293 330.6733703613281 C 52.15940093994141 330.6734619140625 52.15724182128906 330.6739501953125 52.15513229370117 330.6739501953125 C 51.69110107421875 330.7100830078125 51.27968215942383 330.9860229492188 51.07015228271484 331.401611328125 C 50.86061096191406 331.8172302246094 50.8834228515625 332.3121032714844 51.13029098510742 332.7066955566406 L 51.132080078125 332.7095642089844 C 51.34234237670898 333.0451049804688 51.69151306152344 333.2691345214844 52.08417129516602 333.3205261230469 L 56.63449096679688 333.9227600097656 C 56.76018524169922 333.9395751953125 56.88613891601563 333.9478759765625 57.01162338256836 333.9478759765625 C 57.60250091552734 333.9478759765625 58.18229293823242 333.7636108398438 58.66772079467773 333.4159240722656 C 59.72909164428711 332.6578063964844 61.69833374023438 331.2545166015625 62.96261215209961 330.3729248046875 C 63.06411361694336 330.3020935058594 63.18456268310547 330.2635803222656 63.30828094482422 330.26220703125 L 63.31768035888672 330.26220703125 C 63.57432174682617 330.2626953125 63.80403137207031 330.4215393066406 63.895263671875 330.6614074707031 C 63.98648071289063 330.9012451171875 63.92030334472656 331.1725769042969 63.7288818359375 331.3434753417969 L 58.59181213378906 335.929931640625 C 58.20170974731445 336.2777099609375 57.69905471801758 336.4674987792969 57.18127059936523 336.4674987792969 C 57.11168670654297 336.4674987792969 57.04172134399414 336.4640502929688 56.97183227539063 336.4571228027344 L 49.22864151000977 335.682861328125 C 49.13391876220703 335.6733703613281 49.03913879394531 335.6686706542969 48.94447708129883 335.6686706542969 C 48.51747512817383 335.6686706542969 48.09453582763672 335.7645874023438 47.70756149291992 335.9507446289063 L 43.9617805480957 337.7520446777344 Z"/></g><path class="b" d="M180.455,64.752h-1.2a.369.369,0,1,1,0-.738h4.2a.369.369,0,0,1,0,.738h-1.372a2.32,2.32,0,0,1,.511,1.107h.86a.369.369,0,1,1,0,.738H182.6a2.186,2.186,0,0,1-2.141,1.792h-.275l2.333,2.2a.362.362,0,0,1,.015.516.369.369,0,0,1-.522.017L179,68.281a.364.364,0,0,1,.253-.63h1.2a1.466,1.466,0,0,0,1.387-1.054h-2.59a.369.369,0,1,1,0-.738h2.59A1.452,1.452,0,0,0,180.455,64.752Z" transform="translate(-167.327 -64.013)"/><text class="c" transform="translate(0 23.774)"><tspan x="0" y="0">Created by Kiran Shastry</tspan></text><text class="c" transform="translate(0 24.038)"><tspan x="0" y="0">from the Noun Project</tspan></text></g></svg>