<svg xmlns="http://www.w3.org/2000/svg" width="111.652" height="176.143" viewBox="0 0 111.652 176.143"><g transform="translate(-22.739 0.175)"><g transform="translate(23)"><g transform="translate(0)"><ellipse cx="55.572" cy="55.572" rx="55.572" ry="55.572" transform="translate(0.136 55.286)" fill="#f2f2f2" stroke="#4d4d4d" stroke-width="0.222"/><ellipse cx="52.736" cy="7.204" rx="52.736" ry="7.204" transform="translate(2.941 161.56)" fill="#dfe4ef"/><ellipse cx="3.733" cy="1.812" rx="3.733" ry="1.812" transform="translate(29.614 6.066) rotate(-18.58)" fill="#2f2f2f"/><path d="M119,66.828l19.582-8.922s33.175-12.54,61.555,18.07c0,0-12.719-8.165-22.36,2.62,0,0-18.141-4.908-33.365,13.125,0,0-23.811,3.606-33.728,16.242,0,0-11.056-1.7-15.456,12.315a.42.42,0,0,1-.7.173h0a.417.417,0,0,1-.118-.22C94,118.065,89.136,89.17,119,66.828Z" transform="translate(-92.835 -51.976)" fill="#6c63ff"/><path d="M119,66.828l19.582-8.922s33.175-12.54,61.555,18.07c0,0-12.719-8.165-22.36,2.62,0,0-18.141-4.908-33.365,13.125,0,0-23.811,3.606-33.728,16.242,0,0-11.056-1.7-15.456,12.315a.42.42,0,0,1-.7.173h0a.417.417,0,0,1-.118-.22C94,118.065,89.136,89.17,119,66.828Z" transform="translate(-92.835 -51.976)" fill="#2f2f2f"/><path d="M160.3,139.346c2.241-2.279-.241-7-.435-7.358l-25.6-52.269a.666.666,0,0,0-1.2.586L158.676,132.6l.007.013c.025.047,2.5,4.741.3,6.086-2.371,1.449-5.135-.9-5.163-.923a.666.666,0,0,0-.871,1.009c.143.123,3.538,3,6.729,1.051A3.231,3.231,0,0,0,160.3,139.346Z" transform="translate(-86.635 -48.175)" fill="#2f2f2f"/><path d="M117.309,63.543,136.274,54.9s32.131-12.145,59.617,17.5c0,0-12.319-7.908-21.656,2.538,0,0-17.57-4.753-32.315,12.712,0,0-23.061,3.492-32.666,15.731,0,0-11.041-1.7-15.163,12.568l-.57-.561S87.244,86.038,117.309,63.543Z" transform="translate(-92.977 -52.439)" fill="#e0e0e0" stroke="#4d4d4d" stroke-width="0.3"/></g></g><ellipse cx="23.595" cy="23.595" rx="23.595" ry="23.595" transform="translate(55.5 91.455)" fill="#e6e8ed" stroke="#4d4d4d" stroke-width="0.3"/><ellipse cx="20.292" cy="20.292" rx="20.292" ry="20.292" transform="translate(59 94.758)" fill="#e5e7ed" opacity="0.1"/><path d="M221.257,738.951a170.364,170.364,0,0,1-50.257,0v-5.663a189.314,189.314,0,0,0,50.257,0Z" transform="translate(-117.5 -575.907)" fill="#e5e7ec" stroke="#4d4d4d" stroke-width="0.4"/><path d="M221.257,701.952a170.364,170.364,0,0,1-50.257,0v-5.663a189.309,189.309,0,0,0,50.257,0Z" transform="translate(-117.5 -547.638)" fill="#e5e7ec" stroke="#4d4d4d" stroke-width="0.4"/><path d="M221.257,664.952a170.368,170.368,0,0,1-50.257,0v-5.663a189.309,189.309,0,0,0,50.257,0Z" transform="translate(-117.5 -519.368)" fill="#e5e7ec" stroke="#4d4d4d" stroke-width="0.4"/><path d="M70.458,5.724H67.228a6.367,6.367,0,0,0-2.55-4.452h5.781a.636.636,0,0,0,0-1.272H57a.636.636,0,0,0,0,1.272h3.854a5.139,5.139,0,0,1,5.094,4.452H57A.636.636,0,0,0,57,7h8.948a5.148,5.148,0,0,1-5.094,4.515H57.007a.646.646,0,0,0-.636.655.657.657,0,0,0,.2.458l9.622,9.1a.634.634,0,0,0,.9-.025.649.649,0,0,0-.025-.909L58.6,12.783h2.251A6.424,6.424,0,0,0,67.228,7h3.231a.636.636,0,0,0,0-1.272Z" transform="translate(15.635 104.106)" fill="#2f2f2f"/></g></svg>