<svg xmlns="http://www.w3.org/2000/svg" width="111.362" height="176.095" viewBox="0 0 111.362 176.095"><g transform="translate(-19)"><g transform="translate(19)"><g transform="translate(0)"><ellipse cx="55.613" cy="55.612" rx="55.613" ry="55.612" transform="translate(0.136 55.326)" fill="#f2f2f2"/><ellipse cx="52.774" cy="7.209" rx="52.774" ry="7.209" transform="translate(2.943 161.676)" fill="#dfe4ef"/><ellipse cx="3.736" cy="1.813" rx="3.736" ry="1.813" transform="translate(29.635 6.07) rotate(-18.58)" fill="#292949"/><path d="M119.016,66.836l19.6-8.929s33.2-12.549,61.6,18.083c0,0-12.728-8.171-22.376,2.622,0,0-18.154-4.911-33.389,13.135,0,0-23.828,3.608-33.752,16.254,0,0-11.064-1.7-15.468,12.324a.421.421,0,0,1-.7.173h0a.418.418,0,0,1-.118-.221C94,118.11,89.133,89.195,119.016,66.836Z" transform="translate(-92.834 -51.973)" fill="#6c63ff"/><path d="M119.016,66.836l19.6-8.929s33.2-12.549,61.6,18.083c0,0-12.728-8.171-22.376,2.622,0,0-18.154-4.911-33.389,13.135,0,0-23.828,3.608-33.752,16.254,0,0-11.064-1.7-15.468,12.324a.421.421,0,0,1-.7.173h0a.418.418,0,0,1-.118-.221C94,118.11,89.133,89.195,119.016,66.836Z" transform="translate(-92.834 -51.973)" fill="#3c62af"/><path d="M160.315,139.389c2.243-2.281-.241-7-.435-7.363L134.265,79.719a.667.667,0,1,0-1.2.587l25.628,52.332.007.013c.025.047,2.5,4.744.3,6.09-2.372,1.45-5.139-.9-5.166-.923a.667.667,0,0,0-.872,1.009c.143.124,3.54,3,6.734,1.052A3.231,3.231,0,0,0,160.315,139.389Z" transform="translate(-86.601 -48.152)" fill="#292949"/><path d="M117.326,63.551,136.306,54.9s32.154-12.154,59.66,17.514c0,0-12.327-7.913-21.671,2.54,0,0-17.583-4.757-32.338,12.721,0,0-23.078,3.495-32.69,15.742,0,0-11.049-1.7-15.174,12.577l-.571-.561S87.24,86.062,117.326,63.551Z" transform="translate(-92.977 -52.439)" fill="#4e6ebe"/></g><ellipse cx="23.612" cy="23.612" rx="23.612" ry="23.612" transform="translate(28.833 91.521)" fill="#97a7d1"/><ellipse cx="20.306" cy="20.306" rx="20.306" ry="20.306" transform="translate(32.139 94.827)" opacity="0.1"/><path d="M221.294,738.956a170.489,170.489,0,0,1-50.294,0v-5.667a189.448,189.448,0,0,0,50.294,0Z" transform="translate(-143.905 -575.794)" fill="#97a7d1"/><path d="M221.294,701.956a170.485,170.485,0,0,1-50.294,0v-5.667a189.443,189.443,0,0,0,50.294,0Z" transform="translate(-143.905 -547.53)" fill="#97a7d1"/><path d="M221.294,664.956a170.493,170.493,0,0,1-50.294,0v-5.667a189.448,189.448,0,0,0,50.294,0Z" transform="translate(-143.905 -519.267)" fill="#97a7d1"/><path d="M70.469,5.728H67.235a6.372,6.372,0,0,0-2.552-4.455h5.785a.636.636,0,1,0,0-1.273H57a.636.636,0,0,0,0,1.273h3.857a5.143,5.143,0,0,1,5.1,4.455H57A.636.636,0,0,0,57,7h8.955a5.152,5.152,0,0,1-5.1,4.519h-3.85a.647.647,0,0,0-.636.656.657.657,0,0,0,.2.458L66.2,21.741a.634.634,0,0,0,.9-.025.65.65,0,0,0-.025-.91L58.6,12.793h2.253A6.429,6.429,0,0,0,67.235,7h3.233a.636.636,0,1,0,0-1.273Z" transform="translate(-11.325 104.181)" fill="#f2f2f2" stroke="#f2f2f2" stroke-width="1"/></g></g></svg>