<svg xmlns="http://www.w3.org/2000/svg" width="58.937" height="64.947" viewBox="0 0 58.937 64.947"><defs><style>.a{fill:#7a86a2;stroke:#7b86a2;stroke-miterlimit:10;}</style></defs><g transform="translate(-8.7 -2.7)"><g transform="translate(9.2 3.2)"><g transform="translate(0 39.321)"><path class="a" d="M28.71,106.226H9.7a.5.5,0,0,1-.5-.5V94.089A12.522,12.522,0,0,1,21.689,81.6a12.278,12.278,0,0,1,8.827,3.661,11.35,11.35,0,0,1,2.407,3.461l-.9.4a10.3,10.3,0,0,0-2.207-3.16,11.526,11.526,0,0,0-19.661,8.125v11.134H28.66v1Z" transform="translate(-9.2 -81.6)"/></g><g transform="translate(4.815 24.977)"><path class="a" d="M26.474,68.347a7.674,7.674,0,1,1,7.674-7.674A7.706,7.706,0,0,1,26.474,68.347Zm0-14.394a6.721,6.721,0,1,0,6.721,6.721A6.721,6.721,0,0,0,26.474,53.953Z" transform="translate(-18.8 -53)"/></g><g transform="translate(34.155 39.321)"><path class="a" d="M100.622,106.226H81.613v-1H100.12V94.089A11.517,11.517,0,0,0,78.2,89.123l-.9-.4A12.5,12.5,0,0,1,88.585,81.6a12.5,12.5,0,0,1,12.489,12.489v11.636A.437.437,0,0,1,100.622,106.226Z" transform="translate(-77.3 -81.6)"/></g><g transform="translate(37.767 24.977)"><path class="a" d="M92.174,68.347a7.674,7.674,0,1,1,7.674-7.674A7.706,7.706,0,0,1,92.174,68.347Zm0-14.394a6.721,6.721,0,1,0,6.721,6.721A6.721,6.721,0,0,0,92.174,53.953Z" transform="translate(-84.5 -53)"/></g><g transform="translate(19.009 44.237)"><path class="a" d="M66.56,111.111H47.6a.5.5,0,0,1-.5-.5v-9.229a9.981,9.981,0,1,1,19.962,0v9.229A.474.474,0,0,1,66.56,111.111Zm-18.507-.953H66.059v-8.727a9.028,9.028,0,1,0-18.056,0v8.727Z" transform="translate(-47.1 -91.4)"/></g><g transform="translate(22.82 32.902)"><path class="a" d="M60.869,81.138a6.169,6.169,0,1,1,6.169-6.169A6.165,6.165,0,0,1,60.869,81.138Zm0-11.385a5.216,5.216,0,1,0,5.216,5.216A5.212,5.212,0,0,0,60.869,69.753Z" transform="translate(-54.7 -68.8)"/></g><g transform="translate(2.558 18.758)"><path class="a" d="M66.561,46.117a.5.5,0,0,1-.5-.5c0-2.157-3.711-4.012-8.125-4.012s-8.125,1.856-8.125,4.012a.5.5,0,0,1-.5.5.474.474,0,0,1-.5-.5c0-2.157-3.711-4.012-8.125-4.012s-8.125,1.856-8.125,4.012a.5.5,0,0,1-.5.5.474.474,0,0,1-.5-.5c0-2.157-3.711-4.012-8.125-4.012S15.3,43.459,15.3,45.615a.5.5,0,0,1-.5.5.474.474,0,0,1-.5-.5c0-2.809,4.012-5.015,9.078-5.015,4.063,0,7.373,1.4,8.627,3.36,1.2-1.956,4.564-3.36,8.627-3.36S48,42,49.258,43.96c1.2-1.956,4.564-3.36,8.627-3.36,5.116,0,9.078,2.207,9.078,5.015A.384.384,0,0,1,66.561,46.117Z" transform="translate(-14.3 -40.6)"/></g><g transform="translate(2.658 2.056)"><path class="a" d="M66.661,29.519a.5.5,0,0,1-.5-.5C66.16,17.532,54.774,8.2,40.831,8.2S15.5,17.582,15.5,29.067a.5.5,0,0,1-.5.5.474.474,0,0,1-.5-.5C14.5,17.03,26.286,7.3,40.831,7.3s26.331,9.78,26.331,21.767A.5.5,0,0,1,66.661,29.519Z" transform="translate(-14.5 -7.3)"/></g><g transform="translate(28.488)"><path class="a" d="M66.5,6.209a.5.5,0,0,1-.5-.5V3.7a.5.5,0,0,1,.5-.5.474.474,0,0,1,.5.5V5.708A.539.539,0,0,1,66.5,6.209Z" transform="translate(-66 -3.2)"/></g><g transform="translate(28.488 19.31)"><rect class="a" width="1.003" height="14.094"/></g></g></g></svg>