<svg xmlns="http://www.w3.org/2000/svg" width="59.712" height="71.329" viewBox="0 0 59.712 71.329"><defs><style>.a,.b{fill:#7a86a2;}.b{stroke:#7b86a2;stroke-miterlimit:10;}.c{fill:none;stroke:#7a86a2;stroke-linecap:round;stroke-width:1.5px;}</style></defs><g transform="translate(-929 -641)"><g transform="translate(929 641)"><g transform="translate(0 0)"><path class="a" d="M43.726,959.368a.83.83,0,0,0-.363.156,106.474,106.474,0,0,1-28.819,15.654.829.829,0,0,0-.544.777c0,18.658,3.853,30.14,9.511,38.045s13.064,12.182,19.9,16.561a.829.829,0,0,0,.881,0c6.84-4.379,14.246-8.655,19.9-16.561s9.511-19.387,9.511-38.045a.829.829,0,0,0-.544-.777,106.471,106.471,0,0,1-28.819-15.654.83.83,0,0,0-.622-.155Zm.13,1.814A107.9,107.9,0,0,0,72.027,976.5c-.081,18.072-3.809,29.045-9.175,36.542-5.309,7.418-12.251,11.532-19,15.835-6.746-4.3-13.687-8.417-19-15.835-5.366-7.5-9.093-18.471-9.175-36.542A107.9,107.9,0,0,0,43.856,961.182Z" transform="translate(-14 -959.358)"/></g></g><g transform="translate(939.309 674.279)"><path class="b" d="M22.072,97.847H9.531a.332.332,0,0,1-.331-.331V89.839A8.262,8.262,0,0,1,17.439,81.6a8.1,8.1,0,0,1,5.824,2.416A7.488,7.488,0,0,1,24.852,86.3l-.6.265A6.794,6.794,0,0,0,22.8,84.479,7.6,7.6,0,0,0,9.829,89.839v7.346h12.21v.662Z" transform="translate(-9.2 -81.6)"/></g><g transform="translate(942.485 664.815)"><path class="b" d="M23.863,63.126a5.063,5.063,0,1,1,5.063-5.063A5.084,5.084,0,0,1,23.863,63.126Zm0-9.5A4.434,4.434,0,1,0,28.3,58.063,4.434,4.434,0,0,0,23.863,53.629Z" transform="translate(-18.8 -53)"/></g><g transform="translate(961.843 674.279)"><path class="b" d="M92.687,97.847H80.146v-.662h12.21V89.839A7.6,7.6,0,0,0,77.9,86.564l-.6-.265a8.246,8.246,0,0,1,7.445-4.7,8.247,8.247,0,0,1,8.239,8.239v7.677A.288.288,0,0,1,92.687,97.847Z" transform="translate(-77.3 -81.6)"/></g><g transform="translate(964.226 664.815)"><path class="b" d="M89.563,63.126a5.063,5.063,0,1,1,5.063-5.063A5.084,5.084,0,0,1,89.563,63.126Zm0-9.5A4.434,4.434,0,1,0,94,58.063,4.434,4.434,0,0,0,89.563,53.629Z" transform="translate(-84.5 -53)"/></g><g transform="translate(951.85 677.522)"><path class="b" d="M59.939,104.4H47.431a.332.332,0,0,1-.331-.331V97.985a6.585,6.585,0,0,1,13.17,0v6.089A.313.313,0,0,1,59.939,104.4Zm-12.21-.629H59.608V98.018a5.956,5.956,0,0,0-11.912,0v5.758Z" transform="translate(-47.1 -91.4)"/></g><g transform="translate(954.365 670.043)"><path class="b" d="M58.77,76.94a4.07,4.07,0,1,1,4.07-4.07A4.067,4.067,0,0,1,58.77,76.94Zm0-7.511a3.441,3.441,0,1,0,3.441,3.441A3.439,3.439,0,0,0,58.77,69.429Z" transform="translate(-54.7 -68.8)"/></g><g transform="translate(953.483 651.384)"><line class="c" y2="11.537" transform="translate(5.768)"/><line class="c" x2="11.537" transform="translate(0 5.768)"/></g><g transform="translate(929 641)"><g transform="translate(0 0)"><path class="a" d="M43.726,959.368a.83.83,0,0,0-.363.156,106.474,106.474,0,0,1-28.819,15.654.829.829,0,0,0-.544.777c0,18.658,3.853,30.14,9.511,38.045s13.064,12.182,19.9,16.561a.829.829,0,0,0,.881,0c6.84-4.379,14.246-8.655,19.9-16.561s9.511-19.387,9.511-38.045a.829.829,0,0,0-.544-.777,106.471,106.471,0,0,1-28.819-15.654.83.83,0,0,0-.622-.155Zm.13,1.814A107.9,107.9,0,0,0,72.027,976.5c-.081,18.072-3.809,29.045-9.175,36.542-5.309,7.418-12.251,11.532-19,15.835-6.746-4.3-13.687-8.417-19-15.835-5.366-7.5-9.093-18.471-9.175-36.542A107.9,107.9,0,0,0,43.856,961.182Z" transform="translate(-14 -959.358)"/></g></g><g transform="translate(939.309 674.279)"><path class="b" d="M22.072,97.847H9.531a.332.332,0,0,1-.331-.331V89.839A8.262,8.262,0,0,1,17.439,81.6a8.1,8.1,0,0,1,5.824,2.416A7.488,7.488,0,0,1,24.852,86.3l-.6.265A6.794,6.794,0,0,0,22.8,84.479,7.6,7.6,0,0,0,9.829,89.839v7.346h12.21v.662Z" transform="translate(-9.2 -81.6)"/></g><g transform="translate(942.485 664.815)"><path class="b" d="M23.863,63.126a5.063,5.063,0,1,1,5.063-5.063A5.084,5.084,0,0,1,23.863,63.126Zm0-9.5A4.434,4.434,0,1,0,28.3,58.063,4.434,4.434,0,0,0,23.863,53.629Z" transform="translate(-18.8 -53)"/></g><g transform="translate(961.843 674.279)"><path class="b" d="M92.687,97.847H80.146v-.662h12.21V89.839A7.6,7.6,0,0,0,77.9,86.564l-.6-.265a8.246,8.246,0,0,1,7.445-4.7,8.247,8.247,0,0,1,8.239,8.239v7.677A.288.288,0,0,1,92.687,97.847Z" transform="translate(-77.3 -81.6)"/></g><g transform="translate(964.226 664.815)"><path class="b" d="M89.563,63.126a5.063,5.063,0,1,1,5.063-5.063A5.084,5.084,0,0,1,89.563,63.126Zm0-9.5A4.434,4.434,0,1,0,94,58.063,4.434,4.434,0,0,0,89.563,53.629Z" transform="translate(-84.5 -53)"/></g><g transform="translate(951.85 677.522)"><path class="b" d="M59.939,104.4H47.431a.332.332,0,0,1-.331-.331V97.985a6.585,6.585,0,0,1,13.17,0v6.089A.313.313,0,0,1,59.939,104.4Zm-12.21-.629H59.608V98.018a5.956,5.956,0,0,0-11.912,0v5.758Z" transform="translate(-47.1 -91.4)"/></g><g transform="translate(954.365 670.043)"><path class="b" d="M58.77,76.94a4.07,4.07,0,1,1,4.07-4.07A4.067,4.067,0,0,1,58.77,76.94Zm0-7.511a3.441,3.441,0,1,0,3.441,3.441A3.439,3.439,0,0,0,58.77,69.429Z" transform="translate(-54.7 -68.8)"/></g></g></svg>