<svg xmlns="http://www.w3.org/2000/svg" width="56.275" height="69.25" viewBox="0 0 56.275 69.25"><defs><style>.a,.c{fill:#7a86a2;stroke-width:0.5px;}.a{stroke:#7b86a2;stroke-miterlimit:10;}.b{fill:#eeeff2;stroke-width:3px;}.b,.c{stroke:#7a86a2;}.d{stroke:none;}.e{fill:none;}</style></defs><g transform="translate(-894.607 -666.75)"><g transform="translate(894.857 691.825)"><path class="a" d="M86.047,134.568H48.1a1.055,1.055,0,0,1-1-1.1V113.259c0-12.083,8.934-21.859,19.975-21.859s19.975,9.776,19.975,21.859v20.211A1,1,0,0,1,86.047,134.568Zm-37.039-2.087H85.043V113.368c0-10.874-8.131-19.772-18.068-19.772s-18.068,8.9-18.068,19.772v19.113Z" transform="translate(-47.1 -91.4)"/></g><g transform="translate(900.378 667)"><path class="a" d="M68.211,95.821A13.511,13.511,0,1,1,81.722,82.311,13.5,13.5,0,0,1,68.211,95.821Zm0-24.934A11.424,11.424,0,1,0,79.635,82.311,11.415,11.415,0,0,0,68.211,70.887Z" transform="translate(-54.7 -68.8)"/></g><g class="b" transform="translate(917.883 703)"><circle class="d" cx="16.5" cy="16.5" r="16.5"/><circle class="e" cx="16.5" cy="16.5" r="15"/></g><g transform="translate(925.904 709.648)"><g transform="translate(4.375 0)"><path class="c" d="M39.18,23.2a.409.409,0,0,1,0-.817.683.683,0,0,0,.48-.188l.051-.061a.746.746,0,0,0,.178-.462.676.676,0,0,0-.21-.478.325.325,0,0,1-.027-.027.548.548,0,0,0-.215-.151.409.409,0,0,1,.186-.787l.145.012a.663.663,0,0,0,.486-.206l0,0a.747.747,0,0,0,.2-.5.662.662,0,0,0-.208-.5.676.676,0,0,0-.372-.2.408.408,0,0,1-.333-.4v-.053a.41.41,0,0,1,.38-.409l.19-.014h.029a.619.619,0,0,0,.46-.18.726.726,0,0,0,.192-.458c-.01-.1-.012-.28-.012-.754a.647.647,0,0,0-.18-.337.956.956,0,0,0-.652-.166H35.365a.847.847,0,0,1-.723-.4.871.871,0,0,1-.041-.848,2.077,2.077,0,0,0,.194-.666c.008-.094.025-.646.025-1.747l-.347-2.356A.619.619,0,0,0,34.3,9.73a.5.5,0,0,0-.413-.166h-.039a.477.477,0,0,0-.4.157.506.506,0,0,0-.176.423v.033a.447.447,0,0,1-.006.074l-.46,2.5a.632.632,0,0,1-.025.094c-.809,2.436-2.076,4.074-3.764,4.865a.409.409,0,0,1-.347-.74c1.473-.693,2.6-2.166,3.333-4.379l.45-2.45a1.313,1.313,0,0,1,.407-.993,1.283,1.283,0,0,1,1.011-.407,1.3,1.3,0,0,1,1.011.407,1.439,1.439,0,0,1,.4.74c0,.006,0,.014,0,.02l.351,2.38a.75.75,0,0,1,.006.094c0,.958-.012,1.667-.029,1.849a2.914,2.914,0,0,1-.272.938.055.055,0,0,0,0,.057.029.029,0,0,0,.029.014h4.591a1.681,1.681,0,0,1,1.23.407,1.446,1.446,0,0,1,.407.768.719.719,0,0,1,.012.135c0,.309,0,.6.006.672a.364.364,0,0,1,.006.094,1.565,1.565,0,0,1-.423,1.024,1.481,1.481,0,0,1-.27.215,1.469,1.469,0,0,1,.353.977,1.549,1.549,0,0,1-.415,1.046l-.018.02a1.6,1.6,0,0,1-.372.282,1.527,1.527,0,0,1,.233.774V21.7a1.557,1.557,0,0,1-.372.969l-.063.076c-.01.012-.022.025-.035.037A1.5,1.5,0,0,1,39.18,23.2Zm2.427-6c0,.006,0,.012,0,.018A.076.076,0,0,1,41.607,17.2Zm-.817-.625ZM32,12.586v0Z" transform="translate(-28.43 -8.744)"/></g><g transform="translate(4.375 8.193)"><path class="c" d="M28.839,56.674a.41.41,0,0,1-.409-.409V49.249a.409.409,0,0,1,.817,0v7.017A.41.41,0,0,1,28.839,56.674Z" transform="translate(-28.43 -48.84)"/></g><g transform="translate(0 7.593)"><path class="c" d="M10.972,55.171H8.042A.942.942,0,0,1,7.02,54.164v-7.25a.928.928,0,0,1,1.036-1.007H11.2a.971.971,0,0,1,.727.251,1.011,1.011,0,0,1,.282.758.409.409,0,0,1-.817,0,.3.3,0,0,0-.033-.17.263.263,0,0,0-.145-.022H8.042c-.123,0-.166.016-.174.025a.3.3,0,0,0-.031.168v7.25c0,.155.008.19.2.19h2.93a.424.424,0,0,0,.423-.423.409.409,0,0,1,.817,0A1.242,1.242,0,0,1,10.972,55.171Z" transform="translate(-7.02 -45.906)"/></g><g transform="translate(4.375 13.644)"><path class="c" d="M38.637,78.676H31.021c-.02,0-.043,0-.063,0a4.632,4.632,0,0,1-2.36-.854.409.409,0,0,1,.488-.656,3.837,3.837,0,0,0,1.949.7h7.6a.673.673,0,0,0,.515-.221l.065-.063a.833.833,0,0,0,.157-.462.676.676,0,0,0-.221-.5,4,4,0,0,0-.347-.321.409.409,0,0,1,.315-.752c.069.022.174.057.609.494a1.48,1.48,0,0,1,.46,1.093v.02a1.623,1.623,0,0,1-.347.956l-.031.035-.082.082A1.514,1.514,0,0,1,38.637,78.676Zm.227-2.364Z" transform="translate(-28.433 -75.517)"/></g></g></g></svg>