<svg xmlns="http://www.w3.org/2000/svg" xmlns:xlink="http://www.w3.org/1999/xlink" width="140.603" height="125.847"
    viewBox="0 0 140.603 125.847">
    <defs>
        <style>
            .a {
                fill: url(#a);
            }
        </style>
        <linearGradient id="a" x1="-0.15" x2="1" y2="1" gradientUnits="objectBoundingBox">
            <stop offset="0" stop-color="#2b3d67" />
            <stop offset="0" stop-color="#b9c9ef" />
            <stop offset="1" stop-color="#264a9f" />
        </linearGradient>
    </defs>
    <path class="a"
        d="M65.046,42.544l-18.828-14.4a3.8,3.8,0,0,0-.975-.526l-.16-.059h-.19a3.6,3.6,0,0,0-1.969,0h-.19l-.16.059a3.874,3.874,0,0,0-.984.53L22.567,42.541a3.91,3.91,0,0,0,4.749,6.214L39.9,39.169v32.9a3.908,3.908,0,1,0,7.816,0V39.189l12.535,9.576a3.928,3.928,0,0,0,4.8-6.22Z"
        transform="translate(26.499 28.933)" />
    <path class="a"
        d="M21.05,27.576a3.912,3.912,0,0,0,3.908,3.908H62.581a3.908,3.908,0,1,0,0-7.816H24.958A3.912,3.912,0,0,0,21.05,27.576Z"
        transform="translate(26.534 20.404)" />
    <path class="a"
        d="M129.829,35.142H80.708V25.161A15.084,15.084,0,0,0,65.677,10.192H22.842A16.373,16.373,0,0,0,6.5,26.465v94.3a15.392,15.392,0,0,0,15.341,15.276H131.762A15.4,15.4,0,0,0,147.1,120.757v-68.3A17.329,17.329,0,0,0,129.829,35.142ZM76.8,42.958h53.026a9.488,9.488,0,0,1,9.461,9.5V120.75a7.568,7.568,0,0,1-7.528,7.476H21.845a7.564,7.564,0,0,1-7.528-7.47V26.469a8.537,8.537,0,0,1,8.516-8.46H65.661a7.242,7.242,0,0,1,7.231,7.159V39.05A3.914,3.914,0,0,0,76.8,42.958Z"
        transform="translate(-6.5 -10.192)" />
</svg>