<svg xmlns="http://www.w3.org/2000/svg" width="249.658" height="186.263" viewBox="0 0 249.658 186.263"><defs><style>.a{fill:#b7c9e2;}.a,.b,.d,.e{stroke:#4d4d4d;stroke-width:0.3px;}.b{fill:#e2e2e2;}.c{fill:#fdfdfd;}.d{fill:#97a7d1;}.e{fill:#2d2d2d;}.f{fill:#f6f6f6;opacity:0.815;isolation:isolate;}</style></defs><g transform="translate(0.15 0)"><g transform="translate(129.236)"><rect class="a" width="59.694" height="69.057" transform="translate(28.383 116.755)"/><rect class="b" width="16.094" height="14.045" transform="translate(50.183 171.766)"/><path class="c" d="M2960.683,3891.937v.153a34.057,34.057,0,0,0,2.481,5.691,14.2,14.2,0,0,0-.724,4.55c0,5.333,2.75,9.656,6.145,9.656s6.146-4.323,6.146-9.656a14.672,14.672,0,0,0-.4-3.43,7.17,7.17,0,0,1,10.657-9.3,7.021,7.021,0,0,0-.757-9.9l-.044-.038a7.023,7.023,0,1,0-9.457-6.586c0,.1,0,.205.008.307a33.07,33.07,0,0,1-18.625,8.105,7.023,7.023,0,0,0,4.575,10.458Zm11.99-4.821c.1,0,.2,0,.3-.008q.1.312.217.61a7.05,7.05,0,0,0-.536-.6Z" transform="translate(-2952.193 -3866.045)"/><path class="d" d="M2966.9,3968.227h7.024l-.253-10.534h0l-.92-38.623a4.489,4.489,0,0,1-4.684,0l-.918,38.623h0Z" transform="translate(-2954.026 -3874.298)"/><path class="d" d="M2951.653,3982.952v84.275h32.77v-85.444l-7.607.271v-17.241H2959.26v17.869Z" transform="translate(-2951.653 -3881.416)"/><path class="c" d="M3059.8,3891.937v.153a34.057,34.057,0,0,0,2.481,5.691,14.225,14.225,0,0,0-.725,4.55c0,5.333,2.751,9.656,6.146,9.656s6.146-4.323,6.146-9.656a14.659,14.659,0,0,0-.4-3.43,7.146,7.146,0,0,1,10.661-9.247,7.022,7.022,0,0,0-.7-9.906l-.105-.09a7.023,7.023,0,1,0-9.458-6.586c0,.1,0,.205.007.307a7.027,7.027,0,0,0-8.773,4.667,7.118,7.118,0,0,0-.226.99,7.023,7.023,0,1,0-5.05,12.906Zm11.99-4.821c.1,0,.2,0,.3-.008q.1.312.217.61a6.935,6.935,0,0,0-.537-.6Z" transform="translate(-2967.617 -3866.045)"/><path class="d" d="M3066.013,3968.227h7.023l-1.17-49.16a6.919,6.919,0,0,1-4.681,0Z" transform="translate(-2969.45 -3874.297)"/><path class="d" d="M3050.766,3982.952v84.275h32.774v-85.444l-2.692.1-4.918.174v-17.241h-17.557v17.869Z" transform="translate(-2967.077 -3881.416)"/><rect class="e" width="8.097" height="8.097" transform="translate(67.136 133.532)"/><rect class="e" width="8.097" height="8.097" transform="translate(54.181 133.532)"/><rect class="e" width="8.097" height="8.097" transform="translate(41.228 133.532)"/><rect class="e" width="8.097" height="8.097" transform="translate(67.136 150.997)"/><rect class="e" width="8.097" height="8.097" transform="translate(54.181 150.997)"/><rect class="e" width="8.097" height="8.097" transform="translate(41.228 150.997)"/><g transform="translate(24.746 165.489)"><path class="f" d="M2980.96,4076.965c0,5.736,3.2,5.841,7.14,5.841s10.417-1.135,7.14-5.841c-3.457-4.965-9.387-14.428-7.14-14.93C2988.1,4062.038,2980.96,4071.23,2980.96,4076.965Z" transform="translate(-2980.96 -4062.035)"/><path class="c" d="M2986.439,4082.809c0,2.271,1.267,2.313,2.825,2.313s4.123-.449,2.826-2.313c-1.368-1.965-3.715-5.711-2.826-5.911C2989.264,4076.9,2986.439,4080.538,2986.439,4082.809Z" transform="translate(-2981.813 -4064.348)"/></g><g transform="translate(37.295 146.704)"><path class="f" d="M2995.822,4068.22c0,10.924,6.088,11.126,13.594,11.126s19.843-2.161,13.594-11.126c-6.586-9.457-17.877-27.479-13.594-28.433C3009.421,4039.787,2995.822,4057.3,2995.822,4068.22Z" transform="translate(-2995.822 -4039.787)"/><path class="c" d="M3006.255,4079.347c0,4.324,2.41,4.4,5.383,4.4s7.853-.855,5.383-4.4c-2.606-3.742-7.077-10.877-5.383-11.255C3011.637,4068.092,3006.255,4075.023,3006.255,4079.347Z" transform="translate(-2997.446 -4044.192)"/></g></g><rect class="a" width="59.694" height="69.057" transform="translate(28.383 116.755)"/><rect class="b" width="16.094" height="14.045" transform="translate(50.183 171.766)"/><path class="c" d="M2833.683,3891.937v.153a34.037,34.037,0,0,0,2.481,5.691,14.2,14.2,0,0,0-.724,4.55c0,5.333,2.75,9.656,6.145,9.656s6.146-4.323,6.146-9.656a14.672,14.672,0,0,0-.4-3.43,7.17,7.17,0,0,1,10.657-9.3,7.021,7.021,0,0,0-.757-9.9l-.044-.038a7.023,7.023,0,1,0-9.457-6.586c0,.1,0,.205.008.307a7.029,7.029,0,0,0-8.775,4.668,6.953,6.953,0,0,0-.225.989,7.023,7.023,0,1,0-5.051,12.906Zm11.99-4.821c.1,0,.2,0,.3-.008q.1.312.217.61a7.134,7.134,0,0,0-.536-.6Z" transform="translate(-2825.193 -3866.045)"/><path class="d" d="M2939.013,3968.227h7.023l-1.17-49.16a6.919,6.919,0,0,1-4.681,0Z" transform="translate(-2842.45 -3874.297)"/><path class="d" d="M2923.766,3982.952v84.275h32.774v-85.444l-2.692.1-4.918.174v-17.241h-17.557v17.869Z" transform="translate(-2840.077 -3881.416)"/><rect class="e" width="8.097" height="8.097" transform="translate(67.136 133.532)"/><rect class="e" width="8.097" height="8.097" transform="translate(54.181 133.532)"/><rect class="e" width="8.097" height="8.097" transform="translate(41.228 133.532)"/><rect class="e" width="8.097" height="8.097" transform="translate(67.136 150.997)"/><rect class="e" width="8.097" height="8.097" transform="translate(54.181 150.997)"/><rect class="e" width="8.097" height="8.097" transform="translate(41.228 150.997)"/><path class="d" d="M2839.9,3968.227h7.024l-.253-10.534h0l-.92-38.623a4.489,4.489,0,0,1-4.684,0l-.919,38.623h0Z" transform="translate(-2827.026 -3874.298)"/><path class="d" d="M2824.653,3982.952v84.275h32.77v-85.444l-7.607.271v-17.241H2832.26v17.869Z" transform="translate(-2824.653 -3881.416)"/><g transform="translate(62.395 165.489)"><path class="f" d="M2913.724,4076.965c0,5.736-3.2,5.841-7.14,5.841s-10.417-1.135-7.14-5.841c3.457-4.965,9.387-14.428,7.14-14.93C2906.583,4062.038,2913.724,4071.23,2913.724,4076.965Z" transform="translate(-2898.547 -4062.035)"/><path class="c" d="M2909.937,4082.809c0,2.271-1.267,2.313-2.826,2.313s-4.124-.449-2.826-2.313c1.368-1.965,3.715-5.711,2.826-5.911C2907.11,4076.9,2909.937,4080.538,2909.937,4082.809Z" transform="translate(-2899.385 -4064.348)"/></g><g transform="translate(24.746 165.489)"><path class="f" d="M2853.96,4076.965c0,5.736,3.2,5.841,7.14,5.841s10.417-1.135,7.14-5.841c-3.457-4.965-9.387-14.428-7.14-14.93C2861.1,4062.038,2853.96,4071.23,2853.96,4076.965Z" transform="translate(-2853.96 -4062.035)"/><path class="c" d="M2859.439,4082.809c0,2.271,1.266,2.313,2.825,2.313s4.123-.449,2.826-2.313c-1.368-1.965-3.715-5.711-2.826-5.911C2862.264,4076.9,2859.439,4080.538,2859.439,4082.809Z" transform="translate(-2854.813 -4064.348)"/></g><g transform="translate(76.159 165.489)"><path class="f" d="M2930.025,4076.965c0,5.736-3.2,5.841-7.14,5.841s-10.417-1.135-7.14-5.841c3.457-4.965,9.387-14.428,7.14-14.93C2922.885,4062.038,2930.025,4071.23,2930.025,4076.965Z" transform="translate(-2914.848 -4062.035)"/><path class="c" d="M2926.238,4082.809c0,2.271-1.267,2.313-2.826,2.313s-4.124-.449-2.826-2.313c1.368-1.965,3.716-5.711,2.826-5.911C2923.412,4076.9,2926.238,4080.538,2926.238,4082.809Z" transform="translate(-2915.686 -4064.348)"/></g><g transform="translate(37.295 146.704)"><path class="f" d="M2868.822,4068.22c0,10.924,6.088,11.126,13.595,11.126s19.843-2.161,13.594-11.126c-6.586-9.457-17.878-27.479-13.594-28.433C2882.421,4039.787,2868.822,4057.3,2868.822,4068.22Z" transform="translate(-2868.822 -4039.787)"/><path class="c" d="M2879.255,4079.347c0,4.324,2.41,4.4,5.383,4.4s7.853-.855,5.383-4.4c-2.606-3.742-7.077-10.877-5.383-11.255C2884.637,4068.092,2879.255,4075.023,2879.255,4079.347Z" transform="translate(-2870.445 -4044.192)"/></g></g></svg>