<svg xmlns="http://www.w3.org/2000/svg" width="67.037" height="62.073" viewBox="0 0 67.037 62.073"><defs><style>.a,.c{fill:#071e54;}.a,.b{opacity:0.5;}</style></defs><path class="a" d="M37.723,3.114A1.465,1.465,0,0,0,37.158,3h-26.6A1.478,1.478,0,0,0,9.078,4.478V63.595a1.478,1.478,0,0,0,1.478,1.478H51.938a1.478,1.478,0,0,0,1.478-1.478V19.257a1.5,1.5,0,0,0-.435-1.046L38.2,3.433A1.5,1.5,0,0,0,37.723,3.114Zm.913,4.932,9.734,9.734H38.636ZM50.46,62.117H12.034V5.956H35.68v13.3a1.478,1.478,0,0,0,1.478,1.478h13.3Z" transform="translate(-9.078 -3)"/><path class="a" d="M27.51,18.565a1.482,1.482,0,0,0-1.611.321l-7.388,7.388a1.478,1.478,0,0,0,2.09,2.09L25.468,23.5V43.576a1.478,1.478,0,0,0,2.956,0V23.5l4.867,4.867a1.478,1.478,0,1,0,2.09-2.09l-7.388-7.388A1.479,1.479,0,0,0,27.51,18.565Z" transform="translate(31.223 5.385)"/><g class="b" transform="translate(7.848 29.591)"><path class="c" d="M303.6,479.464h23.475c1.089,0,2.178.028,3.261,0h.05a1.415,1.415,0,0,0,0-2.829H306.908c-1.089,0-2.178-.028-3.261,0H303.6a1.415,1.415,0,1,0,0,2.829Z" transform="translate(-302.182 -476.622)"/><g transform="translate(0 9.06)"><path class="c" d="M303.6,607.564h23.475c1.089,0,2.178.028,3.261,0h.05a1.415,1.415,0,0,0,0-2.829H306.908c-1.089,0-2.178-.028-3.261,0H303.6a1.415,1.415,0,1,0,0,2.829Z" transform="translate(-302.182 -604.722)"/></g><g transform="translate(0 18.14)"><path class="c" d="M303.6,735.929h16.211a1.415,1.415,0,1,0,0-2.829H303.6a1.415,1.415,0,1,0,0,2.829Z" transform="translate(-302.182 -733.1)"/></g></g></svg>