<svg xmlns="http://www.w3.org/2000/svg" width="56.815" height="64.721" viewBox="0 0 56.815 64.721"><defs><style>.a{fill:#7a86a2;stroke:#7b86a2;stroke-miterlimit:10;}.b{fill:#7b86a2;}</style></defs><g transform="translate(-1069.375 -432.708)"><g transform="translate(1069.875 473.205)"><path class="a" d="M28,105.324H9.683a.484.484,0,0,1-.483-.483V93.631A12.063,12.063,0,0,1,21.231,81.6a11.829,11.829,0,0,1,8.5,3.527,10.934,10.934,0,0,1,2.319,3.334l-.87.387A9.92,9.92,0,0,0,29.059,85.8a11.1,11.1,0,0,0-18.941,7.827v10.727H27.947v.966Z" transform="translate(-9.2 -81.6)"/></g><g transform="translate(1074.514 459.386)"><path class="a" d="M26.193,67.785a7.393,7.393,0,1,1,7.393-7.393A7.424,7.424,0,0,1,26.193,67.785Zm0-13.867a6.475,6.475,0,1,0,6.475,6.475A6.475,6.475,0,0,0,26.193,53.918Z" transform="translate(-18.8 -53)"/></g><g transform="translate(1102.779 473.205)"><path class="a" d="M99.768,105.324H81.455v-.966H99.285V93.631A11.1,11.1,0,0,0,78.17,88.848l-.87-.387A12.04,12.04,0,0,1,88.172,81.6,12.043,12.043,0,0,1,100.2,93.631v11.21A.421.421,0,0,1,99.768,105.324Z" transform="translate(-77.3 -81.6)"/></g><g transform="translate(1106.26 459.386)"><path class="a" d="M91.893,67.785a7.393,7.393,0,1,1,7.393-7.393A7.424,7.424,0,0,1,91.893,67.785Zm0-13.867a6.475,6.475,0,1,0,6.475,6.475A6.475,6.475,0,0,0,91.893,53.918Z" transform="translate(-84.5 -53)"/></g><g transform="translate(1088.188 477.94)"><path class="a" d="M65.847,110.389H47.583a.484.484,0,0,1-.483-.483v-8.89a9.615,9.615,0,0,1,19.231,0v8.89A.456.456,0,0,1,65.847,110.389Zm-17.829-.918H65.364v-8.407a8.7,8.7,0,0,0-17.395,0v8.407Z" transform="translate(-47.1 -91.4)"/></g><g transform="translate(1091.859 467.02)"><path class="a" d="M60.643,80.686a5.943,5.943,0,1,1,5.943-5.943A5.939,5.939,0,0,1,60.643,80.686Zm0-10.968a5.025,5.025,0,1,0,5.025,5.025A5.021,5.021,0,0,0,60.643,69.718Z" transform="translate(-54.7 -68.8)"/></g><path class="b" d="M49.534,50.078h.13a2.287,2.287,0,1,1-2.3,2.287.912.912,0,0,0-1.825,0,4.109,4.109,0,0,0,3.078,3.962v.629a.912.912,0,0,0,1.825,0V56.4a4.109,4.109,0,0,0-.782-8.144h-.13a2.287,2.287,0,1,1,2.3-2.287.912.912,0,0,0,1.825,0,4.115,4.115,0,0,0-3.208-4v-.588a.912.912,0,0,0-1.825,0v.588a4.107,4.107,0,0,0,.912,8.114Z" transform="translate(1048.33 395.98)"/><path class="b" d="M48.808,61.244A12.437,12.437,0,1,0,36.379,48.807,12.447,12.447,0,0,0,48.808,61.244Zm0-23.05A10.612,10.612,0,1,1,38.2,48.807,10.62,10.62,0,0,1,48.808,38.195Z" transform="translate(1049.119 396.339)"/></g></svg>