<svg xmlns="http://www.w3.org/2000/svg" width="257.481" height="181.671" viewBox="0 0 257.481 181.671"><defs><style>.a,.g{fill:#f9feff;}.a,.f,.g,.h,.i,.j,.k,.l,.m,.n,.o{stroke:#4e4c4c;}.a,.c,.d,.k,.l,.m{stroke-width:0.4px;}.b{fill:#efefef;}.c,.k{fill:#d8d9de;}.c,.d{stroke:#343434;}.d{fill:#e6e8ed;}.e{fill:#5f5f5f;}.f{fill:#233862;}.f,.g,.h,.i,.j,.n,.o{stroke-width:0.2px;}.h{fill:#2b478b;}.i{fill:#2d2d2d;}.j{fill:#b64c41;}.l{fill:#e7e8ee;}.m{fill:#444546;}.n{fill:#e1f4f7;}.o{fill:#767676;}</style></defs><g transform="translate(0 0.224)"><path class="a" d="M1459.7,577.206c-1.87-1.474-6.263-2.519-8.425-2.964-.762-.157-1.247-.238-1.247-.238.225,1.083.733,2.783,1.4,4.823,2.777,8.552,8.281,23.094,7.172,23.4a29.38,29.38,0,0,1-3.327.668c-4.828.737-11.324,1.063-12,1.1-.053-.052-2.367-2.3-3.268-2.3s-3.539,1-3.807,1.766-.375,2.149.375,2.456a32.588,32.588,0,0,0,4.665,1.152,2.044,2.044,0,0,0,.387,0,78.543,78.543,0,0,0,14.581,3.05,45.236,45.236,0,0,0,8.473.255C1468.542,601.68,1462.228,579.2,1459.7,577.206Z" transform="translate(-1351.371 -541.179)"/><path class="b" d="M430.8,732.854s25.73-.56,36.725-14.819c19.918-25.833,10.942-48.487-24.519-46.8-39.669,1.886-34.777-78.192-103.465-39.637-14.915,8.372-48.111-9.21-61.373,27.421-3.154,8.711-26.837,9.317-42.144,16.3-24.01,10.957-17.229,57.716,5.453,57.9S430.8,732.854,430.8,732.854Z" transform="translate(-220.94 -551.811)"/><path class="c" d="M621.908,1754.047H518.75c4.968-3.666,22.8-16.452,38.947-23.357,6.693-2.86,13.1-4.711,18.174-4.482C591.979,1726.931,614.557,1747.078,621.908,1754.047Z" transform="translate(-364.928 -1573.568)"/><path class="d" d="M499.807,1754.048H396.65c7.026-5.186,39.785-28.615,57.121-27.839,4.523.2,9.555,1.939,14.618,4.482C481.357,1737.207,494.519,1749.034,499.807,1754.048Z" transform="translate(-275.619 -1573.568)"/><path class="e" d="M635.923,1608.7a.868.868,0,0,0-1.037.651l-7.864,34.344c-2.124.063-4.284,2.363-5.017,5.567l-.749,3.272a4.541,4.541,0,0,0-.1.55l8.733,2a2.3,2.3,0,0,0,.17-.535l.749-3.272c.732-3.2-.205-6.2-2.1-7.191l7.865-34.349A.869.869,0,0,0,635.923,1608.7Z" transform="translate(-445.863 -1487.615)"/><g transform="translate(61.304 0)"><path class="f" d="M2020.828,1796.909a17.86,17.86,0,0,1,1.057-5.387c.9-1.881,8.119-.588,8.119-.588a12.88,12.88,0,0,1,1.438,5.958Z" transform="translate(-1988.438 -1616.383)"/><path class="f" d="M1895.87,1796.909a17.872,17.872,0,0,1,1.057-5.387c.9-1.881,8.119-.588,8.119-.588a12.879,12.879,0,0,1,1.438,5.958Z" transform="translate(-1882.848 -1616.383)"/><path class="g" d="M1954.69,868.719c-.9.681-9.062,5.121-9.062,5.121l-8.6-6.4s2.614-.4,2.683-.418c.776-.226.741-2.4.839-4.708.015-.356.034-.716.059-1.072l8.425-.319.007.109c.007.111.016.227.024.349l.017.25c.005.086.012.173.019.263.152,2.031.477,4.9,1.1,5.235C1950.549,867.324,1952.948,867.294,1954.69,868.719Z" transform="translate(-1917.623 -837.001)"/><path class="h" d="M1953.662,732.107a6.185,6.185,0,0,1,8.858.086A33.119,33.119,0,0,0,1953.662,732.107Z" transform="translate(-1931.683 -727.444)"/><path class="i" d="M1931.7,752.021a37.323,37.323,0,0,1-2.081-6.012c-.567-2.309-.048-11.074,8.4-10.479a11.03,11.03,0,0,1,4.846,1.489c1.908,1.136,4.727,3.691,2.341,11.491l-.577,2.617Z" transform="translate(-1911.234 -731.84)"/><path class="g" d="M1952.812,785.757c-2.182,2.175-4.893,5.073-10.736-.287-1.143-1.048-1.066-2.661-1.132-4.976-.08-2.741-.713-4.419-.419-6,.349-1.89,1.9-2.744,5.117-3.036,5.908-.535,8.895.853,8.5,3.909C1953.254,782.19,1955.031,783.545,1952.812,785.757Z" transform="translate(-1920.516 -761.894)"/><path class="j" d="M1989.16,768.477s3.5-.077,4.3,1.144.911,2.587,1.314,3.275a2.749,2.749,0,0,1,.337,1.461l.777-5.449-4.741-.982Z" transform="translate(-1961.678 -759.025)"/><path class="k" d="M1900.86,909.015s-1.5,4.6-7.56,5.436c-.164.023-.333.042-.5.06h-24.7l-.132-.042c-.959-.317-6.859-2.424-7.48-6.365,0,0,3.1-6.641,5.47-7.464a14.467,14.467,0,0,1,2.651-.557c1.027-.137,2.108-.229,3.014-.289,1.248-.081,2.165-.1,2.165-.1a7.445,7.445,0,0,0,6.6,4,5.843,5.843,0,0,0,5.765-3.944s1.314.039,3.06.236c.963.107,2.055.263,3.133.487a11.1,11.1,0,0,1,4.62,1.811C1899.676,904.577,1900.86,909.015,1900.86,909.015Z" transform="translate(-1852.951 -869.502)"/><path class="l" d="M1902.106,945.085c-.263-1.522-.654-3.838-.961-5.876,0-.027.915-11.5,1.253-13.441s-1.96-12.493-1.96-12.493c-.535-1.615-1.441-2.109-2.136-2.109L1899.471,901c-1.078-.224-2.17-.379-3.133-.487l-.56,10.648-.008.153c-1.281.074-2.877.164-4.364.233s-2.864.122-3.712.122c-1.724,0-5.678-.206-8.3-.356l-.01-.152-.634-10.843c-.907.06-1.988.152-3.014.289l1.116,10.553v0c-.736,0-1.582,1.361-1.7,2.118l-.114,3.3a38.83,38.83,0,0,0-1.9,7.946c-.253,3.427,1.12,15.346,1.129,15.429-.05,1.421-.147,3.237-.333,4.994a101.761,101.761,0,0,0-4.984,34.694c.417,17.014.665,46.085,2.588,60.2a39.942,39.942,0,0,0,1.078,5.575,1.827,1.827,0,0,0,1.481,1.307c2.205.319,7.176.906,9.316.1,1.025-.39,1.759-6.323,2.278-13.972.5-7.333.8-16.245.962-23.358,0,0,0,0,0,0,.133-5.671.184-10.2.184-11.872,0-3.791.859-14.914,1.143-21.456a.14.14,0,0,1,.279,0v0c.431,7.767,1.937,19.546,1.96,22.163.056,6.348-.3,47.131,2.363,48.5,2.035,1.047,6.83.256,9.121-.068a2.139,2.139,0,0,0,1.743-1.57c2.862-10.261,3.115-45.918,3.6-65.54A102.048,102.048,0,0,0,1902.106,945.085Z" transform="translate(-1860.072 -870.033)"/><g transform="translate(16.051)"><path class="m" d="M1934.15,717.632a12.779,12.779,0,0,0-1.814-1.951c-.185-.166-.383-.334-.594-.5a9.141,9.141,0,0,0-12.523.353q-.274.271-.52.557c-3.582,4.143-3.279,10.64-3.279,10.64l20.669-.23C1936.156,720.486,1934.15,717.632,1934.15,717.632Z" transform="translate(-1915.414 -712.845)"/><path class="m" d="M1930.318,739.711c-.058-.906-.453-8.34,2.052-10.882a4.159,4.159,0,0,0-.352-.305c-2.671,2.923-2.843,10.244-2.832,11.2l-6.607.073a28.185,28.185,0,0,0-3.325-11.118,4.768,4.768,0,0,0-.381.408,32.52,32.52,0,0,1,2.483,10.724l-5.9.066a43.419,43.419,0,0,0,9.651,1.43,67.817,67.817,0,0,0,11.017-1.66Z" transform="translate(-1915.449 -725.99)"/></g><path class="a" d="M1831.458,1001.66c-.846.706-3.608.411-4.679-.529s-3.214-.647-3.722-1c-.035-.025-10.008-12.345-11.089-17.529-1.091-5.232,5.812-19.629,7.766-23.554,1.446,3.185,6.264,4.9,7.123,5.188l.132.042h.267c-1.625,4.581-6.485,12.828-8.357,15.935a2.8,2.8,0,0,0-.156,2.568c2.405,5.376,4.758,9.911,5.788,13.054.2.349.644.973,1.175.889.734-.118,3.1-.647,4.286,1.174S1832.3,1000.955,1831.458,1001.66Z" transform="translate(-1811.853 -919.27)"/></g><g transform="translate(76.247 79.449)"><path class="n" d="M2626.963,1247.151h-2.645c-.262,0-.478.3-.478.664v99.823c0,.365.215.662.478.662h2.645c.263,0,.477-.3.477-.662v-99.823C2627.44,1247.451,2627.226,1247.151,2626.963,1247.151Z" transform="translate(-2623.84 -1247.151)"/><g transform="translate(0 0)"><path class="o" d="M2626.963,1247.151h-2.645c-.262,0-.478.364-.478.806v3.755h3.6v-3.755C2627.44,1247.515,2627.226,1247.151,2626.963,1247.151Z" transform="translate(-2623.84 -1247.151)"/><path class="h" d="M2623.84,1815.611c0,.443.215.8.478.8h2.645c.263,0,.477-.362.477-.8v-3.239h-3.6Z" transform="translate(-2623.84 -1715.265)"/></g><path class="o" d="M2636.689,1284.948a.41.41,0,0,0-.44.366v85.207a.447.447,0,0,0,.88,0v-85.207A.409.409,0,0,0,2636.689,1284.948Z" transform="translate(-2634.869 -1277.006)"/></g></g></svg>