<svg xmlns="http://www.w3.org/2000/svg" width="273" height="241" viewBox="0 0 273 241"><defs><style>.a,.m,.o{fill:#2d2d2d;}.b{fill:#264a9f;}.b,.f{stroke:#4e4c4c;}.b,.f,.h,.i,.j,.k,.l,.m,.n,.o,.p,.q,.r,.s,.t,.u,.v{stroke-miterlimit:10;}.b,.f,.o,.p{stroke-width:0.2px;}.c{fill:#567bb7;}.d{fill:#3c62af;}.e{opacity:0.87;}.f,.q{fill:#fff;}.g{fill:#dfe4ef;}.h{fill:#f0f5fd;}.h,.i,.j,.k,.l,.m,.n,.o,.p,.q,.r,.s,.t,.u,.v{stroke:#4d4d4d;}.h,.i,.j,.k,.l,.m,.n,.q,.r,.s,.t,.u,.v{stroke-width:0.3px;}.i{fill:#292949;}.j{fill:#758cc4;}.k{fill:#eff8fa;}.l{fill:#fdfdfd;}.n{fill:#b7c9e2;}.p,.r{fill:#f9feff;}.s{fill:#e6e8ee;}.t{fill:#e7e9ef;}.u{fill:#ebf1f2;}.v{fill:#c6d0e0;}.w{fill:none;}</style></defs><g transform="translate(-875 -532)"><g transform="translate(934.5 611)"><circle class="a" cx="3" cy="3" r="3"/></g><g transform="translate(-2 2)"><g transform="translate(979.636 551.846)"><path class="b" d="M676.365,251.152c-26.009.514-36.4-13.559-37.776-15.6,0,0,0-.178-.081-.122-.053-.081-.121.083-.121.083-2.042,1.377-16.978,10.488-40.871.2,0,0-12.623,44.138-1.666,65.3,11.7,22.6,23.655,31.084,23.731,31.046.056.064,14.415-3.147,33.69-19.8C671.3,296.676,676.365,251.152,676.365,251.152Z" transform="translate(-591.378 -235.402)"/></g><g transform="translate(983.314 559.659)"><path class="c" d="M682.532,275.021c-22.956.363-32.176-11.874-33.394-13.652,0,0,0-.154-.072-.106-.047-.071-.107.072-.107.072-1.8,1.187-14.954,9.042-36.077.044,0,0-11,38.238-1.265,56.624,10.4,19.638,20.763,28.07,20.829,28.037.05.056,12.931-3.722,29.892-18.1C678.209,314.485,682.532,275.021,682.532,275.021Z" transform="translate(-607.596 -261.243)"/></g><g transform="translate(987.505 557.637)"><path class="d" d="M663.843,257.427s.063-.149.112-.075c.073-.05.075.111.075.111,1.251,1.826,10.561,14.183,33.59,14.3.669-3.986.945-6.508.945-6.508-22.956.363-32.176-11.874-33.393-13.652,0,0,0-.154-.072-.107-.047-.071-.107.072-.107.072-1.8,1.187-14.954,9.042-36.076.044,0,0-.7,2.438-1.593,6.379C648.706,266.582,662,258.647,663.843,257.427Z" transform="translate(-627.324 -251.482)"/></g><g class="e" transform="translate(990.418 569.682)"><path class="f" d="M702.928,330.846c-17.831.352-26.915-10.1-27.855-11.507,0,0,0-.122-.056-.084-.036-.056-.083.057-.083.057-1.4.944-13.644,7.2-30.025.147,0,0-6.65,30.251.862,44.758,8.024,15.5,16.218,21.311,16.27,21.285.038.044,9.883-2.158,23.1-13.573C697.5,361.248,702.928,330.846,702.928,330.846Z" transform="translate(-642.193 -319.239)"/></g></g><g transform="translate(893 684.863)"><path class="g" d="M3052.045,3781.337H2858.989c-6.1,0-11.1,3.1-11.1,6.881h0c0,2.62,2.4,4.909,5.9,6.07h-17c-6.1,0-11.1,3.1-11.1,6.881h0c0,3.784,5,6.881,11.1,6.881h5.924a5.655,5.655,0,0,0-2.659,4.451v2.752c0,3.784,5,6.881,11.1,6.881h190.183c6.1,0,11.1-3.1,11.1-6.881V3812.5c0-3.784-5-6.881-11.1-6.881l-12.931.153a6.076,6.076,0,0,0,3.657-1.449,5.5,5.5,0,0,0,1.045-6.418,4.6,4.6,0,0,0-3.918-2.9l22.859.093c6.1,0,11.1-3.1,11.1-6.881h0C3063.149,3784.43,3058.149,3781.337,3052.045,3781.337Z" transform="translate(-2825.681 -3781.337)"/></g><path class="h" d="M2914.761,3666.16l4.071,1.029,17.141,14.4-2.571,7.82h-8.357Z" transform="translate(-1950.08 -3073.453)"/><g transform="translate(1066.122 648.673)"><g transform="translate(9.897 59.539)"><path class="i" d="M3053.89,3812.052l.173,1.64a.561.561,0,0,1-.25.527l-3.073,2.029a.612.612,0,0,1-.714-.031l-1.394-1.109a.553.553,0,0,1-.093-.783l1.359-1.712a.585.585,0,0,1,.135-.124l2.833-1.868a.607.607,0,0,1,.823.146.56.56,0,0,1,.1.266Z" transform="translate(-3048.417 -3810.52)"/></g><path class="j" d="M3051.813,3736.771l.632,6-5.6,20.617,5.2,33.129-3.824,1.268-10.085-32.345-1.6-9.409.058-19.923Z" transform="translate(-3036.536 -3736.107)"/></g><g transform="translate(1051.985 650.978)"><path class="j" d="M3019.565,3744.034l8.044,55.512h3.656l.657-35.583,6.655-24.976Z" transform="translate(-3019.565 -3738.987)"/><g transform="translate(5.904 60.115)"><path class="i" d="M3032.429,3814.519v1.36a.392.392,0,0,1-.219.349l-3.463,1.744a.424.424,0,0,1-.487-.08l-1.495-1.507a.382.382,0,0,1,0-.542l1.583-1.6a.421.421,0,0,1,.3-.121h3.369a.4.4,0,0,1,.416.388Z" transform="translate(-3026.652 -3814.12)"/></g></g><g transform="translate(1039.75 596.906)"><path class="h" d="M3046.326,3717.166c-3.123-19.711-2.008-34.067-2.166-38.005a8.063,8.063,0,0,0-3.044-5.988c-1.264-.271-2.364-1.052-3.64-1.36-8.635-2.087-13.344,4.246-16.577,11.076a190.858,190.858,0,0,0-10.033,25.983c-2.374,7.785-4.753,15.642-5.747,23.721-.411,3.334-.75,6.5,3.046,7.967,6.056,2.344,12.861,2.292,19.257,3.041,7.347.863,14.7,1.494,22.1,1.789C3053.378,3745.543,3049.448,3736.878,3046.326,3717.166Z" transform="translate(-3004.877 -3671.408)"/></g><g transform="translate(1044.066 642.358)"><path class="k" d="M3010.059,3740.463l11.233-4.9,7.194-7.316a.126.126,0,0,1,.173-.006l.007.006,2.268,2.375-6,8.849-9.171,6.8Z" transform="translate(-3010.059 -3728.214)"/></g><g transform="translate(1028.45 638.483)"><path class="k" d="M2997.88,3745.3l-5.992-9.857-.577-11.922,3.425-.152,2.044,11.239,5.581,4.49Z" transform="translate(-2991.312 -3723.371)"/></g><g transform="translate(1033.705 688.025)"><path class="j" d="M2997.621,3786.8v22.933h3.6l2.249-13.847,2.028-10.6Z" transform="translate(-2997.621 -3785.29)"/></g><g transform="translate(1041.589 687.16)"><path class="j" d="M3007.085,3784.208l1.351,9.952,1.8,16.01,3.6-.216v-12.333l1.8-12.548Z" transform="translate(-3007.085 -3784.208)"/></g><g transform="translate(1028.406 653.711)"><path class="k" d="M3002.753,3742.426s-3.832-.649-5.406,4.976-5.856,22.068-6.081,30.725,5.631,3.029,12.614,4.11,12.727,1.19,12.727-2.7S3019.083,3742.537,3002.753,3742.426Z" transform="translate(-2991.259 -3742.404)"/></g><g transform="translate(1035.228 636.728)"><g transform="translate(0.645 3.111)"><path class="l" d="M3002.051,3727.78c3.19-5.4,10.334-1.946,10.824,3.441.278,3.06-1.855,8.161-5.607,7.905-.235.493-.644,1.43-1.171,1.639-.571.226-1.833-.581-2.332-.88a.868.868,0,0,1-.354-.32,1.537,1.537,0,0,1,.15-.929,5.288,5.288,0,0,1-1.14-.633,5.8,5.8,0,0,1-2.181-4.955A11.527,11.527,0,0,1,3002.051,3727.78Z" transform="translate(-3000.223 -3725.066)"/></g><path class="m" d="M3006.374,3725.6s5.1,1.226,5.1,3.268c0,2.394.129,4.173.084,5.706a.684.684,0,0,0,.676.695.729.729,0,0,0,.379-.093l2.256-1.28a.682.682,0,0,0,.3-.352l1.762-4.737a3.1,3.1,0,0,0,.146-1.65c-.264-1.4-1-4.026-2.843-4.617a48.411,48.411,0,0,0-5.22-1.184,10.842,10.842,0,0,0-5.09.291l-1.47.446a.73.73,0,0,1-.26.029l-2-.137a.691.691,0,0,0-.749.622.669.669,0,0,0,0,.125l.6,5.041a.694.694,0,0,0,.777.589.7.7,0,0,0,.534-.349C3002.246,3726.475,3003.8,3724.925,3006.374,3725.6Z" transform="translate(-2999.449 -3721.178)"/></g><g transform="translate(1032.228 712.476)"><path class="i" d="M2997.688,3815.94l-1.749,1.68a.294.294,0,0,0-.039.381l.625.9a.323.323,0,0,0,.361.119l3.611-1.156a.3.3,0,0,0,.215-.286v-1.427a.307.307,0,0,0-.313-.3h-2.485A.321.321,0,0,0,2997.688,3815.94Z" transform="translate(-2995.847 -3815.848)"/></g><g transform="translate(1045.447 712.95)"><path class="i" d="M3011.728,3817.021l.583,2.209a.385.385,0,0,0,.25.264l2.121.741a.414.414,0,0,0,.312-.017l.809-.389a.373.373,0,0,0,.176-.51.334.334,0,0,0-.018-.031l-1.741-2.667a.4.4,0,0,0-.36-.178l-1.771.106a.386.386,0,0,0-.373.4A.394.394,0,0,0,3011.728,3817.021Z" transform="translate(-3011.716 -3816.441)"/></g><g transform="translate(1062.817 639.166)"><path class="l" d="M3032.571,3728.066l.374-2.16a.237.237,0,0,1,.238-.194h.553a.246.246,0,0,0,.167-.068l1.407-1.351a.247.247,0,0,1,.341,0,.23.23,0,0,1,.046.062l.459.88a.219.219,0,0,1,.024.134l-.407,2.936a.232.232,0,0,1-.072.137l-1.29,1.19a.248.248,0,0,1-.333,0l-1.438-1.366A.226.226,0,0,1,3032.571,3728.066Z" transform="translate(-3032.568 -3724.224)"/></g><g transform="translate(1027.693 632.902)"><path class="l" d="M2993.923,3721.929l1.735-2.61a.173.173,0,0,0-.012-.207l-.646-.775a.189.189,0,0,0-.26-.027l-.015.013-.719.69a.191.191,0,0,1-.262,0,.173.173,0,0,1-.043-.065l-.905-2.435a.187.187,0,0,0-.237-.108l-.013.006-2.034.888a.176.176,0,0,0-.1.2l1.139,4.464a.184.184,0,0,0,.188.135l2.039-.091A.187.187,0,0,0,2993.923,3721.929Z" transform="translate(-2990.404 -3716.395)"/></g><g transform="translate(1036.703 601.072)"><path class="n" d="M3043.6,3684.885l-19.926,14.233-22.453-1.194.129-4.355,19.206-2.062,15.165-12.492,8.119-2.4Z" transform="translate(-3001.219 -3676.614)"/></g><g transform="translate(1029.522 618.009)"><path class="l" d="M2999.167,3697.884l-3.951-.1a.779.779,0,0,0-.566.219l-1.833,1.791a.711.711,0,0,0-.136.844l.27.511a.763.763,0,0,0,.542.39l2.313.412a.8.8,0,0,0,.347-.016l3.125-.849a.739.739,0,0,0,.555-.677l.072-1.76a.746.746,0,0,0-.731-.764Z" transform="translate(-2992.6 -3697.782)"/></g><g transform="translate(1061.442 574.967)"><g transform="translate(0 3.344)"><path class="m" d="M3036.74,3648.167s-2.767,1.258-3.406,8.17a40.818,40.818,0,0,1-2.416,11.122s2.113,1.608,4.114.982,2.7-.679,2.754-3.537,2.083-16.061,2.083-16.061Z" transform="translate(-3030.918 -3648.167)"/></g><g transform="translate(3.47 2.129)"><path class="m" d="M3042.559,3651.473a7.209,7.209,0,0,0-6.448,4.451,5.972,5.972,0,0,1,1.869-8.46,6.5,6.5,0,0,1,1.971-.815,6.967,6.967,0,0,1,2.4,4.823Z" transform="translate(-3035.083 -3646.648)"/></g><g transform="translate(3.162 5.475)"><path class="l" d="M3036.271,3654.423c3.144-6.578,11.8-3.246,12.925,2.956.639,3.527-1.308,9.657-5.692,9.715-.221.6-.6,1.722-1.19,2.014-.64.32-2.187-.5-2.8-.8a1.027,1.027,0,0,1-.442-.335,1.772,1.772,0,0,1,.076-1.093,6.226,6.226,0,0,1-1.39-.626,6.807,6.807,0,0,1-3.044-5.546A13.353,13.353,0,0,1,3036.271,3654.423Z" transform="translate(-3034.714 -3650.83)"/></g><g transform="translate(8.164)"><path class="m" d="M3041.07,3646.14s-1.833,3.537,2.876,5.761,6.976,6.743,5.094,10.489-6.314,5.779-4.635,7.281,9.092,2.17,9.092,2.17,7.934-12.9,3.648-20.323S3044.471,3641.874,3041.07,3646.14Z" transform="translate(-3040.719 -3643.988)"/></g></g><g transform="translate(940.793 568.214)"><path class="j" d="M2893.548,3636.138a4.827,4.827,0,0,0-2.955,1.487c-1.092,1.312-4.546,7.256-4.507,11.872s-.7,10.349,8.8,14.347c4.733,1.483,4.84-2.589,8.625-2.836s7.056,1.022,6.537-4.63-4.233-6.926-6.292-13.235S2898.449,3634.287,2893.548,3636.138Z" transform="translate(-2886.085 -3635.547)"/></g><g transform="translate(932.126 569.346)"><path class="j" d="M2889.848,3636.98l-7.793,2.532a.326.326,0,0,1-.058.014l-6.037.842a.318.318,0,0,0-.28.32l.076,2.105a.318.318,0,0,0,.281.3l5.876.791a.348.348,0,0,0,.108,0l6.42-1.214a.321.321,0,0,0,.25-.218l1.576-5.083a.313.313,0,0,0-.216-.392A.338.338,0,0,0,2889.848,3636.98Z" transform="translate(-2875.68 -3636.962)"/></g><g transform="translate(954.746 568.454)"><path class="j" d="M2902.835,3635.847l6.139,2.137,5.152-1.75.8,1.658-4.859,3.384-4.86.32Z" transform="translate(-2902.835 -3635.847)"/></g><g transform="translate(941.055 552.654)"><g transform="translate(11.285 2.549)"><path class="o" d="M2900.794,3621.171s3.845,2.434,3.5,6.11c0,0,2.521-1.942,1.44-4.646s-1.8-3.769-4.466-3.2S2900.794,3621.171,2900.794,3621.171Z" transform="translate(-2899.946 -3619.286)"/></g><g transform="translate(4.563 4.326)"><path class="p" d="M2902.9,3625.677c-.467-5.476-7.542-5.256-10.02-1.111-1.409,2.357-1.675,7.215,1.437,8.349,0,.48-.037,1.378.305,1.734.371.386,1.7.188,2.214.127a.81.81,0,0,0,.406-.128,1.368,1.368,0,0,0,.241-.8,4.83,4.83,0,0,0,1.16-.1,5.366,5.366,0,0,0,3.67-3.2A10.1,10.1,0,0,0,2902.9,3625.677Z" transform="translate(-2891.877 -3621.506)"/></g><path class="o" d="M2899.43,3621.976c-1.981,2-5.125,2.125-7.011,4.063,0,0-1.233,1.268-.916,4.291a5.181,5.181,0,0,1-4.74-3.021c-1.444-3.154,1.882-9.37,1.882-9.37a12.214,12.214,0,0,1,9.015-1.568c1.735.391,3.3,1.648,2.915,3.546A4.025,4.025,0,0,1,2899.43,3621.976Z" transform="translate(-2886.399 -3616.1)"/></g><g transform="translate(945.019 568.454)"><path class="q" d="M2892.96,3636.63s-.388,2.768,1.139,3.082,5.049-.3,5.656-.812c.841-.7,0-2.74,0-2.74l1.134-.313s5.24,10.278,1.02,11.822-9.565,1.98-10.44-1.267.375-9.33.375-9.33Z" transform="translate(-2891.158 -3635.847)"/></g><g transform="translate(928.898 572.419)"><path class="r" d="M2874.86,3641.421l-2.708-.612a.232.232,0,0,0-.279.166v0l-.061.278a.217.217,0,0,0,.075.215l1.781,1.47a.216.216,0,0,1,.024.313.233.233,0,0,1-.049.042h0a.216.216,0,0,0-.068.307.247.247,0,0,0,.049.053l.049.038a.24.24,0,0,0,.2.042l1.049-.259a.225.225,0,0,0,.174-.223l-.059-1.625A.225.225,0,0,0,2874.86,3641.421Z" transform="translate(-2871.806 -3640.803)"/></g><g transform="translate(966.182 568.114)"><path class="p" d="M2916.64,3636.195l.545-.647a.353.353,0,0,1,.295-.123l1.162.08a.349.349,0,0,1,.306.226l.294.825a.322.322,0,0,1-.029.279l-.521.849a.352.352,0,0,1-.337.16l-.95-.1a.351.351,0,0,1-.273-.182l-.531-1.006A.324.324,0,0,1,2916.64,3636.195Z" transform="translate(-2916.562 -3635.423)"/></g><g transform="translate(958.749 635.253)"><path class="s" d="M2927.525,3723.325l.732,29.98a1.948,1.948,0,0,1-.018.313l-5.48,39.265a2.055,2.055,0,0,1-2.036,1.732l-1.083.012a2.053,2.053,0,0,1-2.1-1.821l-3.324-35.925c-.005-.059-.013-.117-.024-.175l-6.522-35.023a2.008,2.008,0,0,1,1.688-2.318,2.169,2.169,0,0,1,.638-.013l15.725,2.041A2.032,2.032,0,0,1,2927.525,3723.325Z" transform="translate(-2907.64 -3719.334)"/></g><g transform="translate(968.854 709.963)"><path class="i" d="M2919.77,3813.51l.016,1.287a.746.746,0,0,0,.438.662l4.291,2a.8.8,0,0,0,.9-.151l1.633-1.606a.726.726,0,0,0-.014-1.055l-1.842-1.727a.794.794,0,0,0-.552-.213l-4.1.046a.761.761,0,0,0-.769.754Z" transform="translate(-2919.77 -3812.708)"/></g><g transform="translate(947.952 711.223)"><path class="i" d="M2899.513,3814.518l3.219,2.628a.972.972,0,0,1,.257,1.208l-.308.591a1.053,1.053,0,0,1-1.149.529l-6.034-1.253a1.009,1.009,0,0,1-.82-.975v-1.966a1.019,1.019,0,0,1,1.039-1h3.123A1.061,1.061,0,0,1,2899.513,3814.518Z" transform="translate(-2894.678 -3814.282)"/></g><g transform="translate(943.851 645.793)"><path class="s" d="M2907.836,3736.78l-3.434,30.864-4.489,30.479a.326.326,0,0,1-.341.271l-6.164-.281.236-31.914-3.89-29.6,9.136-4.087Z" transform="translate(-2889.754 -3732.508)"/></g><g transform="translate(938.72 593.221)"><path class="h" d="M2910.618,3666.905s7.98,5.069,13.051,21.506c5.165,16.738,4.4,38.881,4.4,38.881s-45.389,7.378-44.448.116c0,0-1.5-58.648,18.64-60.089C2903.178,3667.252,2910.124,3666.542,2910.618,3666.905Z" transform="translate(-2883.597 -3666.802)"/></g><g transform="translate(958.018 594.56)"><path class="q" d="M2912.557,3668.886c3.425,8.019,5.991,15.583,9.509,23.564,2.083,4.729,2.107,9.669,2.4,14.707q.444,7.512.887,15.024.188,3.174.375,6.348l-18.97,1.913c1.093-6.066,2.342-12.109,3.318-18.194.9-5.613,2.28-11.914,1.205-17.572-.523-2.754-1.088-5.507-1.626-8.26-.986-5.053-1.426-10.222-2.458-15.266a14.651,14.651,0,0,1,.857-2.676Z" transform="translate(-2906.762 -3668.475)"/></g><g transform="translate(950.887 593.012)"><g transform="translate(0.154)"><path class="t" d="M2905.835,3668.165l.011.947-5.172,11.664-2.287-.727,1.339-11.356,3.558-1.939a1.746,1.746,0,0,1,2.329.615A1.585,1.585,0,0,1,2905.835,3668.165Z" transform="translate(-2898.387 -3666.54)"/></g><g transform="translate(0 13.322)"><path class="i" d="M2900.96,3684l1.181,2.041a.078.078,0,0,1-.03.106l-.852.474a.087.087,0,0,1-.083,0l-2.937-1.88a.079.079,0,0,1-.036-.075l.183-1.4a.083.083,0,0,1,.094-.068l.013,0,2.425.77A.08.08,0,0,1,2900.96,3684Z" transform="translate(-2898.202 -3683.19)"/></g></g><g transform="translate(963.815 590.767)"><path class="u" d="M2918.777,3664.585h0a.475.475,0,0,1,.091.185l2.909,11.787a.5.5,0,0,1-.342.588l-1.437.451a.529.529,0,0,1-.61-.225l-5.6-9.332a.482.482,0,0,1-.024-.45l1.2-2.588a2.262,2.262,0,0,1,2.94-1.08A2.207,2.207,0,0,1,2918.777,3664.585Z" transform="translate(-2913.722 -3663.734)"/><g transform="translate(5.859 13.21)"><path class="i" d="M2923.287,3680.26l2.083.914a.174.174,0,0,1,.092.231l-.328.72a.185.185,0,0,1-.16.106l-3.4.156a.185.185,0,0,1-.166-.091l-.629-1.077a.172.172,0,0,1,.071-.24.141.141,0,0,1,.033-.014l2.271-.713A.19.19,0,0,1,2923.287,3680.26Z" transform="translate(-2920.755 -3680.244)"/></g></g><g transform="translate(952.016 572.08)"><g transform="translate(4.996 7.765)"><path class="r" d="M2912.28,3665.515l-4.436-.686a20.727,20.727,0,0,1,.458-3.409c-1.213-.491-2.605-1.2-2.743-2.46a3.407,3.407,0,0,1,.148-1.18l1.181-4.808a4.243,4.243,0,0,1,.627-1.586,3.868,3.868,0,0,1,2.749-1.226,9.507,9.507,0,0,1,7.369,2.188,3.886,3.886,0,0,1,1.167,1.674,5.093,5.093,0,0,1-.379,3.068l-.942,2.753c-.361,1.055-.861,2.25-1.963,2.59a9.876,9.876,0,0,0-1.792.364C2912.77,3663.3,2912.81,3664.611,2912.28,3665.515Z" transform="translate(-2905.554 -3650.085)"/></g><path class="m" d="M2926.855,3648.254a13.289,13.289,0,0,0-.154-3.268c-.284-1.76-2.371-2.673-4.213-2.907-3.979-.5-7.722-2.475-11.712-1.365-2.28.635-5.288.64-7.376,1.6a5.9,5.9,0,0,0-2.166,1.814,8.357,8.357,0,0,0-.6,9.122,12.3,12.3,0,0,0,1.291,1.774c.984,1.158,2.157,2.587,3.582,3.077.114-1.242-.819-5.236.241-6.2,1.681-1.526,5.216-.753,7.149-.24,2.109.56,3.922,2.125,6.021,2.561a8.282,8.282,0,0,0,4.842-.976A5.794,5.794,0,0,0,2926.855,3648.254Z" transform="translate(-2899.557 -3640.38)"/></g><g transform="translate(929.361 595.2)"><path class="h" d="M2895.4,3669.288l-22.449,13.33a1.165,1.165,0,0,0-.4,1.64v0l3.689,5.7a1.27,1.27,0,0,0,1.583.449l13.045-5.9a1.2,1.2,0,0,0,.673-.778l3.906-14.418a.027.027,0,0,0-.008-.037A.029.029,0,0,0,2895.4,3669.288Z" transform="translate(-2872.362 -3669.276)"/></g><g transform="translate(929.228 589.935)"><path class="v" d="M2886.842,3663.335l-14.28,17.689a1.6,1.6,0,0,0-.1,1.889l3.518,5.431a1.762,1.762,0,0,0,2.2.623l3.56-1.61a1.687,1.687,0,0,0,.873-.9l8.349-20.711a1.618,1.618,0,0,0-.6-1.938l-1.149-.8A1.771,1.771,0,0,0,2886.842,3663.335Z" transform="translate(-2872.201 -3662.695)"/></g><g transform="translate(945.84 586.392)"><path class="r" d="M2892.265,3661.227l1.644-2.032a.578.578,0,0,1,.358-.205l4.469-.715a.576.576,0,0,1,.625.338l.532,1.28a.536.536,0,0,1-.167.626l-2.166,1.732a.583.583,0,0,1-.2.1l-2.872.857a.591.591,0,0,1-.5-.08l-1.608-1.12a.536.536,0,0,1-.126-.767Z" transform="translate(-2892.143 -3658.266)"/></g><rect class="w" width="273" height="241" rx="20" transform="translate(875 532)"/></g></svg>