<svg xmlns="http://www.w3.org/2000/svg" width="71.773" height="43.718" viewBox="0 0 71.773 43.718"><defs><style>.a,.c{fill:#071e54;}.a{stroke:rgba(0,0,0,0);}.a,.b{opacity:0.5;}</style></defs><g transform="translate(0.497 -2.205)"><g transform="translate(0 15.193)"><path class="a" d="M3292.318,1644.636l0-.043-.237,0c-.09,0-.193,0-.309,0h-.159c0-.808,0-1.947,0-3.148,0-1.959,0-4.083,0-5.2h0a5.869,5.869,0,0,0-5.7-5.686l-.781,0c-.485.007-.9.008-1.314-.007-1.432-2.813-2.6-5.144-3.666-7.325a2.374,2.374,0,0,0-2.276-1.453c-6.511.014-13.114.014-19.626,0a2.406,2.406,0,0,0-2.2,1.262c-.826,1.393-1.663,2.788-2.473,4.138l-2.008,3.38h-2.589a.311.311,0,0,0-.064.006l-2.434,0-2.458,0a5.809,5.809,0,0,0-5.648,5.622c-.01,2.859,0,5.727,0,8.5a2.066,2.066,0,0,0,2.27,2.261h2.42a6.083,6.083,0,0,0,1.663,3.278,6.233,6.233,0,0,0,4.451,1.785h.016a6.24,6.24,0,0,0,4.457-1.773,6.035,6.035,0,0,0,1.659-3.29h18.429a6.077,6.077,0,0,0,1.639,3.271,6.232,6.232,0,0,0,4.458,1.792h.016a6.242,6.242,0,0,0,4.458-1.773,6.066,6.066,0,0,0,1.679-3.29h3.612l1.2,0c.551,0,1.025,0,1.313,0h.013l.111-.009a1.28,1.28,0,0,0,1.151-1.163C3293.392,1644.963,3292.987,1644.714,3292.318,1644.636Zm-38.036-14.077,1.3-2.178c.809-1.347,1.646-2.74,2.479-4.148.051-.086.068-.1.065-.1a.585.585,0,0,1,.113-.006c1.93,0,3.892,0,5.791,0l2.633,0v6.436Zm23.685-6.436a.978.978,0,0,1,.073.132c1.052,2.151,2.13,4.286,3.153,6.3H3269.01v-6.436h2.782c1.993,0,4.054,0,6.082,0C3277.906,1624.121,3277.945,1624.121,3277.968,1624.122Zm11.293,19.464v1.011h-3.276a6.055,6.055,0,0,0-1.683-3.292,6.26,6.26,0,0,0-4.472-1.769,5.964,5.964,0,0,0-6.093,5.061h-18.432a6.039,6.039,0,0,0-1.663-3.292,6.251,6.251,0,0,0-4.472-1.769,5.969,5.969,0,0,0-6.117,5.063l-2.338,0c0-2.757-.009-5.606,0-8.408a3.485,3.485,0,0,1,3.308-3.284h.564c2.327,0,4.734-.009,7.1.01h.013a.3.3,0,0,0,.083-.012h31.847a.379.379,0,0,0,.1-.012c.437.014.9.02,1.41.017l.757,0a3.455,3.455,0,0,1,3.359,3.345C3289.262,1637.8,3289.262,1641.284,3289.261,1643.587Zm-43.958,2.155a3.712,3.712,0,0,1,3.877-3.862,3.963,3.963,0,0,1,2.811,6.692h0a3.889,3.889,0,0,1-6.688-2.8Zm34.537-3.86a3.729,3.729,0,0,1,3.9,3.89,3.874,3.874,0,0,1-1.087,2.8h0a3.892,3.892,0,0,1-6.69-2.825A3.718,3.718,0,0,1,3279.841,1641.881Z" transform="translate(-3238.367 -1621.776)"/></g><g transform="translate(41.244 2.593) rotate(-5)"><g class="b" transform="matrix(0.985, 0.174, -0.174, 0.985, 4.46, 0)"><path class="c" d="M25.388,23.95l-6.9-6.9A10.428,10.428,0,1,0,.82,6.368,10.427,10.427,0,0,0,17.046,18.485l6.9,6.9a1.017,1.017,0,1,0,1.438-1.438Zm-11.7-5.789A8.4,8.4,0,1,1,10.426,2.032a8.4,8.4,0,0,1,3.267,16.129Z" transform="translate(0 0)"/></g></g></g></svg>