<svg xmlns="http://www.w3.org/2000/svg" width="115.528" height="162.671" viewBox="0 0 115.528 162.671"><defs><style>.a{fill:#e7e8ee;stroke-width:0.6px;}.a,.d,.f{stroke:#4e4c4c;}.b{fill:#2f2f2f;}.c{fill:#3f3d56;}.d{fill:#f0f5fd;}.d,.e,.f{stroke-width:0.4px;}.e{fill:none;stroke:#3f3d56;stroke-miterlimit:10;}.f{fill:#d8d9de;}</style></defs><g transform="translate(-56.519 0.3)"><g transform="translate(56.819)"><path class="a" d="M215.735,143.094a11.009,11.009,0,0,0-11,11V280.779a11.009,11.009,0,0,0,11,11H308.67a11.009,11.009,0,0,0,11-11V154.091a11.009,11.009,0,0,0-11-11Z" transform="translate(-204.739 -129.704)"/><rect class="a" width="103.491" height="133.06" transform="translate(5.719 21.2)"/><rect class="b" width="76.433" height="5.021" rx="2.511" transform="translate(19.248 45.051)"/><rect class="b" width="76.433" height="5.021" rx="2.511" transform="translate(19.248 58.441)"/><rect class="b" width="76.433" height="5.021" rx="2.511" transform="translate(19.248 71.83)"/><rect class="b" width="76.433" height="5.021" rx="2.511" transform="translate(19.248 85.22)"/><rect class="b" width="76.433" height="5.021" rx="2.511" transform="translate(19.248 98.61)"/><path class="a" d="M392.8,91.728h-9.12V89.861a5.107,5.107,0,0,0-5.107-5.107h-9.871a5.107,5.107,0,0,0-5.107,5.107v1.867h-9.12a5.107,5.107,0,0,0-5.107,5.107v14.141H397.91V96.835A5.107,5.107,0,0,0,392.8,91.728Z" transform="translate(-316.178 -84.754)"/><path class="c" d="M438.8,696a16.068,16.068,0,0,1,4.848-2.574,5.1,5.1,0,0,1,4.8.881,2.942,2.942,0,0,1,.711,3.719,2.364,2.364,0,0,1-1.566,1.139,1.886,1.886,0,0,1-1.7-.663,1.73,1.73,0,0,1-.432-1.7,2.226,2.226,0,0,1,1.427-1.212,10.551,10.551,0,0,1,2.128-.44l2.959-.405,12.111-1.658,13.487-1.846a.421.421,0,0,0,.292-.515.429.429,0,0,0-.515-.292l-26.837,3.674c-.971.133-1.955.228-2.916.423a4.9,4.9,0,0,0-2.094.87,2.5,2.5,0,0,0-.011,3.883,2.768,2.768,0,0,0,3.985-.3,3.613,3.613,0,0,0,.274-4.427,5.368,5.368,0,0,0-5.235-2.149c-2.31.284-4.269,1.582-6.145,2.866-.442.3-.024,1.028.422.723Z" transform="translate(-384.611 -551.414)"/></g><rect class="d" width="49.87" height="20.197" rx="10" transform="translate(72.432 112.599)"/><rect class="e" width="85.149" height="20.197" rx="10" transform="translate(72.175 112.599)"/><path class="f" d="M416.708,303.56a4.154,4.154,0,0,0-7.764-1.1,3.323,3.323,0,0,0,.36,6.628h7.211a2.779,2.779,0,0,0,2.773-2.784A2.738,2.738,0,0,0,416.708,303.56ZM413.52,305.2V307.3h-1.776V305.2h-1.884l2.773-2.775L415.4,305.2Z" transform="translate(-307.363 -181.943)"/></g></svg>