<svg xmlns="http://www.w3.org/2000/svg" width="54.012" height="63.571" viewBox="0 0 54.012 63.571"><defs><style>.a,.b{fill:#7985a1;}.b{stroke:#7985a1;stroke-width:0.5px;}</style></defs><g transform="translate(-9876.752 -896)"><g transform="translate(9876.752 896)"><g transform="translate(0 0)"><path class="a" d="M62.476,14.211a1.16,1.16,0,0,0-1.336-1.092c-.139,0-14.463,2-24.557-8.132a1.162,1.162,0,0,0-1.65,0c-10.095,10.153-24.395,8.132-24.557,8.132A1.16,1.16,0,0,0,9.04,14.211c-.627,12.464-.755,29.994,5.309,38.334,6.308,8.585,18.668,14.927,20.724,15.566a2.323,2.323,0,0,0,1.371,0c2.056-.639,14.463-6.97,20.724-15.578C63.231,44.205,63.1,26.676,62.476,14.211ZM55.3,51.163c-5.913,8.132-17.855,14.207-19.539,14.73-1.684-.523-13.626-6.621-19.539-14.73-5.437-7.469-5.471-23.6-4.856-35.651,3.81.29,15.334.337,24.453-8.132,9.119,8.492,20.631,8.434,24.395,8.132C60.768,27.559,60.733,43.694,55.3,51.163Z" transform="translate(-8.752 -4.644)"/></g></g><g transform="translate(9891.036 916.91)"><path class="b" d="M3.645,3.047a2.6,2.6,0,0,0-2.6,2.593v13.7a2.6,2.6,0,0,0,2.6,2.6H24.3a2.6,2.6,0,0,0,2.6-2.6V5.64a2.6,2.6,0,0,0-2.6-2.593Zm0,.922H24.3A1.659,1.659,0,0,1,25.978,5.64V7.672H1.971V5.64A1.658,1.658,0,0,1,3.645,3.969ZM1.971,8.595H25.978v2.3H1.971Zm0,3.219H25.978v7.525A1.661,1.661,0,0,1,24.3,21.013H3.645a1.66,1.66,0,0,1-1.674-1.674Zm2.821,3.043a.461.461,0,1,0,0,.922h5.8a.461.461,0,0,0,0-.922Zm0,2.492a.461.461,0,1,0,0,.922H7.27a.461.461,0,1,0,0-.922Z" transform="translate(-1.049 -3.047)"/></g></g></svg>