<svg xmlns="http://www.w3.org/2000/svg" width="59.68" height="73.766" viewBox="0 0 59.68 73.766"><defs><style>.a{opacity:0.5;}.b{fill:#071e54;}</style></defs><g class="a"><path class="b" d="M115.009,18.3h-3.97V13.24a2.412,2.412,0,0,0-2.408-2.411H60.139a2.413,2.413,0,0,0-2.41,2.411V74.716a2.408,2.408,0,0,0,2.41,2.4h3.969v5.07a2.412,2.412,0,0,0,2.409,2.409h48.492a2.407,2.407,0,0,0,2.4-2.409V20.708A2.407,2.407,0,0,0,115.009,18.3ZM60.139,75.315a.6.6,0,0,1-.608-.6V13.24a.609.609,0,0,1,.608-.609h48.492a.616.616,0,0,1,.606.609V18.3H66.517a2.412,2.412,0,0,0-2.409,2.409V75.315Zm55.468,6.872a.611.611,0,0,1-.6.607H66.517a.615.615,0,0,1-.607-.607V20.708a.616.616,0,0,1,.607-.607h48.492a.611.611,0,0,1,.6.607V82.186Z" transform="translate(-57.729 -10.829)"/><path class="b" d="M298.459,108.2A10.155,10.155,0,1,0,308.6,118.362,10.164,10.164,0,0,0,298.459,108.2Zm0,18.508a8.353,8.353,0,1,1,8.344-8.349A8.356,8.356,0,0,1,298.459,126.711Z" transform="translate(-253.692 -93.583)"/><path class="b" d="M330.241,147.54l-5.943,5.945-1.183-2.047a.9.9,0,1,0-1.56.9l1.77,3.064a.9.9,0,0,0,.663.442.886.886,0,0,0,.117.008.9.9,0,0,0,.637-.264l6.772-6.775a.9.9,0,0,0-1.274-1.274Z" transform="translate(-281.841 -126.789)"/><path class="b" d="M132.873,169.8h14.153a.9.9,0,0,0,0-1.8H132.873a.9.9,0,1,0,0,1.8Z" transform="translate(-120.825 -144.4)"/><path class="b" d="M132.873,209h17.095a.9.9,0,0,0,0-1.8H132.873a.9.9,0,0,0,0,1.8Z" transform="translate(-120.825 -177.715)"/><path class="b" d="M132.873,248.191h20.176a.9.9,0,1,0,0-1.8H132.873a.9.9,0,1,0,0,1.8Z" transform="translate(-120.825 -211.021)"/><path class="b" d="M132.873,287.392h33.908a.9.9,0,0,0,0-1.8H132.873a.9.9,0,0,0,0,1.8Z" transform="translate(-120.825 -244.336)"/><path class="b" d="M132.873,326.652h23.4a.9.9,0,1,0,0-1.8h-23.4a.9.9,0,1,0,0,1.8Z" transform="translate(-120.825 -277.701)"/><path class="b" d="M170.706,364.051H132.873a.9.9,0,1,0,0,1.8h37.833a.9.9,0,1,0,0-1.8Z" transform="translate(-120.825 -311.016)"/><path class="b" d="M132.873,405.042h15.7a.9.9,0,0,0,0-1.8h-15.7a.9.9,0,0,0,0,1.8Z" transform="translate(-120.825 -344.321)"/><path class="b" d="M170.706,442.441H132.873a.9.9,0,1,0,0,1.8h37.833a.9.9,0,1,0,0-1.8Z" transform="translate(-120.825 -377.636)"/></g></svg>