<svg xmlns="http://www.w3.org/2000/svg" width="55.654" height="58.883" viewBox="0 0 55.654 58.883"><defs><style>.a{fill:#071e54;opacity:0.5;}.b{fill:#6e7b9a;}.c,.e{fill:none;}.c{stroke:#6e7b9a;stroke-width:1.5px;}.d{stroke:none;}</style></defs><g transform="translate(-1028.1 -826.117)"><path class="a" d="M56.056,3.5H22.119a6.19,6.19,0,0,0-5.635,6.142V50.1H7.05a.974.974,0,0,0-.95.95v5.7a6.19,6.19,0,0,0,6.142,5.635H45.165a6.139,6.139,0,0,0,4.5-1.963,6.208,6.208,0,0,0,1.71-4.242v-40.4H60.8a.974.974,0,0,0,.95-.95V9.642A6.3,6.3,0,0,0,56.056,3.5ZM12.242,60.484A4.271,4.271,0,0,1,8,56.558V52H39.024v4.242a5.628,5.628,0,0,0,.443,2.279l.38.76a.221.221,0,0,0,.063.127,5.476,5.476,0,0,0,.443.633l.063.063c.063.127.19.19.253.317H12.242Zm37.166-4.242a4.54,4.54,0,0,1-1.14,2.912,4.24,4.24,0,0,1-7.028-1.33,4.7,4.7,0,0,1-.317-1.583V51.05a.974.974,0,0,0-.95-.95H18.383V9.642A4.271,4.271,0,0,1,22.309,5.4H51.117l-.063.063c-.063.127-.19.19-.253.317a.062.062,0,0,1-.063.063c-.063.127-.19.253-.253.38h0a6.174,6.174,0,0,0-1.013,2.786V56.241ZM59.791,13.884H51.307V9.262a5.476,5.476,0,0,1,.38-1.456,4.1,4.1,0,0,1,2.723-2.279,3.178,3.178,0,0,1,.76-.127h.7a4.271,4.271,0,0,1,3.926,4.242v4.242Z" transform="translate(1022 822.617)"/><path class="b" d="M181.413,65.2h-1.936a.594.594,0,1,1,0-1.188h6.767a.594.594,0,0,1,0,1.188h-2.208a3.734,3.734,0,0,1,.823,1.782h1.385a.594.594,0,1,1,0,1.188h-1.385a3.518,3.518,0,0,1-3.446,2.885h-.443l3.755,3.54a.582.582,0,0,1,.024.83.6.6,0,0,1-.84.027l-4.84-4.571a.585.585,0,0,1,.408-1.014h1.936a2.359,2.359,0,0,0,2.232-1.7h-4.168a.594.594,0,1,1,0-1.188h4.168A2.337,2.337,0,0,0,181.413,65.2Z" transform="translate(873.283 781.23)"/><g class="c" transform="translate(1045.955 840.424)"><ellipse class="d" cx="9.881" cy="9.881" rx="9.881" ry="9.881"/><ellipse class="e" cx="9.881" cy="9.881" rx="9.131" ry="9.131"/></g></g></svg>