<svg xmlns="http://www.w3.org/2000/svg" width="41.582" height="58.215" viewBox="0 0 41.582 58.215"><defs><style>.a,.c{opacity:0.5;}.b,.c{fill:#071e54;}</style></defs><g class="a" transform="translate(6.047 25.25)"><path class="b" d="M303.6,479.464h23.475c1.089,0,2.178.028,3.261,0h.05a1.415,1.415,0,0,0,0-2.829H306.908c-1.089,0-2.178-.028-3.261,0H303.6a1.415,1.415,0,1,0,0,2.829Z" transform="translate(-302.182 -476.622)"/><g transform="translate(0 9.06)"><path class="b" d="M303.6,607.564h23.475c1.089,0,2.178.028,3.261,0h.05a1.415,1.415,0,0,0,0-2.829H306.908c-1.089,0-2.178-.028-3.261,0H303.6a1.415,1.415,0,1,0,0,2.829Z" transform="translate(-302.182 -604.722)"/></g><g transform="translate(0 18.14)"><path class="b" d="M303.6,735.929h16.211a1.415,1.415,0,1,0,0-2.829H303.6a1.415,1.415,0,1,0,0,2.829Z" transform="translate(-302.182 -733.1)"/></g></g><path class="c" d="M35.943,3.107A1.374,1.374,0,0,0,35.413,3H10.464A1.386,1.386,0,0,0,9.078,4.386V59.829a1.386,1.386,0,0,0,1.386,1.386h38.81a1.386,1.386,0,0,0,1.386-1.386V18.247a1.4,1.4,0,0,0-.408-.981L36.395,3.406A1.405,1.405,0,0,0,35.943,3.107ZM36.8,7.732l9.129,9.129H36.8ZM47.888,58.443H11.85V5.772H34.027V18.247a1.386,1.386,0,0,0,1.386,1.386H47.888Z" transform="translate(-9.078 -3)"/></svg>