<svg xmlns="http://www.w3.org/2000/svg" width="55.654" height="58.883" viewBox="0 0 55.654 58.883"><defs><style>.a{opacity:0.5;}.b{fill:#071e54;}</style></defs><g class="a"><path class="b" d="M41.018,29.2a6.8,6.8,0,0,0,4.369,1.836h.127a6.529,6.529,0,0,0,4.432-1.773c2.279-2.153,3.482-5.825,3.482-10.954a.952.952,0,0,0-.633-.886,20.778,20.778,0,0,1-6.648-3.736,1.046,1.046,0,0,0-1.2,0,21.721,21.721,0,0,1-6.711,3.736.952.952,0,0,0-.633.886C37.535,23.377,38.675,27.113,41.018,29.2ZM45.45,15.589a20.529,20.529,0,0,0,6.015,3.356c-.063,4.179-1.076,7.218-2.786,8.864a4.616,4.616,0,0,1-3.1,1.33H45.45a4.722,4.722,0,0,1-3.166-1.33c-1.773-1.646-2.723-4.685-2.786-8.864A21.078,21.078,0,0,0,45.45,15.589Z" transform="translate(-17.654 -7.168)"/><path class="b" d="M56.056,3.5H22.119a6.19,6.19,0,0,0-5.635,6.142V50.1H7.05a.974.974,0,0,0-.95.95v5.7a6.19,6.19,0,0,0,6.142,5.635H45.165a6.139,6.139,0,0,0,4.5-1.963,6.208,6.208,0,0,0,1.71-4.242v-40.4H60.8a.974.974,0,0,0,.95-.95V9.642A6.3,6.3,0,0,0,56.056,3.5ZM12.242,60.484A4.271,4.271,0,0,1,8,56.558V52H39.024v4.242a5.628,5.628,0,0,0,.443,2.279l.38.76a.221.221,0,0,0,.063.127,5.476,5.476,0,0,0,.443.633l.063.063c.063.127.19.19.253.317H12.242Zm37.166-4.242a4.54,4.54,0,0,1-1.14,2.912,4.24,4.24,0,0,1-7.028-1.33,4.7,4.7,0,0,1-.317-1.583V51.05a.974.974,0,0,0-.95-.95H18.383V9.642A4.271,4.271,0,0,1,22.309,5.4H51.117l-.063.063c-.063.127-.19.19-.253.317a.062.062,0,0,1-.063.063c-.063.127-.19.253-.253.38h0a6.174,6.174,0,0,0-1.013,2.786V56.241ZM59.791,13.884H51.307V9.262a5.476,5.476,0,0,1,.38-1.456,4.1,4.1,0,0,1,2.723-2.279,3.178,3.178,0,0,1,.76-.127h.7a4.271,4.271,0,0,1,3.926,4.242v4.242Z" transform="translate(-6.1 -3.5)"/><path class="b" d="M47.055,30.981a.9.9,0,0,0,.76-.38L51.3,25.726a.95.95,0,1,0-1.52-1.14l-2.723,3.8-.95-1.33a.95.95,0,0,0-1.52,1.14l1.773,2.469A.817.817,0,0,0,47.055,30.981Z" transform="translate(-20.146 -11.1)"/><path class="b" d="M53.354,64.1H34.55a.95.95,0,1,0,0,1.9h18.8a.95.95,0,1,0,0-1.9Z" transform="translate(-16.188 -25.731)"/><path class="b" d="M53.354,56.2H34.55a.95.95,0,1,0,0,1.9h18.8a.95.95,0,0,0,0-1.9Z" transform="translate(-16.188 -22.833)"/><path class="b" d="M53.354,48.4H34.55a.95.95,0,1,0,0,1.9h18.8a.95.95,0,0,0,0-1.9Z" transform="translate(-16.188 -19.972)"/></g></svg>