<svg xmlns="http://www.w3.org/2000/svg" width="222.494" height="180.112" viewBox="0 0 222.494 180.112"><defs><style>.a,.b,.j,.u{fill:#f0f5fd;}.a{stroke:#707070;}.a,.b,.c,.d,.e,.f,.g,.h,.j,.k,.l,.m,.n,.p,.q,.r{stroke-width:0.2px;}.a,.b,.d,.i,.q{opacity:0.1;}.b,.c,.d,.e,.f,.g,.h,.i,.j,.k,.l,.m,.n,.o,.p,.q,.r{stroke:#4e4c4c;}.c{fill:#65617d;}.e,.t{fill:#fdfdfd;}.f{fill:#3a3768;}.g{fill:#e6e8ec;}.h,.q{fill:#292949;}.i,.o,.s{stroke-width:0.4px;}.k{fill:none;stroke-miterlimit:10;}.l{fill:#efefef;}.m,.s{fill:#e7e9ef;}.n{fill:#444546;}.o,.p{fill:#3f3d56;}.r{fill:#b7c9e2;}.s,.t,.u{stroke:#343434;}.t,.u{stroke-width:0.3px;}.v{opacity:0.8;}.w{fill:#fafafa;stroke:rgba(0,0,0,0);}</style></defs><g transform="translate(-19.526 0.503)"><g transform="translate(19.625 14.365)"><ellipse class="a" cx="0.418" cy="0.251" rx="0.418" ry="0.251" transform="translate(145.601 25.726) rotate(-71.78)"/><ellipse class="a" cx="0.418" cy="0.251" rx="0.418" ry="0.251" transform="translate(144.609 25.399) rotate(-71.78)"/><ellipse class="a" cx="0.418" cy="0.251" rx="0.418" ry="0.251" transform="translate(142.7 24.77) rotate(-71.78)"/><ellipse class="a" cx="0.418" cy="0.251" rx="0.418" ry="0.251" transform="translate(137.321 23.189) rotate(-71.78)"/><ellipse class="a" cx="0.418" cy="0.251" rx="0.418" ry="0.251" transform="translate(136.372 22.88) rotate(-71.78)"/><ellipse class="a" cx="0.418" cy="0.251" rx="0.418" ry="0.251" transform="translate(135.393 22.649) rotate(-71.78)"/><ellipse class="a" cx="0.418" cy="0.251" rx="0.418" ry="0.251" transform="translate(134.406 22.326) rotate(-71.78)"/><ellipse class="a" cx="0.418" cy="0.251" rx="0.418" ry="0.251" transform="translate(133.439 22.006) rotate(-71.78)"/><ellipse class="a" cx="0.418" cy="0.251" rx="0.418" ry="0.251" transform="translate(132.56 21.717) rotate(-71.78)"/><ellipse class="a" cx="0.418" cy="0.251" rx="0.418" ry="0.251" transform="translate(131.619 21.406) rotate(-71.78)"/><ellipse class="a" cx="0.418" cy="0.251" rx="0.418" ry="0.251" transform="translate(130.635 21.083) rotate(-71.78)"/><ellipse class="a" cx="0.418" cy="0.251" rx="0.418" ry="0.251" transform="translate(129.761 20.795) rotate(-71.78)"/><ellipse class="b" cx="0.417" cy="0.25" rx="0.417" ry="0.25" transform="translate(124.362 19.336) rotate(-71.928)"/><ellipse class="b" cx="0.418" cy="0.251" rx="0.418" ry="0.251" transform="translate(126.959 18.902) rotate(-71.78)"/><ellipse class="b" cx="0.418" cy="0.251" rx="0.418" ry="0.251" transform="translate(126.104 18.585) rotate(-71.78)"/><ellipse class="b" cx="0.418" cy="0.251" rx="0.418" ry="0.251" transform="translate(125.276 18.281) rotate(-71.78)"/><ellipse class="b" cx="0.418" cy="0.251" rx="0.418" ry="0.251" transform="translate(124.46 17.979) rotate(-71.78)"/><ellipse class="b" cx="0.418" cy="0.251" rx="0.418" ry="0.251" transform="translate(123.539 17.635) rotate(-71.78)"/><ellipse class="b" cx="0.418" cy="0.251" rx="0.418" ry="0.251" transform="translate(127.779 19.205) rotate(-71.78)"/><ellipse class="a" cx="0.418" cy="0.251" rx="0.418" ry="0.251" transform="translate(143.579 25.059) rotate(-71.78)"/><rect class="b" width="0.924" height="1.61" transform="translate(128.869 21.355) rotate(-166.13)"/><rect class="b" width="0.924" height="1.61" transform="translate(122.863 18.33) rotate(-166.13)"/><path class="b" d="M554.239,185.21l1.193.313-.6.9-1.767-.438Z" transform="translate(-435.975 -170.62)"/><path class="b" d="M671.57,221.58l2.576.671.981-.606-.65-.381A7.684,7.684,0,0,0,671.57,221.58Z" transform="translate(-557.067 -207.056)"/><path class="a" d="M834.916,245.4l-4.286,6.418-7-3.1s7.927-3.022,8.71-4.067Z" transform="translate(-674.717 -224.357)"/><path class="b" d="M618.51,213.63l11.309,3.054.668,1.336Z" transform="translate(-489.4 -191.622)"/><path class="c" d="M607.061,254.65s-7.969.083-6.611,4.5l3.041,1.764,3.03-.616,1.422-2.513Z" transform="translate(-502.615 -231.747)"/><path class="d" d="M607.061,254.65s-7.969.083-6.611,4.5l3.041,1.764,3.03-.616,1.422-2.513Z" transform="translate(-502.615 -231.747)"/><path class="e" d="M559.016,216.907c2.185,7.945,7.512,7.17,7.512,7.17l3.417,4.137.5.642,1.091,1.389,4.834-2.746-.963-1.133-5.648-6.635S556.831,208.965,559.016,216.907Z" transform="translate(-471.387 -201.696)"/><rect class="f" width="0.146" height="1.214" rx="0.073" transform="translate(88.529 17.89) rotate(145.56)"/><rect class="f" width="0.084" height="0.399" rx="0.042" transform="translate(91.209 13.673) rotate(145.56)"/><rect class="f" width="0.094" height="0.693" rx="0.047" transform="matrix(-0.821, 0.571, -0.571, -0.821, 92.138, 15.451)"/><rect class="f" width="0.089" height="0.702" rx="0.044" transform="translate(92.212 15.294) rotate(145.56)"/><rect class="g" width="0.689" height="0.141" rx="0.07" transform="translate(89.087 13.762) rotate(145.56)"/><ellipse class="g" cx="0.078" cy="0.078" rx="0.078" ry="0.078" transform="translate(88.3 14.117)"/><path class="e" d="M503.193,582.944c0,.157.023.308.037.459a10.224,10.224,0,0,0,1.031,4.087s.9,11.484,1.062,14.4a7.09,7.09,0,0,1-.686,3.725,3.313,3.313,0,0,1-.376.592l-.561,1.232,2.634,5.267,3.083,5.1,2.13,2.8a5.338,5.338,0,0,0,1.905,0c.339-.224,1.678,0,1.678,0l1.234-1.905-1.383-1.871-.522-.7a72.494,72.494,0,0,0-1.879-8.856V599.6s.647-17.595.2-20.567a15.736,15.736,0,0,1,0-5.1s1.96-5.549,1.566-6.165.84-2.8.84-2.8l2.349-6.632.136-.389-.522-1.271L503.924,555s.1,1.044.219,2.7v.037c.068.961.136,2.13.191,3.435a72.5,72.5,0,0,1-.634,14.786,28.3,28.3,0,0,0-.506,6.984Z" transform="translate(-428.342 -458.557)"/><path class="d" d="M503.21,590.992l.694-1.068a23.467,23.467,0,0,1,4.257-3.25,6.61,6.61,0,0,0,2.871-5.155c-.1-.457.337-4.7.337-4.7V566.053l-7.233-.783c.287,4.194.639,12.4-.444,18.271A27.238,27.238,0,0,0,503.21,590.992Z" transform="translate(-427.953 -464.793)"/><path class="e" d="M417,616.138l.561,5.155,2.743,1.624s2.524.282,2.075-1.96a3.288,3.288,0,0,1-.042-.728c.112-2.738,2.563-8.517,2.563-8.517s2.349-6.22,4.315-8.128c1.712-1.66,8.585-12.153,10.31-14.8l.394-.608a23.541,23.541,0,0,1,4.26-3.25,6.618,6.618,0,0,0,2.871-5.155c-.1-.457.334-4.7.334-4.7V564.3l-6.9-.736-6.217-.666s.138,1.216.316,2.764c.3,2.558.723,6.021.861,6.371.227.561.731,3.915.731,3.915s-.394,1.511-.673,2.913-3.915,5.27-3.915,5.27c-4.651,3.866-9.3,17.537-9.3,17.537-1.224,2.647-2.61,3.1-3.331,3.132a1.423,1.423,0,0,1-.48-.044l-1.01,1.851Z" transform="translate(-362.791 -464.395)"/><path class="d" d="M505.24,750.754l2.634,5.267,3.082,5.1,2.13,2.8a5.338,5.338,0,0,0,1.905,0c.339-.224,1.678,0,1.678,0l1.235-1.905-1.383-1.871c.363.835.66,1.877-.073,1.926-1.232.086-3.782,1.122-5.238-2.38a13.522,13.522,0,0,0-3.393-5.071l-1.543-3.753-.1-1.937a3.316,3.316,0,0,1-.376.593Z" transform="translate(-429.835 -601.87)"/><path class="h" d="M502.043,755.347s2.3,5.716,2.213,7.371H505.6l-.224-4.99.021.029c.245.326,2.647,3.563,2.728,5.184a11.331,11.331,0,0,1,.59,2.122.159.159,0,0,1,0,.036c-.057.392,2.127,2.242,5.3,1.877s3.725-.812,3.725-.812.037-.1.083-.261c.157-.6.41-2.062-.642-2.785-1.318-.908-4.067-3.456-4.176-3.552.07.125,1.65,2.871.444,2.962s-3.782,1.122-5.238-2.38a13.522,13.522,0,0,0-3.393-5.071l-1.543-3.753-.115-2.242a3.824,3.824,0,0,0-1.958,2.746A6.62,6.62,0,0,0,502.043,755.347Z" transform="translate(-426.96 -601.98)"/><path class="i" d="M511.833,779.481c.159,1.342.553,3.811.757,5.074h.867l-.224-4.991.021.029-.076-.222S511.6,777.633,511.833,779.481Z" transform="translate(-434.258 -623.818)"/><path class="i" d="M530,810.369c-.057.392,2.127,2.242,5.3,1.877s3.725-.812,3.725-.812.036-.1.083-.261c-1.973.023-7.24,0-9.1-.833A.168.168,0,0,1,530,810.369Z" transform="translate(-448.663 -647.251)"/><path class="d" d="M417,734.657l.561,5.155,2.743,1.623s2.524.282,2.075-1.96a3.288,3.288,0,0,1-.042-.728c-4.236,1.566-4.664-2.579-4.664-2.579l.757-11.291a2.468,2.468,0,0,1,.506-1.553,1.422,1.422,0,0,1-.48-.044l-1.01,1.851Z" transform="translate(-361.618 -582.914)"/><path class="h" d="M394.56,732.972l.8.574.376.261,3.223-3.753s0,4.286-.59,5.322a6.532,6.532,0,0,0-.462,2.754c0,.355.013.593.013.593s.981,2.088,5.3,4.669c1.937,1.156,3.067.958,3.722.389a3.215,3.215,0,0,0,.9-1.958l-1.827-3.1c-4.484,1.827-4.93-2.477-4.93-2.477l.757-11.291c.055-1.71,1.138-2.012,1.138-2.012-5.024-.193-5.257,3.915-5.257,3.915Z" transform="translate(-344.676 -582.659)"/><path class="d" d="M268.39,713.031l.373.266,3.223-3.753-.365-1.094Z" transform="translate(-217.426 -562.144)"/><path class="i" d="M407.39,781.17c0,.355.013.592.013.592s.981,2.088,5.3,4.67c1.937,1.156,3.067.958,3.722.389C414.455,786.213,409.768,784.485,407.39,781.17Z" transform="translate(-354.376 -625.695)"/><path class="e" d="M432.808,515.983c2.493.859,3.988-4.534,4.7-8.052.329-1.642.483-2.871.483-2.871H433.4s-.261.619-.619,1.566C431.764,509.408,430.08,515.041,432.808,515.983Z" transform="translate(-372.68 -419.494)"/><path class="e" d="M514.68,235.874l3.132,7.619v6.557c0,.17,7.789,2.349,7.789,2.349l2.018-5.043a24.04,24.04,0,0,0-1.623-10.874,7.336,7.336,0,0,1-.305-5.108q.055-.2.117-.392a12.863,12.863,0,0,1,2.485-4.307,52.87,52.87,0,0,0-9.013-2.132c-2.31-.224-3.962.11-3.2,1.8a7.473,7.473,0,0,1,.606,3.393,1.6,1.6,0,0,1-.021.316A13.891,13.891,0,0,1,514.68,235.874Z" transform="translate(-437.159 -209.453)"/><path class="d" d="M519.531,226.372a7.473,7.473,0,0,1,.606,3.393,1.607,1.607,0,0,1-.021.316.069.069,0,0,0,.021.018,8.274,8.274,0,0,0,4.753,2.065c.243.023.491.034.739.034a8.157,8.157,0,0,0,3.516-.783q.055-.2.117-.391a12.862,12.862,0,0,1,2.485-4.307,52.872,52.872,0,0,0-9.013-2.132C520.423,224.351,518.771,224.685,519.531,226.372Z" transform="translate(-440.673 -209.48)"/><path class="e" d="M510.67,192.886a9.135,9.135,0,0,0,3.056,6.87,8.287,8.287,0,0,0,4.753,2.062c.243.023.491.034.739.034a8.191,8.191,0,0,0,3.633-.846,9.008,9.008,0,0,0,4.917-8.12,9.214,9.214,0,0,0-1.668-5.322,8.415,8.415,0,0,0-6.883-3.654A8.778,8.778,0,0,0,510.67,192.886Z" transform="translate(-434.292 -179.471)"/><path class="j" d="M526.763,279.273s-5.22-4.763-6.669-9.078a47.814,47.814,0,0,0-3.474-7.788l.386-.807s2.135,5.682,3.7,6.353,5.22,4.539,5.549,7.23l.224-8.183.352-5.4s2.673,5.682,2.9,8.316-.057,7.4-.9,8.4A2.738,2.738,0,0,1,526.763,279.273Z" transform="translate(-438.626 -236.883)"/><path class="k" d="M513.62,260.9l.036-.034Z" transform="translate(-435.562 -236.344)"/><path class="d" d="M483.12,557.062s.138,1.216.316,2.764a13.982,13.982,0,0,0,6.092,1.336,28.269,28.269,0,0,0,6.705-.8,49.362,49.362,0,0,0,6.5-2.033l.136-.389-.522-1.271L489.118,555s.1,1.044.219,2.7v.037Z" transform="translate(-413.225 -456.706)"/><path class="l" d="M473.149,448.993c.037.084.076.183.112.29.7,2.062,1.232,8.284,1.232,8.284,7.4,5.129,20.593-.924,21.374-1.094s0-1.428,0-1.428,2.5-10.675,2.247-12.609.587-9.877.587-9.877l.407-3.3,1.12-9.362-8.574-1.848s-10.49,1.065-13.833,2.31a4.621,4.621,0,0,0-.457.193c-1.026.506-1.942,2.179-2.681,4.059-.452,1.141-.835,2.349-1.143,3.435a22.148,22.148,0,0,0-.84,5.773C472.627,438.437,472.583,447.735,473.149,448.993Z" transform="translate(-405.643 -354.978)"/><path class="d" d="M480.37,424.652a84.187,84.187,0,0,0,11.842,6.048c7.483,3.192,8.295-9.78,8.295-9.78a13.407,13.407,0,0,1,1.43,3.615,14.88,14.88,0,0,0,2.871,4.766l1.12-9.362-8.574-1.848s-10.49,1.065-13.833,2.31a4.629,4.629,0,0,0-.457.193C482.025,421.1,481.109,422.765,480.37,424.652Z" transform="translate(-411.469 -354.558)"/><path class="m" d="M463.245,278.226a3.234,3.234,0,0,1,0,2.326s7.426,6.416,7.791,5.322.522,1.851.522,1.851.731.757.564,1.148a12.263,12.263,0,0,0,.138,2.634s.392,1.344.112,1.626a12.292,12.292,0,0,0-.7,2.61l-1,3.722-.175.146c-1.566,1.287-1.767,3.529-2.216,4.09a6.8,6.8,0,0,0-.726,2.185,83.84,83.84,0,0,0,11.85,6.053c7.48,3.195,8.295-9.78,8.295-9.78a13.406,13.406,0,0,1,1.438,3.6c.561,2.242,3.336,5.325,3.336,5.325,2.691-.449,4.985-7.817,4.4-8.237s-2.252-5.8-2.252-5.8c-2.634-3.67-.261-11.294-.261-11.294s2.409-6.136,2.38-7.144.561-1.044.561-1.044l1.71-11.711s-2.349-.981-2.55-1.8-3.56-1.707-3.56-1.707.227-.337-1.2-.814a5.269,5.269,0,0,1-1.383-.846,32.453,32.453,0,0,1-3.093-2.871,17.6,17.6,0,0,0,.553,5.265c.7,1.929,1.206,7.627,1.261,8.047a42.649,42.649,0,0,1-2.018,4.818l-1.1-1.506c-1.733-2.37-4.925-6.724-5.147-6.927-.311-.279-3-7.773-3.37-8.707-.138-.342-.331-.452-.522-.454a.783.783,0,0,0-.42.136h0a1.438,1.438,0,0,0-.185.136l-.065.18-.016.037a3.985,3.985,0,0,1-.2.449h0c-1.8,3.534-8.519,6.063-8.519,6.063a3.667,3.667,0,0,0-2.521,2.289s.392,1.355-.475,2.028-.5,2.521-.5,2.521-1.177,2.662-.874,3.054a7.19,7.19,0,0,1,.621,1.065A1.651,1.651,0,0,0,463.245,278.226Z" transform="translate(-398.778 -234.09)"/><path class="j" d="M506.868,268.79a7.325,7.325,0,0,1,1.663-.444c.736-.146,1.488-.261,1.488-.261a4.471,4.471,0,0,1,2.229-1.044c-.919-2.37-2.242-6.037-2.5-6.671a.935.935,0,0,0-.522-.454.454.454,0,0,0-.42.136h0a1.376,1.376,0,0,0-.261.352h0l-.154,1.715-.042.459s-1.219.587-.966,1.566S506.531,269.043,506.868,268.79Z" transform="translate(-430.621 -235.632)"/><path class="j" d="M554.725,261.6s4.145,5.961,4.1,7.139-.671,0-.671,0-1.751-5.2-3.8-1.263Z" transform="translate(-467.1 -236.883)"/><path class="m" d="M593.786,289.286l.616-.606s1.61.606,1.856,1.389a.745.745,0,0,0,.924.579,3.673,3.673,0,0,0,.924.334c.261,0,.632,1.177.632,1.177s2.647.673,2.871.715S612.2,302.55,612.2,302.55s-5.967.916-6.891.538a10.64,10.64,0,0,0-2.312-.538c-.462-.094-10.884-2.32-10.884-2.32Z" transform="translate(-497.283 -257.888)"/><path class="m" d="M617.127,276.875l1.553.522s3.785-.345,3.531-1.984a20.591,20.591,0,0,0-1.892-4.641l-2.349-4.017s-.927-1.1-.84-1.454-1.094-.942-1.094-.942a4.294,4.294,0,0,1-.715-1.305c-.042-.423-3.826-3.623-3.826-3.623s-1.305-1.094-1.01-4.792H607.5s-1.37,5.507-6.611,4.5l7.2,8.574Z" transform="translate(-504.16 -231.74)"/><path class="d" d="M436.9,506.566a9.3,9.3,0,0,0,4.719,1.305c.329-1.642.483-2.871.483-2.871h-4.583S437.247,505.629,436.9,506.566Z" transform="translate(-376.899 -419.318)"/><path class="m" d="M437.226,344.88a.831.831,0,0,1-.193.953c-.454.337,0,2.9,0,2.9a1.525,1.525,0,0,1-.365.937c-.378.449,0,4.821,0,4.821a1.456,1.456,0,0,1-.462.545,14.325,14.325,0,0,0-.8,4.455c.211.209-3.195,10.13-3.195,10.13s.084,1.723-.378,2.018-.546,2.268-.546,2.268.209,1.764-.632,2.1-1.007,6.306-1.007,6.306-1.135,3.067-1.809,3.571A9.378,9.378,0,0,0,437.213,389s.261-5.507,1.008-7.692l2.229-11.137s1.344-4.75,1.848-7.355,2.72-12.609,2.72-12.609l-3.034-2.072Z" transform="translate(-370.478 -300.222)"/><ellipse class="d" cx="0.295" cy="0.587" rx="0.295" ry="0.587" transform="translate(61.535 73.066)"/><ellipse class="d" cx="0.295" cy="0.587" rx="0.295" ry="0.587" transform="translate(60.487 77.923)"/><ellipse class="d" cx="0.295" cy="0.587" rx="0.295" ry="0.587" transform="translate(59.702 82.372)"/><ellipse class="d" cx="0.295" cy="0.587" rx="0.295" ry="0.587" transform="translate(61.01 75.515)"/><ellipse class="d" cx="0.295" cy="0.587" rx="0.295" ry="0.587" transform="translate(59.962 80.25)"/><ellipse class="j" cx="0.295" cy="0.587" rx="0.295" ry="0.587" transform="translate(61.535 72.903)"/><ellipse class="j" cx="0.295" cy="0.587" rx="0.295" ry="0.587" transform="translate(60.487 77.761)"/><ellipse class="j" cx="0.295" cy="0.587" rx="0.295" ry="0.587" transform="translate(59.702 82.209)"/><ellipse class="j" cx="0.295" cy="0.587" rx="0.295" ry="0.587" transform="translate(61.01 75.352)"/><ellipse class="j" cx="0.295" cy="0.587" rx="0.295" ry="0.587" transform="translate(59.962 80.088)"/><path class="n" d="M492.128,176.716c-.063.368.076.783-.115,1.1-.261.415-.848.384-1.334.363a5.481,5.481,0,0,0-5.121,7.971c.574,1.128,1.54,2.062,1.882,3.281a1.6,1.6,0,0,1-.342,1.681c-.363.295-.887.3-1.282.553-.861.546-.7,1.827-.386,2.8a31.888,31.888,0,0,0,1.707,4.218,4.891,4.891,0,0,0,2.547,2.785c-1.8,1.676-4.036,5.742-6.438,5.233s-5.4-.764-7.518-2a23.785,23.785,0,0,1-3.579-3.85c.046.084-.738-2.629-.811-2.786-.579-1.242,2.456-2.732,2.824-4.05a1.6,1.6,0,0,0,.044-1.028,1.747,1.747,0,0,0-.989-.783c-1.676-.7,1.566-1.305,0-2.234s-2.005-2.151-2.72-3.821a8.552,8.552,0,0,1,.841-8.689c1.947-2.4-.334-4.08,2.156-5.914a33.953,33.953,0,0,1,4.9-3.312,13.442,13.442,0,0,1,11.513-.076c1.809.848,3.284,2.216,5.058,3.132.874.452,2.793,1.023,2.3,2.276C496.528,175.478,492.457,174.734,492.128,176.716Z" transform="translate(-402.941 -166.902)"/><ellipse class="o" cx="2.271" cy="2.271" rx="2.271" ry="2.271" transform="translate(11.813 153.233)"/><ellipse class="o" cx="2.271" cy="2.271" rx="2.271" ry="2.271" transform="translate(28.183 142.553)"/><path class="e" d="M178.662,604.127c2.741-.138,9.464-.305,10.811-.979s15.971-16.224,15.971-16.224l4.369-6.387,7.146-3.025,5.967-6.815,4.711-3.012s-1.013.318-1.1-.686a2.394,2.394,0,0,0-.188-.752,1.869,1.869,0,0,0-.545-.752,1.164,1.164,0,0,0-1.2-.172c-1.091.42-15.441,2.858-15.441,2.858s-4.479.757-8.6,6.22a69.875,69.875,0,0,1-7.83,8.825l-11.182,13.366S175.921,604.265,178.662,604.127Z" transform="translate(-177.91 -465.114)"/><path class="e" d="M191.639,626.417l21.037-9.806,8.574-8.658s18.579-19.576,20.006-22.528-4.1-7.817-4.1-7.817c-4.354-7.65-6.739-5.3-6.739-5.3l-21.084,5.8h-.016l-.107.133c-1.637,1.741-20.173,21.471-26.216,27.649l-.013.016h0c-.859.88-1.464,1.482-1.725,1.715Z" transform="translate(-179.429 -471.098)"/><path class="l" d="M179.891,629.776l11.1,14.186.4-.185c5.87-7.368,20.343-25.393,24.4-29.068,5.126-4.646,3.868-7.543,3.868-7.543l-4.372-5.967c-3.3-6.113-5.977-5.763-6.2-5.719h-.016l-.11.123-26.223,27.651-.013.016h0c-.859.88-1.464,1.483-1.725,1.715A4.521,4.521,0,0,0,179.891,629.776Z" transform="translate(-179.173 -488.457)"/><path class="p" d="M348.052,587.869l-1.851-1.6a8.38,8.38,0,0,0-7.731,3.195l1.261,1.514A10.11,10.11,0,0,1,348.052,587.869Z" transform="translate(-301.394 -479.966)"/><path class="q" d="M348.052,587.869l-1.851-1.6a8.38,8.38,0,0,0-7.731,3.195l1.261,1.514A10.11,10.11,0,0,1,348.052,587.869Z" transform="translate(-301.394 -479.966)"/><path class="c" d="M253.8,523.128l17.986-23.36-1.091-.428L252.37,522.288Z" transform="translate(-205.705 -405.968)"/><path class="c" d="M229.254,528.629l18.14-23.282-.908-1.177L227.57,527.622Z" transform="translate(-186.601 -409.594)"/><path class="h" d="M426.3,527.641c-.2-.063-1.963-1.6-1.963-1.6h0a13,13,0,0,1,5.434-4.677c1.95-.893,4.132-1.59,5.019-.783a2.339,2.339,0,0,1-.282,3.354l-1.305-.329s-1.963-2.185-5.158,1.96Z" transform="translate(-366.5 -430.762)"/><path class="p" d="M322.243,493.928l-2.38,2.446-1.793-.814,2.088-2.66,1.107.334Z" transform="translate(-254.609 -400.768)"/><path class="r" d="M99.926,537.67l-19.2,5.079L51.54,573.95v-.9l28.63-30.473Z" transform="translate(-50.788 -434.957)"/></g><g transform="matrix(0.995, -0.105, 0.105, 0.995, 149.812, 22.305)"><path class="s" d="M1.81,16.768a21.142,21.142,0,0,0,4.488.943c5.18.684,12.278.926,12.278.926s36.488,3.329,63.836-9.051c0,0,3.978-2.294.288-5.381a11.873,11.873,0,0,0-1.805-1.211l-.045-.05A9.751,9.751,0,0,0,79.493,1.8,8.82,8.82,0,0,0,72.772.135L.947,12.913S-1.677,15.351,1.81,16.768Z" transform="translate(5.642 5.391)"/><path class="s" d="M21.663,11.734,6.627,0,0,1.261,6.489,13.67S21.49,13.8,21.663,11.734Z" transform="translate(0.1 4.634)"/><path class="s" d="M34.778,9.239,4.828,0,0,1.11,13.529,7.8l4.228,5.2Z" transform="translate(24.84 0)"/><path class="t" d="M0,13.506c5.18.684,12.278.926,12.278.926s36.488,3.329,63.836-9.051c0,0,3.978-2.294.288-5.381l-.012.057s-5.9,4.387-34.1,8.049Z" transform="translate(11.94 9.597)"/><path class="s" d="M16.754,1.783,3.364,7.8,0,7.387,8.009.765S17.7-1.509,16.754,1.783Z" transform="translate(0 21.066)"/><path class="u" d="M1.515,3.109c.639.012,2.1-1.167,3.013-1.96A9.755,9.755,0,0,0,3.173,0C2.439.619,1.134,1.622.408,1.583-.641,1.535.553,3.09,1.515,3.109Z" transform="translate(81.957 7.187)"/><path class="s" d="M0,23.76l8.6.495L32.769,6.328,37.256,3l2.179-1.617c-4.089-3.8-20.772,1.44-20.772,1.44a1.72,1.72,0,0,0-.407,1.334A8.9,8.9,0,0,0,18.887,6.8c.04.105.065.161.065.161Z" transform="translate(22.641 19.877)"/></g><g class="v" transform="translate(132.183)"><path class="w" d="M234.854,112.615H269.7s-3.081-5.607-12.05-4.791c-8.566.779-9-2.758-13.356-3.194S236.306,107.533,234.854,112.615Z" transform="translate(-234.854 -104.592)"/></g><g class="v" transform="translate(198.843)"><path class="w" d="M234.854,112.615H269.7s-3.081-5.607-12.05-4.791c-8.566.779-9-2.758-13.356-3.194S236.306,107.533,234.854,112.615Z" transform="translate(-234.854 -104.592)"/></g></g></svg>