<svg xmlns="http://www.w3.org/2000/svg" width="237.466" height="173.769" viewBox="0 0 237.466 173.769">
  <g id="Mask_Group_232" data-name="Mask Group 232" transform="translate(0 0.152)">
    <g id="Group_12610" data-name="Group 12610" transform="translate(0)">
      <g id="shadow" transform="translate(0 132.82)">
        <path id="Path_3653" data-name="Path 3653" d="M3052.045,3781.337H2858.989c-6.1,0-11.1,3.1-11.1,6.881h0c0,2.62,2.4,4.909,5.9,6.07h-17c-6.1,0-11.1,3.1-11.1,6.881h0c0,3.784,5,6.881,11.1,6.881h5.924a5.655,5.655,0,0,0-2.659,4.451v2.752c0,3.784,5,6.881,11.1,6.881h190.183c6.1,0,11.1-3.1,11.1-6.881V3812.5c0-3.784-5-6.881-11.1-6.881l-12.931.153a6.076,6.076,0,0,0,3.657-1.449,5.5,5.5,0,0,0,1.045-6.418,4.6,4.6,0,0,0-3.918-2.9l22.859.093c6.1,0,11.1-3.1,11.1-6.881h0C3063.149,3784.43,3058.149,3781.337,3052.045,3781.337Z" transform="translate(-2825.681 -3781.337)" fill="#e5e7ed"/>
      </g>
      <g id="object" transform="translate(35.899)">
        <path id="Path_3654" data-name="Path 3654" d="M2914.761,3666.16l4.071,1.029,17.141,14.4-2.571,7.82h-8.357Z" transform="translate(-2878.978 -3625.495)" fill="#e7e9ef" stroke="#4d4d4d" stroke-miterlimit="10" stroke-width="0.3"/>
        <g id="Group_12551" data-name="Group 12551" transform="translate(137.224 96.631)">
          <g id="Group_12549" data-name="Group 12549" transform="translate(9.897 59.539)">
            <path id="Path_3656" data-name="Path 3656" d="M3053.89,3812.052l.173,1.64a.561.561,0,0,1-.25.527l-3.073,2.029a.612.612,0,0,1-.714-.031l-1.394-1.109a.553.553,0,0,1-.093-.783l1.359-1.712a.585.585,0,0,1,.135-.124l2.833-1.868a.607.607,0,0,1,.823.146.56.56,0,0,1,.1.266Z" transform="translate(-3048.417 -3810.52)" fill="#e5e7ec" stroke="#4d4d4d" stroke-miterlimit="10" stroke-width="0.3"/>
          </g>
          <g id="Group_12550" data-name="Group 12550">
            <path id="Path_3657" data-name="Path 3657" d="M3051.813,3736.771l.632,6-5.6,20.617,5.2,33.129-3.824,1.268-10.085-32.345-1.6-9.409.058-19.923Z" transform="translate(-3036.536 -3736.107)" fill="#e5e7ec" stroke="#4d4d4d" stroke-miterlimit="10" stroke-width="0.3"/>
          </g>
        </g>
        <g id="Group_12554" data-name="Group 12554" transform="translate(123.086 98.935)">
          <g id="Group_12552" data-name="Group 12552">
            <path id="Path_3658" data-name="Path 3658" d="M3019.565,3744.034l8.044,55.512h3.656l.657-35.583,6.655-24.976Z" transform="translate(-3019.565 -3738.987)" fill="#e5e7ec" stroke="#4d4d4d" stroke-miterlimit="10" stroke-width="0.3"/>
          </g>
          <g id="Group_12553" data-name="Group 12553" transform="translate(5.904 60.115)">
            <path id="Path_3659" data-name="Path 3659" d="M3032.429,3814.519v1.36a.392.392,0,0,1-.219.349l-3.463,1.744a.424.424,0,0,1-.487-.08l-1.495-1.507a.382.382,0,0,1,0-.542l1.583-1.6a.421.421,0,0,1,.3-.121h3.369a.4.4,0,0,1,.416.388Z" transform="translate(-3026.652 -3814.12)" fill="#e5e7ec" stroke="#4d4d4d" stroke-miterlimit="10" stroke-width="0.3"/>
          </g>
        </g>
        <g id="Group_12556" data-name="Group 12556" transform="translate(110.851 44.864)">
          <g id="Group_12555" data-name="Group 12555">
            <path id="Path_3660" data-name="Path 3660" d="M3046.326,3717.166c-3.123-19.711-2.008-34.067-2.166-38.005a8.063,8.063,0,0,0-3.044-5.988c-1.264-.271-2.364-1.052-3.64-1.36-8.635-2.087-13.344,4.246-16.577,11.076a190.858,190.858,0,0,0-10.033,25.983c-2.374,7.785-4.753,15.642-5.747,23.721-.411,3.334-.75,6.5,3.046,7.967,6.056,2.344,12.861,2.292,19.257,3.041,7.347.863,14.7,1.494,22.1,1.789C3053.378,3745.543,3049.448,3736.878,3046.326,3717.166Z" transform="translate(-3004.877 -3671.408)" fill="#e6e8ed" stroke="#4d4d4d" stroke-miterlimit="10" stroke-width="0.3"/>
          </g>
        </g>
        <g id="Group_12557" data-name="Group 12557" transform="translate(50.42)">
          <path id="Path_3661" data-name="Path 3661" d="M3017.928,3630.573c-26.194.5-36.663-13.116-38.045-15.1,0,0,0-.172-.083-.119-.053-.08-.122.08-.122.08-2.057,1.332-17.1,10.146-41.163.194,0,0-12.714,42.7-1.678,63.167,11.786,21.864,23.824,30.068,23.9,30.032.056.062,14.518-3.04,33.931-19.152C3012.832,3674.61,3017.928,3630.573,3017.928,3630.573Z" transform="translate(-2932.332 -3615.336)" fill="none" stroke="#4d4d4d" stroke-miterlimit="10" stroke-width="0.3"/>
        </g>
        <g id="Group_12558" data-name="Group 12558" transform="translate(53.895 5.319)">
          <path id="Path_3662" data-name="Path 3662" d="M3014.037,3635.676c-23.751.361-33.29-11.8-34.551-13.567,0,0,0-.153-.074-.105-.049-.071-.111.071-.111.071-1.861,1.18-15.471,8.985-37.326.044,0,0-11.384,38-1.309,56.271,10.762,19.515,21.482,27.895,21.551,27.862.052.055,13.378-3.7,30.927-17.989C3009.565,3674.894,3014.037,3635.676,3014.037,3635.676Z" transform="translate(-2936.505 -3621.984)" fill="none" stroke="#707070" stroke-width="0.3"/>
        </g>
        <g id="Group_12561" data-name="Group 12561" transform="translate(61.311 17.256)" opacity="0.87">
          <path id="Path_3664" data-name="Path 3664" d="M3006.574,3648.129c-17.958.341-27.107-9.775-28.054-11.131,0,0,0-.118-.056-.08-.037-.053-.083.055-.083.055-1.41.913-13.745,6.961-30.239.142,0,0-6.7,29.263.868,43.3,8.08,14.99,16.334,20.615,16.386,20.589.038.042,9.954-2.087,23.263-13.13C3001.108,3677.538,3006.574,3648.129,3006.574,3648.129Z" transform="translate(-2945.406 -3636.902)" fill="#e7e8ee" stroke="#4d4d4d" stroke-miterlimit="10" stroke-width="0.3"/>
        </g>
        <g id="Group_12562" data-name="Group 12562" transform="translate(115.168 90.315)">
          <path id="Path_3665" data-name="Path 3665" d="M3010.059,3740.463l11.233-4.9,7.194-7.316a.126.126,0,0,1,.173-.006l.007.006,2.268,2.375-6,8.849-9.171,6.8Z" transform="translate(-3010.059 -3728.214)" fill="#e6e8ed" stroke="#4d4d4d" stroke-miterlimit="10" stroke-width="0.3"/>
        </g>
        <g id="Group_12563" data-name="Group 12563" transform="translate(99.551 86.44)">
          <path id="Path_3666" data-name="Path 3666" d="M2997.88,3745.3l-5.992-9.857-.577-11.922,3.425-.152,2.044,11.239,5.581,4.49Z" transform="translate(-2991.312 -3723.371)" fill="#e6e8ed" stroke="#4d4d4d" stroke-miterlimit="10" stroke-width="0.3"/>
        </g>
        <g id="Group_12564" data-name="Group 12564" transform="translate(104.807 135.982)">
          <path id="Path_3667" data-name="Path 3667" d="M2997.621,3786.8v22.933h3.6l2.249-13.847,2.028-10.6Z" transform="translate(-2997.621 -3785.29)" fill="#e6e8ee" stroke="#4d4d4d" stroke-miterlimit="10" stroke-width="0.3"/>
        </g>
        <g id="Group_12565" data-name="Group 12565" transform="translate(112.69 135.117)">
          <path id="Path_3668" data-name="Path 3668" d="M3007.085,3784.208l1.351,9.952,1.8,16.01,3.6-.216v-12.333l1.8-12.548Z" transform="translate(-3007.085 -3784.208)" fill="#e6e8ee" stroke="#4d4d4d" stroke-miterlimit="10" stroke-width="0.3"/>
        </g>
        <g id="Group_12566" data-name="Group 12566" transform="translate(99.507 101.669)">
          <path id="Path_3669" data-name="Path 3669" d="M3002.753,3742.426s-3.832-.649-5.406,4.976-5.856,22.068-6.081,30.725,5.631,3.029,12.614,4.11,12.727,1.19,12.727-2.7S3019.083,3742.537,3002.753,3742.426Z" transform="translate(-2991.259 -3742.404)" fill="#e6e8ed" stroke="#4d4d4d" stroke-miterlimit="10" stroke-width="0.3"/>
        </g>
        <g id="Group_12570" data-name="Group 12570" transform="translate(106.33 84.686)">
          <g id="Group_12568" data-name="Group 12568" transform="translate(0.645 3.111)">
            <g id="Group_12567" data-name="Group 12567">
              <path id="Path_3670" data-name="Path 3670" d="M3002.051,3727.78c3.19-5.4,10.334-1.946,10.824,3.441.278,3.06-1.855,8.161-5.607,7.905-.235.493-.644,1.43-1.171,1.639-.571.226-1.833-.581-2.332-.88a.868.868,0,0,1-.354-.32,1.537,1.537,0,0,1,.15-.929,5.288,5.288,0,0,1-1.14-.633,5.8,5.8,0,0,1-2.181-4.955A11.527,11.527,0,0,1,3002.051,3727.78Z" transform="translate(-3000.223 -3725.066)" fill="#fdfdfd" stroke="#4d4d4d" stroke-miterlimit="10" stroke-width="0.3"/>
            </g>
          </g>
          <g id="Group_12569" data-name="Group 12569">
            <path id="Path_3671" data-name="Path 3671" d="M3006.374,3725.6s5.1,1.226,5.1,3.268c0,2.394.129,4.173.084,5.706a.684.684,0,0,0,.676.695.729.729,0,0,0,.379-.093l2.256-1.28a.682.682,0,0,0,.3-.352l1.762-4.737a3.1,3.1,0,0,0,.146-1.65c-.264-1.4-1-4.026-2.843-4.617a48.411,48.411,0,0,0-5.22-1.184,10.842,10.842,0,0,0-5.09.291l-1.47.446a.73.73,0,0,1-.26.029l-2-.137a.691.691,0,0,0-.749.622.669.669,0,0,0,0,.125l.6,5.041a.694.694,0,0,0,.777.589.7.7,0,0,0,.534-.349C3002.246,3726.475,3003.8,3724.925,3006.374,3725.6Z" transform="translate(-2999.449 -3721.178)" fill="#2d2d2d" stroke="#4d4d4d" stroke-miterlimit="10" stroke-width="0.3"/>
          </g>
        </g>
        <g id="Group_12571" data-name="Group 12571" transform="translate(103.329 160.433)">
          <path id="Path_3672" data-name="Path 3672" d="M2997.688,3815.94l-1.749,1.68a.294.294,0,0,0-.039.381l.625.9a.323.323,0,0,0,.361.119l3.611-1.156a.3.3,0,0,0,.215-.286v-1.427a.307.307,0,0,0-.313-.3h-2.485A.321.321,0,0,0,2997.688,3815.94Z" transform="translate(-2995.847 -3815.848)" fill="#2c2c2c" stroke="#4d4d4d" stroke-miterlimit="10" stroke-width="0.3"/>
        </g>
        <g id="Group_12572" data-name="Group 12572" transform="translate(116.548 160.908)">
          <path id="Path_3673" data-name="Path 3673" d="M3011.728,3817.021l.583,2.209a.385.385,0,0,0,.25.264l2.121.741a.414.414,0,0,0,.312-.017l.809-.389a.373.373,0,0,0,.176-.51.334.334,0,0,0-.018-.031l-1.741-2.667a.4.4,0,0,0-.36-.178l-1.771.106a.386.386,0,0,0-.373.4A.394.394,0,0,0,3011.728,3817.021Z" transform="translate(-3011.716 -3816.441)" fill="#2c2c2c" stroke="#4d4d4d" stroke-miterlimit="10" stroke-width="0.3"/>
        </g>
        <g id="Group_12573" data-name="Group 12573" transform="translate(133.918 87.124)">
          <path id="Path_3674" data-name="Path 3674" d="M3032.571,3728.066l.374-2.16a.237.237,0,0,1,.238-.194h.553a.246.246,0,0,0,.167-.068l1.407-1.351a.247.247,0,0,1,.341,0,.23.23,0,0,1,.046.062l.459.88a.219.219,0,0,1,.024.134l-.407,2.936a.232.232,0,0,1-.072.137l-1.29,1.19a.248.248,0,0,1-.333,0l-1.438-1.366A.226.226,0,0,1,3032.571,3728.066Z" transform="translate(-3032.568 -3724.224)" fill="#fdfdfd" stroke="#4d4d4d" stroke-miterlimit="10" stroke-width="0.3"/>
        </g>
        <g id="Group_12574" data-name="Group 12574" transform="translate(98.795 80.859)">
          <path id="Path_3675" data-name="Path 3675" d="M2993.923,3721.929l1.735-2.61a.173.173,0,0,0-.012-.207l-.646-.775a.189.189,0,0,0-.26-.027l-.015.013-.719.69a.191.191,0,0,1-.262,0,.173.173,0,0,1-.043-.065l-.905-2.435a.187.187,0,0,0-.237-.108l-.013.006-2.034.888a.176.176,0,0,0-.1.2l1.139,4.464a.184.184,0,0,0,.188.135l2.039-.091A.187.187,0,0,0,2993.923,3721.929Z" transform="translate(-2990.404 -3716.395)" fill="#fdfdfd" stroke="#4d4d4d" stroke-miterlimit="10" stroke-width="0.3"/>
        </g>
        <g id="Group_12575" data-name="Group 12575" transform="translate(107.805 49.03)">
          <path id="Path_3676" data-name="Path 3676" d="M3043.6,3684.885l-19.926,14.233-22.453-1.194.129-4.355,19.206-2.062,15.165-12.492,8.119-2.4Z" transform="translate(-3001.219 -3676.614)" fill="#e6e8ed" stroke="#4d4d4d" stroke-miterlimit="10" stroke-width="0.3"/>
        </g>
        <g id="Group_12576" data-name="Group 12576" transform="translate(100.624 65.966)">
          <path id="Path_3677" data-name="Path 3677" d="M2999.167,3697.884l-3.951-.1a.779.779,0,0,0-.566.219l-1.833,1.791a.711.711,0,0,0-.136.844l.27.511a.763.763,0,0,0,.542.39l2.313.412a.8.8,0,0,0,.347-.016l3.125-.849a.739.739,0,0,0,.555-.677l.072-1.76a.746.746,0,0,0-.731-.764Z" transform="translate(-2992.6 -3697.782)" fill="#fdfdfd" stroke="#4d4d4d" stroke-miterlimit="10" stroke-width="0.3"/>
        </g>
        <g id="Group_12581" data-name="Group 12581" transform="translate(132.544 22.925)">
          <g id="Group_12577" data-name="Group 12577" transform="translate(0 3.344)">
            <path id="Path_3678" data-name="Path 3678" d="M3036.74,3648.167s-2.767,1.258-3.406,8.17a40.818,40.818,0,0,1-2.416,11.122s2.113,1.608,4.114.982,2.7-.679,2.754-3.537,2.083-16.061,2.083-16.061Z" transform="translate(-3030.918 -3648.167)" fill="#2d2d2d" stroke="#4d4d4d" stroke-miterlimit="10" stroke-width="0.3"/>
          </g>
          <g id="Group_12578" data-name="Group 12578" transform="translate(3.47 2.129)">
            <path id="Path_3679" data-name="Path 3679" d="M3042.559,3651.473a7.209,7.209,0,0,0-6.448,4.451,5.972,5.972,0,0,1,1.869-8.46,6.5,6.5,0,0,1,1.971-.815,6.967,6.967,0,0,1,2.4,4.823Z" transform="translate(-3035.083 -3646.648)" fill="#2d2d2d" stroke="#4d4d4d" stroke-miterlimit="10" stroke-width="0.3"/>
          </g>
          <g id="Group_12579" data-name="Group 12579" transform="translate(3.162 5.475)">
            <path id="Path_3680" data-name="Path 3680" d="M3036.271,3654.423c3.144-6.578,11.8-3.246,12.925,2.956.639,3.527-1.308,9.657-5.692,9.715-.221.6-.6,1.722-1.19,2.014-.64.32-2.187-.5-2.8-.8a1.027,1.027,0,0,1-.442-.335,1.772,1.772,0,0,1,.076-1.093,6.226,6.226,0,0,1-1.39-.626,6.807,6.807,0,0,1-3.044-5.546A13.353,13.353,0,0,1,3036.271,3654.423Z" transform="translate(-3034.714 -3650.83)" fill="#fdfdfd" stroke="#4d4d4d" stroke-miterlimit="10" stroke-width="0.3"/>
          </g>
          <g id="Group_12580" data-name="Group 12580" transform="translate(8.164)">
            <path id="Path_3681" data-name="Path 3681" d="M3041.07,3646.14s-1.833,3.537,2.876,5.761,6.976,6.743,5.094,10.489-6.314,5.779-4.635,7.281,9.092,2.17,9.092,2.17,7.934-12.9,3.648-20.323S3044.471,3641.874,3041.07,3646.14Z" transform="translate(-3040.719 -3643.988)" fill="#2d2d2d" stroke="#4d4d4d" stroke-miterlimit="10" stroke-width="0.3"/>
          </g>
        </g>
        <g id="Group_12582" data-name="Group 12582" transform="translate(11.895 16.172)">
          <path id="Path_3682" data-name="Path 3682" d="M2893.548,3636.138a4.827,4.827,0,0,0-2.955,1.487c-1.092,1.312-4.546,7.256-4.507,11.872s-.7,10.349,8.8,14.347c4.733,1.483,4.84-2.589,8.625-2.836s7.056,1.022,6.537-4.63-4.233-6.926-6.292-13.235S2898.449,3634.287,2893.548,3636.138Z" transform="translate(-2886.085 -3635.547)" fill="#e7e9ef" stroke="#4d4d4d" stroke-miterlimit="10" stroke-width="0.3"/>
        </g>
        <g id="Group_12583" data-name="Group 12583" transform="translate(3.228 17.304)">
          <path id="Path_3683" data-name="Path 3683" d="M2889.848,3636.98l-7.793,2.532a.326.326,0,0,1-.058.014l-6.037.842a.318.318,0,0,0-.28.32l.076,2.105a.318.318,0,0,0,.281.3l5.876.791a.348.348,0,0,0,.108,0l6.42-1.214a.321.321,0,0,0,.25-.218l1.576-5.083a.313.313,0,0,0-.216-.392A.338.338,0,0,0,2889.848,3636.98Z" transform="translate(-2875.68 -3636.962)" fill="#e7e9ef" stroke="#4d4d4d" stroke-miterlimit="10" stroke-width="0.3"/>
        </g>
        <g id="Group_12584" data-name="Group 12584" transform="translate(25.848 16.411)">
          <path id="Path_3684" data-name="Path 3684" d="M2902.835,3635.847l6.139,2.137,5.152-1.75.8,1.658-4.859,3.384-4.86.32Z" transform="translate(-2902.835 -3635.847)" fill="#e7e9ef" stroke="#4d4d4d" stroke-miterlimit="10" stroke-width="0.3"/>
        </g>
        <g id="Group_12588" data-name="Group 12588" transform="translate(12.157 0.611)">
          <g id="Group_12585" data-name="Group 12585" transform="translate(11.285 2.549)">
            <path id="Path_3685" data-name="Path 3685" d="M2900.794,3621.171s3.845,2.434,3.5,6.11c0,0,2.521-1.942,1.44-4.646s-1.8-3.769-4.466-3.2S2900.794,3621.171,2900.794,3621.171Z" transform="translate(-2899.946 -3619.286)" fill="#2d2d2d" stroke="#4d4d4d" stroke-miterlimit="10" stroke-width="0.2"/>
          </g>
          <g id="Group_12586" data-name="Group 12586" transform="translate(4.563 4.326)">
            <path id="Path_3686" data-name="Path 3686" d="M2902.9,3625.677c-.467-5.476-7.542-5.256-10.02-1.111-1.409,2.357-1.675,7.215,1.437,8.349,0,.48-.037,1.378.305,1.734.371.386,1.7.188,2.214.127a.81.81,0,0,0,.406-.128,1.368,1.368,0,0,0,.241-.8,4.83,4.83,0,0,0,1.16-.1,5.366,5.366,0,0,0,3.67-3.2A10.1,10.1,0,0,0,2902.9,3625.677Z" transform="translate(-2891.877 -3621.506)" fill="#fdfdfd" stroke="#4d4d4d" stroke-miterlimit="10" stroke-width="0.2"/>
          </g>
          <g id="Group_12587" data-name="Group 12587">
            <path id="Path_3687" data-name="Path 3687" d="M2899.43,3621.976c-1.981,2-5.125,2.125-7.011,4.063,0,0-1.233,1.268-.916,4.291a5.181,5.181,0,0,1-4.74-3.021c-1.444-3.154,1.882-9.37,1.882-9.37a12.214,12.214,0,0,1,9.015-1.568c1.735.391,3.3,1.648,2.915,3.546A4.025,4.025,0,0,1,2899.43,3621.976Z" transform="translate(-2886.399 -3616.1)" fill="#2d2d2d" stroke="#4d4d4d" stroke-miterlimit="10" stroke-width="0.2"/>
          </g>
        </g>
        <g id="Group_12589" data-name="Group 12589" transform="translate(16.121 16.411)">
          <path id="Path_3688" data-name="Path 3688" d="M2892.96,3636.63s-.388,2.768,1.139,3.082,5.049-.3,5.656-.812c.841-.7,0-2.74,0-2.74l1.134-.313s5.24,10.278,1.02,11.822-9.565,1.98-10.44-1.267.375-9.33.375-9.33Z" transform="translate(-2891.158 -3635.847)" fill="#fff" stroke="#4d4d4d" stroke-miterlimit="10" stroke-width="0.3"/>
        </g>
        <g id="Group_12590" data-name="Group 12590" transform="translate(0 20.376)">
          <path id="Path_3689" data-name="Path 3689" d="M2874.86,3641.421l-2.708-.612a.232.232,0,0,0-.279.166v0l-.061.278a.217.217,0,0,0,.075.215l1.781,1.47a.216.216,0,0,1,.024.313.233.233,0,0,1-.049.042h0a.216.216,0,0,0-.068.307.247.247,0,0,0,.049.053l.049.038a.24.24,0,0,0,.2.042l1.049-.259a.225.225,0,0,0,.174-.223l-.059-1.625A.225.225,0,0,0,2874.86,3641.421Z" transform="translate(-2871.806 -3640.803)" fill="#fdfdfd" stroke="#4d4d4d" stroke-miterlimit="10" stroke-width="0.3"/>
        </g>
        <g id="Group_12591" data-name="Group 12591" transform="translate(37.283 16.072)">
          <path id="Path_3690" data-name="Path 3690" d="M2916.64,3636.195l.545-.647a.353.353,0,0,1,.295-.123l1.162.08a.349.349,0,0,1,.306.226l.294.825a.322.322,0,0,1-.029.279l-.521.849a.352.352,0,0,1-.337.16l-.95-.1a.351.351,0,0,1-.273-.182l-.531-1.006A.324.324,0,0,1,2916.64,3636.195Z" transform="translate(-2916.562 -3635.423)" fill="#fdfdfd" stroke="#4d4d4d" stroke-miterlimit="10" stroke-width="0.2"/>
        </g>
        <g id="Group_12592" data-name="Group 12592" transform="translate(29.851 83.21)">
          <path id="Path_3691" data-name="Path 3691" d="M2927.525,3723.325l.732,29.98a1.948,1.948,0,0,1-.018.313l-5.48,39.265a2.055,2.055,0,0,1-2.036,1.732l-1.083.012a2.053,2.053,0,0,1-2.1-1.821l-3.324-35.925c-.005-.059-.013-.117-.024-.175l-6.522-35.023a2.008,2.008,0,0,1,1.688-2.318,2.169,2.169,0,0,1,.638-.013l15.725,2.041A2.032,2.032,0,0,1,2927.525,3723.325Z" transform="translate(-2907.64 -3719.334)" fill="#e6e8ee" stroke="#4d4d4d" stroke-miterlimit="10" stroke-width="0.3"/>
        </g>
        <g id="Group_12593" data-name="Group 12593" transform="translate(39.955 157.921)">
          <path id="Path_3692" data-name="Path 3692" d="M2919.77,3813.51l.016,1.287a.746.746,0,0,0,.438.662l4.291,2a.8.8,0,0,0,.9-.151l1.633-1.606a.726.726,0,0,0-.014-1.055l-1.842-1.727a.794.794,0,0,0-.552-.213l-4.1.046a.761.761,0,0,0-.769.754Z" transform="translate(-2919.77 -3812.708)" fill="#2d2d2d" stroke="#4d4d4d" stroke-miterlimit="10" stroke-width="0.3"/>
        </g>
        <g id="Group_12594" data-name="Group 12594" transform="translate(19.054 159.18)">
          <path id="Path_3693" data-name="Path 3693" d="M2899.513,3814.518l3.219,2.628a.972.972,0,0,1,.257,1.208l-.308.591a1.053,1.053,0,0,1-1.149.529l-6.034-1.253a1.009,1.009,0,0,1-.82-.975v-1.966a1.019,1.019,0,0,1,1.039-1h3.123A1.061,1.061,0,0,1,2899.513,3814.518Z" transform="translate(-2894.678 -3814.282)" fill="#2d2d2d" stroke="#4d4d4d" stroke-miterlimit="10" stroke-width="0.3"/>
        </g>
        <g id="Group_12595" data-name="Group 12595" transform="translate(14.952 93.751)">
          <path id="Path_3694" data-name="Path 3694" d="M2907.836,3736.78l-3.434,30.864-4.489,30.479a.326.326,0,0,1-.341.271l-6.164-.281.236-31.914-3.89-29.6,9.136-4.087Z" transform="translate(-2889.754 -3732.508)" fill="#e6e8ee" stroke="#4d4d4d" stroke-miterlimit="10" stroke-width="0.3"/>
        </g>
        <g id="Group_12596" data-name="Group 12596" transform="translate(9.822 41.179)">
          <path id="Path_3695" data-name="Path 3695" d="M2910.618,3666.905s7.98,5.069,13.051,21.506c5.165,16.738,4.4,38.881,4.4,38.881s-45.389,7.378-44.448.116c0,0-1.5-58.648,18.64-60.089C2903.178,3667.252,2910.124,3666.542,2910.618,3666.905Z" transform="translate(-2883.597 -3666.802)" fill="#e6e8ee" stroke="#4d4d4d" stroke-miterlimit="10" stroke-width="0.3"/>
        </g>
        <g id="Group_12597" data-name="Group 12597" transform="translate(29.119 42.518)">
          <path id="Path_3696" data-name="Path 3696" d="M2912.557,3668.886c3.425,8.019,5.991,15.583,9.509,23.564,2.083,4.729,2.107,9.669,2.4,14.707q.444,7.512.887,15.024.188,3.174.375,6.348l-18.97,1.913c1.093-6.066,2.342-12.109,3.318-18.194.9-5.613,2.28-11.914,1.205-17.572-.523-2.754-1.088-5.507-1.626-8.26-.986-5.053-1.426-10.222-2.458-15.266a14.651,14.651,0,0,1,.857-2.676Z" transform="translate(-2906.762 -3668.475)" fill="#fff" stroke="#4d4d4d" stroke-miterlimit="10" stroke-width="0.3"/>
        </g>
        <g id="Group_12600" data-name="Group 12600" transform="translate(21.989 40.969)">
          <g id="Group_12598" data-name="Group 12598" transform="translate(0.154)">
            <path id="Path_3697" data-name="Path 3697" d="M2905.835,3668.165l.011.947-5.172,11.664-2.287-.727,1.339-11.356,3.558-1.939a1.746,1.746,0,0,1,2.329.615A1.585,1.585,0,0,1,2905.835,3668.165Z" transform="translate(-2898.387 -3666.54)" fill="#e7e9ef" stroke="#4d4d4d" stroke-miterlimit="10" stroke-width="0.3"/>
          </g>
          <g id="Group_12599" data-name="Group 12599" transform="translate(0 13.322)">
            <path id="Path_3698" data-name="Path 3698" d="M2900.96,3684l1.181,2.041a.078.078,0,0,1-.03.106l-.852.474a.087.087,0,0,1-.083,0l-2.937-1.88a.079.079,0,0,1-.036-.075l.183-1.4a.083.083,0,0,1,.094-.068l.013,0,2.425.77A.08.08,0,0,1,2900.96,3684Z" transform="translate(-2898.202 -3683.19)" fill="#e7e9ef" stroke="#4d4d4d" stroke-miterlimit="10" stroke-width="0.3"/>
          </g>
        </g>
        <g id="Group_12603" data-name="Group 12603" transform="translate(34.917 38.724)">
          <g id="Group_12601" data-name="Group 12601">
            <path id="Path_3699" data-name="Path 3699" d="M2918.777,3664.585h0a.475.475,0,0,1,.091.185l2.909,11.787a.5.5,0,0,1-.342.588l-1.437.451a.529.529,0,0,1-.61-.225l-5.6-9.332a.482.482,0,0,1-.024-.45l1.2-2.588a2.262,2.262,0,0,1,2.94-1.08A2.207,2.207,0,0,1,2918.777,3664.585Z" transform="translate(-2913.722 -3663.734)" fill="#e7e9ef" stroke="#4d4d4d" stroke-miterlimit="10" stroke-width="0.3"/>
          </g>
          <g id="Group_12602" data-name="Group 12602" transform="translate(5.859 13.21)">
            <path id="Path_3700" data-name="Path 3700" d="M2923.287,3680.26l2.083.914a.174.174,0,0,1,.092.231l-.328.72a.185.185,0,0,1-.16.106l-3.4.156a.185.185,0,0,1-.166-.091l-.629-1.077a.172.172,0,0,1,.071-.24.141.141,0,0,1,.033-.014l2.271-.713A.19.19,0,0,1,2923.287,3680.26Z" transform="translate(-2920.755 -3680.244)" fill="#e7e9ef" stroke="#4d4d4d" stroke-miterlimit="10" stroke-width="0.3"/>
          </g>
        </g>
        <g id="Group_12606" data-name="Group 12606" transform="translate(23.118 20.038)">
          <g id="Group_12604" data-name="Group 12604" transform="translate(4.996 7.765)">
            <path id="Path_3701" data-name="Path 3701" d="M2912.28,3665.515l-4.436-.686a20.727,20.727,0,0,1,.458-3.409c-1.213-.491-2.605-1.2-2.743-2.46a3.407,3.407,0,0,1,.148-1.18l1.181-4.808a4.243,4.243,0,0,1,.627-1.586,3.868,3.868,0,0,1,2.749-1.226,9.507,9.507,0,0,1,7.369,2.188,3.886,3.886,0,0,1,1.167,1.674,5.093,5.093,0,0,1-.379,3.068l-.942,2.753c-.361,1.055-.861,2.25-1.963,2.59a9.876,9.876,0,0,0-1.792.364C2912.77,3663.3,2912.81,3664.611,2912.28,3665.515Z" transform="translate(-2905.554 -3650.085)" fill="#fdfdfd" stroke="#4d4d4d" stroke-miterlimit="10" stroke-width="0.3"/>
          </g>
          <g id="Group_12605" data-name="Group 12605">
            <path id="Path_3702" data-name="Path 3702" d="M2926.855,3648.254a13.289,13.289,0,0,0-.154-3.268c-.284-1.76-2.371-2.673-4.213-2.907-3.979-.5-7.722-2.475-11.712-1.365-2.28.635-5.288.64-7.376,1.6a5.9,5.9,0,0,0-2.166,1.814,8.357,8.357,0,0,0-.6,9.122,12.3,12.3,0,0,0,1.291,1.774c.984,1.158,2.157,2.587,3.582,3.077.114-1.242-.819-5.236.241-6.2,1.681-1.526,5.216-.753,7.149-.24,2.109.56,3.922,2.125,6.021,2.561a8.282,8.282,0,0,0,4.842-.976A5.794,5.794,0,0,0,2926.855,3648.254Z" transform="translate(-2899.557 -3640.38)" fill="#2d2d2d" stroke="#4d4d4d" stroke-miterlimit="10" stroke-width="0.3"/>
          </g>
        </g>
        <g id="Group_12607" data-name="Group 12607" transform="translate(0.463 43.158)">
          <path id="Path_3703" data-name="Path 3703" d="M2895.4,3669.288l-22.449,13.33a1.165,1.165,0,0,0-.4,1.64v0l3.689,5.7a1.27,1.27,0,0,0,1.583.449l13.045-5.9a1.2,1.2,0,0,0,.673-.778l3.906-14.418a.027.027,0,0,0-.008-.037A.029.029,0,0,0,2895.4,3669.288Z" transform="translate(-2872.362 -3669.276)" fill="#e7e9ef" stroke="#4d4d4d" stroke-miterlimit="10" stroke-width="0.3"/>
        </g>
        <g id="Group_12608" data-name="Group 12608" transform="translate(0.329 37.893)">
          <path id="Path_3704" data-name="Path 3704" d="M2886.842,3663.335l-14.28,17.689a1.6,1.6,0,0,0-.1,1.889l3.518,5.431a1.762,1.762,0,0,0,2.2.623l3.56-1.61a1.687,1.687,0,0,0,.873-.9l8.349-20.711a1.618,1.618,0,0,0-.6-1.938l-1.149-.8A1.771,1.771,0,0,0,2886.842,3663.335Z" transform="translate(-2872.201 -3662.695)" fill="#e7e8ee" stroke="#4d4d4d" stroke-miterlimit="10" stroke-width="0.3"/>
        </g>
        <g id="Group_12609" data-name="Group 12609" transform="translate(16.941 34.349)">
          <path id="Path_3705" data-name="Path 3705" d="M2892.265,3661.227l1.644-2.032a.578.578,0,0,1,.358-.205l4.469-.715a.576.576,0,0,1,.625.338l.532,1.28a.536.536,0,0,1-.167.626l-2.166,1.732a.583.583,0,0,1-.2.1l-2.872.857a.591.591,0,0,1-.5-.08l-1.608-1.12a.536.536,0,0,1-.126-.767Z" transform="translate(-2892.143 -3658.266)" fill="#fdfdfd" stroke="#4d4d4d" stroke-miterlimit="10" stroke-width="0.3"/>
        </g>
      </g>
    </g>
  </g>
</svg>
