<svg xmlns="http://www.w3.org/2000/svg" xmlns:xlink="http://www.w3.org/1999/xlink" width="22.084" height="23.168" viewBox="0 0 22.084 23.168"><defs><style>.a{fill:#6e7b9a;}.b{fill:#6d7a99;}.c{filter:url(#a);}</style><filter id="a" x="1.922" y="12.895" width="10.25" height="10.274" filterUnits="userSpaceOnUse"><feOffset dy="3" input="SourceAlpha"/><feGaussianBlur stdDeviation="1.5" result="b"/><feFlood flood-opacity="0.161"/><feComposite operator="in" in2="b"/><feComposite in="SourceGraphic"/></filter></defs><g transform="translate(0)"><g transform="translate(0 0)"><path class="a" d="M14.22,27.819,9.809,23.408h0L5,18.6a6.23,6.23,0,0,1,8.822-8.8l.4.4.4-.4a6.25,6.25,0,0,1,8.822,0,6.264,6.264,0,0,1,0,8.822ZM10.446,22.37l3.774,3.774,8.374-8.374a5.035,5.035,0,0,0,1.486-3.562,4.939,4.939,0,0,0-1.486-3.562,5.083,5.083,0,0,0-7.147,0L14.22,11.873l-1.227-1.227A5.035,5.035,0,0,0,9.432,9.16,4.939,4.939,0,0,0,5.87,10.646a5.083,5.083,0,0,0,0,7.147l4.576,4.576Z" transform="translate(-3.175 -7.975)"/><g transform="translate(6.422 14.395)"><g class="c" transform="matrix(1, 0, 0, 1, -6.42, -14.39)"><path class="b" d="M30.848,70.274c-.071-.071-.165-.142-.236-.212s-.142-.165-.212-.236L31.249,69l.4.4Z" transform="translate(-23.98 -54.61)"/></g></g></g></g></svg>