<svg xmlns="http://www.w3.org/2000/svg" width="24.503" height="23.316" viewBox="0 0 24.503 23.316"><defs><style>.a{opacity:0.5;}.b{fill:#071e54;}</style></defs><g class="a"><path class="b" d="M30.494,16.38a.576.576,0,0,0-.748-.5,1.5,1.5,0,0,0-.944.794,16.731,16.731,0,0,0-.479,3.362l-.019.136a3.83,3.83,0,0,0-1.766,1c-.589.589-1.1,1.186-1.472,1.621-.105.123-.24.281-.329.38-.095.017-.232.044-.439.086-.278.055-.62.124-.887.169a7.109,7.109,0,0,0-4.5,3.359,2.931,2.931,0,0,0-.269.712,2.924,2.924,0,0,0-.269-.712,7.109,7.109,0,0,0-4.5-3.359c-.268-.045-.61-.113-.9-.171-.2-.04-.332-.066-.426-.083-.089-.1-.224-.257-.329-.38-.373-.436-.883-1.032-1.472-1.621a4.477,4.477,0,0,0-1.764-.981l-.022-.156a16.731,16.731,0,0,0-.479-3.362,1.5,1.5,0,0,0-.945-.794.577.577,0,0,0-.747.5l-.4,4.707a.582.582,0,0,0,.044.275L8.317,25.8a.574.574,0,0,0,.235.269A29.335,29.335,0,0,1,13.4,29.435a2.872,2.872,0,0,1,.226,1.751c-.024.258-.037.387.08.515a.356.356,0,0,0,.259.115h4.091a.575.575,0,0,0,.576-.573s0-.2.012-.513c.011.308.012.509.012.513a.575.575,0,0,0,.576.573h4.091a.357.357,0,0,0,.259-.115c.117-.128.1-.257.08-.515a2.87,2.87,0,0,1,.226-1.751,29.281,29.281,0,0,1,4.843-3.366.576.576,0,0,0,.237-.27l1.882-4.438a.569.569,0,0,0,.044-.274ZM18.034,29.467c-.073.725-.089,1.4-.093,1.661H14.319a3.252,3.252,0,0,0-.358-2.088c-.63-.9-4.595-3.287-5.024-3.543l-1.857-4.38.38-4.532a.7.7,0,0,1,.369.312,15.953,15.953,0,0,1,.443,3.188c0,.01,0,.02,0,.029l.008.057a1.06,1.06,0,0,0-.436.253,1.032,1.032,0,0,0-.318.687.346.346,0,0,0,.044.168,4.2,4.2,0,0,0,.59.8,5.267,5.267,0,0,1,.57.828l.4.595a.353.353,0,0,0,.055.064l.019.017c.194.179.366.35.4.392.12.155.645,1.056.962,1.616a.344.344,0,1,0,.6-.339c-.008-.015-.813-1.434-1.016-1.7a6.029,6.029,0,0,0-.468-.471l-.36-.54a5.9,5.9,0,0,0-.669-.953,3.229,3.229,0,0,1-.412-.541.394.394,0,0,1,.4-.239h.006a3.965,3.965,0,0,1,1.612.844c.57.57,1.07,1.155,1.435,1.582.205.24.357.417.44.5a.343.343,0,0,0,.19.095c.082.012.226.041.525.1s.635.127.91.172a6.346,6.346,0,0,1,4.011,3.011A4.075,4.075,0,0,1,18.034,29.467ZM28.344,25.5c-.424.253-4.391,2.64-5.024,3.545a3.252,3.252,0,0,0-.358,2.088H19.339c0-.262-.02-.935-.093-1.66a4.08,4.08,0,0,1,.265-2.352A6.348,6.348,0,0,1,23.523,24.1c.274-.046.625-.115.922-.175s.43-.086.512-.1a.342.342,0,0,0,.192-.1c.083-.081.234-.258.439-.5.365-.427.865-1.012,1.435-1.582a2.978,2.978,0,0,1,1.607-.844.364.364,0,0,1,.4.293,3.35,3.35,0,0,1-.4.487,5.752,5.752,0,0,0-.656.933l-.372.56a6.02,6.02,0,0,0-.468.47c-.2.263-1.008,1.682-1.016,1.7a.344.344,0,1,0,.6.339c.317-.56.842-1.46.962-1.616.033-.042.2-.214.4-.391l.021-.019a.334.334,0,0,0,.055-.064l.408-.615a5.128,5.128,0,0,1,.558-.808,3.963,3.963,0,0,0,.524-.65.329.329,0,0,0,.03-.058l.024-.058a.344.344,0,0,0,.025-.129v-.071A1.031,1.031,0,0,0,29,20.177l.009-.062c0-.01,0-.019,0-.029a15.959,15.959,0,0,1,.443-3.188.7.7,0,0,1,.369-.312l.38,4.532ZM11.775,15.2h.837V21a1.179,1.179,0,0,0,1.087.981h9.893A.917.917,0,0,0,24.411,21V15.2h1.107A.532.532,0,0,0,26,14.655a.619.619,0,0,0-.194-.45l-6.855-5.6a.628.628,0,0,0-.7,0L16.644,9.859V9.231c0-.334-.077-.717-.678-.717h-.829c-.638,0-1.049.281-1.049.717v2.707l-2.707,2.28a.519.519,0,0,0-.1.6A.6.6,0,0,0,11.775,15.2Zm8.015,6.1H17.332v-2.85l.029,0h2.429Zm3.8,0H20.479v-3a.491.491,0,0,0-.52-.538h-2.6c-.356,0-.717.185-.717.538v3H13.7A.63.63,0,0,1,13.3,21V15.2H23.724V21A.349.349,0,0,1,23.593,21.3Zm-8.939-8.935a.344.344,0,0,0,.122-.263V9.268a.838.838,0,0,1,.361-.066h.818c0,.009,0,.019,0,.029v1.332a.344.344,0,0,0,.556.271L18.6,9.208l6.5,5.3H13.055a.324.324,0,0,0-.049.01.324.324,0,0,0-.049-.01H12.1Z" transform="translate(-6.389 -8.5)"/></g></svg>