<svg xmlns="http://www.w3.org/2000/svg" width="169.202" height="178.93" viewBox="0 0 169.202 178.93"><g transform="translate(0.663)"><g transform="translate(2.388 35.088)"><rect width="16.023" height="55.465" transform="translate(138.046 1.331)" fill="#97a7d1" stroke="#4e4c4c" stroke-width="0.3"/><path d="M473.807,46.362,434.836,0,356.609.715l-47.453,46.22.959.616h-.342v96.139H473.7V47.552Z" transform="translate(-309.156)" fill="#97a7d1" stroke="#4e4c4c" stroke-width="0.3"/><path d="M587.141.294,538.455,57.373v86.514h87.511L627.421,46.9Z" transform="translate(-461.42 -0.195)" fill="#f0f5fd" stroke="#4e4c4c" stroke-width="0.3"/><rect width="17.872" height="15.797" transform="translate(112.162 95.848)" fill="#3f3d56" stroke="#4e4c4c" stroke-width="0.3"/><rect width="17.872" height="15.546" transform="translate(112.162 68.506)" fill="#3f3d56" stroke="#4e4c4c" stroke-width="0.3"/><rect width="17.872" height="15.797" transform="translate(112.162 95.848)" fill="#292949" stroke="#4e4c4c" stroke-width="0.3"/><rect width="17.872" height="15.546" transform="translate(112.162 68.506)" fill="#292949" stroke="#4e4c4c" stroke-width="0.3"/><rect width="17.872" height="15.797" transform="translate(32.738 91.657)" fill="#3f3d56" stroke="#4e4c4c" stroke-width="0.3"/><rect width="17.872" height="15.546" transform="translate(32.738 64.314)" fill="#3f3d56" stroke="#4e4c4c" stroke-width="0.3"/><rect width="17.872" height="15.797" transform="translate(32.738 91.657)" fill="#292949" stroke="#4e4c4c" stroke-width="0.3"/><rect width="17.872" height="15.546" transform="translate(32.738 64.314)" fill="#292949" stroke="#4e4c4c" stroke-width="0.3"/></g><g transform="translate(44.434 123.043)"><path d="M702.769,645.781c0,15.429,8.6,15.715,19.207,15.715s28.023-3.052,19.207-15.715c-9.3-13.355-25.251-38.812-19.207-40.16C721.976,605.622,702.769,630.352,702.769,645.781Z" transform="translate(-702.769 -605.622)" fill="#eff8fa" opacity="0.815"/><path d="M734.268,708.514c0,6.107,3.4,6.22,7.6,6.22s11.093-1.208,7.6-6.22c-3.681-5.286-10-15.363-7.6-15.9C741.87,692.618,734.268,702.407,734.268,708.514Z" transform="translate(-721.825 -658.86)" fill="#f9feff"/></g><g transform="translate(14.87 123.043)"><path d="M702.769,645.781c0,15.429,8.6,15.715,19.207,15.715s28.023-3.052,19.207-15.715c-9.3-13.355-25.251-38.812-19.207-40.16C721.976,605.622,702.769,630.352,702.769,645.781Z" transform="translate(-702.769 -605.622)" fill="#eff8fa" opacity="0.815"/><path d="M734.268,708.514c0,6.107,3.4,6.22,7.6,6.22s11.093-1.208,7.6-6.22c-3.681-5.286-10-15.363-7.6-15.9C741.87,692.618,734.268,702.407,734.268,708.514Z" transform="translate(-721.825 -658.86)" fill="#f9feff"/></g><g transform="translate(0 8.461)" opacity="0.8"><path d="M234.854,119.511h64.794s-5.73-10.427-22.408-8.909c-15.928,1.45-16.739-5.129-24.837-5.939S237.553,110.062,234.854,119.511Z" transform="translate(-234.854 -104.592)" fill="#fafafa" stroke="rgba(0,0,0,0)" stroke-width="1"/></g><g transform="translate(94.472)" opacity="0.8"><path d="M427.381,95.483H462.71s-3.124-5.685-12.218-4.858c-8.685.791-9.127-2.8-13.543-3.239S428.853,90.331,427.381,95.483Z" transform="translate(-427.381 -87.348)" fill="#fafafa"/></g></g></svg>