<svg xmlns="http://www.w3.org/2000/svg" width="169.047" height="178.755" viewBox="0 0 169.047 178.755"><g transform="translate(0.663)"><g transform="translate(2.383 35.025)"><rect width="15.994" height="55.364" transform="translate(137.796 1.329)" fill="#e6e8ee" stroke="#4e4c4c" stroke-width="0.6"/><path d="M473.508,46.278,434.608,0,356.523.714,309.156,46.851l.957.615h-.342v95.965H473.4V47.466Z" transform="translate(-309.156)" fill="#e6e8ee" stroke="#4e4c4c" stroke-width="0.6"/><path d="M587.052.294l-48.6,56.975v86.357h87.352l1.452-96.807Z" transform="translate(-461.56 -0.195)" fill="#e6e8ee" stroke="#4e4c4c" stroke-width="0.6"/><rect width="17.84" height="15.768" transform="translate(111.959 95.674)" fill="#e6e8ee" stroke="#4e4c4c" stroke-width="0.6"/><rect width="17.84" height="15.518" transform="translate(111.959 68.381)" fill="#e6e8ee" stroke="#4e4c4c" stroke-width="0.6"/><rect width="17.84" height="15.768" transform="translate(111.959 95.674)" fill="#2d2d2d" stroke="#4e4c4c" stroke-width="0.6"/><rect width="17.84" height="15.518" transform="translate(111.959 68.381)" fill="#2d2d2d" stroke="#4e4c4c" stroke-width="0.6"/><rect width="17.84" height="15.768" transform="translate(32.679 91.49)" fill="#e6e8ee" stroke="#4e4c4c" stroke-width="0.6"/><rect width="17.84" height="15.518" transform="translate(32.679 64.197)" fill="#e6e8ee" stroke="#4e4c4c" stroke-width="0.6"/><rect width="17.84" height="15.768" transform="translate(32.679 91.49)" fill="#2d2d2d" stroke="#4e4c4c" stroke-width="0.6"/><rect width="17.84" height="15.518" transform="translate(32.679 64.197)" fill="#2d2d2d" stroke="#4e4c4c" stroke-width="0.6"/></g><g transform="translate(44.354 122.819)"><path d="M702.769,645.709c0,15.4,8.584,15.686,19.172,15.686s27.972-3.047,19.172-15.686c-9.282-13.331-25.205-38.741-19.172-40.087C721.941,605.622,702.769,630.307,702.769,645.709Z" transform="translate(-702.769 -605.622)" fill="#f4f4f4" opacity="0.815"/><path d="M734.268,708.485c0,6.1,3.4,6.209,7.589,6.209s11.073-1.206,7.589-6.209c-3.674-5.277-9.977-15.335-7.589-15.868C741.856,692.618,734.268,702.389,734.268,708.485Z" transform="translate(-721.848 -658.921)" fill="#f4f4f4"/></g><g transform="translate(14.843 122.819)"><path d="M702.769,645.709c0,15.4,8.584,15.686,19.172,15.686s27.972-3.047,19.172-15.686c-9.282-13.331-25.205-38.741-19.172-40.087C721.941,605.622,702.769,630.307,702.769,645.709Z" transform="translate(-702.769 -605.622)" fill="#f4f4f4" opacity="0.815"/><path d="M734.268,708.485c0,6.1,3.4,6.209,7.589,6.209s11.073-1.206,7.589-6.209c-3.674-5.277-9.977-15.335-7.589-15.868C741.856,692.618,734.268,702.389,734.268,708.485Z" transform="translate(-721.848 -658.921)" fill="#f4f4f4"/></g><g transform="translate(0 8.446)" opacity="0.8"><path d="M234.854,119.484H299.53s-5.72-10.408-22.367-8.893c-15.9,1.447-16.708-5.12-24.792-5.929S237.548,110.052,234.854,119.484Z" transform="translate(-234.854 -104.592)" fill="#fafafa" stroke="rgba(0,0,0,0)" stroke-width="1"/></g><g transform="translate(94.301)" opacity="0.8"><path d="M427.381,95.469h35.265s-3.118-5.675-12.2-4.849c-8.67.789-9.11-2.792-13.518-3.233S428.851,90.326,427.381,95.469Z" transform="translate(-427.381 -87.348)" fill="#fafafa"/></g></g></svg>