<svg xmlns="http://www.w3.org/2000/svg" width="52.917" height="68.644" viewBox="0 0 52.917 68.644"><defs><style>.a{fill:none;stroke:#7985a2;stroke-width:2.5px;}</style></defs><g transform="translate(1.25 2.283)"><path class="a" d="M291.417,276.531a25.208,25.208,0,1,1-46.761-13.076s3.21,6.85,8.724,4.635c2.168-.869,4.637-3.312,2.309-7.342a8.954,8.954,0,0,1,4.354-12.833c6.166-2.617,6.166-11.286,6.166-11.286.62.4,9.74,6.443,6.394,14.229-2,4.652-2.238,10.288,1.919,11.535,4.974,1.492,7.6-5.41,7.6-5.41a25.157,25.157,0,0,1,9.293,19.548Z" transform="translate(-241 -236.628)"/><path class="a" d="M273.009,276.452a12.106,12.106,0,0,1-24.212,0v-.005a21.58,21.58,0,0,1,2.03-8.956l4.949,1.447a13.4,13.4,0,0,1,5.126-10.458A16.7,16.7,0,0,1,264.857,256c.622,7.484,5.011,11.834,6.546,14.589A10.579,10.579,0,0,1,273.009,276.452Z" transform="translate(-235.694 -223.444)"/></g></svg>