<svg xmlns="http://www.w3.org/2000/svg" width="249.996" height="182.772" viewBox="0 0 249.996 182.772"><g transform="translate(-250 -919.687)"><g transform="translate(265.28 928.148)" opacity="0.8"><path d="M234.854,119.511h64.794s-5.73-10.427-22.408-8.909c-15.928,1.45-16.739-5.129-24.837-5.939S237.553,110.062,234.854,119.511Z" transform="translate(-234.854 -104.592)" fill="#fafafa" stroke="rgba(0,0,0,0)" stroke-width="1"/></g><g transform="translate(359.752 919.687)" opacity="0.8"><g transform="translate(73)"><path d="M427.381,95.483H462.71s-3.124-5.685-12.218-4.858c-8.685.791-9.127-2.8-13.543-3.239S428.853,90.331,427.381,95.483Z" transform="translate(-427.381 -87.348)" fill="#fafafa"/></g></g><g transform="translate(82 757)"><g transform="translate(84.824 -74.037)"><g transform="translate(-104 -267.068)"><g transform="translate(395.023 532.038)"><path d="M387.245,227.1s-7.033-48.561,8.8-98.788l-2.484-1.916s-18.556,37.983-15.855,102.067Z" transform="translate(-377.438 -126.4)" fill="#dfe4ef"/></g><g transform="translate(389.649 510.037)"><path d="M423.743,97.989c5.805-3.8,14.4,2.25,15.578,11.71a17.938,17.938,0,0,0-2.665-1.266c-.45-2.379-.884-4.487-.884-4.487l.309,4.272c-.51-.183-1.068-.362-1.671-.526l-.4-2.3-.189,2.147a20.628,20.628,0,0,0-2.5-.442l-1.083-6.709-.563,6.592a17.66,17.66,0,0,0-2.577.114l-.664-4.565-.006,4.655a16.652,16.652,0,0,0-2.176.5l-.795-6.809s.024,3.829-.02,7.075a17.867,17.867,0,0,0-5.606,3.3l-.06-.838S418.444,101.461,423.743,97.989Z" transform="translate(-395.452 -87.257)" fill="#dfe4ef"/><path d="M387.916,89.031c-4.609-5.19-14.487-1.593-18.1,7.229a17.962,17.962,0,0,1,2.9-.525c1.056-2.179,2.026-4.1,2.026-4.1l-1.415,4.043c.54-.043,1.126-.07,1.751-.071l.989-2.114-.378,2.121a20.781,20.781,0,0,1,2.525.226l2.8-6.192-1.181,6.509a17.779,17.779,0,0,1,2.457.784l1.834-4.232L382.917,97.2a16.66,16.66,0,0,1,1.97,1.054l2.547-6.364s-1.024,3.689-1.831,6.834a17.871,17.871,0,0,1,4.549,4.65l.278-.793S392.122,93.768,387.916,89.031Z" transform="translate(-367.646 -81.339)" fill="#dfe4ef"/><path d="M397.842,118.64c4.621-4.511,8.092-.585,8.092-.585a10.085,10.085,0,0,0-4.632,2.978l-.625-.814.1,1.39c-.322.371-.631.757-.928,1.154l-1.059-2.408.452,3.26c-.425.625-.821,1.264-1.187,1.9l-.466-2.389.035,3.166c-.384.714-.731,1.414-1.036,2.074l-.5-4.381-.066,5.666c-.739,1.747-1.124,2.976-1.124,2.976S393.221,123.151,397.842,118.64Z" transform="translate(-382.015 -98.642)" fill="#dfe4ef"/><path d="M425.353,133.987l-.955.55c-.14-.734-.3-1.505-.484-2.287l.65-1.188-.816.5q-.1-.389-.2-.777l.831-2.328-1.245.927c-.672-2.1-1.531-3.944-2.6-4.826,0,0,10.6,3.386,4.61,14.811,0,0-.192-1.809-.618-4.183Z" transform="translate(-397.05 -103.334)" fill="#dfe4ef"/><path d="M382.529,117.123l-1.695-3.192.7,3.325q-.252.042-.512.093l-2.2-2.735.541,3.149a19.624,19.624,0,0,0-2.206.813,24.872,24.872,0,0,0-2.29,1.156l-1.071-2.794.5,3.126c-.727.434-1.434.9-2.114,1.372l-.533-2.463.05,2.806c-.832.6-1.619,1.217-2.343,1.816l.066-4.461-.649,4.952c-.742.634-1.407,1.238-1.975,1.775l-.082-3.095-.782,3.93c-.817.81-1.284,1.328-1.284,1.328.426-10.837,4.622-15.141,11.573-16.3s11.958,6.056,11.958,6.056A11.524,11.524,0,0,0,382.529,117.123Z" transform="translate(-364.649 -95.816)" fill="#dfe4ef"/><path d="M435.35,133.585l-.636,3.23c-.3-.8-.721-1.832-1.246-2.978l.569-4.727L433,132.837a36.461,36.461,0,0,0-2.823-4.873l.989-3.277-1.6,2.432c-.321-.422-.653-.833-1-1.226l.563-2.063-.868,1.724q-.356-.386-.728-.744l.682-2.753-1.084,2.379a12.1,12.1,0,0,0-2.226-1.607L426,119.465l-1.732,3.05a7.649,7.649,0,0,0-3.481-.728,11.628,11.628,0,0,1,5.961-4.516c3.874-1.159,12.184,5.837,8.571,21.261,0,0-.111-.351-.325-.95Z" transform="translate(-397.201 -99.034)" fill="#dfe4ef"/><path d="M428.6,78.62l.659,1.958a4.27,4.27,0,0,0-.723.1l-.8-2.548.531,2.616a5.645,5.645,0,0,0-1.427.651l-1.095-3.443.643,3.752c-.174.129-.352.271-.532.43l-1.236-3.231.933,3.51a13.618,13.618,0,0,0-2.314,3.083l-.342-4.737-.545,6.466a38.516,38.516,0,0,0-2.185,6.263s-.672-17.21,3.474-19.158,6.613,6.337,6.613,6.337a2.424,2.424,0,0,0-.567-.092Z" transform="translate(-396.817 -74.037)" fill="#dfe4ef"/><path d="M418.029,123.668l-.37,3.266-1.245-3.149-1.691,2.465-.66-2.295-1.943,1.63s.237-4.164,1.479-6.067S418.555,118.951,418.029,123.668Z" transform="translate(-392.174 -99.924)" fill="#dfe4ef"/></g></g><path d="M249.613,348.676c-1.249-1.41-2.427-2.851-3.734-4.209a1.448,1.448,0,0,1-.189-.223,10.949,10.949,0,0,0-1.345-.742c-.082-.029-.356-.138-.639-.242-.525-.193-1.046-.4-1.565-.608a23.48,23.48,0,0,1-8.7-5.455c-1.356-1.427-2.439-3.092-3.846-4.471-.034.045-.31-.1-.441-.21-.418-.048-.985-.131-1.06-.133-.567-.01-1.136.009-1.7.035-.81.036-1.617.1-2.425.173-3.146,4.606-7.126,10.892-8.882,11.724-2.717,1.287-27.78,7.9-29.625,7.513s-11.523.391-13.952.3-6.827-1.168-13.192-4.095-9.85-2.949-17.521-5.392-12.813-3.374-17.3.385-16.817-4.178-20.66-5.309-11.2-7.642-16.214-4.6-9.188,4.482-15.455,9.913-18.7,15.918-18.7,15.918H264.171l-2.43-4.252A17.421,17.421,0,0,1,249.613,348.676Z" transform="translate(69 15.722)" fill="#dfe4ef"/></g></g><g transform="translate(-87.648 759.674)"><g transform="translate(337.648 207.434)" opacity="0.2"><g transform="translate(183.892)"><path d="M530.884,210.855c-1.295-.647-2.057-.977-2.063-.98l.367-.85c.032.014.79.342,2.11,1Z" transform="translate(-528.821 -209.024)" fill="rgba(68,69,70,0.8)"/></g><g transform="translate(0 3.171)"><path d="M348.805,338.862c-.861-1.28-1.685-2.593-2.452-3.9l.8-.468c.756,1.291,1.572,2.587,2.422,3.851Zm-4.653-7.949c-.694-1.382-1.341-2.792-1.923-4.19l.854-.356c.573,1.377,1.212,2.767,1.9,4.132Zm-3.541-8.509c-.486-1.46-.919-2.95-1.286-4.431l.9-.222c.362,1.456.788,2.923,1.266,4.359Zm187.371-8.325a46.191,46.191,0,0,1-4.609-.364l.117-.918a45.221,45.221,0,0,0,4.517.356Zm4.626-.13-.08-.922a36.039,36.039,0,0,0,4.465-.665l.2.905A37.2,37.2,0,0,1,532.608,313.949Zm-194.215-.494c-.25-1.519-.44-3.061-.564-4.582l.923-.074c.121,1.495.308,3.012.553,4.506Zm180.429-.532c-.958-.21-1.932-.45-2.894-.712q-.784-.215-1.57-.451l.267-.886q.773.232,1.547.444c.946.258,1.906.493,2.849.7Zm22.821-.931-.315-.869a32.057,32.057,0,0,0,4.119-1.829l.434.817A32.555,32.555,0,0,1,541.644,311.991Zm-31.652-1.7c-1.391-.517-2.827-1.1-4.271-1.722l.369-.849c1.427.619,2.848,1.193,4.224,1.7Zm39.82-2.642-.545-.746a33.451,33.451,0,0,0,3.448-2.9l.643.665A33.968,33.968,0,0,1,549.812,307.648Zm-48.266-1.011c-1.328-.649-2.7-1.356-4.09-2.1l.437-.816c1.376.739,2.741,1.44,4.06,2.084Zm-162.973-2.375-.925,0c0-1.532.07-3.083.2-4.611l.922.08C338.643,301.231,338.576,302.756,338.573,304.263ZM493.444,302.3q-1.97-1.138-3.947-2.354l.485-.789q1.967,1.206,3.925,2.342Zm63.029-1.065-.722-.576a38.408,38.408,0,0,0,2.6-3.7l.786.487A38.614,38.614,0,0,1,556.473,301.232Zm-70.86-3.736q-1.916-1.234-3.836-2.523l.516-.769q1.915,1.283,3.822,2.514Zm-146.269-2.268-.913-.154c.255-1.506.576-3.024.954-4.515l.9.227C339.91,292.253,339.594,293.748,339.344,295.228Zm222.008-1.849-.835-.4c.639-1.34,1.224-2.747,1.741-4.184l.872.313C562.6,290.576,562,292.013,561.352,293.379Zm-83.367-.991q-1.879-1.3-3.759-2.631l.535-.755q1.877,1.329,3.75,2.625Zm-7.488-5.3q-1.85-1.333-3.7-2.688l.546-.748q1.851,1.352,3.7,2.687Zm-128.923-.655-.876-.3c.49-1.441,1.044-2.889,1.649-4.3l.851.363C342.6,283.588,342.055,285.015,341.574,286.433ZM564.49,284.7l-.9-.231c.373-1.441.692-2.934.948-4.44l.913.156C565.194,281.711,564.868,283.23,564.49,284.7Zm-101.388-3-3.69-2.717.549-.746,3.689,2.718Zm-117.965-3.6-.821-.427c.7-1.353,1.466-2.7,2.268-4.012l.79.485C346.581,275.426,345.829,276.757,345.137,278.092Zm110.581-1.835q-1.853-1.361-3.7-2.711l.544-.748q1.853,1.351,3.707,2.713Zm110.328-.652-.922-.084c.134-1.491.212-3.018.234-4.537l.925.012C566.261,272.539,566.182,274.089,566.046,275.6ZM448.3,270.859q-1.866-1.34-3.728-2.656l.533-.757q1.866,1.314,3.736,2.661Zm-98.42-.508-.752-.539c.886-1.24,1.831-2.468,2.81-3.651l.713.589C351.691,267.917,350.759,269.128,349.884,270.351Zm215.373-3.913c-.089-1.5-.231-3.028-.422-4.527l.918-.117c.194,1.52.339,3.065.428,4.59Zm-124.437-.851q-1.9-1.3-3.789-2.565l.514-.77q1.9,1.264,3.8,2.572Zm-85.153-2.238-.672-.637c1.055-1.113,2.161-2.2,3.286-3.236l.626.682C357.8,261.178,356.707,262.251,355.668,263.348Zm77.534-2.827q-1.942-1.242-3.878-2.421l.481-.79q1.944,1.182,3.9,2.432Zm130.9-3.1c-.294-1.467-.663-2.947-1.1-4.4l.888-.266c.44,1.478.817,2.987,1.116,4.482ZM362.36,257.2l-.577-.723c1.2-.96,2.446-1.885,3.7-2.751l.524.763C364.772,255.339,363.544,256.251,362.36,257.2Zm63.029-1.418c-1.361-.778-2.706-1.519-4-2.2l.434-.819c1.3.689,2.656,1.435,4.025,2.217Zm-55.544-3.734-.468-.8c1.332-.78,2.7-1.512,4.07-2.177l.4.833C372.5,250.555,371.156,251.277,369.845,252.045Zm47.473-.529c-1.4-.673-2.8-1.307-4.15-1.885l.363-.851c1.368.583,2.777,1.224,4.188,1.9Zm144.194-2.772c-.554-1.384-1.182-2.776-1.866-4.135l.826-.416c.7,1.383,1.335,2.8,1.9,4.207Zm-183.5-.658-.334-.863c1.452-.562,2.924-1.059,4.378-1.477l.255.89C380.886,247.046,379.439,247.534,378.013,248.086Zm30.922-.131c-1.453-.528-2.907-1.006-4.32-1.42l.261-.889c1.431.419,2.9.9,4.376,1.439ZM386.722,245.6l-.166-.91a42.828,42.828,0,0,1,4.588-.593l.067.922A42.022,42.022,0,0,0,386.722,245.6Zm13.5-.139a34.545,34.545,0,0,0-4.486-.505l.043-.924a35.365,35.365,0,0,1,4.608.518Zm157.225-4.819c-.775-1.272-1.618-2.547-2.508-3.789l.752-.539c.9,1.26,1.758,2.555,2.545,3.848Zm-5.282-7.392c-.948-1.149-1.959-2.3-3.008-3.416l.675-.633c1.062,1.132,2.086,2.3,3.046,3.459Zm-6.22-6.645c-1.081-1.027-2.22-2.053-3.387-3.046l.6-.7c1.179,1,2.332,2.04,3.425,3.08Zm-6.928-5.915c-1.192-.918-2.431-1.824-3.68-2.694l.53-.76c1.261.879,2.512,1.795,3.714,2.72Zm-7.482-5.215c-1.3-.818-2.613-1.607-3.914-2.345l.457-.805c1.314.745,2.643,1.542,3.951,2.367Z" transform="translate(-337.648 -212.321)" fill="rgba(68,69,70,0.8)"/></g><g transform="translate(13.877 132.957)"><path d="M353.505,349.639q-.734-.916-1.431-1.834l.738-.559q.688.908,1.416,1.813Z" transform="translate(-352.074 -347.246)" fill="rgba(68,69,70,0.8)"/></g></g><g transform="translate(468.566 161.275)"><g transform="translate(0)"><g transform="translate(0 8.35)"><path d="M486.617,176.46a4.91,4.91,0,0,0-5.023,2l0,0s-.034.046-.089.131-.088.132-.088.132l0,0a4.912,4.912,0,0,0,.074,5.408c.906,1.282,3.62,3.259,13.851,9.48s32.464,19.079,32.464,19.079l1.379-2.065.175-.264,1.379-2.065s-20.4-15.61-30.062-22.677S488.148,176.805,486.617,176.46Z" transform="translate(-479.012 -175.971)" fill="#97a7d1"/><ellipse cx="2.577" cy="2.434" rx="2.577" ry="2.434" transform="translate(0 4.286) rotate(-56.264)" fill="#97a7d1"/></g><g transform="translate(8.492)"><path d="M526.758,206.1l10.47-5.673,1.7,1.542-8.262,9.587Z" transform="translate(-489.261 -168.538)" fill="#97a7d1"/><path d="M500.649,185.857l23.734-18.582,3.069,2.05-18.3,23.281Z" transform="translate(-488.267 -167.275)" fill="#97a7d1"/><path d="M524.344,209.863l-1.229,11.844,2.076.98,5.69-11.3Z" transform="translate(-489.122 -168.897)" fill="#97a7d1"/><path d="M495.847,193.3l-8.071,29.042,3.069,2.05,14.492-25.825Z" transform="translate(-487.777 -168.266)" fill="#97a7d1"/></g></g><rect width="2.911" height="10.423" rx="1.455" transform="matrix(0.555, -0.832, 0.832, 0.555, 9.924, 33.799)" fill="#97a7d1"/><rect width="2.911" height="10.423" rx="1.455" transform="translate(7.157 42.678) rotate(-56.264)" fill="#97a7d1"/><rect width="2.911" height="10.423" rx="1.455" transform="translate(35.032 14.97) rotate(123.736)" fill="#97a7d1"/><rect width="2.911" height="10.423" rx="1.455" transform="matrix(-0.555, 0.832, -0.832, -0.555, 42.172, 9.012)" fill="#97a7d1"/></g></g><g transform="matrix(-0.993, 0, 0, 1, 343.436, 926.039)"><path d="M1101.771,1623.188s1.842,1.821,1.883,2.49.163,7.829-.589,8.5-2.96,1.142-2.25,1.894c.536.568,4.665.447,7.4.294.8-.044,1.8-6.5,2.117-7.452.459-1.379,2.114-4.379,1.7-5.34a12.743,12.743,0,0,0-3.087-2.433,12.643,12.643,0,0,1-2.823-3.048Z" transform="translate(-1033.28 -1461.599)" fill="#f7a491"/><path d="M899.487,1682.876s1.427,4.087,1.627,4.663a28.659,28.659,0,0,1,.628,3.342c0,2.553-11.36-2.167-8.814-3.3a2.732,2.732,0,0,0,1.029-1.789,6.03,6.03,0,0,0-.957-3.018Z" transform="translate(-855.63 -1516.814)" fill="#f9feff" stroke="#4e4c4c" stroke-width="0.2"/><g transform="translate(22.458 76.471)"><path d="M799.459,1071.548l-4.113,10.651s-2.683,25.419-1.121,40.635c.653,6.363,14.8,40.429,14.8,40.429l7.026-1-9.411-40.34,3.463-15.427L815,1076Z" transform="translate(-793.737 -1071.548)" fill="#e7e9ef" stroke="#4e4c4c" stroke-width="0.2"/><path d="M858.256,1075.342l3.529,11.86,5.366,35.8,18.148,33.485s-2.729,4.19-5.659,4.849l-25.759-33.843-13.96-42.368.49-9.413Z" transform="translate(-833.159 -1074.787)" fill="#e6e8ee" stroke="#4e4c4c" stroke-width="0.2"/></g><path d="M671.211,909.148c.349-.923,3.846-19.229,3.846-19.229l-8.7.921-2.539,15.5c-3.07-1.412-5.642-2.6-5.642-2.6a54.43,54.43,0,0,1-5.314-2.657,5.829,5.829,0,0,0-1.128-2.8,4.408,4.408,0,0,0-1.4-1.241s-1.237-.678-1.48-.442a.677.677,0,0,0-.021.866c.175.208.7.419.874.627a1.965,1.965,0,0,1-.023,1.33c-.135.277-3.712-1.838-3.712-1.838s-1-.654-1.31-.9c-.267-.207-1.02-.887-1.02-.887s-1.323-1.023-1.591-.668c-.328.434,3.909,4.025,3.771,4.254-.166.279-2.156-.837-2.156-.837a7.4,7.4,0,0,0-1.263-.935c-.425-.533-1.517-1.18-1.812-.727a10.415,10.415,0,0,0,1.112,1.321s.795.676,1.154,1.022c.633.61,1.793,1.2,2.253,1.576.383.315.161.335.159.391a11.984,11.984,0,0,1-1.357-.752,9.126,9.126,0,0,1-1.312-.738,11.047,11.047,0,0,0-1.348-.867c-1.03-.575-1.213.158-.341.846.332.262.7.545,1.066.831,1.438,1.109,2.98,1.815,2.917,2-.081.235-2.815-1.218-2.815-1.218s-1.7-.373-.409.643a13.89,13.89,0,0,0,2.936,1.793,13.273,13.273,0,0,0,3.3,1.437c1.553.306,4.04.712,4.04.712,1.219.691,11.218,6.783,17.251,10.324l4.42-5.38c-.5-.226-1.476-.669-2.7-1.228A2.927,2.927,0,0,0,671.211,909.148Z" transform="translate(-640.35 -840.04)" fill="#f9feff" stroke="#4e4c4c" stroke-width="0.2"/><path d="M805.99,804.131,816,805.167s.459-8.322.459-12.292c0-4.816-.639-10.814-1.213-10.68a7.832,7.832,0,0,0-4.836,2.869C805.947,791.286,805.99,804.131,805.99,804.131Z" transform="translate(-781.738 -748.086)" fill="#758cc4" stroke="#4e4c4c" stroke-width="0.2"/><path d="M1104.583,1638.489s-3.877,11.893-5.538,12.478c-.441.155-2.923.784-3.323,1.733a.478.478,0,0,0-.025.084.988.988,0,0,0,.991,1.156h7.881s1.119-5.337,1.561-7.682c0,0,2.342-5.729,2.081-6.25S1104.583,1638.489,1104.583,1638.489Z" transform="translate(-1029.012 -1479.012)" fill="#184655"/><path d="M851.068,1719.511l-1.274-4.183s-2.759,1.189-4.125.994a40.939,40.939,0,0,1-4.033-.976c-5.452,1.819-9.919,2.7-9.107,4.165h18.539Z" transform="translate(-804.311 -1544.601)" fill="#292949"/><path d="M826.919,776.835s5.3.737,6.7,1.762c1.571,1.154,4.5,5.756,4.5,5.756s-8.193,29.794-7.8,34.956,1.5,12.807,1.5,12.807-19.669,1.242-27.118-1.7c0,0,2.352-11.7,2.352-14.768s1.321-33.769,2.261-35.377,2.835-2.522,6.429-3.307S826.919,776.835,826.919,776.835Z" transform="translate(-780.639 -743.295)" fill="#97a7d1" stroke="#4e4c4c" stroke-width="0.2"/><path d="M902.258,718.779l1.312,8.591s-4.583,7.331-7.444,6.444c-2.4-.744-1.132-6.9-1.132-6.9s.458-1.7.75-3.593a13.142,13.142,0,0,0,.165-3.7C895.517,717.192,902.258,718.779,902.258,718.779Z" transform="translate(-857.425 -693.523)" fill="#f9feff" stroke="#4e4c4c" stroke-width="0.2"/><path d="M902.223,719.624c-.392-2.433,6.348-.845,6.348-.845l.109.713a3.955,3.955,0,0,1-.731,1.2,8.9,8.9,0,0,1-5.894,2.65A13.172,13.172,0,0,0,902.223,719.624Z" transform="translate(-863.738 -693.523)" fill="#f9feff"/><g transform="translate(34.428 6.91)"><path d="M887.008,623.085c.19-.069,1.527,9.785-1.009,12.5s-7.478,3.6-9.251,1.463c-1.961-2.362-1.862-12.952,2.081-15.741S887.008,623.085,887.008,623.085Z" transform="translate(-875.498 -616.893)" fill="#f9feff" stroke="#4e4c4c" stroke-width="0.2"/><path d="M893.51,596.513c3.048.617,7.812,3.244,9.755,6.439a7.956,7.956,0,0,1-2.156,10.416,6.25,6.25,0,0,0-2.749,4.614l-.432-1.288a7.09,7.09,0,0,1-.348-3.005,5.845,5.845,0,0,1,.45-1.807c.669-1.426-1.436-2.373-2.027-3.56-.455-.914-.477-3-1.193-4.514l-.855-1.153a8.112,8.112,0,0,0-3.9-1.095C888.858,601.605,889.6,595.721,893.51,596.513Z" transform="translate(-887.476 -596.44)" fill="#2d2d2d"/><path d="M934.613,677.01c-.02,1.2.53,2.186,1.229,2.2s1.281-.953,1.3-2.155-.53-2.187-1.229-2.2S934.633,675.807,934.613,677.01Z" transform="translate(-925.957 -663.374)" fill="#f9feff"/><path d="M2477.73,612.684a38.742,38.742,0,0,0-3.759-2.414,5.54,5.54,0,0,0-6.1.583c-2.355,1.907-5.193,4.758-4.843,7.209,0,0,2.73,5.7,2.73,7.059v3.258s13.011-6.493,18.9-14.276C2484.653,614.1,2480.574,614.668,2477.73,612.684Z" transform="translate(-474.12 -2496.776) rotate(65)" fill="#758cc4" stroke="#4e4c4c" stroke-width="0.2"/></g><g transform="translate(47.454 97.868)"><rect width="4.364" height="3.293" transform="translate(30.656 73.856)" fill="#65617d"/><rect width="4.364" height="3.293" transform="translate(2.656 73.856)" fill="#65617d"/><g transform="translate(9.24 0.432)"><path d="M1029.539,1223.5a.679.679,0,0,1,.646-.706h11.091a.679.679,0,0,1,.646.706v19.581h1.965V1223.5a2.743,2.743,0,0,0-2.611-2.853h-11.091a2.743,2.743,0,0,0-2.611,2.853v19.581h1.965Z" transform="translate(-1027.574 -1220.643)" fill="#65617d"/></g><path d="M996.619,1421.729l-26.779.129a2.686,2.686,0,0,1-2.689-2.682l-2.634-46.95c-.083-3.283,3.838-3.8,5.323-3.8h30.236a2.686,2.686,0,0,1,2.689,2.682l-1.007,46.461C1001.77,1420.058,999.189,1421.686,996.619,1421.729Z" transform="translate(-965.969 -1346.355)" fill="#b7c9e2" stroke="#4e4c4c" stroke-width="0.2"/><path d="M1044.7,1345.137c2.673,0,4.938,1.186,5.03,2.609h2.145c-.08-2.343-3.26-4.228-7.174-4.228s-7.094,1.885-7.174,4.228h2.144C1039.758,1346.323,1042.022,1345.137,1044.7,1345.137Z" transform="translate(-1026.825 -1325.096)" fill="#3c3a54" stroke="#4e4c4c" stroke-width="0.2"/><rect width="11.359" height="2.739" rx="1.37" transform="translate(11.782 0)" fill="#3c3a54" stroke="#4e4c4c" stroke-width="0.2"/><rect width="31.102" height="52.293" rx="7" transform="translate(2.607 24.999)" fill="#b7c9e2" stroke="#4e4c4c" stroke-width="0.2"/><rect width="31.102" height="52.293" rx="7" transform="translate(2.607 24.999)" fill="#b7c9e2" stroke="#4e4c4c" stroke-width="0.2"/></g><path d="M1000.648,880.784s6.891,12.06,7.236,15.276,1.382,22.393,1.382,22.393-1.382,8.273-.693,8.962,2.642.459,3.216.574a12.893,12.893,0,0,0,2.479-.174,2.718,2.718,0,0,0,.739-.21l.947-.439s-1.978-7.8-1.923-8.372,1.663-21.931.744-26.181-7.121-18.492-7.121-18.492Z" transform="translate(-947.896 -826.557)" fill="#f9feff" stroke="#4e4c4c" stroke-width="0.2"/><path d="M993.626,810.359l-9.26,4.823s-3.011-7.027-4.977-11.179c-1.99-4.2.776-14.053,2.895-13.484C987.023,791.795,993.626,810.359,993.626,810.359Z" transform="translate(-929.165 -755.174)" fill="#97a7d1" stroke="#4e4c4c" stroke-width="0.2"/><path d="M796.451,1103.31q.14,2.342.253,4.688c.14,2.289-2.071,4.331-4.9,4.336a75.888,75.888,0,0,1-10.935-.763c-2.776-.4-4.528-2.693-3.984-4.92q.528-2.287,1.031-4.579a4.455,4.455,0,0,1,4.965-3.348,62.859,62.859,0,0,0,9.08.606A4.412,4.412,0,0,1,796.451,1103.31Z" transform="translate(-756.812 -1018.237)" fill="#264a9f" stroke="#4e4c4c" stroke-width="0.2"/><path d="M918.255,1115.216s-7.788,2.181-11.659,2.819l.276,3.956,11.923-.818Z" transform="translate(-867.615 -1032.351)" fill="#758cc4" stroke="#4e4c4c" stroke-width="0.2"/><path d="M787.009,1103.31q.139,2.342.252,4.688c.14,2.289-2.071,4.331-4.9,4.336a75.887,75.887,0,0,1-10.935-.763c-2.776-.4-4.528-2.693-3.984-4.92q.528-2.287,1.031-4.579a4.455,4.455,0,0,1,4.965-3.348,62.86,62.86,0,0,0,9.08.606A4.412,4.412,0,0,1,787.009,1103.31Z" transform="translate(-748.752 -1018.237)" fill="#758cc4" stroke="#4e4c4c" stroke-width="0.2"/><g transform="translate(21.209 84.189)"><path d="M793.732,1126.377a29.209,29.209,0,0,1-8.521-1.333l.266-.785c.077.026,7.792,2.588,14.179.381l.271.784A19.052,19.052,0,0,1,793.732,1126.377Z" transform="translate(-785.211 -1124.258)" fill="#264a9f" stroke="#4e4c4c" stroke-width="0.2"/></g><path d="M.5,0H.753a.5.5,0,0,1,.5.5v0a.5.5,0,0,1-.5.5H.5A.5.5,0,0,1,0,.5v0A.5.5,0,0,1,.5,0Z" transform="matrix(0.987, -0.162, 0.162, 0.987, 32.315, 85.294)" fill="#355389"/><path d="M864.543,1134.22l-.409.081-.069,1.722,1.29-.18Zm-.143.333.535,1.069-.581.081Z" transform="translate(-831.311 -1048.573)" fill="#264a9f" stroke="#4e4c4c" stroke-width="0.2"/><rect width="10.879" height="4.327" transform="translate(71.028 107.799)" fill="#3c62af" stroke="#4e4c4c" stroke-width="0.2"/></g></g></svg>