<svg id="Layer_1" data-name="Layer 1" xmlns="http://www.w3.org/2000/svg" viewBox="0 0 53.28 48.04"><defs><style>.cls-1{opacity:0.5;}.cls-2{fill:#071e54;stroke:#071e54;stroke-width:0.2px;}</style></defs><g id="LTA_svg" data-name="LTA svg" class="cls-1"><path id="Path_4744" data-name="Path 4744" class="cls-2" d="M50.88,5.65H36.55C36.25,2.48,34.3.1,31.86.1H21.94c-2.43,0-4.38,2.38-4.69,5.55H2.39A2.3,2.3,0,0,0,.1,8V41.1a2.3,2.3,0,0,0,2.29,2.29H4.33v3.53a.89.89,0,0,0,1.77,0V43.39H47.71v3.7a.88.88,0,0,0,.91.85.87.87,0,0,0,.85-.85v-3.7h1.41a2.3,2.3,0,0,0,2.3-2.29V8A2.31,2.31,0,0,0,50.88,5.65ZM21.94,1.86h9.92c1.42,0,2.65,1.66,2.92,3.79H19C19.3,3.53,20.52,1.86,21.94,1.86ZM1.86,41.1V8a.53.53,0,0,1,.53-.53H7.15V41.63H2.39A.53.53,0,0,1,1.86,41.1ZM8.92,7.42h2.47V41.63H8.92Zm4.23,0H40.66V41.63H13.15Zm29.27,0h2.47V41.63H42.42Zm9,33.68a.53.53,0,0,1-.53.53H46.65V7.42h4.23a.52.52,0,0,1,.53.53Z" transform="translate(0 0)"/><path id="Path_4745" data-name="Path 4745" class="cls-2" d="M22.35,18.83a3.92,3.92,0,0,0,3.86-3.21h2.63a.71.71,0,0,0,.71-.71.7.7,0,0,0-.71-.7H26.21a3.92,3.92,0,1,0-3.86,4.62Zm0-6.07a2.14,2.14,0,0,1,2,1.45h-2a.7.7,0,0,0-.7.7.7.7,0,0,0,.7.71h2a2.15,2.15,0,0,1-4.06-1.42A2.13,2.13,0,0,1,22.35,12.76Z" transform="translate(0 0)"/><path id="Path_4746" data-name="Path 4746" class="cls-2" d="M37.93,21.29l-4.77-2.37a.88.88,0,0,0-1.18.4h0l-2,3.94H26.9a.7.7,0,0,0-.7.71.7.7,0,0,0,.7.7h2.42l-.4.8a.89.89,0,0,0,.4,1.18h0L34.09,29a.87.87,0,0,0,1.18-.4h0l3.06-6.15A.89.89,0,0,0,37.93,21.29Zm-3.85,5.76L30.9,25.46l.39-.79H32.9a.7.7,0,0,0,.7-.7.7.7,0,0,0-.7-.71H32l1.18-2.37,3.19,1.59Z" transform="translate(0 0)"/><path id="Path_4747" data-name="Path 4747" class="cls-2" d="M26.9,32H25L24,28.43a.88.88,0,0,0-1.1-.59h0l-5.1,1.52a.88.88,0,0,0-.6,1.1h0l2,6.59a.89.89,0,0,0,.85.63,1.09,1.09,0,0,0,.25,0l5.1-1.53A.87.87,0,0,0,25.93,35h0l-.47-1.57H26.9a.7.7,0,0,0,.71-.7A.71.71,0,0,0,26.9,32ZM24,34.67l-3.41,1-1.46-4.9,3.41-1L23.2,32H21.55a.71.71,0,0,0,0,1.42h2.07Z" transform="translate(0 0)"/></g></svg>