<svg xmlns="http://www.w3.org/2000/svg" width="259.557" height="174.099" viewBox="0 0 259.557 174.099"><g transform="translate(-19.845 -34.853)"><g transform="translate(62.374 34.853)"><g transform="translate(0 8.446)" opacity="0.8"><path d="M234.854,119.484H299.53s-5.72-10.408-22.367-8.893c-15.9,1.447-16.708-5.12-24.792-5.929S237.548,110.052,234.854,119.484Z" transform="translate(-234.854 -104.592)" fill="#fafafa" stroke="rgba(0,0,0,0)" stroke-width="1"/></g><g transform="translate(57.594 33.02)" opacity="0.8"><path d="M352.44,162.884h35.265s-3.119-5.675-12.2-4.849c-8.669.789-9.11-2.792-13.518-3.233S353.909,157.741,352.44,162.884Z" transform="translate(-352.44 -154.763)" fill="#f5f5f5"/></g><g transform="translate(94.301 0)" opacity="0.8"><path d="M427.381,95.469h35.265s-3.118-5.675-12.2-4.849c-8.67.789-9.11-2.792-13.518-3.233S428.851,90.326,427.381,95.469Z" transform="translate(-427.381 -87.348)" fill="#fafafa"/></g></g><g transform="translate(20 103.999)"><g transform="translate(0)"><g transform="translate(0)"><g transform="translate(83.89 26.363)"><rect width="27.616" height="17.034" transform="translate(27.414 0.102)" fill="#c6c6c6" stroke="#4d4d4d" stroke-width="0.3"/><rect width="27.616" height="17.034" transform="translate(0 0.102)" fill="#efefef" stroke="#4d4d4d" stroke-width="0.3"/><rect width="27.615" height="17.034" transform="translate(55.231 0.102)" fill="#5f5f5f" stroke="#4d4d4d" stroke-width="0.3"/><g transform="translate(32.553)" opacity="0.1"><rect width="3.628" height="17.034" stroke="#4d4d4d" stroke-width="0.3"/><rect width="3.628" height="17.034" transform="translate(7.055)" stroke="#4d4d4d" stroke-width="0.3"/><rect width="3.628" height="17.034" transform="translate(14.11)" stroke="#4d4d4d" stroke-width="0.3"/></g><g transform="translate(4.938)" opacity="0.1"><rect width="3.628" height="17.034" stroke="#4d4d4d" stroke-width="0.3"/><rect width="3.628" height="17.034" transform="translate(7.055)" stroke="#4d4d4d" stroke-width="0.3"/><rect width="3.628" height="17.034" transform="translate(14.11)" stroke="#4d4d4d" stroke-width="0.3"/></g><g transform="translate(60.169)" opacity="0.1"><rect width="3.628" height="17.034" stroke="#4d4d4d" stroke-width="0.3"/><rect width="3.628" height="17.034" transform="translate(7.055)" stroke="#4d4d4d" stroke-width="0.3"/><rect width="3.628" height="17.034" transform="translate(14.11)" stroke="#4d4d4d" stroke-width="0.3"/></g></g><path d="M3358.219,3973.406v-43.755h41.895v44.156" transform="translate(-3140.907 -3929.651)" fill="#f4f4f4" stroke="#4d4d4d" stroke-width="0.2"/><path d="M3346.2,3983.062h0a.732.732,0,0,1,.725.738v2.17a.731.731,0,0,1-.725.738h0a.731.731,0,0,1-.725-.738v-2.17A.732.732,0,0,1,3346.2,3983.062Z" transform="translate(-3143.5 -3937.964)" fill="#2d2d2d"/><rect width="1.45" height="3.646" rx="0.5" transform="translate(222.221 5.338)" fill="#2d2d2d"/><rect width="1.45" height="3.646" rx="0.5" transform="translate(222.221 12.415)" fill="#2d2d2d"/><rect width="1.45" height="3.646" rx="0.5" transform="translate(222.221 29.221)" fill="#2d2d2d"/><rect width="1.45" height="3.646" rx="0.5" transform="translate(222.221 37.182)" fill="#2d2d2d"/><path d="M3355.871,3983.062h0a.732.732,0,0,1,.725.738v2.17a.731.731,0,0,1-.725.738h0a.731.731,0,0,1-.725-.738v-2.17A.731.731,0,0,1,3355.871,3983.062Z" transform="translate(-3140.383 -3937.964)" fill="#2d2d2d"/><rect width="1.45" height="3.646" rx="0.5" transform="translate(237.469 5.338)" fill="#2d2d2d"/><rect width="1.45" height="3.646" rx="0.5" transform="translate(237.469 12.415)" fill="#2d2d2d"/><rect width="1.45" height="3.646" rx="0.5" transform="translate(237.469 29.221)" fill="#2d2d2d"/><rect width="1.45" height="3.646" rx="0.5" transform="translate(237.469 37.182)" fill="#2d2d2d"/><rect width="6.384" height="8.042" rx="1" transform="translate(230.8 46.981)" fill="#2d2d2d"/><rect width="1.45" height="3.646" rx="0.5" transform="translate(229.845 5.338)" fill="#2d2d2d"/><rect width="1.45" height="3.646" rx="0.5" transform="translate(229.845 12.415)" fill="#2d2d2d"/><rect width="1.45" height="3.646" rx="0.5" transform="translate(229.845 29.221)" fill="#2d2d2d"/><rect width="1.45" height="3.646" rx="0.5" transform="translate(229.845 37.182)" fill="#2d2d2d"/><path d="M3365.539,3983.062h0a.731.731,0,0,1,.725.738v2.17a.731.731,0,0,1-.725.738h0a.731.731,0,0,1-.725-.738v-2.17A.731.731,0,0,1,3365.539,3983.062Z" transform="translate(-3142.033 -3937.964)" fill="#2d2d2d"/><rect width="1.45" height="3.646" rx="0.5" transform="translate(245.093 5.338)" fill="#2d2d2d"/><rect width="1.45" height="3.646" rx="0.5" transform="translate(253.038 5.338)" fill="#2d2d2d"/><rect width="1.45" height="3.646" rx="0.5" transform="translate(245.093 12.415)" fill="#2d2d2d"/><rect width="1.45" height="3.646" rx="0.5" transform="translate(245.093 29.221)" fill="#2d2d2d"/><rect width="1.45" height="3.646" rx="0.5" transform="translate(245.093 37.182)" fill="#2d2d2d"/><rect width="1.45" height="3.646" rx="0.5" transform="translate(253.038 12.415)" fill="#2d2d2d"/><rect width="1.45" height="3.646" rx="0.5" transform="translate(253.038 29.221)" fill="#2d2d2d"/><rect width="1.45" height="3.646" rx="0.5" transform="translate(253.038 37.182)" fill="#2d2d2d"/><path d="M3157.553,4040.07s5.9-37.124-15.406-45.577c-19.919-7.9-19.432-29.059-19.432-29.059h71.366v12.834h187.839s-1.022,41.6-18.643,61.807" transform="translate(-3122.713 -3935.22)" fill="#e7e8ee" stroke="#4d4d4d" stroke-width="0.3"/><path d="M3162.008,4039.374l216.4.495s-3.679,9.367-7.681,11.7l-209.421-.186A68.183,68.183,0,0,0,3162.008,4039.374Z" transform="translate(-3129.299 -3946.729)" fill="#444546"/><g transform="translate(213.438 19.141)"><g transform="translate(0.801)"><path d="M3399.507,3954.3a2.535,2.535,0,0,1-.032-.467c-.008-.338-.018-.785-.031-1.351l.062.063c-3.606.06-12.308.1-22.463.1s-18.859-.042-22.465-.1l.063-.063c-.013.566-.022,1.013-.031,1.351a2.432,2.432,0,0,1-.032.467,2.742,2.742,0,0,1-.032-.467c-.007-.338-.018-.785-.031-1.351v-.061h.064c3.606-.06,12.307-.1,22.465-.1s18.856.042,22.464.1h.063v.061c-.012.566-.022,1.013-.03,1.351A2.357,2.357,0,0,1,3399.507,3954.3Z" transform="translate(-3354.514 -3952.32)" fill="#2d2d2d"/></g><g transform="translate(6.149 0.073)"><path d="M3361.123,3954.807c-.088,0-.16-.537-.16-1.2s.073-1.2.16-1.2.161.538.161,1.2S3361.21,3954.807,3361.123,3954.807Z" transform="translate(-3360.963 -3952.406)" fill="#2d2d2d"/></g><g transform="translate(11.951 0.073)"><path d="M3368.119,3954.807c-.088,0-.16-.537-.16-1.2s.072-1.2.16-1.2.161.538.161,1.2A2.452,2.452,0,0,1,3368.119,3954.807Z" transform="translate(-3367.959 -3952.406)" fill="#2d2d2d"/></g><g transform="translate(17.748 0.073)"><path d="M3375.11,3954.807c-.089,0-.161-.537-.161-1.2s.072-1.2.161-1.2.16.538.16,1.2S3375.2,3954.807,3375.11,3954.807Z" transform="translate(-3374.949 -3952.406)" fill="#2d2d2d"/></g><g transform="translate(23.545 0.073)"><path d="M3382.1,3954.807c-.089,0-.161-.537-.161-1.2s.072-1.2.161-1.2.16.538.16,1.2S3382.19,3954.807,3382.1,3954.807Z" transform="translate(-3381.939 -3952.406)" fill="#2d2d2d"/></g><g transform="translate(29.343 0.073)"><path d="M3389.091,3954.807c-.089,0-.161-.537-.161-1.2s.073-1.2.161-1.2.16.538.16,1.2S3389.182,3954.807,3389.091,3954.807Z" transform="translate(-3388.93 -3952.406)" fill="#2d2d2d"/></g><g transform="translate(35.145 0.073)"><path d="M3396.087,3954.807c-.089,0-.161-.537-.161-1.2s.072-1.2.161-1.2.16.538.16,1.2S3396.176,3954.807,3396.087,3954.807Z" transform="translate(-3395.926 -3952.406)" fill="#2d2d2d"/></g><g transform="translate(40.946 0.073)"><path d="M3403.081,3954.807c-.089,0-.16-.537-.16-1.2s.072-1.2.16-1.2.16.538.16,1.2S3403.17,3954.807,3403.081,3954.807Z" transform="translate(-3402.921 -3952.406)" fill="#2d2d2d"/></g><rect width="45.858" height="4.662" transform="translate(0 1.981)" fill="#2d2d2d"/></g><path d="M3201.59,3971.347l171.787.035v8.256" transform="translate(-3114.175 -3936.141)" fill="none" stroke="#4d4d4d" stroke-width="0.4"/><path d="M3126.761,3958.552v5.84" transform="translate(-3123.404 -3934.149)" fill="none" stroke="#4d4d4d" stroke-width="0.4"/><path d="M3140.86,3958.552v5.84" transform="translate(-3125.81 -3934.149)" fill="none" stroke="#4d4d4d" stroke-width="0.4"/><path d="M3219,3971.123v7.9" transform="translate(-3131.743 -3936.106)" fill="none" stroke="#4d4d4d" stroke-width="0.4"/><path d="M3249.758,3971.123v7.9" transform="translate(-3134.628 -3936.106)" fill="none" stroke="#4d4d4d" stroke-width="0.4"/><path d="M3154.957,3958.552v5.84" transform="translate(-3128.216 -3934.149)" fill="none" stroke="#4d4d4d" stroke-width="0.4"/><path d="M3225.29,3971.123v7.9" transform="translate(-3132.333 -3936.106)" fill="none" stroke="#4d4d4d" stroke-width="0.4"/><path d="M3260.545,3971.123v7.9" transform="translate(-3135.639 -3936.106)" fill="none" stroke="#4d4d4d" stroke-width="0.4"/><path d="M3169.056,3958.552v5.84" transform="translate(-3130.623 -3934.149)" fill="none" stroke="#4d4d4d" stroke-width="0.4"/><path d="M3238.248,3971.123v7.9" transform="translate(-3133.549 -3936.106)" fill="none" stroke="#4d4d4d" stroke-width="0.4"/><path d="M3273.63,3971.123v7.9" transform="translate(-3136.867 -3936.106)" fill="none" stroke="#4d4d4d" stroke-width="0.4"/><path d="M3183.341,3958.552v5.84" transform="translate(-3128.399 -3934.149)" fill="none" stroke="#4d4d4d" stroke-width="0.4"/><path d="M3251.205,3980.479" transform="translate(-3134.763 -3937.562)" fill="none" stroke="#4d4d4d" stroke-width="0.4"/><path d="M3133.623,3958.552v5.84" transform="translate(-3124.575 -3934.149)" fill="none" stroke="#4d4d4d" stroke-width="0.4"/><path d="M3296.744,3971.123v7.9" transform="translate(-3139.035 -3936.106)" fill="none" stroke="#4d4d4d" stroke-width="0.4"/><path d="M3305.125,3971.123v7.9" transform="translate(-3139.821 -3936.106)" fill="none" stroke="#4d4d4d" stroke-width="0.4"/><path d="M3312.458,3971.123v7.9" transform="translate(-3140.508 -3936.106)" fill="none" stroke="#4d4d4d" stroke-width="0.4"/><path d="M3319.791,3971.123v7.9" transform="translate(-3141.196 -3936.106)" fill="none" stroke="#4d4d4d" stroke-width="0.4"/><path d="M3327.124,3971.123v7.9" transform="translate(-3141.884 -3936.106)" fill="none" stroke="#4d4d4d" stroke-width="0.4"/><path d="M3334.457,3971.123v7.9" transform="translate(-3142.571 -3936.106)" fill="none" stroke="#4d4d4d" stroke-width="0.4"/><path d="M3341.791,3971.123v7.9" transform="translate(-3143.259 -3936.106)" fill="none" stroke="#4d4d4d" stroke-width="0.4"/><path d="M3349.124,3971.123v7.9" transform="translate(-3143.948 -3936.106)" fill="none" stroke="#4d4d4d" stroke-width="0.4"/><path d="M3356.457,3971.123v7.9" transform="translate(-3140.607 -3936.106)" fill="none" stroke="#4d4d4d" stroke-width="0.4"/><path d="M3363.79,3971.123v7.9" transform="translate(-3141.859 -3936.106)" fill="none" stroke="#4d4d4d" stroke-width="0.4"/><path d="M3371.123,3971.123v7.9" transform="translate(-3143.11 -3936.106)" fill="none" stroke="#4d4d4d" stroke-width="0.4"/><path d="M3379.5,3971.123v7.9" transform="translate(-3144.541 -3936.106)" fill="none" stroke="#4d4d4d" stroke-width="0.4"/><path d="M3387.885,3971.123v7.9" transform="translate(-3145.971 -3936.106)" fill="none" stroke="#4d4d4d" stroke-width="0.4"/><path d="M3396.266,3971.123v7.9" transform="translate(-3147.401 -3936.106)" fill="none" stroke="#4d4d4d" stroke-width="0.4"/><path d="M3147.909,3958.552v5.84" transform="translate(-3127.013 -3934.149)" fill="none" stroke="#4d4d4d" stroke-width="0.4"/><path d="M3255.151,3971.123v7.9" transform="translate(-3135.134 -3936.106)" fill="none" stroke="#4d4d4d" stroke-width="0.4"/><path d="M3162.007,3958.552v5.84" transform="translate(-3129.419 -3934.149)" fill="none" stroke="#4d4d4d" stroke-width="0.4"/><path d="M3231.769,3971.123v7.9" transform="translate(-3132.94 -3936.106)" fill="none" stroke="#4d4d4d" stroke-width="0.4"/><path d="M3267.391,3971.123v7.9" transform="translate(-3136.282 -3936.106)" fill="none" stroke="#4d4d4d" stroke-width="0.4"/><path d="M3176.1,3958.552v5.84" transform="translate(-3131.826 -3934.149)" fill="none" stroke="#4d4d4d" stroke-width="0.4"/><path d="M3280.917,3971.123v7.9" transform="translate(-3137.55 -3936.106)" fill="none" stroke="#4d4d4d" stroke-width="0.4"/><path d="M3288.25,3971.123v7.9" transform="translate(-3138.238 -3936.106)" fill="none" stroke="#4d4d4d" stroke-width="0.4"/><path d="M3190.2,3958.552v5.84" transform="translate(-3129.042 -3934.149)" fill="none" stroke="#4d4d4d" stroke-width="0.4"/><path d="M3196.489,3958.552v5.84" transform="translate(-3146.632 -3934.149)" fill="none" stroke="#4d4d4d" stroke-width="0.4"/><path d="M3188.055,3964.357v-5.8l-65.281-.025v5.858" transform="translate(-3122.724 -3934.146)" fill="none" stroke="#4d4d4d" stroke-width="0.4"/></g></g></g></g></svg>