<svg xmlns="http://www.w3.org/2000/svg" width="260.071" height="174.636" viewBox="0 0 260.071 174.636"><g transform="translate(-19.846 -34.593)"><g transform="translate(62.522 34.593)"><g transform="translate(0 8.403)" opacity="0.8"><path d="M234.854,119.408h64.815s-5.732-10.355-22.416-8.848c-15.934,1.44-16.744-5.094-24.846-5.9S237.554,110.025,234.854,119.408Z" transform="translate(-234.854 -104.592)" fill="#fafafa" stroke="rgba(0,0,0,0)" stroke-width="1"/></g><g transform="translate(57.718 32.853)" opacity="0.8"><path d="M352.44,162.843h35.341s-3.125-5.646-12.222-4.825c-8.688.785-9.129-2.778-13.547-3.216S353.913,157.726,352.44,162.843Z" transform="translate(-352.44 -154.763)" fill="#f5f5f5"/></g><g transform="translate(94.503 0)" opacity="0.8"><path d="M427.381,95.428h35.341S459.6,89.781,450.5,90.6c-8.688.785-9.13-2.778-13.547-3.216S428.854,90.311,427.381,95.428Z" transform="translate(-427.381 -87.348)" fill="#fafafa"/></g></g><g transform="translate(20 103.808)"><path d="M3232.222-762.538v5.867" transform="translate(-3228.794 787.051)" fill="none" stroke="#4e4c4c" stroke-width="0.4"/><path d="M3232.222-762.538v5.867" transform="translate(-3216.864 787.051)" fill="none" stroke="#4e4c4c" stroke-width="0.4"/><path d="M3232.222-762.538v5.867" transform="translate(-3222.987 787.051)" fill="none" stroke="#4e4c4c" stroke-width="0.4"/><path d="M3232.222-762.538v5.867" transform="translate(-3210.898 787.051)" fill="none" stroke="#4e4c4c" stroke-width="0.4"/><g transform="translate(84.05 26.482)"><rect width="27.674" height="17.11" transform="translate(27.472 0.103)" fill="#b7c9e2" stroke="#4e4c4c" stroke-width="0.3"/><rect width="27.674" height="17.11" transform="translate(0 0.103)" fill="#e1f4f7" stroke="#4e4c4c" stroke-width="0.3"/><rect width="27.674" height="17.11" transform="translate(55.349 0.103)" fill="#3c62af" stroke="#4e4c4c" stroke-width="0.3"/><g transform="translate(32.623 0)" opacity="0.1"><rect width="3.636" height="17.11" stroke="#4e4c4c" stroke-width="0.3"/><rect width="3.636" height="17.11" transform="translate(7.07)" stroke="#4e4c4c" stroke-width="0.3"/><rect width="3.636" height="17.11" transform="translate(14.14)" stroke="#4e4c4c" stroke-width="0.3"/></g><g transform="translate(4.949 0)" opacity="0.1"><rect width="3.636" height="17.11" stroke="#4e4c4c" stroke-width="0.3"/><rect width="3.636" height="17.11" transform="translate(7.07)" stroke="#4e4c4c" stroke-width="0.3"/><rect width="3.636" height="17.11" transform="translate(14.14)" stroke="#4e4c4c" stroke-width="0.3"/></g><g transform="translate(60.298 0)" opacity="0.1"><rect width="3.636" height="17.11" stroke="#4e4c4c" stroke-width="0.3"/><rect width="3.636" height="17.11" transform="translate(7.07)" stroke="#4e4c4c" stroke-width="0.3"/><rect width="3.636" height="17.11" transform="translate(14.14)" stroke="#4e4c4c" stroke-width="0.3"/></g></g><path d="M493.946,332.073V288.121H535.93v44.354" transform="translate(-276.214 -288.121)" fill="#f0f5fd" stroke="#4e4c4c" stroke-width="0.2"/><rect width="1.453" height="3.662" rx="0.726" transform="translate(202.375 45.301)" fill="#292949"/><rect width="1.453" height="3.662" rx="0.5" transform="translate(222.652 5.363)" fill="#292949"/><rect width="1.453" height="3.662" rx="0.5" transform="translate(222.652 12.471)" fill="#292949"/><rect width="1.453" height="3.662" rx="0.5" transform="translate(222.652 29.353)" fill="#292949"/><rect width="1.453" height="3.662" rx="0.5" transform="translate(222.652 37.349)" fill="#292949"/><rect width="1.453" height="3.662" rx="0.726" transform="translate(215.177 45.301)" fill="#292949"/><rect width="1.453" height="3.662" rx="0.5" transform="translate(237.932 5.363)" fill="#292949"/><rect width="1.453" height="3.662" rx="0.5" transform="translate(237.932 12.471)" fill="#292949"/><rect width="1.453" height="3.662" rx="0.5" transform="translate(237.932 29.353)" fill="#292949"/><rect width="1.453" height="3.662" rx="0.5" transform="translate(237.932 37.349)" fill="#292949"/><rect width="6.398" height="8.078" rx="1" transform="translate(231.249 47.193)" fill="#292949"/><rect width="1.453" height="3.662" rx="0.5" transform="translate(230.292 5.363)" fill="#292949"/><rect width="1.453" height="3.662" rx="0.5" transform="translate(230.292 12.471)" fill="#292949"/><rect width="1.453" height="3.662" rx="0.5" transform="translate(230.292 29.353)" fill="#292949"/><rect width="1.453" height="3.662" rx="0.5" transform="translate(230.292 37.349)" fill="#292949"/><rect width="1.453" height="3.662" rx="0.726" transform="translate(223.213 45.301)" fill="#292949"/><rect width="1.453" height="3.662" rx="0.5" transform="translate(245.572 5.363)" fill="#292949"/><rect width="1.453" height="3.662" rx="0.5" transform="translate(253.534 5.363)" fill="#292949"/><rect width="1.453" height="3.662" rx="0.5" transform="translate(245.572 12.471)" fill="#292949"/><rect width="1.453" height="3.662" rx="0.5" transform="translate(245.572 29.353)" fill="#292949"/><rect width="1.453" height="3.662" rx="0.5" transform="translate(245.572 37.349)" fill="#292949"/><rect width="1.453" height="3.662" rx="0.5" transform="translate(253.534 12.471)" fill="#292949"/><rect width="1.453" height="3.662" rx="0.5" transform="translate(253.534 29.353)" fill="#292949"/><rect width="1.453" height="3.662" rx="0.5" transform="translate(253.534 37.349)" fill="#292949"/><path d="M157.441,417.492S163.348,380.2,142,371.709c-19.958-7.94-19.47-29.19-19.47-29.19h71.506v12.892H382.246s-1.024,41.79-18.679,62.081" transform="translate(-122.53 -312.169)" fill="#97a7d1" stroke="#4e4c4c" stroke-width="0.3"/><path d="M176.084,400.832l216.814.5s-3.687,9.409-7.7,11.755L175.379,412.9A68.719,68.719,0,0,0,176.084,400.832Z" transform="translate(-143.302 -307.769)" fill="#4e6ebe"/><g transform="translate(213.85 19.227)"><g transform="translate(0.803)"><path d="M533.121,317.772a2.635,2.635,0,0,1-.032-.469c-.008-.339-.018-.789-.03-1.358l.063.062c-3.614.06-12.334.1-22.511.1s-18.9-.042-22.514-.1l.063-.062c-.013.568-.023,1.019-.03,1.358a2.48,2.48,0,0,1-.032.469,2.637,2.637,0,0,1-.032-.469c-.008-.339-.018-.789-.03-1.358v-.061h.064c3.615-.06,12.334-.1,22.514-.1s18.9.042,22.511.1h.064v.061c-.013.568-.023,1.019-.03,1.358A2.47,2.47,0,0,1,533.121,317.772Z" transform="translate(-488.032 -315.782)" fill="#292949"/></g><g transform="translate(6.162 0.074)"><path d="M496.862,318.311c-.088,0-.161-.539-.161-1.206s.072-1.206.161-1.206.161.54.161,1.206S496.951,318.311,496.862,318.311Z" transform="translate(-496.701 -315.899)" fill="#292949"/></g><g transform="translate(11.973 0.074)"><path d="M506.264,318.311c-.088,0-.161-.539-.161-1.206s.072-1.206.161-1.206.161.54.161,1.206S506.353,318.311,506.264,318.311Z" transform="translate(-506.103 -315.899)" fill="#292949"/></g><g transform="translate(17.785 0.074)"><path d="M515.667,318.311c-.089,0-.161-.539-.161-1.206s.072-1.206.161-1.206.161.54.161,1.206S515.755,318.311,515.667,318.311Z" transform="translate(-515.505 -315.899)" fill="#292949"/></g><g transform="translate(23.597 0.074)"><path d="M525.068,318.311c-.089,0-.161-.539-.161-1.206s.072-1.206.161-1.206.161.54.161,1.206S525.157,318.311,525.068,318.311Z" transform="translate(-524.907 -315.899)" fill="#292949"/></g><g transform="translate(29.409 0.074)"><path d="M534.47,318.311c-.089,0-.161-.539-.161-1.206s.072-1.206.161-1.206.161.54.161,1.206S534.559,318.311,534.47,318.311Z" transform="translate(-534.309 -315.899)" fill="#292949"/></g><g transform="translate(35.221 0.074)"><path d="M543.872,318.311c-.089,0-.161-.539-.161-1.206s.072-1.206.161-1.206.161.54.161,1.206S543.961,318.311,543.872,318.311Z" transform="translate(-543.711 -315.899)" fill="#292949"/></g><g transform="translate(41.033 0.074)"><path d="M553.275,318.311c-.089,0-.161-.539-.161-1.206s.072-1.206.161-1.206.161.54.161,1.206S553.364,318.311,553.275,318.311Z" transform="translate(-553.114 -315.899)" fill="#292949"/></g><rect width="45.956" height="4.683" transform="translate(0 1.991)" fill="#292949"/></g><path d="M249.3,347l172.154.036v8.293" transform="translate(-161.743 -311.634)" fill="none" stroke="#4e4c4c" stroke-width="0.4"/><path d="M3232.222-762.538v7.936" transform="translate(-3144.791 797.714)" fill="none" stroke="#4e4c4c" stroke-width="0.4"/><path d="M3232.222-762.538v7.936" transform="translate(-3116.864 797.714)" fill="none" stroke="#4e4c4c" stroke-width="0.4"/><path d="M3232.222-762.538v5.867" transform="translate(-3205.421 787.051)" fill="none" stroke="#4e4c4c" stroke-width="0.4"/><path d="M3232.222-762.538v7.936" transform="translate(-3139.08 797.714)" fill="none" stroke="#4e4c4c" stroke-width="0.4"/><path d="M3232.222-762.538v7.936" transform="translate(-3107.069 797.714)" fill="none" stroke="#4e4c4c" stroke-width="0.4"/><path d="M3232.222-762.538v5.867" transform="translate(-3193.704 787.051)" fill="none" stroke="#4e4c4c" stroke-width="0.4"/><path d="M3232.222-762.538v7.936" transform="translate(-3127.315 797.714)" fill="none" stroke="#4e4c4c" stroke-width="0.4"/><path d="M3232.222-762.538v7.936" transform="translate(-3095.188 797.714)" fill="none" stroke="#4e4c4c" stroke-width="0.4"/><path d="M3232.222-762.538v5.867" transform="translate(-3177.169 787.051)" fill="none" stroke="#4e4c4c" stroke-width="0.4"/><path d="M3232.222-756.383" transform="translate(-3115.55 799.494)" fill="none" stroke="#4e4c4c" stroke-width="0.4"/><path d="M3232.222-762.538v7.936" transform="translate(-3074.201 797.714)" fill="none" stroke="#4e4c4c" stroke-width="0.4"/><path d="M3232.222-762.538v7.936" transform="translate(-3066.592 797.714)" fill="none" stroke="#4e4c4c" stroke-width="0.4"/><path d="M3232.222-762.538v7.936" transform="translate(-3059.933 797.714)" fill="none" stroke="#4e4c4c" stroke-width="0.4"/><path d="M3232.222-762.538v7.936" transform="translate(-3053.274 797.714)" fill="none" stroke="#4e4c4c" stroke-width="0.4"/><path d="M3232.222-762.538v7.936" transform="translate(-3046.616 797.714)" fill="none" stroke="#4e4c4c" stroke-width="0.4"/><path d="M3232.222-762.538v7.936" transform="translate(-3039.958 797.714)" fill="none" stroke="#4e4c4c" stroke-width="0.4"/><path d="M3232.222-762.538v7.936" transform="translate(-3033.299 797.714)" fill="none" stroke="#4e4c4c" stroke-width="0.4"/><path d="M3232.222-762.538v7.936" transform="translate(-3026.641 797.714)" fill="none" stroke="#4e4c4c" stroke-width="0.4"/><path d="M3232.222-762.538v7.936" transform="translate(-3015.955 797.714)" fill="none" stroke="#4e4c4c" stroke-width="0.4"/><path d="M3232.222-762.538v7.936" transform="translate(-3009.86 797.714)" fill="none" stroke="#4e4c4c" stroke-width="0.4"/><path d="M3232.222-762.538v7.936" transform="translate(-3003.765 797.714)" fill="none" stroke="#4e4c4c" stroke-width="0.4"/><path d="M3232.222-762.538v7.936" transform="translate(-2996.8 797.714)" fill="none" stroke="#4e4c4c" stroke-width="0.4"/><path d="M3232.222-762.538v7.936" transform="translate(-2989.835 797.714)" fill="none" stroke="#4e4c4c" stroke-width="0.4"/><path d="M3232.222-762.538v7.936" transform="translate(-2982.869 797.714)" fill="none" stroke="#4e4c4c" stroke-width="0.4"/><path d="M3232.222-762.538v7.936" transform="translate(-3111.967 797.714)" fill="none" stroke="#4e4c4c" stroke-width="0.4"/><path d="M3232.222-762.538v5.867" transform="translate(-3199.562 787.051)" fill="none" stroke="#4e4c4c" stroke-width="0.4"/><path d="M3232.222-762.538v7.936" transform="translate(-3133.198 797.714)" fill="none" stroke="#4e4c4c" stroke-width="0.4"/><path d="M3232.222-762.538v7.936" transform="translate(-3100.853 797.714)" fill="none" stroke="#4e4c4c" stroke-width="0.4"/><path d="M3232.222-762.538v5.867" transform="translate(-3187.845 787.051)" fill="none" stroke="#4e4c4c" stroke-width="0.4"/><path d="M3232.222-762.538v7.936" transform="translate(-3088.572 797.714)" fill="none" stroke="#4e4c4c" stroke-width="0.4"/><path d="M3232.222-762.538v7.936" transform="translate(-3081.914 797.714)" fill="none" stroke="#4e4c4c" stroke-width="0.4"/><path d="M3232.222-762.538v5.867" transform="translate(-3170.938 787.051)" fill="none" stroke="#4e4c4c" stroke-width="0.4"/><path d="M3232.222-762.538v5.867" transform="translate(-3182.231 787.051)" fill="none" stroke="#4e4c4c" stroke-width="0.4"/><path d="M314.721,352.854v-5.828L249.3,347v5.884" transform="translate(-249.247 -322.504)" fill="none" stroke="#4e4c4c" stroke-width="0.4"/></g></g></svg>