<svg xmlns="http://www.w3.org/2000/svg" width="28.379" height="15.067" viewBox="0 0 28.379 15.067"><defs><style>.a{fill:#6e7b9a;}.b{fill:#8691aa;}</style></defs><g transform="translate(0.001 -102.239)"><path class="a" d="M28.31,109.3a.521.521,0,0,0-.453-.264H25.6v-1.055a.521.521,0,0,0-.521-.521H23.5v-2.078a.521.521,0,0,0-.521-.521H20.916v-2.1a.521.521,0,0,0-.521-.521H15.209a.521.521,0,0,0-.521.521v2.1H12.627a.521.521,0,0,0-.521.521v2.078H10.522a.521.521,0,0,0-.521.521v2.056H7.9v-5.7a.521.521,0,0,0-.521-.521H1.126a.521.521,0,0,0-.521.521v5.7H.52a.521.521,0,0,0-.448.786l3.166,5.337a2.543,2.543,0,0,0,2.024,1.146H22.485a2.544,2.544,0,0,0,2.024-1.146l3.795-6.336A.521.521,0,0,0,28.31,109.3Zm-3.749-.264H20.916V108.5h3.646Zm-4.687-.534v.541a2.73,2.73,0,0,0-1.784.994H15.73V108.5h4.145Zm2.582-1.042H18.29V105.9h4.166Zm-6.727-4.179h4.145v1.581H15.73v-1.581ZM13.147,105.9h4.1v1.557h-4.1V105.9Zm-2.1,2.6h3.646v1.535H11.043Zm-9.4-3.64H6.855v1H5.813a.521.521,0,0,0,0,1.042H6.855v1.058H5.813a.521.521,0,1,0,0,1.042H6.855v1.031H1.647Zm21.969,10.763a1.535,1.535,0,0,1-1.131.64H5.262a1.534,1.534,0,0,1-1.13-.638l-2.7-4.548h16.91a.526.526,0,0,0,.434-.232,1.783,1.783,0,0,1,1.266-.768H25a.486.486,0,0,0,.174,0h1.769Z" transform="translate(0 0)"/><path class="a" d="M57.822,157.94a.52.52,0,1,0,.368.152A.524.524,0,0,0,57.822,157.94Z" transform="translate(-53.571 -52.075)"/><path class="a" d="M34.152,157.94a.52.52,0,1,0,.368.152A.522.522,0,0,0,34.152,157.94Z" transform="translate(-31.442 -52.075)"/><path class="a" d="M57.822,190.19a.52.52,0,1,0,.368.152A.524.524,0,0,0,57.822,190.19Z" transform="translate(-53.571 -82.225)"/><path class="a" d="M34.152,190.19a.52.52,0,1,0,.368.152A.524.524,0,0,0,34.152,190.19Z" transform="translate(-31.442 -82.225)"/><path class="b" d="M114,254.27a.52.52,0,1,0,.368.152A.524.524,0,0,0,114,254.27Z" transform="translate(-106.094 -142.134)"/><path class="b" d="M146.072,254.27a.52.52,0,1,0,.368.152A.524.524,0,0,0,146.072,254.27Z" transform="translate(-136.076 -142.134)"/><path class="b" d="M178.142,254.27a.521.521,0,1,0,.368.152A.524.524,0,0,0,178.142,254.27Z" transform="translate(-166.058 -142.134)"/><path class="b" d="M210.2,254.27a.52.52,0,1,0,.368.152A.522.522,0,0,0,210.2,254.27Z" transform="translate(-196.031 -142.134)"/><path class="b" d="M242.272,254.27a.52.52,0,1,0,.368.152A.525.525,0,0,0,242.272,254.27Z" transform="translate(-226.014 -142.134)"/><path class="b" d="M274.342,254.27a.521.521,0,1,0,.368.152A.524.524,0,0,0,274.342,254.27Z" transform="translate(-255.996 -142.134)"/></g></svg>