<svg xmlns="http://www.w3.org/2000/svg" width="66.412" height="59.147" viewBox="0 0 66.412 59.147"><defs><style>.a{fill:#7a86a2;stroke:#7a86a3;stroke-miterlimit:10;stroke-width:0.2px;}</style></defs><g transform="translate(-5.376 -10.257)"><g transform="translate(5.476 10.357)"><path class="a" d="M48.336,38.495a1.856,1.856,0,0,0,2.624,0L62.277,27.181a9.849,9.849,0,0,0,2.881-6.968,9.93,9.93,0,0,0-.551-3.261c-.106-.3-.225-.6-.361-.89a9.858,9.858,0,0,0-14.6-3.921,9.857,9.857,0,0,0-12.627,15.04ZM38.442,14.663a7.849,7.849,0,0,1,10.564-.488l.643.536.643-.536a7.847,7.847,0,0,1,12.132,2.732c.109.232.2.468.287.706a7.832,7.832,0,0,1,.3,1.1,7.985,7.985,0,0,1,.143,1.5,7.892,7.892,0,0,1-.081,1.129,7.771,7.771,0,0,1-2.213,4.421L49.649,36.968,38.442,25.761a7.858,7.858,0,0,1,0-11.1Z" transform="translate(-12.83 -10.357)"/><path class="a" d="M71.642,51.7a3.271,3.271,0,0,0-1.535-2.169,1.06,1.06,0,0,0-.093-.056,7.077,7.077,0,0,0-3.106-.678,7.916,7.916,0,0,0-5.037,1.858L49.211,61.02a1.7,1.7,0,0,1-1.007.244H37.5c-.135-.035-.457-.146-.457-.385.019-.427.277-.427.448-.427h9.438a.679.679,0,0,0,.094-.006c1.316-.125,3.8-1.028,3.824-3.553a3.526,3.526,0,0,0-.871-2.506,4.091,4.091,0,0,0-3.173-1.2l-18.627-.311A26.8,26.8,0,0,0,15.233,56.46a.91.91,0,0,0-.087.061L5.862,63.773a1,1,0,0,0-.085,1.508l13.879,13.6a1,1,0,0,0,1.41-.006l3.629-3.609a1.158,1.158,0,0,0,.132-.161.894.894,0,0,1,.668-.375H47.762c.207-.007,5.1-.213,8.03-3.527l15.25-17.177c.017-.02.035-.042.051-.062A3.113,3.113,0,0,0,71.642,51.7ZM69.5,52.736,54.289,69.869c-2.348,2.66-6.556,2.852-6.562,2.852H25.494A2.864,2.864,0,0,0,23.216,73.9l-2.864,2.849L8,64.65l8.337-6.514A25.177,25.177,0,0,1,28.2,54.884h0l18.585.311a2.257,2.257,0,0,1,1.693.529,1.548,1.548,0,0,1,.364,1.037c0,.03,0,.062,0,.094,0,1.279-1.686,1.552-1.969,1.589H37.492a2.364,2.364,0,0,0-2.454,2.416,2.517,2.517,0,0,0,2.191,2.4.881.881,0,0,0,.166.015H48.2a3.444,3.444,0,0,0,2.3-.714L63.133,52.22a5.948,5.948,0,0,1,3.774-1.411,5.378,5.378,0,0,1,2.133.43,1.334,1.334,0,0,1,.619.786A1.09,1.09,0,0,1,69.5,52.736Z" transform="translate(-5.476 -20.219)"/></g></g></svg>