<svg xmlns="http://www.w3.org/2000/svg" width="67.477" height="60.095" viewBox="0 0 67.477 60.095"><defs><style>.a{fill:#7a86a2;stroke:#707070;stroke-miterlimit:10;stroke-width:0.2px;}.b{fill:none;stroke:#7a86a2;stroke-linecap:round;stroke-width:2px;}</style></defs><g transform="translate(-1216.375 -432.538)"><g transform="translate(1216.476 432.638)"><g transform="translate(0 0)"><path class="a" d="M48.565,38.947a1.886,1.886,0,0,0,2.667,0l11.5-11.5a10.007,10.007,0,0,0,2.927-7.08,10.09,10.09,0,0,0-.56-3.313c-.107-.306-.229-.609-.366-.9A10.017,10.017,0,0,0,49.9,12.169,10.015,10.015,0,0,0,37.07,27.451ZM38.512,14.732a7.975,7.975,0,0,1,10.734-.5l.653.545.653-.545a7.973,7.973,0,0,1,12.327,2.776c.11.236.206.475.292.718a7.957,7.957,0,0,1,.3,1.115,8.113,8.113,0,0,1,.146,1.526,8.018,8.018,0,0,1-.082,1.147,7.9,7.9,0,0,1-2.249,4.492L49.9,37.4,38.512,26.009a7.984,7.984,0,0,1,0-11.277Z" transform="translate(-12.487 -10.357)"/><path class="a" d="M72.706,51.75a3.324,3.324,0,0,0-1.559-2.2,1.077,1.077,0,0,0-.094-.057A7.191,7.191,0,0,0,67.9,48.8a8.044,8.044,0,0,0-5.118,1.888L49.915,61.216a1.729,1.729,0,0,1-1.023.248H38.017c-.137-.036-.465-.149-.465-.391.019-.434.281-.434.455-.434H47.6a.689.689,0,0,0,.1-.006c1.337-.127,3.859-1.045,3.885-3.61a3.583,3.583,0,0,0-.885-2.546,4.157,4.157,0,0,0-3.224-1.217l-18.927-.316a27.234,27.234,0,0,0-13.153,3.64.925.925,0,0,0-.088.062L5.868,64.013a1.02,1.02,0,0,0-.086,1.533l14.1,13.818a1.02,1.02,0,0,0,1.432-.006L25,75.69a1.178,1.178,0,0,0,.134-.164.908.908,0,0,1,.678-.381l22.626,0c.211-.008,5.186-.217,8.159-3.584L72.1,54.108c.017-.02.036-.043.051-.063A3.163,3.163,0,0,0,72.706,51.75ZM70.53,52.8,55.074,70.208c-2.386,2.7-6.661,2.9-6.667,2.9H25.816a2.911,2.911,0,0,0-2.315,1.2L20.592,77.2,8.041,64.9l8.471-6.619a25.582,25.582,0,0,1,12.055-3.3h0l18.884.316a2.293,2.293,0,0,1,1.72.537,1.573,1.573,0,0,1,.37,1.054c0,.031,0,.063,0,.1,0,1.3-1.713,1.577-2,1.614h-9.53a2.4,2.4,0,0,0-2.494,2.455,2.558,2.558,0,0,0,2.226,2.436.9.9,0,0,0,.168.015H48.892a3.5,3.5,0,0,0,2.334-.726l12.835-10.5A6.043,6.043,0,0,1,67.9,50.841a5.464,5.464,0,0,1,2.167.437,1.355,1.355,0,0,1,.629.8A1.108,1.108,0,0,1,70.53,52.8Z" transform="translate(-5.476 -19.76)"/></g></g><g transform="translate(1247.731 440.716)"><line class="b" y2="11.27" transform="translate(5.635 0)"/><line class="b" x2="11.271" transform="translate(0 5.635)"/></g></g></svg>