<svg xmlns="http://www.w3.org/2000/svg" width="67.865" height="60.341" viewBox="0 0 67.865 60.341"><defs><style>.a,.b,.c{fill:#7a86a2;}.b,.c{stroke:#7a86a2;}.b{stroke-miterlimit:10;stroke-width:0.2px;}.c{stroke-width:0.5px;}</style></defs><g transform="translate(-598.375 -918)"><g transform="translate(598.476 918)"><g transform="translate(0 0)"><path class="a" d="M48.648,39.112a1.9,1.9,0,0,0,2.682,0L62.894,27.55a10.065,10.065,0,0,0,2.944-7.121,10.148,10.148,0,0,0-.563-3.332c-.108-.308-.23-.612-.368-.909A10.074,10.074,0,0,0,49.991,12.18a10.073,10.073,0,0,0-12.9,15.37ZM38.537,14.758a8.021,8.021,0,0,1,10.8-.5l.657.548.657-.548a8.019,8.019,0,0,1,12.4,2.792c.111.237.207.478.293.722a8,8,0,0,1,.3,1.121,8.16,8.16,0,0,1,.147,1.535,8.065,8.065,0,0,1-.083,1.153A7.942,7.942,0,0,1,61.441,26.1L49.989,37.551,38.537,26.1a8.03,8.03,0,0,1,0-11.342Z" transform="translate(-12.363 -10.357)"/><path class="b" d="M73.093,51.767a3.343,3.343,0,0,0-1.568-2.217,1.082,1.082,0,0,0-.095-.057,7.233,7.233,0,0,0-3.174-.693,8.09,8.09,0,0,0-5.147,1.9L50.171,61.288a1.739,1.739,0,0,1-1.029.249H38.2c-.138-.036-.467-.15-.467-.394.019-.436.283-.436.457-.436H47.84a.693.693,0,0,0,.1-.006c1.345-.128,3.882-1.051,3.907-3.631a3.6,3.6,0,0,0-.89-2.561,4.181,4.181,0,0,0-3.243-1.224l-19.036-.318a27.39,27.39,0,0,0-13.228,3.661.931.931,0,0,0-.089.062L5.87,64.1a1.026,1.026,0,0,0-.087,1.542l14.183,13.9a1.025,1.025,0,0,0,1.441-.006l3.708-3.689a1.184,1.184,0,0,0,.135-.165.913.913,0,0,1,.682-.383l22.756,0c.212-.008,5.216-.218,8.206-3.6L72.48,54.138c.017-.021.036-.043.052-.064A3.181,3.181,0,0,0,73.093,51.767ZM70.9,52.822,55.36,70.331c-2.4,2.718-6.7,2.914-6.706,2.914H25.933a2.927,2.927,0,0,0-2.328,1.21l-2.927,2.911L8.056,65l8.52-6.657A25.729,25.729,0,0,1,28.7,55.018h0l18.993.318a2.307,2.307,0,0,1,1.73.54,1.582,1.582,0,0,1,.372,1.06c0,.031,0,.064,0,.1,0,1.308-1.723,1.586-2.012,1.624H38.194a2.416,2.416,0,0,0-2.508,2.469,2.573,2.573,0,0,0,2.239,2.45.9.9,0,0,0,.169.015H49.142a3.519,3.519,0,0,0,2.348-.73L64.4,52.295a6.078,6.078,0,0,1,3.857-1.442,5.5,5.5,0,0,1,2.18.439,1.363,1.363,0,0,1,.632.8A1.114,1.114,0,0,1,70.9,52.822Z" transform="translate(-5.476 -19.592)"/></g></g><g transform="translate(630.278 924.946)"><g transform="translate(0 0)"><path class="c" d="M6.9,13.6l2.719-1.43a.432.432,0,0,1,.4,0l2.719,1.43-.519-3.028a.432.432,0,0,1,.124-.383l2.2-2.144L11.511,7.6a.432.432,0,0,1-.326-.237L9.825,4.61,8.466,7.365A.432.432,0,0,1,8.14,7.6L5.1,8.043l2.2,2.144a.432.432,0,0,1,.124.383Zm-.373,1.173a.432.432,0,0,1-.627-.456l.629-3.668-2.665-2.6a.432.432,0,0,1,.24-.738l3.682-.535L9.438,3.441a.432.432,0,0,1,.776,0L11.86,6.778l3.682.535a.432.432,0,0,1,.24.738l-2.665,2.6.629,3.668a.432.432,0,0,1-.627.456L9.825,13.04Z" transform="translate(-3.738 -3.2)"/></g></g></g></svg>