<svg xmlns="http://www.w3.org/2000/svg" width="278.396" height="180.27" viewBox="0 0 278.396 180.27"><g transform="translate(0.15 0)"><g transform="translate(0 98.502)"><g transform="translate(278.095 81.612) rotate(-180)"><g transform="translate(0 0)"><g transform="translate(0 0)"><g transform="translate(0 10.172)"><g transform="translate(0 0)"><path d="M3.505,32.09h0a11.353,11.353,0,0,1-.539-15.852A18.807,18.807,0,0,1,9.71,11.526L32.066,2.25,47.858,0l206.66,1.208,12.949,2.333c6.244,1.124,10.718,6.2,10.626,12.062l-.13,8.285a2.978,2.978,0,0,1-2.25,2.763l-.917.259s-.766,8.124-6.089,9.964c-19.394,7.7-32.236,10.167-64.7,11.417L176.584,63.385S165.516,69.9,155.2,70.752s-33.658.866-44.358.3c-12.562-.666-28.5-5.929-37.388-9.988-6.961-3.179-23.717-11.035-23.717-11.035l-9.478-1.463c-1.425-.062-27.6-1.532-30.608-1.956a5.91,5.91,0,0,1-4.761-3.765c-.752-2.289-1.383-10.689-1.383-10.689" transform="translate(0 0)" fill="#e7e9ef" stroke="#4d4d4d" stroke-width="0.3"/></g></g><g transform="translate(73.916 53.918)"><g transform="translate(0 0)"><path d="M12.964,16.877c4.114,2.057,15.149,4.894,21.32,6.051S53,24.244,58.01,24.116s18.934-.367,26.274-2.452A51.38,51.38,0,0,0,97.7,14.819c1.241-.913,6.635-5.14,7.841-6.1L114.886,0,.1,3.623s-.661,4,1.4,6.306S12.964,16.877,12.964,16.877Z" fill="#263238" stroke="#4d4d4d" stroke-width="0.3"/></g></g><g transform="translate(262.043 37.574)"><g transform="translate(0 0)"><g transform="translate(0 0)"><g transform="translate(0 0)"><path d="M7.141,0l5.807.084c-.226,1.565-.993,5.73-3.474,8.062l-7.688-.11A1.808,1.808,0,0,1,.271,5.281l1.4-2.274A6.315,6.315,0,0,1,7.141,0Z" fill="#fafafa" stroke="#4d4d4d" stroke-width="0.3"/></g></g></g><g transform="translate(0 0.033)"><g transform="translate(0 0)"><g transform="translate(0 0)"><path d="M6.437.316c-.6,2.559-1.365,5.918-3.521,7.7L1.785,8A1.808,1.808,0,0,1,.271,5.249l1.4-2.274A6.306,6.306,0,0,1,6.515,0C6.489.106,6.463.208,6.437.316Z" fill="#e0e0e0" stroke="#4d4d4d" stroke-width="0.3"/></g></g></g></g><g transform="translate(39.541 10.118)"><g transform="translate(171.162 0.91)" opacity="0.7"><g transform="translate(0 0)"><g transform="translate(0)"><g transform="translate(0)"><path d="M.588,0a28.654,28.654,0,0,0-.4,9.082c1.5,12.891,9.945,22.168,22.7,22.352,11.1.16,20.264-6.774,22.137-19.616A33.045,33.045,0,0,0,44.638.3Z" stroke="#4d4d4d" stroke-width="0.3"/></g></g></g></g><g transform="translate(-9 0)" opacity="0.7"><g transform="translate(0 0)"><path d="M0,2.25c.018.476.057.959.065,1.463C.291,19.982,11.2,31.252,24.185,31.439A21.535,21.535,0,0,0,46,10.242,68.044,68.044,0,0,0,45.8.21L14.542,0Z" stroke="#4d4d4d" stroke-width="0.3"/></g></g></g><g transform="translate(35.293 1.306)"><g transform="translate(0 0)"><g transform="translate(0 0)"><path d="M37.482,19.012a18.742,18.742,0,1,0-19.011,18.47A18.742,18.742,0,0,0,37.482,19.012Z" fill="#676767" stroke="#4d4d4d" stroke-width="0.3"/></g></g><g transform="translate(0.002 0)"><g transform="translate(0 0)"><g transform="translate(0 0)"><path d="M37.477,19.061c0-.016,0-.032,0-.048A18.742,18.742,0,1,0,0,18.472c0,.016,0,.032,0,.048Z" fill="#676767" stroke="#4d4d4d" stroke-width="0.3"/></g></g></g><g transform="translate(5.583 5.584)"><g transform="translate(0 0)"><g transform="translate(0)"><path d="M26.315,13.348A13.158,13.158,0,1,0,12.969,26.315,13.158,13.158,0,0,0,26.315,13.348Z" fill="#fafafa" stroke="#4d4d4d" stroke-width="0.3"/></g></g></g><g transform="translate(5.583 18.552)"><g transform="translate(0 0)"><g transform="translate(0 0)"><path d="M12.969,13.347A13.158,13.158,0,0,0,26.315.38L0,0A13.159,13.159,0,0,0,12.969,13.347Z" fill="#e0e0e0" stroke="#4d4d4d" stroke-width="0.3"/></g></g></g><g transform="translate(10.727 10.727)"><g transform="translate(0 0)"><g transform="translate(0)"><path d="M16.03,8.131a8.015,8.015,0,1,0-8.13,7.9A8.015,8.015,0,0,0,16.03,8.131Z" fill="#2f2f2f" stroke="#4d4d4d" stroke-width="0.3"/></g></g></g></g><g transform="translate(214.495 0)"><g transform="translate(0 0)"><g transform="translate(0 0)"><ellipse cx="18.742" cy="18.742" rx="18.742" ry="18.742" transform="translate(39.13 37.447) rotate(177.426)" fill="#676767" stroke="#4d4d4d" stroke-width="0.3"/></g></g><g transform="translate(0.825 0.823)"><g transform="translate(0 0)"><g transform="translate(0)"><g transform="translate(0 0)"><path d="M37.477,19.061c0-.016,0-.032,0-.048A18.742,18.742,0,0,0,0,18.472c0,.016,0,.032,0,.049Z" fill="#676767" stroke="#4d4d4d" stroke-width="0.3"/></g></g></g></g><g transform="translate(6.407 6.407)"><g transform="translate(0 0)"><g transform="translate(0 0)"><g transform="translate(0 0)"><path d="M26.315,13.348A13.158,13.158,0,1,0,12.969,26.315,13.158,13.158,0,0,0,26.315,13.348Z" transform="translate(0)" fill="#fafafa" stroke="#4d4d4d" stroke-width="0.3"/></g></g></g></g><g transform="translate(6.407 19.375)"><g transform="translate(0 0)"><g transform="translate(0)"><path d="M12.969,13.346A13.158,13.158,0,0,0,26.315.38L0,0A13.158,13.158,0,0,0,12.969,13.346Z" fill="#e0e0e0" stroke="#4d4d4d" stroke-width="0.3"/></g></g></g><g transform="translate(11.549 11.55)"><g transform="translate(0 0)"><g transform="translate(0 0)"><path d="M16.03,8.131a8.015,8.015,0,1,0-8.13,7.9A8.015,8.015,0,0,0,16.03,8.131Z" fill="#2f2f2f" stroke="#4d4d4d" stroke-width="0.3"/></g></g></g></g><g transform="translate(270.314 20.092)" opacity="0.4"><g transform="translate(0 0)"><path d="M0,3.769C.031,1.669,1.094-.019,2.374,0S4.667,1.736,4.637,3.835,3.544,7.622,2.264,7.6-.03,5.868,0,3.769Z" stroke="#4d4d4d" stroke-width="0.3"/></g></g><g transform="translate(3.228 30.814)"><g transform="translate(0 0)"><g transform="translate(0 0)"><path d="M0,11.447a1.834,1.834,0,0,1,.362-.031L1.4,11.38c.9-.023,2.2-.05,3.811-.116s3.523-.153,5.642-.325a47.691,47.691,0,0,0,6.826-1.006,17.319,17.319,0,0,0,3.358-1.159A14.17,14.17,0,0,0,23.8,6.96a43.815,43.815,0,0,0,4.091-3.882A16.792,16.792,0,0,1,30.827.634a7.923,7.923,0,0,1,.915-.5A1.8,1.8,0,0,1,32.077,0c.013.027-.447.226-1.194.721a18.126,18.126,0,0,0-2.861,2.489,41.305,41.305,0,0,1-4.071,3.941,14.228,14.228,0,0,1-2.8,1.858,17.369,17.369,0,0,1-3.409,1.184,45.9,45.9,0,0,1-6.869.992c-2.127.159-4.045.238-5.656.269s-2.915.04-3.816.031L.362,11.47A1.856,1.856,0,0,1,0,11.447Z" fill="#263238" stroke="#4d4d4d" stroke-width="0.3"/></g></g></g><g transform="translate(74.74 15.896)"><g transform="translate(3.108 0)"><g transform="translate(0.117 0)"><g transform="translate(0 0)"><g transform="translate(0 0)"><path d="M0,0" transform="translate(0 0)" fill="#fff" stroke="#4d4d4d" stroke-miterlimit="10" stroke-width="0.3"/></g></g></g></g></g><g transform="translate(256.182 22.851)"><g transform="translate(0 0)"><g transform="translate(0 0)"><path d="M0,0A8.9,8.9,0,0,1,.606.715a13.641,13.641,0,0,0,1.818,1.77A17.784,17.784,0,0,0,9.971,5.934a34.931,34.931,0,0,0,8.365.536c1.077-.041,1.949-.092,2.551-.124a6.463,6.463,0,0,1,.938-.025.841.841,0,0,1-.239.047L20.9,6.45c-.6.064-1.471.144-2.55.209A32.358,32.358,0,0,1,9.916,6.2,17.269,17.269,0,0,1,2.3,2.631,11.97,11.97,0,0,1,.525.781C.333.546.214.342.122.211A.841.841,0,0,1,0,0Z" fill="#4e4c4c" stroke="#4d4d4d" stroke-width="0.3"/></g></g></g><g transform="translate(254.589 36.749)"><g transform="translate(0 0)"><g transform="translate(0 0)"><path d="M0,.053c0-.074,4.475-.07,9.992.01s9.991.2,9.989.278-4.474.07-9.993-.01S0,.126,0,.053Z" fill="#4e4c4c" stroke="#4d4d4d" stroke-width="0.3"/></g></g></g><g transform="translate(74.35 14.761)"><g transform="translate(0 0)"><g transform="translate(0 0)"><path d="M0,42.78s.017-.08.059-.237l.189-.7L1,39.138c.666-2.375,1.64-5.848,2.877-10.261l.007-.026.024-.011a23.1,23.1,0,0,0,5.764-3.845,23.926,23.926,0,0,0,2.684-2.856A28.156,28.156,0,0,0,14.7,18.657a34.59,34.59,0,0,0,3.365-8.522A41.3,41.3,0,0,0,19.365.112v-.1h.1L61.49,0,115.7.022h.077l.01.077c1.36,11.115,2.22,20.266,2.738,26.635.26,3.184.438,5.673.555,7.366.054.843.1,1.489.125,1.929s.034.66.034.66-.025-.223-.06-.659-.085-1.085-.15-1.927c-.139-1.7-.342-4.18-.6-7.361C117.882,20.376,117,11.229,115.617.12L115.7.2,61.49.218,19.462.206l.1-.1a41.347,41.347,0,0,1-1.318,10.072,34.7,34.7,0,0,1-3.4,8.558,28.249,28.249,0,0,1-2.37,3.5A24.028,24.028,0,0,1,9.765,25.1a23.163,23.163,0,0,1-5.808,3.847l.032-.037L1.059,39.155l-.78,2.7-.2.692C.028,42.7,0,42.78,0,42.78Z" fill="#263238" stroke="#4d4d4d" stroke-width="0.3"/></g></g></g><g transform="translate(199.059 55.551)"><g transform="translate(0 0)"><path d="M0,1.06A6.5,6.5,0,0,1,4.986.141,5.309,5.309,0,0,1,8.767,2.692l-3.689.165Z" transform="translate(0 0)" fill="#263238" stroke="#4d4d4d" stroke-width="0.3"/></g></g><g transform="translate(169.443 56.422)"><g transform="translate(0 0)"><path d="M33.686,1.986S29.968-.28,28.887.029,10.464,14.045,0,19.339a12.426,12.426,0,0,0,3.179.722s4.869-2.464,10.942-6.12c4.62-2.781,9.322-5.7,11.521-7.039Z" transform="translate(0)" fill="#f0f5fd" stroke="#4d4d4d" stroke-width="0.3"/></g></g><g transform="translate(200.838 45.517)"><g transform="translate(0 0)"><g transform="translate(0 0)"><path d="M0,8.4a.854.854,0,0,1,.116-.065l.35-.178,1.367-.68L7,4.942l.016-.007h.019c3.236.1,7.392.177,12.153.006,2.379-.089,4.909-.238,7.545-.474S32.1,3.9,34.909,3.512c4.915-.672,9.553-1.519,13.8-2.2A106.548,106.548,0,0,1,60.081.117C63.339-.047,65.982,0,67.8.042c.912.024,1.619.056,2.1.083l.545.03c.123.008.185.017.185.017s-.063,0-.186,0L69.9.161C69.42.147,68.713.126,67.8.113,65.98.089,63.341.066,60.089.247A109.139,109.139,0,0,0,48.74,1.478c-4.234.689-8.879,1.542-13.8,2.215-2.809.392-5.553.715-8.193.952s-5.174.378-7.558.46c-4.768.159-8.928.067-12.166-.056l.034-.007L1.867,7.531.483,8.185.124,8.35A.8.8,0,0,1,0,8.4Z" fill="#4e4c4c" stroke="#4d4d4d" stroke-width="0.3"/></g></g></g><g transform="translate(75.997 55.068)"><g transform="translate(0 0)"><path d="M105.972,0C79.629,1.176,26.491,2.155.148,3.331a4.435,4.435,0,0,0,1.61,4.7A57.059,57.059,0,0,0,14.52,15.267,98.144,98.144,0,0,0,38.855,20.95c4.692.384,13.275.729,13.275.729s15.715-.626,20.1-1.023a45.367,45.367,0,0,0,15.9-4.329C93.627,13.609,103.182,5.6,103.182,5.6L109.9,0Z" transform="translate(0 0)" fill="#f0f5fd" stroke="#4d4d4d" stroke-width="0.3"/></g></g><g transform="translate(128.138 55.788)"><g transform="translate(0 0)"><path d="M5.97,21.741,11.054,0,1.834.294,0,21.741Z" transform="translate(0 0)" fill="#263238" stroke="#4d4d4d" stroke-width="0.3"/></g></g><g transform="translate(89.582 57.539)"><g transform="translate(0 0)"><path d="M1.253,14.727,2.149,0H.867L0,14.266Z" transform="translate(0 0)" fill="#263238" stroke="#4d4d4d" stroke-width="0.3"/></g></g><g transform="translate(183.266 54.251)"><g transform="translate(0 0)"><path d="M2.746,5.8C2.341,5.262,0,0,0,0L8.9.582Z" transform="translate(0 0)" fill="#263238" stroke="#4d4d4d" stroke-width="0.3"/></g></g><g transform="translate(131.167 55.678)"><g transform="translate(0 0)"><g transform="translate(0 0)"><path d="M0,22.1c-.059-.009.659-4.964,1.6-11.066S3.368-.009,3.428,0s-.659,4.963-1.6,11.066S.063,22.108,0,22.1Z" fill="#455a64" stroke="#4d4d4d" stroke-width="0.3"/></g></g></g><g transform="translate(145.119 56.836)"><g transform="translate(0 0)"><g transform="translate(0 0)"><path d="M0,16.739a.748.748,0,0,1,.1-.18l.316-.49L1.6,14.285C2.609,12.781,4,10.7,5.507,8.392S8.365,3.976,9.339,2.451L10.5.647,10.82.162A.747.747,0,0,1,10.944,0a.707.707,0,0,1-.088.185l-.287.507c-.253.438-.629,1.067-1.1,1.84C8.53,4.079,7.2,6.2,5.69,8.512s-2.921,4.378-3.96,5.86c-.52.741-.945,1.337-1.245,1.745l-.349.467C.053,16.69.007,16.743,0,16.739Z" fill="#263238" stroke="#4d4d4d" stroke-width="0.3"/></g></g></g><g transform="translate(149.009 64.224)"><g transform="translate(0 0)"><g transform="translate(0 0)"><path d="M0,6.059A31.84,31.84,0,0,1,2.074,2.966,31.744,31.744,0,0,1,4.324,0,31.809,31.809,0,0,1,2.251,3.093,31.8,31.8,0,0,1,0,6.059Z" fill="#263238" stroke="#4d4d4d" stroke-width="0.3"/></g></g></g><g transform="translate(3.31 43.409)"><g transform="translate(0 0)"><path d="M0,.011a9.806,9.806,0,0,1,3.834.57A5.062,5.062,0,0,1,6.46,7.376l-.023.047A4.733,4.733,0,0,1,2.285,10.1H1.371a5.8,5.8,0,0,1-.6-2.178C.528,5.924.156,2.895,0,.011Z" fill="#f5f5f5" stroke="#4d4d4d" stroke-width="0.3"/></g></g><path d="M9.51,3.49H2.5C1.12,3.49,0,2.709,0,1.745S1.12,0,2.5,0H9.51c1.382,0,2.5.781,2.5,1.745S10.892,3.49,9.51,3.49Z" transform="translate(140.745 49.412)" fill="#263238" stroke="#4d4d4d" stroke-width="0.3"/><path d="M9.51,3.49H2.5C1.12,3.49,0,2.709,0,1.745S1.12,0,2.5,0H9.51c1.382,0,2.5.781,2.5,1.745S10.892,3.49,9.51,3.49Z" transform="translate(91.429 50.265)" fill="#263238" stroke="#4d4d4d" stroke-width="0.3"/></g><g transform="translate(108.996 58.443)"><g transform="translate(0 0)"><g transform="translate(0 0)"><path d="M0,14.426c-.051-.033,1.96-3.288,4.492-7.271S9.118-.032,9.169,0,7.209,3.288,4.677,7.272.052,14.458,0,14.426Z" fill="#263238" stroke="#4d4d4d" stroke-width="0.3"/></g></g></g><g transform="translate(109.524 63.822)"><g transform="translate(0 0)"><g transform="translate(0 0)"><path d="M0,4.935A19.821,19.821,0,0,1,1.5,2.409,19.851,19.851,0,0,1,3.186,0a19.829,19.829,0,0,1-1.5,2.527A19.913,19.913,0,0,1,0,4.935Z" fill="#263238" stroke="#4d4d4d" stroke-width="0.3"/></g></g></g></g></g></g><g transform="translate(122.164)"><g transform="translate(0 8.421)"><path d="M245.077,118.3h65s-5.748-10.461-22.48-8.938c-15.98,1.454-16.793-5.146-24.918-5.959S247.786,108.82,245.077,118.3Z" transform="translate(-245.077 -103.332)" fill="#fafafa"/></g><g transform="translate(57.483 32.977)"><path d="M362.664,161.665h35.443s-3.134-5.7-12.257-4.874c-8.713.793-9.156-2.806-13.586-3.249S364.141,156.5,362.664,161.665Z" transform="translate(-362.664 -153.503)" fill="#f5f5f5"/></g><g transform="translate(94.118)"><path d="M437.605,94.25h35.443s-3.134-5.7-12.257-4.874c-8.713.793-9.156-2.806-13.587-3.249S439.082,89.081,437.605,94.25Z" transform="translate(-437.605 -86.088)" fill="#fafafa"/></g></g></g></svg>