<svg xmlns="http://www.w3.org/2000/svg" width="26.894" height="14.45" viewBox="0 0 26.894 14.45"><defs><style>.a{fill:#071e54;stroke:rgba(0,0,0,0);opacity:0.5;}</style></defs><path class="a" d="M631.32,1299.761l-4.4-.77a1.331,1.331,0,0,1-.736-.4l-2.953-3.117a3.162,3.162,0,0,0-2.277-.979h-7.5a3.118,3.118,0,0,0-2.122.83l-2.68,2.473a4.506,4.506,0,0,0-1.441,3.295v3.406a1.122,1.122,0,0,0,1.12,1.119h.823l.028.108a2.89,2.89,0,0,0,5.589,0l.029-.108h10.149l.029.108a2.89,2.89,0,0,0,5.589,0l.028-.108h1.391a1.123,1.123,0,0,0,1.119-1.12v-2.643A2.127,2.127,0,0,0,631.32,1299.761Zm-10.366-4.363h1.02c.2,0-.3-.263-.3-.263l3.6,3.8h-5.088l-1.119-3.541Zm-2.824,0,1.117,3.541h-5.393l1.646-3.541Zm-9.1,3.3q.083-.092.171-.179h0l.059-.057,2.68-2.473a2.228,2.228,0,0,1,1.515-.592h1.056l-1.645,3.543h-4.054Zm2.948,8.289h-.145v-.007a1.978,1.978,0,1,1,.145.007Zm15.8,0h-.145v-.007a1.978,1.978,0,1,1,.145.007Zm4.438-2.484a.225.225,0,0,1-.224.225h-1.333l-.017-.125a2.89,2.89,0,0,0-5.728,0l-.017.125H614.862l-.017-.125a2.89,2.89,0,0,0-5.727,0l-.017.125h-.766a.225.225,0,0,1-.224-.225V1301.1a3.573,3.573,0,0,1,.2-1.165l.034-.1,18.266,0c.052.013.105.025.159.034l4.4.77a1.237,1.237,0,0,1,1.049,1.215Z" transform="translate(-606.716 -1294)"/></svg>