<svg xmlns="http://www.w3.org/2000/svg" width="278.862" height="180.598" viewBox="0 0 278.862 180.598"><g transform="translate(0.15)"><g transform="translate(0 98.681)"><g transform="translate(278.561 81.76) rotate(-180)"><g transform="translate(0 0)"><g transform="translate(0 0)"><g transform="translate(0 10.19)"><g transform="translate(0 0)"><path d="M3.511,32.148h0a11.375,11.375,0,0,1-.539-15.881,18.838,18.838,0,0,1,6.754-4.72L32.12,2.254,47.938,0,254.945,1.21l12.971,2.337c6.254,1.127,10.736,6.215,10.644,12.084l-.13,8.3a2.983,2.983,0,0,1-2.254,2.768l-.918.26s-.767,8.139-6.1,9.982c-19.427,7.71-32.29,10.186-64.812,11.437L176.88,63.5s-11.087,6.526-21.421,7.381-33.714.868-44.432.3c-12.583-.667-28.548-5.94-37.451-10.006C66.6,57.989,49.819,50.119,49.819,50.119l-9.494-1.465c-1.428-.062-27.647-1.534-30.659-1.96A5.92,5.92,0,0,1,4.9,42.922c-.753-2.293-1.385-10.709-1.385-10.709" transform="translate(0 0)" fill="#99a9d2" stroke="#4d4d4d" stroke-width="0.3"/></g></g><g transform="translate(74.032 54.016)"><g transform="translate(0 0)"><path d="M12.987,16.908c4.121,2.061,15.177,4.9,21.359,6.062s18.747,1.319,23.769,1.19,18.969-.367,26.322-2.456a51.474,51.474,0,0,0,13.444-6.858c1.244-.915,6.647-5.149,7.855-6.111L115.095,0,.1,3.63S-.561,7.637,1.507,9.947,12.987,16.908,12.987,16.908Z" fill="#263238" stroke="#4d4d4d" stroke-width="0.3"/></g></g><g transform="translate(262.479 37.642)"><g transform="translate(0 0)"><g transform="translate(0 0)"><g transform="translate(0 0)"><g transform="translate(0 0)"><path d="M7.154,0l5.817.084c-.226,1.568-1,5.74-3.481,8.076l-7.7-.11A1.811,1.811,0,0,1,.271,5.291l1.4-2.279A6.327,6.327,0,0,1,7.154,0Z" fill="#fafafa" stroke="#4d4d4d" stroke-width="0.3"/></g></g></g></g><g transform="translate(0 0.033)"><g transform="translate(0 0)"><g transform="translate(0 0)"><path d="M6.449.317c-.6,2.564-1.367,5.929-3.528,7.718L1.788,8.018A1.811,1.811,0,0,1,.271,5.258l1.4-2.278A6.318,6.318,0,0,1,6.527,0C6.5.106,6.474.209,6.449.317Z" fill="#e0e0e0" stroke="#4d4d4d" stroke-width="0.3"/></g></g></g></g><g transform="translate(39.594 10.136)"><g transform="translate(171.452 0.912)" opacity="0.7"><g transform="translate(0 0)"><g transform="translate(0 0)"><path d="M.589,0a28.706,28.706,0,0,0-.4,9.1c1.5,12.914,9.963,22.208,22.737,22.392,11.116.16,20.3-6.786,22.177-19.652A33.1,33.1,0,0,0,44.719.3Z" stroke="#4d4d4d" stroke-width="0.3"/></g></g></g><g transform="translate(-9 0)" opacity="0.7"><g transform="translate(0 0)"><path d="M0,2.254c.018.476.058.96.065,1.466C.292,20.018,11.224,31.309,24.229,31.5A21.574,21.574,0,0,0,46.086,10.26a68.167,68.167,0,0,0-.2-10.049L14.569,0Z" stroke="#4d4d4d" stroke-width="0.3"/></g></g></g><g transform="translate(35.357 1.309)"><g transform="translate(0 0)"><g transform="translate(0 0)"><path d="M37.55,19.047a18.776,18.776,0,1,0-19.045,18.5A18.777,18.777,0,0,0,37.55,19.047Z" fill="#676767" stroke="#4d4d4d" stroke-width="0.3"/></g></g><g transform="translate(0.002 0)"><g transform="translate(0 0)"><g transform="translate(0 0)"><path d="M37.545,19.1c0-.016,0-.032,0-.048A18.776,18.776,0,1,0,0,18.506c0,.016,0,.032,0,.048Z" fill="#676767" stroke="#4d4d4d" stroke-width="0.3"/></g></g></g><g transform="translate(5.594 5.594)"><g transform="translate(0 0)"><path d="M26.363,13.372A13.182,13.182,0,1,0,12.993,26.363,13.182,13.182,0,0,0,26.363,13.372Z" fill="#fafafa" stroke="#4d4d4d" stroke-width="0.3"/></g></g><g transform="translate(5.594 18.586)"><g transform="translate(0 0)"><g transform="translate(0)"><path d="M12.993,13.371A13.182,13.182,0,0,0,26.363.38L0,0A13.183,13.183,0,0,0,12.993,13.371Z" fill="#e0e0e0" stroke="#4d4d4d" stroke-width="0.3"/></g></g></g><g transform="translate(10.746 10.746)"><g transform="translate(0 0)"><g transform="translate(0 0)"><path d="M16.059,8.146a8.03,8.03,0,1,0-8.144,7.913A8.029,8.029,0,0,0,16.059,8.146Z" fill="#2f2f2f" stroke="#4d4d4d" stroke-width="0.3"/></g></g></g></g><g transform="translate(214.844 0)"><g transform="translate(0 0)"><g transform="translate(0 0)"><ellipse cx="18.776" cy="18.776" rx="18.776" ry="18.776" transform="translate(39.201 37.515) rotate(177.426)" fill="#676767" stroke="#4d4d4d" stroke-width="0.3"/></g></g><g transform="translate(0.826 0.825)"><g transform="translate(0 0)"><g transform="translate(0 0)"><path d="M37.545,19.1c0-.016,0-.032,0-.048A18.776,18.776,0,0,0,0,18.505c0,.016,0,.032,0,.049Z" fill="#676767" stroke="#4d4d4d" stroke-width="0.3"/></g></g></g><g transform="translate(6.418 6.418)"><g transform="translate(0 0)"><path d="M26.363,13.372a13.182,13.182,0,1,0-13.371,12.99A13.182,13.182,0,0,0,26.363,13.372Z" fill="#fafafa" stroke="#4d4d4d" stroke-width="0.3"/></g></g><g transform="translate(6.418 19.411)"><g transform="translate(0 0)"><g transform="translate(0 0)"><path d="M12.992,13.371A13.182,13.182,0,0,0,26.363.38L0,0A13.182,13.182,0,0,0,12.992,13.371Z" fill="#e0e0e0" stroke="#4d4d4d" stroke-width="0.3"/></g></g></g><g transform="translate(11.57 11.571)"><g transform="translate(0 0)"><g transform="translate(0 0)"><path d="M16.059,8.146a8.03,8.03,0,1,0-8.145,7.913A8.03,8.03,0,0,0,16.059,8.146Z" fill="#2f2f2f" stroke="#4d4d4d" stroke-width="0.3"/></g></g></g></g><g transform="translate(270.765 20.129)" opacity="0.4"><g transform="translate(0 0)"><g transform="translate(0 0)"><path d="M0,3.775C.031,1.672,1.1-.019,2.378,0s2.3,1.739,2.267,3.842-1.1,3.794-2.377,3.776S-.03,5.879,0,3.775Z" stroke="#4d4d4d" stroke-width="0.3"/></g></g></g><g transform="translate(3.234 30.87)"><g transform="translate(0 0)"><g transform="translate(0 0)"><path d="M0,11.468a1.837,1.837,0,0,1,.362-.031L1.4,11.4c.9-.023,2.207-.05,3.818-.116s3.529-.154,5.652-.325a47.777,47.777,0,0,0,6.838-1.008A17.35,17.35,0,0,0,21.073,8.79a14.2,14.2,0,0,0,2.768-1.818,43.9,43.9,0,0,0,4.1-3.889A16.822,16.822,0,0,1,30.883.636a7.937,7.937,0,0,1,.917-.5A1.808,1.808,0,0,1,32.136,0c.013.027-.447.226-1.2.722a18.159,18.159,0,0,0-2.866,2.494A41.38,41.38,0,0,1,24,7.165a14.254,14.254,0,0,1-2.807,1.861,17.4,17.4,0,0,1-3.415,1.186,45.982,45.982,0,0,1-6.882.993c-2.13.159-4.052.238-5.666.269s-2.92.04-3.823.031l-1.04-.014A1.859,1.859,0,0,1,0,11.468Z" fill="#263238" stroke="#4d4d4d" stroke-width="0.3"/></g></g></g><g transform="translate(74.861 15.925)"><g transform="translate(3.108 0)"><g transform="translate(0.117 0)"><g transform="translate(0 0)"><g transform="translate(0 0)"><path d="M0,0" transform="translate(0 0)" fill="#fff" stroke="#4d4d4d" stroke-miterlimit="10" stroke-width="0.3"/></g></g></g></g></g><g transform="translate(256.607 22.892)"><g transform="translate(0 0)"><g transform="translate(0 0)"><path d="M0,0A8.921,8.921,0,0,1,.607.717,13.665,13.665,0,0,0,2.428,2.49,17.817,17.817,0,0,0,9.989,5.945a34.994,34.994,0,0,0,8.38.537c1.079-.041,1.952-.092,2.556-.124a6.475,6.475,0,0,1,.94-.025.843.843,0,0,1-.24.047l-.692.082c-.6.064-1.474.144-2.555.21a32.417,32.417,0,0,1-8.445-.464A17.3,17.3,0,0,1,2.307,2.636,11.992,11.992,0,0,1,.526.782C.334.547.214.342.123.212A.842.842,0,0,1,0,0Z" fill="#4e4c4c" stroke="#4d4d4d" stroke-width="0.3"/></g></g></g><g transform="translate(255.012 36.816)"><g transform="translate(0 0)"><g transform="translate(0 0)"><path d="M0,.053c0-.074,4.483-.07,10.01.01s10.009.2,10.007.279-4.482.07-10.011-.01S0,.127,0,.053Z" fill="#4e4c4c" stroke="#4d4d4d" stroke-width="0.3"/></g></g></g><g transform="translate(74.467 14.788)"><g transform="translate(0 0)"><path d="M0,42.858s.017-.081.059-.238l.189-.7L1,39.209c.667-2.379,1.643-5.858,2.883-10.28L3.89,28.9l.024-.011a23.142,23.142,0,0,0,5.774-3.852,23.97,23.97,0,0,0,2.689-2.861A28.207,28.207,0,0,0,14.73,18.69,34.653,34.653,0,0,0,18.1,10.153,41.374,41.374,0,0,0,19.4.112v-.1h.1L61.6,0l54.311.022h.078L116,.1c1.362,11.135,2.224,20.3,2.743,26.683.261,3.19.439,5.684.556,7.379.055.845.1,1.492.125,1.933s.034.661.034.661-.025-.224-.06-.66-.085-1.087-.15-1.931c-.139-1.7-.343-4.188-.6-7.375-.548-6.377-1.435-15.54-2.818-26.67l.087.077L61.6.219,19.5.206l.1-.1a41.422,41.422,0,0,1-1.32,10.09,34.758,34.758,0,0,1-3.4,8.574,28.3,28.3,0,0,1-2.374,3.5,24.072,24.072,0,0,1-2.713,2.871A23.2,23.2,0,0,1,3.965,29L4,28.961,1.061,39.226.279,41.931l-.2.693C.028,42.78,0,42.858,0,42.858Z" fill="#263238" stroke="#4d4d4d" stroke-width="0.3"/></g></g><g transform="translate(199.391 55.652)"><g transform="translate(0 0)"><path d="M0,1.062A6.511,6.511,0,0,1,5,.141,5.318,5.318,0,0,1,8.783,2.7l-3.7.165Z" transform="translate(0 0)" fill="#263238" stroke="#4d4d4d" stroke-width="0.3"/></g></g><g transform="translate(169.723 56.525)"><g transform="translate(0 0)"><path d="M33.747,1.99S30.023-.28,28.94.029,10.483,14.071,0,19.374a12.448,12.448,0,0,0,3.185.723s4.878-2.469,10.962-6.131c4.629-2.786,9.339-5.706,11.542-7.052Z" transform="translate(0 0)" fill="#f0f5fd" stroke="#4d4d4d" stroke-width="0.3"/></g></g><g transform="translate(201.163 45.599)"><g transform="translate(0 0)"><g transform="translate(0 0)"><path d="M0,8.416a.856.856,0,0,1,.116-.065l.351-.179,1.37-.682L7.01,4.951l.016-.007h.019c3.242.1,7.406.177,12.175.006,2.384-.089,4.918-.238,7.558-.475s5.384-.565,8.2-.957C39.9,2.845,44.543,2,48.794,1.314a106.742,106.742,0,0,1,11.4-1.2C63.454-.047,66.1,0,67.927.042c.913.024,1.622.057,2.1.083l.546.03c.123.008.186.017.186.017s-.063,0-.186,0L70.026.162c-.48-.014-1.189-.035-2.1-.048C66.1.089,63.456.067,60.2.247a109.337,109.337,0,0,0-11.37,1.233c-4.242.691-8.9,1.545-13.823,2.219-2.814.393-5.563.717-8.208.954s-5.184.378-7.571.461c-4.777.159-8.944.067-12.188-.056l.034-.007-5.2,2.493L.484,8.2l-.359.165A.8.8,0,0,1,0,8.416Z" fill="#4e4c4c" stroke="#4d4d4d" stroke-width="0.3"/></g></g></g><g transform="translate(76.117 55.169)"><g transform="translate(0 0)"><path d="M106.165,0C79.773,1.179,26.539,2.159.148,3.338a4.443,4.443,0,0,0,1.613,4.71,57.163,57.163,0,0,0,12.785,7.247,98.322,98.322,0,0,0,24.38,5.694c4.7.384,13.3.73,13.3.73s15.744-.627,20.137-1.025a45.45,45.45,0,0,0,15.932-4.337c5.5-2.723,15.075-10.742,15.075-10.742L110.1,0Z" transform="translate(0 0)" fill="#f0f5fd" stroke="#4d4d4d" stroke-width="0.3"/></g></g><g transform="translate(128.352 55.889)"><g transform="translate(0 0)"><path d="M5.98,21.78,11.074,0,1.837.294,0,21.78Z" fill="#263238" stroke="#4d4d4d" stroke-width="0.3"/></g></g><g transform="translate(89.732 57.643)"><g transform="translate(0 0)"><path d="M1.255,14.754,2.153,0H.869L0,14.292Z" transform="translate(0 0)" fill="#263238" stroke="#4d4d4d" stroke-width="0.3"/></g></g><g transform="translate(183.572 54.349)"><g transform="translate(0 0)"><path d="M2.751,5.815C2.345,5.272,0,0,0,0L8.914.583Z" transform="translate(0 0)" fill="#263238" stroke="#4d4d4d" stroke-width="0.3"/></g></g><g transform="translate(131.386 55.779)"><g transform="translate(0 0)"><g transform="translate(0 0)"><path d="M0,22.139c-.06-.009.66-4.973,1.607-11.086S3.375-.009,3.435,0s-.66,4.972-1.607,11.087S.063,22.148,0,22.139Z" fill="#455a64" stroke="#4d4d4d" stroke-width="0.3"/></g></g></g><g transform="translate(145.361 56.939)"><g transform="translate(0 0)"><g transform="translate(0 0)"><path d="M0,16.769a.749.749,0,0,1,.1-.18L.415,16.1l1.19-1.787C2.613,12.8,4,10.722,5.517,8.408S8.381,3.983,9.356,2.455L10.516.649l.323-.486A.748.748,0,0,1,10.964,0a.708.708,0,0,1-.088.185l-.288.508c-.254.439-.63,1.069-1.1,1.844C8.545,4.087,7.215,6.21,5.7,8.527S2.774,12.913,1.732,14.4c-.52.742-.947,1.34-1.247,1.749l-.35.468C.053,16.72.007,16.773,0,16.769Z" fill="#263238" stroke="#4d4d4d" stroke-width="0.3"/></g></g></g><g transform="translate(149.258 64.341)"><g transform="translate(0 0)"><g transform="translate(0 0)"><path d="M0,6.07a31.9,31.9,0,0,1,2.076-3.1A31.8,31.8,0,0,1,4.332,0,31.866,31.866,0,0,1,2.255,3.1,31.855,31.855,0,0,1,0,6.07Z" fill="#263238" stroke="#4d4d4d" stroke-width="0.3"/></g></g></g><g transform="translate(3.316 43.488)"><g transform="translate(0 0)"><path d="M0,.011A9.824,9.824,0,0,1,3.841.582,5.071,5.071,0,0,1,6.472,7.389l-.023.047A4.742,4.742,0,0,1,2.29,10.122H1.374a5.813,5.813,0,0,1-.6-2.182C.529,5.935.156,2.9,0,.011Z" fill="#f5f5f5" stroke="#4d4d4d" stroke-width="0.3"/></g></g><path d="M9.527,3.5H2.507C1.122,3.5,0,2.714,0,1.748S1.122,0,2.507,0h7.02c1.385,0,2.507.783,2.507,1.748S10.912,3.5,9.527,3.5Z" transform="translate(140.98 49.501)" fill="#263238" stroke="#4d4d4d" stroke-width="0.3"/><path d="M9.527,3.5H2.507C1.122,3.5,0,2.714,0,1.748S1.122,0,2.507,0h7.02c1.385,0,2.507.783,2.507,1.748S10.912,3.5,9.527,3.5Z" transform="translate(91.582 50.357)" fill="#263238" stroke="#4d4d4d" stroke-width="0.3"/></g><g transform="translate(109.178 58.549)"><g transform="translate(0 0)"><g transform="translate(0 0)"><path d="M0,14.452c-.051-.033,1.964-3.294,4.5-7.284S9.135-.032,9.186,0s-1.964,3.293-4.5,7.285S.052,14.484,0,14.452Z" transform="translate(0 0)" fill="#263238" stroke="#4d4d4d" stroke-width="0.3"/></g></g></g><g transform="translate(109.707 63.938)"><g transform="translate(0 0)"><path d="M0,4.944a19.857,19.857,0,0,1,1.5-2.531A19.887,19.887,0,0,1,3.192,0a19.866,19.866,0,0,1-1.5,2.531A19.949,19.949,0,0,1,0,4.944Z" fill="#263238" stroke="#4d4d4d" stroke-width="0.3"/></g></g></g></g></g><g transform="translate(122.346)"><g transform="translate(0 8.436)"><path d="M245.077,118.326H310.2s-5.759-10.48-22.521-8.954c-16.01,1.457-16.823-5.155-24.964-5.969S247.79,108.83,245.077,118.326Z" transform="translate(-245.077 -103.332)" fill="#fafafa"/></g><g transform="translate(57.587 33.037)"><path d="M362.664,161.68h35.508s-3.14-5.714-12.28-4.882c-8.729.795-9.173-2.811-13.611-3.255S364.144,156.5,362.664,161.68Z" transform="translate(-362.664 -153.503)" fill="#f5f5f5"/></g><g transform="translate(94.289)"><path d="M437.6,94.265h35.508s-3.14-5.714-12.28-4.882c-8.729.795-9.173-2.811-13.612-3.255S439.085,89.086,437.6,94.265Z" transform="translate(-437.605 -86.088)" fill="#fafafa"/></g></g></g></svg>