<svg id="Layer_1" data-name="Layer 1" xmlns="http://www.w3.org/2000/svg" viewBox="0 0 74.18 60.3"><defs><style>.cls-1{opacity:0.5;}.cls-2{fill:#071e54;}</style></defs><g id="Group_14349" data-name="Group 14349" class="cls-1"><path class="cls-2" d="M15.67,13.91a1.63,1.63,0,0,0-1.59,1.6,1.66,1.66,0,0,0,1.61,1.59h28a1.55,1.55,0,0,0,1.12-.44,1.54,1.54,0,0,0,.47-1.1,1.62,1.62,0,0,0-1.6-1.65Z" transform="translate(-1.9 -1.9)"/><path class="cls-2" d="M14.08,39.69h0a1.54,1.54,0,0,0,.45,1.11,1.51,1.51,0,0,0,1.09.47H39.06l.54-3.11h-24A1.54,1.54,0,0,0,14.08,39.69Z" transform="translate(-1.9 -1.9)"/><g id="Group_14348" data-name="Group 14348"><path class="cls-2" d="M54,1.9H5.23A3.33,3.33,0,0,0,1.9,5.21V58.78a3.39,3.39,0,0,0,1.86,3,3.29,3.29,0,0,0,1.5.37,3.72,3.72,0,0,0,2.06-.7L16.77,54H54a3.39,3.39,0,0,0,3.35-3.36V44.33L55.83,46a6.07,6.07,0,0,1-1.59,1.19V50.9H17.09a3.43,3.43,0,0,0-2.05.68L5,59.36V5H54.24V18.65l3.11-3.51V5.25A3.4,3.4,0,0,0,54,1.9Z" transform="translate(-1.9 -1.9)"/><g id="noun_edit_3647585" data-name="noun edit 3647585"><path id="Path_4790" data-name="Path 4790" class="cls-2" d="M61.77,21.54,47.76,37l-.94,5.13,4.89-1.56,14-15.51Zm6.83,4.33L53.45,42.63a1.38,1.38,0,0,1-.58.37l-7.35,2.34a1.31,1.31,0,0,1-1.67-.85,1.43,1.43,0,0,1-.05-.65l1.41-7.66a1.25,1.25,0,0,1,.32-.65L60.69,18.78a1.33,1.33,0,0,1,1.88-.1L68.51,24a1.33,1.33,0,0,1,.09,1.87Zm.3-12.22-2.67,3,4,3.55,2.67-3ZM75.73,18l-4.45,4.93a1.34,1.34,0,0,1-1.88.1l-5.94-5.33a1.32,1.32,0,0,1-.11-1.86h0l4.46-4.93a1.33,1.33,0,0,1,1.88-.09l5.94,5.32a1.31,1.31,0,0,1,.1,1.86Z" transform="translate(-1.9 -1.9)"/></g></g><path class="cls-2" d="M15.67,26.14a1.63,1.63,0,0,0-1.59,1.6,1.66,1.66,0,0,0,1.61,1.59h28a1.55,1.55,0,0,0,1.12-.44,1.52,1.52,0,0,0,.47-1.1,1.63,1.63,0,0,0-1.6-1.65Z" transform="translate(-1.9 -1.9)"/></g></svg>