<svg xmlns="http://www.w3.org/2000/svg" width="53.632" height="64.383" viewBox="0 0 53.632 64.383"><defs><style>.a{opacity:0.5;}.b{fill:#071e54;}</style></defs><g class="a"><g transform="translate(0 0)"><path class="b" d="M35.415,64.383a1.02,1.02,0,0,1-.564-.17l-8.038-5.358-8.031,5.352a1.02,1.02,0,0,1-1.129,0L9.615,58.854,1.584,64.206A1.02,1.02,0,0,1,0,63.363V1.02A1.02,1.02,0,0,1,1.02,0H52.612a1.02,1.02,0,0,1,1.02,1.02V63.363a1.02,1.02,0,0,1-1.584.85L44.01,58.854l-8.031,5.352A1.02,1.02,0,0,1,35.415,64.383Zm-8.6-7.772a1.02,1.02,0,0,1,.564.17l8.031,5.358,8.038-5.358a1.02,1.02,0,0,1,1.129,0l7.011,4.678V2.04H2.04V61.452L9.051,56.78a1.02,1.02,0,0,1,1.129,0l8.031,5.358,8.038-5.358a1.02,1.02,0,0,1,.564-.17Z" transform="translate(0 0)"/><path class="b" d="M31.532,26.8H15.77a1.02,1.02,0,1,1,0-2.04H31.532a1.02,1.02,0,1,1,0,2.04Z" transform="translate(-4.72 -7.923)"/><path class="b" d="M59.442,26.8H53.71a1.02,1.02,0,0,1,0-2.04h5.732a1.02,1.02,0,0,1,0,2.04Z" transform="translate(-16.861 -7.923)"/><path class="b" d="M31.532,41.56H15.77a1.02,1.02,0,1,1,0-2.04H31.532a1.02,1.02,0,1,1,0,2.04Z" transform="translate(-4.72 -12.646)"/><path class="b" d="M59.442,41.56H53.71a1.02,1.02,0,0,1,0-2.04h5.732a1.02,1.02,0,0,1,0,2.04Z" transform="translate(-16.861 -12.646)"/><path class="b" d="M31.532,56.31H15.77a1.02,1.02,0,0,1,0-2.04H31.532a1.02,1.02,0,1,1,0,2.04Z" transform="translate(-4.72 -17.366)"/><path class="b" d="M59.442,56.31H53.71a1.02,1.02,0,0,1,0-2.04h5.732a1.02,1.02,0,0,1,0,2.04Z" transform="translate(-16.861 -17.366)"/></g></g></svg>