<svg xmlns="http://www.w3.org/2000/svg" width="59.892" height="59.732" viewBox="0 0 59.892 59.732"><defs><style>.a{opacity:0.5;}.b{fill:#071e54;stroke:#071e54;stroke-miterlimit:10;stroke-width:0.3px;}</style></defs><g class="a" transform="translate(0.15 0.15)"><path class="b" d="M65.661,59.3,42.648,36.29l3.06-3.06.073.073h0a3.771,3.771,0,1,0,5.335-5.33l-12.5-12.5a3.771,3.771,0,1,0-5.33,5.335l.074.073L21.852,32.336l-.073-.073a3.771,3.771,0,1,0-5.335,5.33l12.5,12.5a3.771,3.771,0,1,0,5.335-5.33l-.074-.073,3.06-3.06L60.279,64.644a3.792,3.792,0,0,0,5.361-5.361ZM34.734,16.938a1.679,1.679,0,0,1,2.375,0l12.5,12.5a1.679,1.679,0,1,1-2.375,2.375L46.424,31h0L42.972,27.55,34.734,19.3a1.684,1.684,0,0,1,0-2.375ZM32.8,48.624a1.726,1.726,0,0,1-2.375,0l-12.5-12.5A1.679,1.679,0,1,1,20.3,33.748l.811.826h0L31.988,45.428h0l.811.811a1.679,1.679,0,0,1,0,2.38ZM23.327,33.811,34.807,22.336l6.407,6.407,2.992,2.992-3.8,3.8h0l-1.114,1.135L32.726,43.21ZM64.181,63.185a1.705,1.705,0,0,1-2.406,0L38.761,40.171l2.406-2.406L64.181,60.779a1.71,1.71,0,0,1,0,2.406Z" transform="translate(-7.317 -14.37)"/><path class="b" d="M37.732,112.78a5.058,5.058,0,0,0-4.958-4.09H9.1a5.058,5.058,0,0,0-4.958,4.09A5.058,5.058,0,0,0,0,117.744a1.046,1.046,0,0,0,1.046,1.046H40.828a1.046,1.046,0,0,0,1.046-1.046A5.058,5.058,0,0,0,37.732,112.78Zm-28.631-2H32.773A2.96,2.96,0,0,1,35.54,112.7H6.334A2.96,2.96,0,0,1,9.1,110.782ZM2.286,116.7a2.966,2.966,0,0,1,2.767-1.914H36.822a2.966,2.966,0,0,1,2.767,1.914Z" transform="translate(0 -59.357)"/></g></svg>