<svg id="Layer_1" data-name="Layer 1" xmlns="http://www.w3.org/2000/svg" viewBox="0 0 19.7 31.26"><defs><style>.cls-1{opacity:0.5;}.cls-2{fill:#2b3d67;}</style></defs><g class="cls-1"><path class="cls-2" d="M16.58,19.15l-6.5-2.26a.76.76,0,0,0-.47,0L4.94,18.52a.68.68,0,0,0-.4.36.69.69,0,0,0,0,.53.68.68,0,0,0,.36.4.7.7,0,0,0,.53,0l4.45-1.55,5.75,2a13.17,13.17,0,0,1-5.75,9.42,13,13,0,0,1-5-6.24,12,12,0,0,1-.83-3.68.71.71,0,0,0-1.21-.47.66.66,0,0,0-.19.51A13.46,13.46,0,0,0,3.56,24a14.54,14.54,0,0,0,5.92,7.2.72.72,0,0,0,.37.11.7.7,0,0,0,.37-.11A14.54,14.54,0,0,0,16.14,24a13.47,13.47,0,0,0,.92-4.12A.71.71,0,0,0,16.58,19.15Z" transform="translate(0 0)"/><path class="cls-2" d="M9.35,26.06a.7.7,0,0,0,.5-.21L13,22.74a.71.71,0,0,0,0-1h0a.71.71,0,0,0-1,0L9.35,24.37,7.87,22.88a.71.71,0,0,0-1,0,.72.72,0,0,0,0,1l2,2A.68.68,0,0,0,9.35,26.06Z" transform="translate(0 0)"/><path class="cls-2" d="M18,15.3l-3.65-1.83a.73.73,0,0,1-.41-.66V11.16a5.51,5.51,0,0,0,1.44-3.72V4.55C15.36,2,12.89,0,9.85,0S4.33,2,4.33,4.55V7.44a5.56,5.56,0,0,0,1.45,3.72v1.65a.73.73,0,0,1-.41.66L1.72,15.3A3.06,3.06,0,0,0,0,18.08v2.84a1.66,1.66,0,0,0,1.66,1.66.7.7,0,0,0,.7-.7.71.71,0,0,0-.7-.7.26.26,0,0,1-.26-.26V18.08a1.69,1.69,0,0,1,.94-1.53L6,14.73a2.13,2.13,0,0,0,1.19-1.92v-.55a.66.66,0,0,0,.44,0A.7.7,0,0,0,8,12a.7.7,0,0,0-.25-1A4.15,4.15,0,0,1,5.73,7.44V4.55c0-1.74,1.85-3.15,4.12-3.15S14,2.81,14,4.55V7.44A4.12,4.12,0,0,1,11.9,11a.71.71,0,0,0-.25,1,.7.7,0,0,0,.87.3v.55a2.12,2.12,0,0,0,1.18,1.92l3.65,1.82a1.66,1.66,0,0,1,.94,1.53v2.84a.26.26,0,0,1-.26.26.71.71,0,0,0-.7.7.69.69,0,0,0,.21.5.68.68,0,0,0,.49.2,1.67,1.67,0,0,0,1.67-1.66V18.08A3.12,3.12,0,0,0,18,15.3Z" transform="translate(0 0)"/></g></svg>