<svg xmlns="http://www.w3.org/2000/svg" width="267.185" height="179.818" viewBox="0 0 267.185 179.818"><g transform="translate(0.185 -27.259)"><g transform="translate(-3121.801 -2635.256)" opacity="0.8"><path d="M170.748,86.719V1.82h12.1v84.9Zm-86.095,0H2.344V1.82h168.4v84.9Zm86.095-84.9V0h13.828V1.82ZM0,1.82V0H170.748V1.82Z" transform="translate(3122.115 2709.2)" fill="#e5e7ed" stroke="rgba(0,0,0,0)" stroke-miterlimit="10" stroke-width="1"/><g transform="translate(3139.459 2692.196)"><rect width="27.437" height="16.593" transform="translate(0 0)" fill="#e5e7ed" stroke="rgba(0,0,0,0)" stroke-width="1"/><rect width="6.76" height="16.593" transform="translate(34.196 16.593) rotate(180)" fill="#e5e7ed" stroke="rgba(0,0,0,0)" stroke-width="1"/><path d="M362.7,232.989H359.04v-3.656h-3.168v3.656h-3.656v3.168h3.656v3.656h3.168v-3.656H362.7Z" transform="translate(-343.738 -226.277)" fill="#eff0f3" stroke="rgba(0,0,0,0)" stroke-width="1"/></g><g transform="translate(3122.115 2708.893)"><rect width="170.748" height="1.819" transform="translate(0.183 0)" fill="#e5e7ed"/><rect width="13.828" height="1.819" transform="translate(184.759 1.819) rotate(180)" fill="#e5e7ed"/><rect width="168.405" height="84.9" transform="translate(0 1.469)" fill="#e5e7ed" stroke="rgba(0,0,0,0)" stroke-width="1"/><rect width="0.946" height="84.9" transform="translate(39.352 1.819)" fill="#e5e7ed"/><rect width="0.946" height="67.636" transform="translate(83.891 19.083)" fill="#e5e7ed"/><rect width="0.946" height="37.298" transform="translate(39.825 68.983) rotate(90)" fill="#e5e7ed"/><rect width="0.946" height="37.298" transform="translate(39.825 52.192) rotate(90)" fill="#e5e7ed"/><rect width="0.946" height="37.298" transform="translate(39.825 35.402) rotate(90)" fill="#e5e7ed"/><rect width="0.946" height="168.405" transform="translate(170.931 18.61) rotate(90)" fill="#e5e7ed"/><rect width="14.424" height="84.9" transform="translate(183.032 86.719) rotate(180)" fill="#e5e7ed"/></g></g><g transform="translate(-1596 -860.327)"><g transform="translate(1887.822 887.721)"><g transform="translate(-74.51 0.369)"><g transform="translate(0 0)"><g transform="translate(0 0)"><path d="M534.392,150.716l-22.574-13.584-22.574,13.584L489,150.31l22.819-13.731,22.819,13.731Z" transform="translate(-486.895 -136.322)" fill="#4e4c4c"/><path d="M534.973,137.157a1.1,1.1,0,1,1-1.1-1.1A1.1,1.1,0,0,1,534.973,137.157Z" transform="translate(-508.954 -136.061)" fill="#575756"/><g transform="translate(0 12.788)"><rect width="45.393" height="54.15" transform="translate(2.227 2.805)" fill="#e6e8ee"/><path d="M0,0H49.688V2.805H0Z" transform="translate(0 56.956)" fill="#e6e8ee"/><rect width="49.688" height="2.805" fill="#e6e8ee"/></g></g></g><g transform="translate(17.382 24.906)"><path d="M366.45,322.328h2.507l.279-10.2-3.249-3.348-1.165,2.9v1.864l1.165,1.733Z" transform="translate(-363.883 -287.364)" fill="#f6f7f8"/><path d="M375.749,292.664a1.941,1.941,0,0,1-1.213-1.345l-1.031-4.061h-7.8l.087,5.143a5.321,5.321,0,0,1-.883,3.086,7.488,7.488,0,0,0-1.178,2.647,8.5,8.5,0,0,0,1.1,4.594l1.829.092,2.312.119,3.767-2.282,4.449.22.866.044a3.161,3.161,0,0,0,1.4-1.864,9.362,9.362,0,0,0-.145-4.479A13.069,13.069,0,0,0,375.749,292.664Z" transform="translate(-363.726 -287.258)" fill="#f6f7f8"/><path d="M365.522,309.506l2.352,2.475a7.466,7.466,0,0,1,1.3,1.851,7.635,7.635,0,0,1,.774,2.743l.446,5.061h7.425l.165-8.785a17.639,17.639,0,0,1,2.33-7.029l-.7-1.627-2.189-.083-3.926-.154-3.965,2.356-1.626-.061-.787-.062-1.772-.136-.523,1.393a3.113,3.113,0,0,0,.629,1.974A.654.654,0,0,0,365.522,309.506Z" transform="translate(-363.883 -286.672)" fill="#f6f7f8"/></g></g></g><g transform="translate(41.553)"><path d="M506.929,454.982v.786H527.9a12.5,12.5,0,0,0,0-6.169l-1.111-.225,1.1.219a11.012,11.012,0,0,0-4.7-2.736,14.33,14.33,0,0,0-5.245-.44c-1.2,1.956-6.188,3.691-8.515,4.723A4.211,4.211,0,0,0,506.929,454.982Z" transform="translate(1187.542 609.079)" fill="#292949" stroke="#263238" stroke-linecap="round" stroke-linejoin="round" stroke-width="0.5"/><path d="M0,8.975v.818H21.805a13,13,0,0,0,0-6.416L20.65,3.143,21.8,3.37A11.452,11.452,0,0,0,16.913.525,14.9,14.9,0,0,0,11.459.068C10.209,2.1,5.023,3.907,2.6,4.979A4.379,4.379,0,0,0,0,8.975Z" transform="translate(1669.315 1047.628) rotate(11)" fill="#292949" stroke="#263238" stroke-linecap="round" stroke-linejoin="round" stroke-width="0.5"/><g transform="translate(1674.822 887.721)"><g transform="translate(0 0)"><path d="M6.081,65.37l-.022-.009a1.131,1.131,0,0,1-.584-1.49l2.669-6.115-.007,0L4.892,64.52a1.132,1.132,0,0,1-1.509.532l-.02-.01a1.133,1.133,0,0,1-.532-1.511l2.724-5.678L2.617,62.675a1.131,1.131,0,0,1-1.555.378l-.02-.012a1.131,1.131,0,0,1-.377-1.555l3.278-5.381h0L5.269,53.04h0a7.489,7.489,0,0,1-2.514,2.085C.105,56.819-.613,54.185.513,53.636a8.674,8.674,0,0,0,3.1-2.612c.77-1.227,1.856-2.331,2.679-2.471a4.44,4.44,0,0,1,2.585-.135l.06-.124,4.583-19.779a5.131,5.131,0,0,1-.369-2.1l.226-7.5.415-13.8A5.25,5.25,0,0,1,16.852.5,4.476,4.476,0,0,1,18.111.095h.007A4.6,4.6,0,0,1,19.241,0l.106.008A5.284,5.284,0,0,1,21.8.7a.189.189,0,0,1,.038.023A5.272,5.272,0,0,1,23.592,2.4a5.208,5.208,0,0,1,.867,3.046L24.052,18.9l-.2,6.951v.007A5.283,5.283,0,0,1,24.029,30c-1.154,3.023-2.2,5.677-3.212,8.089C20.3,39.3,19.8,40.451,19.3,41.558a78.2,78.2,0,0,1-4.35,8.263c-.294.475-.588.958-.9,1.44l0,0,0,0a3.282,3.282,0,0,1,.069,2.907L12.694,58l-1.868,5.53a1.006,1.006,0,0,1-1.274.631l-.019-.007A1,1,0,0,1,8.9,62.88l1.567-4.641-.038-.006-2.86,6.553a1.129,1.129,0,0,1-1.49.584Z" transform="translate(0 30.946)" fill="#fff" stroke="#4e4c4c" stroke-linecap="round" stroke-linejoin="round" stroke-width="0.3"/><path d="M5,92.489,4.057,82.471,2.564,66.5l-.791-8.383-.415-4.456a6.088,6.088,0,0,1-.151-1.017h0v-.007a5.592,5.592,0,0,1-.391-.86,6.473,6.473,0,0,1-.43-1.952q-.339-5.079-.376-9.99C-.006,38.586,0,37.342.016,36.112H.009l.014-.3c.023-1.53.076-3.053.151-4.561L.514,20.771.921,8.324a8.967,8.967,0,0,1,9.59-8.3l.181.008a8.949,8.949,0,0,1,1.7.293s0-.007.008,0a8.974,8.974,0,0,1,6.6,9.3l-.9,8.722-1.47,14.136-.513,4.915a94.85,94.85,0,0,1-1.636,11.015c-.166.844-.354,1.7-.55,2.541a.841.841,0,0,1-.038.135,30.7,30.7,0,0,1,2.05,9.379c1.2,13.412-.007,7.448,3.423,33.979a15.559,15.559,0,0,1-5.743.87C9.605,95.313,5.278,94.4,5,92.489Z" transform="translate(22.369 75.384)" fill="#d8d9de" stroke="#4e4c4c" stroke-linecap="round" stroke-miterlimit="10" stroke-width="0.3"/><path d="M584.582,268.157l-.407,13.457-7.448.008h-.286l-2.94.008.415-13.8a5.25,5.25,0,0,1,3.061-4.621,4.48,4.48,0,0,1,1.259-.407h.008a4.619,4.619,0,0,1,1.123-.09l.106.008a5.283,5.283,0,0,1,2.45.694.169.169,0,0,1,.038.023,5.32,5.32,0,0,1,2.624,4.719Z" transform="translate(-560.124 -231.764)" fill="#e7e8ee" stroke="#4e4c4c" stroke-linecap="round" stroke-linejoin="round" stroke-width="0.3"/><path d="M609.188,327.009h-.008l-2.028,1.244h-.008l-2.887,1.772-.166.1-.151.091-3.114,1.907L585.6,341.431l-.053.03v.008h-.008l-.03-.369-1.448-17.5v-.008l3.837-1.1,2.526-.731,4.267-1.221,9.386-2.7,2.586-.746,1.267,4.976.083.317.06.249Z" transform="translate(-562.723 -245.148)" fill="#d8d9de" stroke="#4e4c4c" stroke-linecap="round" stroke-miterlimit="10" stroke-width="0.3"/><path d="M607.114,333.837c-.045.588-.113,1.176-.211,1.757-.045.264-.09.52-.151.784-.015.09-.038.188-.06.286a16.471,16.471,0,0,1-.724,2.39,12.846,12.846,0,0,1-.7,1.538,11.855,11.855,0,0,1-1.953,2.729c-.1.1-.2.2-.294.279-.121.121-.249.234-.377.347l-.045.045c-.158.143-.324.271-.49.4a34.937,34.937,0,0,1-2.88,9.74,51.338,51.338,0,0,1-2.872,5.609,47.5,47.5,0,0,1-4,5.82c-.392.5-.807.98-1.214,1.455-.173.189-.339.377-.513.565q-1.176,1.278-2.435,2.42c-.3.279-.611.543-.927.814-.279.226-.573.46-.86.686a19.434,19.434,0,0,1-2.284,1.561c-.1.053-.188.105-.286.158-.136.075-.279.143-.415.211a6.872,6.872,0,0,1-3.264.8c-.008.007-.015,0-.023,0h-.045a5.2,5.2,0,0,1-1.938-.445.026.026,0,0,1-.015-.008c-.015,0-.023-.008-.038-.015l-.105-.045a6.422,6.422,0,0,1-1.289-.754,6.813,6.813,0,0,1-2.4-7.637c.09-.279.188-.565.286-.844v-.008l.792-2.284q.7-1.968,1.44-3.89c.234-.611.467-1.221.709-1.824q.8-2.013,1.636-3.973l1.025-2.609,2.857-7.305h.007l.06-.166,5.994-15.289c.121-.286.256-.565.4-.829A8.935,8.935,0,0,1,595,321.978h.008a8.8,8.8,0,0,1,5.066.09,8.324,8.324,0,0,1,.792.286l2.586.656a3.735,3.735,0,0,1,1.342,1.01,5.3,5.3,0,0,1,.49.641,1.737,1.737,0,0,1,.1.151,10.852,10.852,0,0,1,1.312,3.317h.008c.136.588.241,1.206.324,1.847.008.038.008.075.015.113.053.46.09.935.105,1.417A18.532,18.532,0,0,1,607.114,333.837Z" transform="translate(-560.234 -246.268)" fill="#d8d9de" stroke="#4e4c4c" stroke-linecap="round" stroke-miterlimit="10" stroke-width="0.3"/><path d="M609.694,280.57c-.015,1.907-.06,3.852-.136,5.782-.053,1.478-.136,2.94-.234,4.38q-.068,1.063-.158,2.1-.124,1.414-.271,2.759c-.068.581-.136,1.146-.211,1.7h-.007a51.889,51.889,0,0,1-1.063,5.88.237.237,0,0,0-.015.06,18.665,18.665,0,0,1-1.44,4.041v.008a3.021,3.021,0,0,1-.173.309c-.045.075-.09.151-.136.219v.008c-.015.023-.023.038-.038.06-.181.075-.369.158-.558.226a28.932,28.932,0,0,1-4.833,1.41c-.9.181-1.817.332-2.729.452a50.455,50.455,0,0,1-7.72.422c-.181,0-.354-.008-.528-.008a36.308,36.308,0,0,1-4.169-.354,7.409,7.409,0,0,1-2.593-.694,1.5,1.5,0,0,1-.648-.528V308.8c-.746-.973-1.425-3.121-2.036-5.941-.6-2.759-1.138-6.159-1.6-9.74-.369-2.8-.686-5.7-.965-8.489-.083-.777-.158-1.546-.226-2.3-.068-.724-.136-1.425-.2-2.118-.588-6.6-.9-11.716-.9-11.716-.679-2.548-.2-5.036,1.787-6.536a5.568,5.568,0,0,1,.7-.452c.068-.038.128-.075.2-.113h.007c.958-.52,1.975-1.018,3.038-1.478a35.191,35.191,0,0,1,4.953-1.757,31.935,31.935,0,0,1,7.072-1.138,29.065,29.065,0,0,1,12.831,2.345h.015c.4.166.792.347,1.191.535l.023-.045c.12.008.241.158.354.437a26.217,26.217,0,0,1,.935,5.911C609.551,270.015,609.739,275.157,609.694,280.57Z" transform="translate(-560.696 -230.357)" fill="#e7e8ee" stroke="#4e4c4c" stroke-linecap="round" stroke-linejoin="round" stroke-width="0.3"/><path d="M585.428,260.473a3.765,3.765,0,0,1-1.779-1.666c0-.008-.008-.015-.015-.03a4.352,4.352,0,0,1-.407-1.169l-.234-.92-.151-.6-.219-.852-2.164-8.5,7.969-2.028,3.151-.8.219-.053,1.425,4.4,1.794,5.526.136.422C596.473,258.657,589.288,262.26,585.428,260.473Z" transform="translate(-561.837 -227.126)" fill="#fff" stroke="#4e4c4c" stroke-linecap="round" stroke-linejoin="round" stroke-width="0.3"/><path d="M589,239.161a10.294,10.294,0,0,1-2.759,1.545h-.008a10.626,10.626,0,0,1,.106,3.664c-.445,2.835-2.262,5.051-5.466,6.793l-.611.173-1.342.369a4.232,4.232,0,0,1-3.611-.573,5.274,5.274,0,0,1-1.606-2.8l-.89-3.393-.776-.038a1.683,1.683,0,0,1-1.561-2.043l.89-4.1s-.98-.792-1.018-.973a12.533,12.533,0,0,1,.166-6.657,9.241,9.241,0,0,1,7.8-6.318c6.031-.859,10.148.038,11.8,7.139C590.932,235.43,590.939,237.548,589,239.161Z" transform="translate(-559.259 -222.37)" fill="#fff" stroke="#4e4c4c" stroke-linecap="round" stroke-linejoin="round" stroke-width="0.3"/><path d="M581.722,236.109c1.028-.154,2.756-.446,3.055.862,1.156,5.047,4.619,6.554,5.862,5.7,1.783-1.236,1.291-7.94.262-12.484-1.594-7.038-5.583-9.41-11.943-8.233-10.809,2-11.787,7.009-8.579,8.555l4.231-.988C579.271,228.217,580.769,230.789,581.722,236.109Z" transform="translate(-558.96 -221.662)" fill="#232c2e" stroke="#263238" stroke-linecap="round" stroke-linejoin="round" stroke-width="0.3"/><path d="M584.789,388.871c-.03.407-.068.829-.121,1.259-.038.4-.083.814-.136,1.229-.075.581-.143,1.131-.219,1.651-.083.588-.158,1.138-.241,1.659a58.927,58.927,0,0,1-1.282,6.348c-.06.2-.113.392-.166.58-1.244,4.418-2.676,7.516-5.209,24.984a10.833,10.833,0,0,1-1.086.075,14.368,14.368,0,0,1-6.287-1.229,17.833,17.833,0,0,1-3.415-1.915,16.15,16.15,0,0,1-1.417-1.116,12.019,12.019,0,0,1-.92-.852l.03-.181,4.011-23.009,1.214-6.958.286-1.674.709-4.071.988-5.654a6.265,6.265,0,0,1,.686-2.654v-.008a6.306,6.306,0,0,1,1.508-1.907,6.242,6.242,0,0,1,4.29-1.515l.128.008a6.279,6.279,0,0,1,1.885.347.007.007,0,0,0,.007.008c.068.023.136.053.2.075a5.538,5.538,0,0,1,1.681,1.055c.008.008.023.015.03.023a9.376,9.376,0,0,1,2.548,5.134c.053.226.1.467.136.716.045.271.083.558.121.859q.09.724.136,1.538A36.215,36.215,0,0,1,584.789,388.871Z" transform="translate(-557.857 -259.13)" fill="#d8d9de" stroke="#4e4c4c" stroke-linecap="round" stroke-miterlimit="10" stroke-width="0.3"/><path d="M597.525,368.961a47.511,47.511,0,0,1-4,5.82A141.568,141.568,0,0,0,578.7,365.7q.8-2.013,1.636-3.973l1.025-2.608A143.654,143.654,0,0,1,597.525,368.961Z" transform="translate(-561.404 -255.489)" fill="#fff" stroke="#4e4c4c" stroke-linecap="round" stroke-linejoin="round" stroke-width="0.3"/><path d="M585.391,400.377a54.721,54.721,0,0,1-1.447,6.928,131.8,131.8,0,0,0-14.294-3.242l1.214-6.959A135.473,135.473,0,0,1,585.391,400.377Z" transform="translate(-559.177 -264.838)" fill="#fff" stroke="#4e4c4c" stroke-linecap="round" stroke-linejoin="round" stroke-width="0.3"/><path d="M591.607,378.98a39.392,39.392,0,0,1-2.948,2.986q-.52-.362-1.063-.724c-3.453-2.307-7.433-4.795-11.03-6.71-.241-.136-.482-.256-.716-.377q.7-1.968,1.44-3.89c1.794.92,3.679,1.983,5.579,3.106a.007.007,0,0,0,.008.008c.633.369,1.259.754,1.885,1.131.008.008.023.015.03.023C587.166,376,589.5,377.533,591.607,378.98Z" transform="translate(-560.702 -258.233)" fill="#fff" stroke="#4e4c4c" stroke-linecap="round" stroke-linejoin="round" stroke-width="0.3"/><path d="M586.6,392.7c-.06.792-.151,1.621-.256,2.488-.075.581-.143,1.131-.219,1.651a135.968,135.968,0,0,0-14.482-3.287l.709-4.071c1.643.256,3.415.6,5.217.988a.027.027,0,0,0,.015.008c.656.143,1.319.294,1.983.445.007,0,.015.008.023,0C582.029,391.505,584.456,392.124,586.6,392.7Z" transform="translate(-559.666 -262.963)" fill="#fff" stroke="#4e4c4c" stroke-linecap="round" stroke-linejoin="round" stroke-width="0.3"/><path d="M588.024,368.686a.993.993,0,1,0,.888-1.087A.993.993,0,0,0,588.024,368.686Z" transform="translate(-563.697 -257.576)" fill="#ededed"/><path d="M576.626,402.461a.993.993,0,1,0,1.178-.764A.993.993,0,0,0,576.626,402.461Z" transform="translate(-560.888 -265.963)" fill="#ededed"/><g transform="translate(38.757 62.042)"><path d="M630.519,312.128l-.445,1.485-.023.083-1.674,5.586-3.046,10.17-.264.882-.942,3.151.008.55.053,2.835.015.9.008.354.015.633.007.626,1.365,77.848.038,2.1v.2l-2.518.053v-.2l-.038-2.1-.015-.648-1.289-73.724-.03-1.674-.06-3.423-.015-.618v-.3l-.008-.1v-.1l-.023-1.417-.03-1.576-.008-.565.075-.249,1.01-3.377.2-.663.06-.2,3.083-10.3,1.613-5.383.369-1.252.1-.324.973.294Z" transform="translate(-610.718 -305.789)" fill="#5f5f5f"/><path d="M622.285,453.963l.307-1.532a.75.75,0,0,1,.719-.6l2.36-.052a.75.75,0,0,1,.745.57l.375,1.517Z" transform="translate(-610.886 -340.335)" fill="#5f5f5f"/><rect width="4.506" height="4.013" transform="translate(11.398 113.629) rotate(-1.264)" fill="#5f5f5f"/><path d="M624.451,345.635a.146.146,0,0,1-.008.06.137.137,0,0,1-.015.075.429.429,0,0,1-.279.309.028.028,0,0,1-.023.008.353.353,0,0,1-.128.023l-2.216.053a.485.485,0,0,1-.151-.023c-.008,0-.015-.008-.023-.008s-.015-.008-.023-.015a.249.249,0,0,1-.1-.053.665.665,0,0,1-.1-.106.463.463,0,0,1-.053-.106.443.443,0,0,1-.03-.143l-.008-.5h.294l.06-.008,2.458-.023.332-.008Z" transform="translate(-610.644 -314.1)" fill="#5f5f5f"/><path d="M625.776,335.568l-.151.5-.3-.1-1.945-.663-.437-.151-.3-.1.143-.46a.414.414,0,0,1,.256-.279h.008a.265.265,0,0,1,.151-.023.341.341,0,0,1,.121.023l2.186.731a.278.278,0,0,1,.083.038A.409.409,0,0,1,625.776,335.568Z" transform="translate(-610.974 -311.422)" fill="#5f5f5f"/><path d="M621.817,336.315l-.332,1.116a12.5,12.5,0,0,0-.49,2.518c-.023.211-.038.43-.045.641s-.015.4-.015.6v.286l.03,1.274-.332.008-2.458.023-.06.008h-.294l-.008-.173-.023-1.025a1.434,1.434,0,0,0-.2-.709,1.46,1.46,0,0,0-1.169-.716c-.075-.008-.136-.008-.219-.015h-.008c-.385-.03-.837-.075-1.327-.121-.151-.023-.309-.038-.467-.06-.083-.008-.166-.015-.249-.03-.761-.09-1.576-.2-2.367-.317a.58.58,0,0,1-.113-.015.165.165,0,0,0-.06-.008v-.008c-.829-.121-1.636-.249-2.307-.369v-.008a.643.643,0,0,1-.173-.03c-.008.008-.015,0-.023,0-.219-.038-.422-.075-.6-.113a.569.569,0,0,0-.113-.008.563.563,0,0,0-.415.173.466.466,0,0,1-.807-.377l.286-2.473a.393.393,0,0,1,.023-.09.473.473,0,0,1,.505-.324.487.487,0,0,1,.354.234.556.556,0,0,0,.467.286h.045c.173.008.339.023.505.03.068,0,.143.008.226.015.045,0,.09.008.136.008.92.068,2.028.188,3.136.324h.008c.844.106,1.681.219,2.428.332.588.083,1.116.173,1.553.249a1.432,1.432,0,0,0,1.244-.369,1.384,1.384,0,0,0,.415-.656l.332-1.116.3.1.437.151,1.945.663Z" transform="translate(-607.166 -311.671)" fill="#5f5f5f"/><g transform="translate(6.936)"><path d="M630.112,308.268l-.384,1.3-.543,1.817a.444.444,0,0,1-.038.09.2.2,0,0,1-.045.075.178.178,0,0,1-.06.075.2.2,0,0,1-.06.053.18.18,0,0,1-.06.045.666.666,0,0,1-.128.06h-.007a.531.531,0,0,1-.324-.008l-2.111-.626-.678-.2-1.561-.467-5.451-1.621h-.007l-1.048-.309a1.688,1.688,0,0,1-.754-.467,1.715,1.715,0,0,1-.415-1.689l.347-1.153.256-.859a.616.616,0,0,1,.385-.4.581.581,0,0,1,.339.008l1.38.407,5.707,1.7,1.7.505,3.174.942A.586.586,0,0,1,630.112,308.268Z" transform="translate(-616.366 -303.956)" fill="#5f5f5f"/><path d="M632.09,313.152a.4.4,0,1,1,.5-.268A.4.4,0,0,1,632.09,313.152Z" transform="translate(-620.165 -306.027)" fill="#5f5f5f"/><path d="M632.994,310.114a.4.4,0,1,1,.5-.268A.4.4,0,0,1,632.994,310.114Z" transform="translate(-620.388 -305.28)" fill="#5f5f5f"/></g><path d="M629.728,309.982l-.543,1.817a.444.444,0,0,1-.038.091.2.2,0,0,1-.045.075.178.178,0,0,1-.06.075.2.2,0,0,1-.06.053.18.18,0,0,1-.06.045.65.65,0,0,1-.128.053v.008l-.03.083-1.674,5.586-2.352-.92,1.613-5.383-.678-.2-1.561-.467-5.451-1.621h-.007l-1.048-.309a1.688,1.688,0,0,1-.754-.467,1.715,1.715,0,0,1-.415-1.689l.347-1.154q.181.2.385.407a13.987,13.987,0,0,0,1.7,1.508,13.76,13.76,0,0,0,5.413,2.48,11.748,11.748,0,0,0,1.628.226,7.218,7.218,0,0,0,.807.038,8.51,8.51,0,0,0,1.071-.03A11.373,11.373,0,0,0,629.728,309.982Z" transform="translate(-609.43 -304.374)" fill="#5f5f5f" opacity="0.1"/><path d="M622.592,450.412l-.307,1.532.088,4.012,4.505-.1-.088-4.012-.375-1.517a.747.747,0,0,0-.666-.565l-.136-6.191a26.923,26.923,0,0,1-2.4,5.623l.014.624A.75.75,0,0,0,622.592,450.412Z" transform="translate(-610.886 -338.315)" fill="#5f5f5f" opacity="0.1"/><path d="M620.965,342.961l.008.46a.146.146,0,0,1-.008.06.136.136,0,0,1-.015.075.428.428,0,0,1-.279.309l.008.332.015.626.015.663h-.03l-.415-.015-.663-.015-1.417-.038-.03-1.493c-.008,0-.015-.008-.023-.008s-.015-.008-.023-.015a.249.249,0,0,1-.1-.053.653.653,0,0,1-.1-.106.458.458,0,0,1-.053-.106.441.441,0,0,1-.03-.143l-.008-.5-.008-.173-.023-1.025a1.433,1.433,0,0,0-.2-.709,1.46,1.46,0,0,0-1.169-.716c-.075-.008-.136-.008-.219-.015h-.008c-.385-.03-.837-.075-1.327-.121-.151-.023-.309-.038-.467-.06-.083-.007-.166-.015-.249-.03-.761-.09-1.576-.2-2.367-.317a.58.58,0,0,1-.113-.015.166.166,0,0,0-.06-.008V339.8c-.829-.121-1.636-.249-2.307-.369v-.008a.644.644,0,0,1-.173-.03c-.008.008-.015,0-.023,0-.219-.038-.422-.075-.6-.113a.569.569,0,0,0-.113-.008.563.563,0,0,0-.415.173.466.466,0,0,1-.807-.377l.286-2.473a.394.394,0,0,1,.023-.09.473.473,0,0,1,.505-.324.487.487,0,0,1,.354.234.556.556,0,0,0,.467.287h.045c.173.008.339.023.505.03.068.053.136.106.211.158.038.023.075.053.113.075a10.163,10.163,0,0,0,1.568.867,23,23,0,0,0,3.83,1.334c.988.264,2,.475,2.978.641a.21.21,0,0,0,.068.008c.241.045.49.083.724.121.6.083,1.191.151,1.734.2.143.015.279.023.415.03-.023.211-.038.43-.045.641s-.015.4-.015.6v.286Z" transform="translate(-607.166 -311.886)" fill="#5f5f5f" opacity="0.1"/></g><path d="M6.2,65.3l-.445-.121a1.164,1.164,0,0,1-.633-.445,1.25,1.25,0,0,1-.141-.279l-.023.076a1.061,1.061,0,0,1-1.3.723l-.443-.123a1.136,1.136,0,0,1-.787-1.418,1.047,1.047,0,0,1-.342.307,1.059,1.059,0,0,1-.807.1l-.445-.123a1.139,1.139,0,0,1-.791-1.4L.7,60.214a1.19,1.19,0,0,1,.065-.177c.006-.026.013-.051.021-.078.2-.731.415-1.6.573-2.427a2.125,2.125,0,0,0,.038-.211A7.284,7.284,0,0,0,1.58,54.9a2.692,2.692,0,0,1,1.576-1.433c.03-.015.06-.022.083-.038.181-.068.355-.121.512-.166a.9.9,0,0,0,.151-.053,1.114,1.114,0,0,0,.656-.814l.346-1.757.023-.113c.067-.573.143-1.161.211-1.726.037-.31.075-.618.105-.928v-.007c.022-.181.038-.355.052-.535.377-3.6.566-7.177.973-10.758.091-.814.2-1.621.317-2.435.076-.55.166-1.108.256-1.666.1-.543.2-1.078.309-1.621a11.436,11.436,0,0,1,.226-1.168,6.054,6.054,0,0,1-1.243-2.42l-1.447-5.4L.615,6.719.608,6.682A5.271,5.271,0,0,1,4.347.212l.1-.03A5.211,5.211,0,0,1,7.686.348C8.418.627,9.261,1.91,9.261,1.91a5.3,5.3,0,0,1,1.274,2.269l1.041,2.457.158.634,1.3,5.232,1.629,6.552,2.08,8.357v0a.049.049,0,0,1,.008.045,3,3,0,0,1,.1,1.335q-.317,3.121-.883,6.295c-.188,1.086-.4,2.172-.633,3.265-.076.362-.158.724-.241,1.085a108.155,108.155,0,0,1-4.72,15.312,2.369,2.369,0,0,1,.543.6h.008a1.875,1.875,0,0,1,.09.174,2.111,2.111,0,0,1,.241.814,4.77,4.77,0,0,1-.181,1.84L10.529,60.5l-.506,2.154a.547.547,0,0,1-.007.1l-.158.8-.06.294v.015l-.105.55-.053.257a.85.85,0,0,1-1.018.634l-.369-.076a.95.95,0,0,1-.746-.671,1.067,1.067,0,0,1-.5.641,1.109,1.109,0,0,1-.527.136A1.028,1.028,0,0,1,6.2,65.3Z" transform="translate(39.91 29.591)" fill="#fff" stroke="#4e4c4c" stroke-linecap="round" stroke-linejoin="round" stroke-width="0.3"/><path d="M623.6,279.534l-.7.2-2.88.807-2.691.761-4.4,1.244-1.726.482-2.887-10.736-1.244-4.629a6.081,6.081,0,0,1,4.3-7.456l.121-.038a6.031,6.031,0,0,1,2.835-.075c.008,0,.023.008.03.008a6.116,6.116,0,0,1,3.506,2.216c.015,0,.008.008.008.008a5.366,5.366,0,0,1,.7,1.146c.007.015.015.023.015.038a5.083,5.083,0,0,1,.354.965l.874,2.842.211.664,1.108,3.589,2.458,7.946A.028.028,0,0,1,623.6,279.534Z" transform="translate(-568.334 -231.086)" fill="#e7e8ee" stroke="#4e4c4c" stroke-linecap="round" stroke-linejoin="round" stroke-width="0.3"/></g></g></g></g></g></svg>