<svg xmlns="http://www.w3.org/2000/svg" width="244.854" height="173.143" viewBox="0 0 244.854 173.143"><g transform="translate(0.306 0.154)"><g transform="translate(-575.001 -1220.5)"><g transform="translate(599.183 1256.555)"><rect width="13.914" height="48.164" transform="translate(119.876 1.156)" fill="#e6e8ee" stroke="#4e4c4c" stroke-width="0.3"/><path d="M452.135,40.26,418.293,0l-67.93.621L309.156,40.758l.833.535h-.3v83.485H452.043V41.293Z" transform="translate(-309.156)" fill="#e6e8ee" stroke="#4e4c4c" stroke-width="0.3"/><path d="M580.732.294,538.455,49.86v75.126h75.992l1.263-84.218Z" transform="translate(-471.56 -0.208)" fill="#e6e8ee" stroke="#4e4c4c" stroke-width="0.3"/><rect width="15.52" height="13.718" transform="translate(97.399 83.232)" fill="#3f3d56" stroke="#4e4c4c" stroke-width="0.3"/><rect width="15.52" height="13.5" transform="translate(97.399 59.488)" fill="#3f3d56" stroke="#4e4c4c" stroke-width="0.3"/><rect width="15.52" height="13.718" transform="translate(97.399 83.232)" fill="#292949" stroke="#4e4c4c" stroke-width="0.3"/><rect width="15.52" height="13.5" transform="translate(97.399 59.488)" fill="#292949" stroke="#4e4c4c" stroke-width="0.3"/><rect width="15.52" height="13.718" transform="translate(28.429 79.592)" fill="#3f3d56" stroke="#4e4c4c" stroke-width="0.3"/><rect width="15.52" height="13.5" transform="translate(28.429 55.849)" fill="#3f3d56" stroke="#4e4c4c" stroke-width="0.3"/><rect width="15.52" height="13.718" transform="translate(28.429 79.592)" fill="#292949" stroke="#4e4c4c" stroke-width="0.3"/><rect width="15.52" height="13.5" transform="translate(28.429 55.849)" fill="#292949" stroke="#4e4c4c" stroke-width="0.3"/></g></g><g transform="translate(-676 -1262.954)"><ellipse cx="5.25" cy="2.548" rx="5.25" ry="2.548" transform="translate(717.647 1271.485) rotate(-18.58)" fill="#292949"/><path d="M129.206,71.487l27.539-12.548S203.4,41.3,243.313,84.352c0,0-17.887-11.482-31.445,3.685,0,0-25.513-6.9-46.923,18.458,0,0-33.487,5.071-47.434,22.842,0,0-15.548-2.391-21.737,17.32a.591.591,0,0,1-.978.243h0a.587.587,0,0,1-.166-.31C94.049,143.544,87.211,102.908,129.206,71.487Z" transform="translate(583.588 1212.355)" fill="#6c63ff"/><path d="M129.206,71.487l27.539-12.548S203.4,41.3,243.313,84.352c0,0-17.887-11.482-31.445,3.685,0,0-25.513-6.9-46.923,18.458,0,0-33.487,5.071-47.434,22.842,0,0-15.548-2.391-21.737,17.32a.591.591,0,0,1-.978.243h0a.587.587,0,0,1-.166-.31C94.049,143.544,87.211,102.908,129.206,71.487Z" transform="translate(583.588 1212.355)" fill="#2f2f2f"/><g transform="translate(676 1262.954)"><path d="M171.388,163.727c3.152-3.205-.339-9.843-.612-10.348l-36-73.508a.937.937,0,1,0-1.684.824l36.016,73.544.01.018c.036.066,3.511,6.667.416,8.559-3.334,2.038-7.222-1.264-7.261-1.3a.937.937,0,0,0-1.225,1.418c.2.174,4.975,4.223,9.464,1.478A4.541,4.541,0,0,0,171.388,163.727Z" transform="translate(-67.795 -35.509)" fill="#292949"/><path d="M127.2,68.056,153.868,55.9s45.187-17.08,83.843,24.612c0,0-17.324-11.121-30.456,3.569,0,0-24.71-6.685-45.446,17.877,0,0-32.432,4.911-45.94,22.123,0,0-15.528-2.388-21.324,17.675l-.8-.789S84.914,99.691,127.2,68.056Z" transform="translate(-92.977 -52.439)" fill="#e0e0e0" stroke="#4d4d4d" stroke-width="0.3"/></g></g><g transform="translate(-514.001 -1194.741)"><g transform="translate(584.997 1316.679)"><g transform="translate(173.403 50.895) rotate(-180)"><g transform="translate(0 0)"><g transform="translate(0 0)"><g transform="translate(0 6.343)"><g transform="translate(0 0)"><path d="M2.186,20.012h0a7.081,7.081,0,0,1-.336-9.886,11.727,11.727,0,0,1,4.2-2.938L19.995,1.4,29.841,0,158.7.753l8.074,1.455A7.731,7.731,0,0,1,173.4,9.731l-.081,5.167a1.857,1.857,0,0,1-1.4,1.723l-.572.162s-.478,5.066-3.8,6.214c-12.093,4.8-20.1,6.341-40.345,7.12l-17.1,9.413s-6.9,4.063-13.334,4.594-20.987.54-27.659.186c-7.833-.415-17.771-3.7-23.313-6.229C41.46,36.1,31.012,31.2,31.012,31.2l-5.91-.912c-.889-.039-17.21-.955-19.085-1.22a3.685,3.685,0,0,1-2.969-2.348,52.082,52.082,0,0,1-.862-6.666" transform="translate(0 0)" fill="#d8d9de" stroke="#4d4d4d" stroke-width="0.3"/></g></g><g transform="translate(46.085 33.624)"><g transform="translate(0 0)"><path d="M8.084,10.525c2.565,1.283,9.448,3.052,13.3,3.773s11.67.821,14.8.741,11.808-.229,16.385-1.529A32.042,32.042,0,0,0,60.93,9.241c.774-.569,4.138-3.205,4.89-3.8L71.646,0,.063,2.259S-.349,4.754.938,6.192,8.084,10.525,8.084,10.525Z" transform="translate(0)" fill="#263238" stroke="#4d4d4d" stroke-width="0.3"/></g></g><g transform="translate(163.392 23.432)"><g transform="translate(0 0)"><g transform="translate(0 0)"><g transform="translate(0 0)"><g transform="translate(0 0)"><path d="M4.453,0,8.074.053c-.141.976-.619,3.573-2.167,5.028L1.113,5.011A1.128,1.128,0,0,1,.169,3.293l.872-1.418A3.938,3.938,0,0,1,4.453,0Z" fill="#fafafa" stroke="#4d4d4d" stroke-width="0.3"/></g></g></g></g><g transform="translate(0 0.02)"><g transform="translate(0 0)"><g transform="translate(0 0)"><path d="M4.014.2c-.376,1.6-.851,3.691-2.2,4.8l-.705-.01A1.128,1.128,0,0,1,.169,3.273l.872-1.418A3.933,3.933,0,0,1,4.063,0C4.047.066,4.03.13,4.014.2Z" fill="#e0e0e0" stroke="#4d4d4d" stroke-width="0.3"/></g></g></g></g><g transform="translate(19.045 6.31)"><g transform="translate(112.331 0.567)" opacity="0.7"><g transform="translate(0 0)"><g transform="translate(0 0)"><path d="M.366,0A17.869,17.869,0,0,0,.12,5.664C1.056,13.7,6.321,19.488,14.273,19.6c6.92.1,12.637-4.224,13.805-12.233A20.608,20.608,0,0,0,27.837.185Z" stroke="#4d4d4d" stroke-width="0.3"/></g></g></g><g transform="translate(0 0)" opacity="0.7"><g transform="translate(0 0)"><path d="M0,1.4c.011.3.036.6.04.913C.182,12.461,6.987,19.489,15.082,19.606A13.43,13.43,0,0,0,28.689,6.387,42.434,42.434,0,0,0,28.563.131L9.069,0Z" stroke="#4d4d4d" stroke-width="0.3"/></g></g></g><g transform="translate(22.01 0.815)"><g transform="translate(0 0)"><g transform="translate(0 0)"><path d="M23.375,11.857A11.688,11.688,0,1,0,11.519,23.375,11.688,11.688,0,0,0,23.375,11.857Z" fill="#676767" stroke="#4d4d4d" stroke-width="0.3"/></g></g><g transform="translate(0.001 0)"><g transform="translate(0 0)"><g transform="translate(0 0)"><path d="M23.372,11.887c0-.01,0-.02,0-.03A11.688,11.688,0,1,0,0,11.52c0,.01,0,.02,0,.03Z" fill="#676767" stroke="#4d4d4d" stroke-width="0.3"/></g></g></g><g transform="translate(3.482 3.482)"><g transform="translate(0 0)"><path d="M16.411,8.324a8.206,8.206,0,1,0-8.323,8.087A8.206,8.206,0,0,0,16.411,8.324Z" fill="#fafafa" stroke="#4d4d4d" stroke-width="0.3"/></g></g><g transform="translate(3.482 11.57)"><g transform="translate(0 0)"><g transform="translate(0 0)"><path d="M8.088,8.323A8.206,8.206,0,0,0,16.411.237L0,0A8.206,8.206,0,0,0,8.088,8.323Z" fill="#e0e0e0" stroke="#4d4d4d" stroke-width="0.3"/></g></g></g><g transform="translate(6.689 6.69)"><g transform="translate(0 0)"><g transform="translate(0 0)"><path d="M10,5.071A5,5,0,1,0,4.927,10,5,5,0,0,0,10,5.071Z" fill="#2f2f2f" stroke="#4d4d4d" stroke-width="0.3"/></g></g></g></g><g transform="translate(133.74 0)"><g transform="translate(0 0)"><g transform="translate(0 0)"><ellipse cx="11.688" cy="11.688" rx="11.688" ry="11.688" transform="translate(24.403 23.353) rotate(177.426)" fill="#676767" stroke="#4d4d4d" stroke-width="0.3"/></g></g><g transform="translate(0.514 0.513)"><g transform="translate(0 0)"><g transform="translate(0 0)"><path d="M23.372,11.887c0-.01,0-.02,0-.03A11.688,11.688,0,0,0,0,11.519c0,.01,0,.02,0,.03Z" fill="#676767" stroke="#4d4d4d" stroke-width="0.3"/></g></g></g><g transform="translate(3.995 3.995)"><g transform="translate(0 0)"><g transform="translate(0)"><path d="M16.411,8.324a8.206,8.206,0,1,0-8.323,8.086A8.206,8.206,0,0,0,16.411,8.324Z" fill="#fafafa" stroke="#4d4d4d" stroke-width="0.3"/></g></g></g><g transform="translate(3.995 12.083)"><g transform="translate(0 0)"><g transform="translate(0 0)"><path d="M8.088,8.323A8.205,8.205,0,0,0,16.411.237L0,0A8.206,8.206,0,0,0,8.088,8.323Z" fill="#e0e0e0" stroke="#4d4d4d" stroke-width="0.3"/></g></g></g><g transform="translate(7.203 7.203)"><g transform="translate(0 0)"><g transform="translate(0 0)"><path d="M10,5.071A5,5,0,1,0,4.927,10,5,5,0,0,0,10,5.071Z" fill="#2f2f2f" stroke="#4d4d4d" stroke-width="0.3"/></g></g></g></g><g transform="translate(168.55 12.53)" opacity="0.4"><g transform="translate(0 0)"><g transform="translate(0 0)"><path d="M0,2.35C.019,1.041.682-.012,1.48,0s1.43,1.082,1.411,2.392-.682,2.362-1.48,2.35S-.018,3.66,0,2.35Z" stroke="#4d4d4d" stroke-width="0.3"/></g></g></g><g transform="translate(2.013 19.216)"><g transform="translate(0 0)"><g transform="translate(0 0)"><path d="M0,7.139A1.144,1.144,0,0,1,.225,7.12L.872,7.1c.561-.015,1.374-.031,2.377-.072s2.2-.1,3.518-.2a29.741,29.741,0,0,0,4.257-.628,10.8,10.8,0,0,0,2.094-.723A8.837,8.837,0,0,0,14.841,4.34a27.324,27.324,0,0,0,2.551-2.421A10.472,10.472,0,0,1,19.224.4,4.941,4.941,0,0,1,19.8.087,1.126,1.126,0,0,1,20,0c.008.017-.278.141-.745.45A11.3,11.3,0,0,0,17.476,2,25.759,25.759,0,0,1,14.937,4.46,8.873,8.873,0,0,1,13.19,5.619a10.832,10.832,0,0,1-2.126.738,28.623,28.623,0,0,1-4.284.618c-1.326.1-2.522.148-3.527.167s-1.818.025-2.38.019L.225,7.153A1.157,1.157,0,0,1,0,7.139Z" fill="#263238" stroke="#4d4d4d" stroke-width="0.3"/></g></g></g><g transform="translate(48.608 9.913)"><g transform="translate(0 0)"><g transform="translate(0 0)"><g transform="translate(0 0)"><path d="M0,0" fill="#fff" stroke="#4d4d4d" stroke-miterlimit="10" stroke-width="0.3"/></g></g></g></g><g transform="translate(159.737 14.25)"><g transform="translate(0 0)"><g transform="translate(0 0)"><path d="M0,0A5.553,5.553,0,0,1,.378.446a8.507,8.507,0,0,0,1.134,1.1A11.091,11.091,0,0,0,6.218,3.7a21.784,21.784,0,0,0,5.217.334c.672-.025,1.215-.057,1.591-.077a4.031,4.031,0,0,1,.585-.016.525.525,0,0,1-.149.029l-.431.051c-.375.04-.918.09-1.59.131a20.179,20.179,0,0,1-5.257-.289A10.769,10.769,0,0,1,1.436,1.641,7.465,7.465,0,0,1,.328.487C.208.341.134.213.076.132A.524.524,0,0,1,0,0Z" fill="#4e4c4c" stroke="#4d4d4d" stroke-width="0.3"/></g></g></g><g transform="translate(158.744 22.918)"><g transform="translate(0 0)"><g transform="translate(0 0)"><path d="M0,.033C0-.013,2.791-.01,6.231.039s6.23.127,6.23.173S9.671.256,6.229.206,0,.079,0,.033Z" fill="#4e4c4c" stroke="#4d4d4d" stroke-width="0.3"/></g></g></g><g transform="translate(46.355 9.205)"><g transform="translate(0 0)"><path d="M0,26.679s.011-.05.037-.148L.154,26.1l.468-1.69,1.794-6.4,0-.016.015-.007a14.406,14.406,0,0,0,3.594-2.4,14.921,14.921,0,0,0,1.674-1.781,17.558,17.558,0,0,0,1.464-2.171,21.572,21.572,0,0,0,2.1-5.315A25.755,25.755,0,0,0,12.077.07V.008h.06L38.347,0,72.156.014H72.2l.006.048c.848,6.931,1.384,12.638,1.707,16.61.162,1.986.273,3.538.346,4.594l.078,1.2c.017.272.021.412.021.412s-.015-.139-.037-.411-.053-.676-.094-1.2c-.086-1.057-.213-2.607-.376-4.591C73.514,12.707,72.962,7,72.1.075l.054.048L38.347.136,12.137.128,12.2.067a25.785,25.785,0,0,1-.822,6.281,21.637,21.637,0,0,1-2.119,5.337,17.617,17.617,0,0,1-1.478,2.18A14.985,14.985,0,0,1,6.09,15.652a14.445,14.445,0,0,1-3.622,2.4l.02-.023L.66,24.418.174,26.1l-.127.432C.017,26.63,0,26.679,0,26.679Z" fill="#263238" stroke="#4d4d4d" stroke-width="0.3"/></g></g><g transform="translate(124.12 34.643)"><g transform="translate(0 0)"><path d="M0,.661A4.053,4.053,0,0,1,3.11.088,3.311,3.311,0,0,1,5.468,1.679l-2.3.1Z" transform="translate(0 0)" fill="#263238" stroke="#4d4d4d" stroke-width="0.3"/></g></g><g transform="translate(105.652 35.186)"><g transform="translate(0 0)"><path d="M21.008,1.239S18.689-.175,18.015.018,6.526,8.759,0,12.06a7.749,7.749,0,0,0,1.982.45s3.037-1.537,6.824-3.816C11.687,6.96,14.62,5.142,15.991,4.3Z" transform="translate(0 0)" fill="#f0f5fd" stroke="#4d4d4d" stroke-width="0.3"/></g></g><g transform="translate(125.223 28.385)"><g transform="translate(0 0)"><g transform="translate(0 0)"><path d="M0,5.239A.533.533,0,0,1,.072,5.2L.29,5.087l.853-.424,3.22-1.581.01,0h.012c2.018.064,4.61.11,7.579,0,1.484-.055,3.061-.148,4.705-.3s3.352-.352,5.1-.6c3.065-.419,5.958-.947,8.6-1.372A66.446,66.446,0,0,1,37.468.073C39.5-.029,41.148,0,42.284.026c.569.015,1.009.035,1.308.052l.34.019c.077,0,.116.01.116.01s-.039,0-.116,0L43.591.1c-.3-.009-.74-.022-1.308-.03C41.147.055,39.5.041,37.473.154A68.062,68.062,0,0,0,30.4.922c-2.641.43-5.537.962-8.6,1.381-1.752.244-3.463.446-5.109.594s-3.227.235-4.713.287C9,3.283,6.4,3.226,4.382,3.149l.021,0L1.164,4.7.3,5.1l-.224.1A.5.5,0,0,1,0,5.239Z" fill="#4e4c4c" stroke="#4d4d4d" stroke-width="0.3"/></g></g></g><g transform="translate(47.383 34.342)"><g transform="translate(0 0)"><path d="M66.087,0C49.659.734,16.521,1.344.092,2.078a2.766,2.766,0,0,0,1,2.932A35.583,35.583,0,0,0,9.055,9.521a61.205,61.205,0,0,0,15.176,3.544c2.926.239,8.279.454,8.279.454s9.8-.391,12.535-.638a28.292,28.292,0,0,0,9.918-2.7c3.425-1.7,9.384-6.687,9.384-6.687L68.537,0Z" transform="translate(0 0)" fill="#f0f5fd" stroke="#4d4d4d" stroke-width="0.3"/></g></g><g transform="translate(79.898 34.791)"><g transform="translate(0 0)"><path d="M3.723,13.558,6.893,0,1.144.183,0,13.558Z" fill="#263238" stroke="#4d4d4d" stroke-width="0.3"/></g></g><g transform="translate(55.858 35.883)"><g transform="translate(0 0)"><path d="M.781,9.184,1.34,0h-.8L0,8.9Z" transform="translate(0 0)" fill="#263238" stroke="#4d4d4d" stroke-width="0.3"/></g></g><g transform="translate(114.273 33.832)"><g transform="translate(0 0)"><path d="M1.712,3.62C1.46,3.282,0,0,0,0L5.549.363Z" transform="translate(0 0)" fill="#263238" stroke="#4d4d4d" stroke-width="0.3"/></g></g><g transform="translate(81.787 34.722)"><g transform="translate(0 0)"><g transform="translate(0 0)"><path d="M0,13.782c-.037-.006.411-3.1,1-6.9S2.1-.006,2.138,0s-.411,3.095-1,6.9S.039,13.787,0,13.782Z" fill="#455a64" stroke="#4d4d4d" stroke-width="0.3"/></g></g></g><g transform="translate(90.487 35.444)"><g transform="translate(0 0)"><g transform="translate(0 0)"><path d="M0,10.439a.466.466,0,0,1,.061-.112l.2-.306L1,8.908c.628-.938,1.493-2.234,2.435-3.675S5.217,2.48,5.824,1.529L6.546.4l.2-.3A.466.466,0,0,1,6.825,0a.441.441,0,0,1-.055.115L6.591.432C6.433.7,6.2,1.1,5.906,1.579c-.587.965-1.415,2.286-2.358,3.729s-1.821,2.73-2.47,3.655C.754,9.425.489,9.8.3,10.051l-.218.291C.033,10.408,0,10.441,0,10.439Z" fill="#263238" stroke="#4d4d4d" stroke-width="0.3"/></g></g></g><g transform="translate(92.913 40.052)"><g transform="translate(0 0)"><g transform="translate(0 0)"><path d="M0,3.778A19.856,19.856,0,0,1,1.293,1.85,19.8,19.8,0,0,1,2.7,0,19.837,19.837,0,0,1,1.4,1.929,19.829,19.829,0,0,1,0,3.778Z" fill="#263238" stroke="#4d4d4d" stroke-width="0.3"/></g></g></g><g transform="translate(2.064 27.071)"><g transform="translate(0 0)"><g transform="translate(0)"><path d="M0,.007A6.115,6.115,0,0,1,2.391.362,3.157,3.157,0,0,1,4.029,4.6l-.014.029A2.952,2.952,0,0,1,1.425,6.3H.855A3.619,3.619,0,0,1,.484,4.942C.33,3.695.1,1.805,0,.007Z" fill="#f5f5f5" stroke="#4d4d4d" stroke-width="0.3"/></g></g></g><path d="M5.93,2.177H1.561C.7,2.177,0,1.689,0,1.088S.7,0,1.561,0H5.93c.862,0,1.561.487,1.561,1.088S6.792,2.177,5.93,2.177Z" transform="translate(87.759 30.814)" fill="#263238" stroke="#4d4d4d" stroke-width="0.3"/><path d="M5.93,2.177H1.561C.7,2.177,0,1.689,0,1.088S.7,0,1.561,0H5.93c.862,0,1.561.487,1.561,1.088S6.792,2.177,5.93,2.177Z" transform="translate(57.009 31.347)" fill="#263238" stroke="#4d4d4d" stroke-width="0.3"/></g><g transform="translate(67.963 36.446)"><g transform="translate(0 0)"><g transform="translate(0 0)"><path d="M0,9c-.032-.02,1.222-2.051,2.8-4.534S5.686-.02,5.718,0,4.5,2.05,2.917,4.535.032,9.016,0,9Z" transform="translate(0 0)" fill="#263238" stroke="#4d4d4d" stroke-width="0.3"/></g></g></g><g transform="translate(68.292 39.801)"><g transform="translate(0 0)"><path d="M0,3.078A12.361,12.361,0,0,1,.937,1.5,12.38,12.38,0,0,1,1.987,0a12.366,12.366,0,0,1-.936,1.576A12.418,12.418,0,0,1,0,3.078Z" fill="#263238" stroke="#4d4d4d" stroke-width="0.3"/></g></g></g></g></g></g></g></svg>