<svg xmlns="http://www.w3.org/2000/svg" width="15.05" height="24.118" viewBox="0 0 15.05 24.118"><defs><style>.a{opacity:0.5;}.b{fill:#071e54;}</style></defs><g class="a"><path class="b" d="M38.738,19.619,35.8,18.192h0l-.965-.463V17.42a9.694,9.694,0,0,0,3.28-4.843,1.541,1.541,0,0,0,1.235-.637,1.608,1.608,0,0,0,.154-1.582,1.418,1.418,0,0,0-.309-.424h.463V8.081l-.83-.232V7.734A6.289,6.289,0,0,0,35.3,2.08a.973.973,0,0,0-.945-.733H32.911V1h-.772v.328H30.692a.973.973,0,0,0-.945.733,6.311,6.311,0,0,0-3.531,5.653V7.83l-.83.251V9.933h.463a1.334,1.334,0,0,0-.309.424,1.608,1.608,0,0,0,.154,1.582,1.544,1.544,0,0,0,1.235.637,9.916,9.916,0,0,0,3.28,4.843v.309l-.714.347h0l-3.184,1.544A2.333,2.333,0,0,0,25,21.7v3.415H40.05V21.7A2.333,2.333,0,0,0,38.738,19.619ZM34.049,18.23c-.019.1-.039.174-.058.27v.019c-.019.039-.019.058-.039.1,0,.019-.019.039-.019.058-.019.019-.019.039-.039.058a.422.422,0,0,1-.058.1v.019a1.579,1.579,0,0,1-.675.56h-.019a.274.274,0,0,1-.116.039h-.019a.245.245,0,0,1-.116.019h-.039c-.039,0-.077.019-.116.019h-.193A1.548,1.548,0,0,1,31,17.941v-.116a3.6,3.6,0,0,0,3.087,0v.154A.756.756,0,0,0,34.049,18.23ZM38.738,11.5a.731.731,0,0,1-.347.27,10.315,10.315,0,0,0,.212-1.312.456.456,0,0,1,.212.251A.785.785,0,0,1,38.738,11.5ZM26.158,8.66l.83-.232V7.734a5.566,5.566,0,0,1,2.721-4.766V5.283h.772V2.312a.214.214,0,0,1,.212-.212h1.447V6.538h.772V2.1h1.447a.214.214,0,0,1,.212.212V5.264h.772V2.949a5.524,5.524,0,0,1,2.721,4.766v.695l.83.232v.5H26.158Zm.154,2.836a.785.785,0,0,1-.077-.791.672.672,0,0,1,.212-.251,8.4,8.4,0,0,0,.232,1.312A.793.793,0,0,1,26.312,11.5Zm1.254.579a9.445,9.445,0,0,1-.386-2.142H37.87a7.9,7.9,0,0,1-.367,2.122c-1.737,4.843-4.052,5.364-4.978,5.364C31.618,17.439,29.3,16.918,27.566,12.075ZM39.278,24.346H37.542v-.579H36.77v.579H28.28v-.579h-.772v.579H25.772V21.7a1.547,1.547,0,0,1,.868-1.389l3.647-1.756c0,.019.019.039.019.058s.019.058.019.077c.019.039.039.1.058.135,0,.019.019.039.019.058a1.146,1.146,0,0,0,.077.154.019.019,0,0,0,.019.019l.116.174c.019.019.019.039.039.058a.512.512,0,0,0,.1.116l.058.058c.019.039.058.058.1.1l.058.058.1.1.058.058c.039.039.077.058.116.1.019.019.039.019.039.039l.174.116c.019,0,.019.019.039.019.058.019.1.058.154.077.019.019.039.019.077.019a.279.279,0,0,0,.135.039c.019,0,.058.019.077.019.039.019.1.019.135.039.019,0,.058.019.077.019.039,0,.1.019.154.019h.077c.077,0,.154.019.212.019H32.8a.145.145,0,0,0,.1-.019.174.174,0,0,0,.1-.019.358.358,0,0,0,.135-.039.071.071,0,0,0,.058-.019.454.454,0,0,1,.154-.039c.019,0,.019,0,.039-.019a1.329,1.329,0,0,0,.154-.058h.019a1.146,1.146,0,0,0,.154-.077h0c.058-.039.1-.058.154-.1h0a.817.817,0,0,0,.135-.1.019.019,0,0,0,.019-.019.512.512,0,0,1,.116-.1l.019-.019.1-.1c.019-.019.039-.039.039-.058.019-.019.039-.058.077-.077.019-.039.058-.058.077-.1.019-.019.019-.039.039-.039a1.946,1.946,0,0,0,.328-.733l3.627,1.756a1.534,1.534,0,0,1,.868,1.389v2.624Z" transform="translate(-25 -1)"/><rect class="b" width="8.297" height="0.772" transform="translate(3.377 6.753)"/></g></svg>