<svg xmlns="http://www.w3.org/2000/svg" width="257.656" height="180.549" viewBox="0 0 257.656 180.549"><g transform="translate(0 0.124)"><path d="M1459.565,577.188c-1.86-1.466-6.228-2.505-8.377-2.947-.758-.156-1.24-.237-1.24-.237.224,1.077.729,2.768,1.387,4.8,2.761,8.5,8.235,22.964,7.132,23.272a29.232,29.232,0,0,1-3.308.664c-4.8.733-11.26,1.057-11.936,1.089-.053-.052-2.354-2.288-3.25-2.288s-3.519.992-3.786,1.756-.373,2.137.373,2.443a32.4,32.4,0,0,0,4.639,1.145,2.036,2.036,0,0,0,.385,0,78.109,78.109,0,0,0,14.5,3.033,44.981,44.981,0,0,0,8.425.253C1468.359,601.524,1462.08,579.17,1459.565,577.188Z" transform="translate(-1351.057 -541.364)" fill="#f9feff" stroke="#4e4c4c" stroke-width="0.2"/><path d="M431.349,732.225s25.8-.557,36.821-14.736c19.971-25.687,10.971-48.214-24.583-46.537-39.774,1.876-34.868-77.752-103.738-39.414-14.955,8.325-48.238-9.158-61.535,27.267-3.162,8.662-26.908,9.265-42.255,16.211-24.073,10.9-17.275,57.391,5.467,57.574S431.349,732.225,431.349,732.225Z" transform="translate(-220.94 -552.201)" fill="#dfe4ef"/><path d="M621.327,1753.891H518.75c4.94-3.645,22.67-16.359,38.728-23.225,6.655-2.844,13.021-4.684,18.071-4.457C591.566,1726.927,614.017,1746.961,621.327,1753.891Z" transform="translate(-363.67 -1574.427)" fill="#b7c9e2"/><path d="M499.227,1753.891H396.65c6.986-5.157,39.561-28.454,56.8-27.682,4.5.2,9.5,1.928,14.536,4.457C480.88,1737.144,493.968,1748.905,499.227,1753.891Z" transform="translate(-274.177 -1574.428)" fill="#4e6ebe"/><path d="M635.84,1608.7a.863.863,0,0,0-1.031.647l-7.82,34.15c-2.112.063-4.26,2.35-4.989,5.536l-.745,3.253a4.512,4.512,0,0,0-.1.547l8.684,1.989a2.286,2.286,0,0,0,.169-.532l.745-3.254c.727-3.177-.2-6.163-2.084-7.15l7.821-34.155A.864.864,0,0,0,635.84,1608.7Z" transform="translate(-445.309 -1488.297)" fill="#2b478b"/><g transform="translate(61.581 0)"><path d="M2020.828,1796.872a17.758,17.758,0,0,1,1.052-5.357c.9-1.87,8.073-.584,8.073-.584a12.81,12.81,0,0,1,1.43,5.925Z" transform="translate(-1988.62 -1617.363)" fill="#233862" stroke="#4e4c4c" stroke-width="0.2"/><path d="M1895.87,1796.872a17.773,17.773,0,0,1,1.051-5.357c.9-1.87,8.074-.584,8.074-.584a12.807,12.807,0,0,1,1.43,5.925Z" transform="translate(-1882.921 -1617.363)" fill="#233862" stroke="#4e4c4c" stroke-width="0.2"/><path d="M1954.591,868.675c-.9.677-9.011,5.092-9.011,5.092l-8.556-6.359s2.6-.395,2.668-.416c.772-.224.737-2.383.835-4.681.015-.354.034-.712.059-1.066l8.378-.317.007.109c.006.11.016.226.023.347l.017.249c.005.086.012.172.019.261.151,2.02.474,4.873,1.093,5.206C1950.473,867.288,1952.858,867.258,1954.591,868.675Z" transform="translate(-1917.732 -837.136)" fill="#f9feff" stroke="#4e4c4c" stroke-width="0.2"/><path d="M1953.662,732.1a6.15,6.15,0,0,1,8.808.085A32.932,32.932,0,0,0,1953.662,732.1Z" transform="translate(-1931.807 -727.46)" fill="#2b478b" stroke="#4e4c4c" stroke-width="0.2"/><path d="M1931.692,751.928a37.123,37.123,0,0,1-2.069-5.979c-.564-2.3-.048-11.012,8.358-10.42a10.968,10.968,0,0,1,4.819,1.48c1.9,1.13,4.7,3.67,2.328,11.426l-.573,2.6Z" transform="translate(-1911.336 -731.861)" fill="#292949" stroke="#4e4c4c" stroke-width="0.2"/><path d="M1952.743,785.675c-2.17,2.162-4.866,5.044-10.676-.285-1.137-1.042-1.06-2.646-1.126-4.948-.08-2.725-.709-4.394-.417-5.965.347-1.88,1.888-2.728,5.089-3.019,5.875-.531,8.844.848,8.45,3.887C1953.182,782.128,1954.949,783.476,1952.743,785.675Z" transform="translate(-1920.628 -761.948)" fill="#f9feff" stroke="#4e4c4c" stroke-width="0.2"/><path d="M1989.16,768.474s3.483-.076,4.278,1.137.906,2.572,1.306,3.256a2.734,2.734,0,0,1,.335,1.452l.773-5.419-4.714-.977Z" transform="translate(-1961.833 -759.075)" fill="#b64c41" stroke="#4e4c4c" stroke-width="0.2"/><path d="M1900.633,908.963s-1.487,4.569-7.517,5.406c-.163.023-.331.042-.5.06h-24.557l-.131-.042c-.954-.315-6.82-2.411-7.437-6.329,0,0,3.085-6.6,5.439-7.422a14.386,14.386,0,0,1,2.636-.554c1.021-.137,2.1-.228,3-.287,1.241-.081,2.153-.1,2.153-.1a7.4,7.4,0,0,0,6.566,3.982,5.811,5.811,0,0,0,5.733-3.922s1.307.039,3.042.235c.957.107,2.044.261,3.115.484a11.035,11.035,0,0,1,4.594,1.8C1899.455,904.549,1900.633,908.963,1900.633,908.963Z" transform="translate(-1852.993 -869.672)" fill="#e1f4f7" stroke="#4e4c4c" stroke-width="0.2"/><path d="M1901.919,944.833c-.262-1.513-.65-3.817-.955-5.843,0-.027.91-11.439,1.246-13.365s-1.949-12.423-1.949-12.423c-.532-1.606-1.433-2.1-2.124-2.1L1899.3,901c-1.071-.223-2.158-.377-3.115-.484l-.557,10.588-.008.152c-1.273.074-2.861.163-4.339.232s-2.848.121-3.691.121c-1.714,0-5.646-.205-8.258-.354l-.01-.151-.631-10.781c-.9.06-1.976.151-3,.288l1.11,10.494v0c-.732,0-1.573,1.354-1.688,2.106L1875,916.5a38.613,38.613,0,0,0-1.888,7.9c-.252,3.407,1.114,15.26,1.123,15.342-.05,1.413-.146,3.219-.331,4.966a101.2,101.2,0,0,0-4.956,34.5c.415,16.918.661,45.826,2.573,59.861a39.729,39.729,0,0,0,1.072,5.544,1.817,1.817,0,0,0,1.473,1.3c2.193.317,7.136.9,9.263.095,1.019-.387,1.749-6.288,2.266-13.894.495-7.292.792-16.154.957-23.227,0,0,0,0,0,0,.133-5.639.183-10.14.183-11.806,0-3.77.855-14.83,1.137-21.335a.139.139,0,0,1,.278,0v0c.429,7.724,1.926,19.436,1.949,22.038.056,6.312-.3,46.866,2.35,48.228,2.023,1.041,6.792.254,9.07-.067a2.127,2.127,0,0,0,1.733-1.561c2.846-10.2,3.1-45.659,3.578-65.171A101.472,101.472,0,0,0,1901.919,944.833Z" transform="translate(-1860.121 -870.203)" fill="#97a7d1" stroke="#4e4c4c" stroke-width="0.2"/><g transform="translate(15.961)"><path d="M1934.044,717.605a12.7,12.7,0,0,0-1.8-1.94c-.184-.165-.381-.332-.59-.5a9.089,9.089,0,0,0-12.452.351q-.273.269-.517.554c-3.562,4.12-3.26,10.58-3.26,10.58l20.552-.229C1936.039,720.443,1934.044,717.605,1934.044,717.605Z" transform="translate(-1915.414 -712.845)" fill="#97a7d1" stroke="#4e4c4c" stroke-width="0.2"/><path d="M1930.234,739.648c-.058-.9-.451-8.293,2.041-10.821a4.111,4.111,0,0,0-.35-.3c-2.656,2.907-2.827,10.186-2.816,11.137l-6.57.073a28.027,28.027,0,0,0-3.306-11.055,4.753,4.753,0,0,0-.379.405,32.336,32.336,0,0,1,2.469,10.663l-5.867.065a43.175,43.175,0,0,0,9.6,1.422,67.434,67.434,0,0,0,10.956-1.651Z" transform="translate(-1915.449 -726.004)" fill="#97a7d1" stroke="#4e4c4c" stroke-width="0.2"/></g><path d="M1831.347,1001.42c-.841.7-3.588.409-4.652-.526s-3.2-.644-3.7-.994c-.035-.024-9.952-12.275-11.027-17.43-1.085-5.2,5.779-19.518,7.722-23.421,1.438,3.167,6.228,4.876,7.083,5.158l.131.042h.265c-1.616,4.555-6.448,12.756-8.31,15.845a2.779,2.779,0,0,0-.155,2.553c2.392,5.346,4.731,9.856,5.756,12.98.2.347.641.968,1.169.884.73-.118,3.085-.644,4.262,1.167S1832.188,1000.719,1831.347,1001.42Z" transform="translate(-1811.853 -919.494)" fill="#f9feff" stroke="#4e4c4c" stroke-width="0.2"/></g><g transform="translate(76.457 79.002)"><path d="M2626.945,1247.151h-2.63c-.261,0-.475.3-.475.66v99.261c0,.363.214.659.475.659h2.63c.261,0,.474-.3.474-.659v-99.261C2627.419,1247.449,2627.207,1247.151,2626.945,1247.151Z" transform="translate(-2623.84 -1247.151)" fill="#e1f4f7" stroke="#4e4c4c" stroke-width="0.2"/><g transform="translate(0 0)"><path d="M2626.945,1247.151h-2.63c-.261,0-.475.362-.475.8v3.734h3.579v-3.734C2627.419,1247.513,2627.207,1247.151,2626.945,1247.151Z" transform="translate(-2623.84 -1247.151)" fill="#2b478b" stroke="#4e4c4c" stroke-width="0.2"/><path d="M2623.84,1815.593c0,.44.214.8.475.8h2.63c.261,0,.474-.359.474-.8v-3.221h-3.579Z" transform="translate(-2623.84 -1715.812)" fill="#2b478b" stroke="#4e4c4c" stroke-width="0.2"/></g><path d="M2636.687,1284.948a.407.407,0,0,0-.438.364v84.728a.445.445,0,0,0,.875,0v-84.728A.407.407,0,0,0,2636.687,1284.948Z" transform="translate(-2634.876 -1277.051)" fill="#758cc4" stroke="#4e4c4c" stroke-width="0.2"/></g></g></svg>