<svg xmlns="http://www.w3.org/2000/svg" width="291.61" height="149.231" viewBox="0 0 291.61 149.231"><g transform="translate(96 59.954)"><g transform="translate(-71.707 -39.555)"><g transform="translate(0 0)"><g transform="translate(-24.293 -20.399)"><path d="M1328.421,605.985l17.623,18.518,10.914,19.323,19.233,20.665H1277.7l18.185-26.283,20.74-9.381Z" transform="translate(-1158.166 -599.379)" fill="#dfe4ef"/><path d="M1421.8,664.49l-8.32-22.007-8.081,3.22,5.934-10.467-4.229-10.467-4.748,4.562,3.043-12.345-4.532-11,17.623,18.518,10.914,19.323,19.233,20.665Z" transform="translate(-1230.611 -599.379)" fill="#dfe4ef"/><path d="M1038.166,589.943l17.623,18.518,10.914,19.323,19.233,20.665H987.443l21.258-20.143,10.589-21.633Z" transform="translate(-987.443 -589.943)" fill="#dfe4ef"/><path d="M1131.543,648.449l-8.32-22.007-8.081,3.22,5.934-10.466-4.229-10.467-4.748,4.562,3.043-12.345-4.532-11,17.623,18.518,10.914,19.323,19.233,20.665Z" transform="translate(-1059.888 -589.943)" fill="#dfe4ef"/><path d="M1145.271,628.7l12.484,18.956,11.149,12.383,15.929,17.114h-81.57l16.553-21.367,12.239-18.169Z" transform="translate(-1055.567 -612.741)" fill="#dfe4ef"/><path d="M1493.93,625.237l13.884,21.082,12.4,13.771,17.715,19.033h-90.716l18.409-23.763,13.611-20.207Z" transform="translate(-1257.871 -614.702)" fill="#dfe4ef"/><path d="M1577.994,679.123l-7.946-14.489-12.694,6.948,8.234-14.242-1.481-9.643-3.8.941,3.014-7.419-4.611-15.982,25.606,10.04,14.224,21.352,4.168,22.495Z" transform="translate(-1322.654 -614.702)" fill="#dfe4ef"/><path d="M1220.859,677.156l-7.145-13.029-11.414,6.247,7.4-12.806-1.332-8.671-3.413.846,2.71-6.671-4.146-14.37,12.484,18.956,15.217,11.465,11.861,18.031Z" transform="translate(-1113.818 -612.741)" fill="#dfe4ef"/></g><g transform="translate(-24.293 82.525)"><g transform="translate(49.93 33.141)"><path d="M1052.92,854.8c-.038.3.327.628.313.916s-.411.594-.4.879c.01.306.425.569.462.849.04.307-.29.672-.22.941.08.307.546.454.66.7.138.3-.019.765.163.954.224.231.645.043.926.079s.643.324.919.155c.224-.137.188-.629.4-.881.173-.209.661-.234.815-.511.135-.243-.093-.679.023-.966.106-.262.574-.411.661-.7.081-.274-.229-.656-.167-.953s.495-.509.533-.808-.327-.628-.313-.916.411-.594.4-.879c-.01-.306-.425-.569-.462-.849-.04-.307.29-.672.22-.941-.079-.307-.546-.454-.66-.7-.138-.3.019-.765-.164-.954-.224-.231-.645-.043-.926-.079s-.643-.324-.918-.155c-.224.137-.188.629-.4.881-.172.21-.661.234-.815.511-.135.243.093.679-.024.966-.106.262-.574.411-.661.7-.081.274.228.657.167.953S1052.959,854.5,1052.92,854.8Z" transform="translate(-1050.377 -849.926)" fill="#dfe4ef"/><line x1="1.23" y2="9.617" transform="translate(4.187 2.607)" fill="#e1e1e1"/><path d="M1055.451,878.745c-.714,0-.714.515-1.427.515s-.715-.515-1.429-.515-.715.515-1.429.515-.715-.515-1.43-.515-.716.515-1.432.515-.716-.515-1.432-.515" transform="translate(-1046.871 -866.877)" fill="#dfe4ef" stroke="#e1e1e1" stroke-miterlimit="10" stroke-width="1"/></g><g transform="translate(35.196 33.322)"><path d="M1015.128,860.709c.867,2.09.8,4.1-.141,4.494s-2.415-.984-3.282-3.074-.8-4.1.141-4.494S1014.26,858.619,1015.128,860.709Z" transform="translate(-1011.094 -854.603)" fill="#dfe4ef"/><line x2="2.911" y2="7.013" transform="translate(1.537 4.925)" fill="#e1e1e1"/><path d="M1028.513,856.065c-.739,2.793-2.362,4.786-3.625,4.452s-1.688-2.869-.949-5.662,2.362-4.786,3.625-4.452S1029.253,853.272,1028.513,856.065Z" transform="translate(-1018.436 -850.366)" fill="#dfe4ef"/><line x1="2.48" y2="9.373" transform="translate(5.979 2.565)" fill="#e1e1e1"/><path d="M1013.209,878.745c.714,0,.714.515,1.428.515s.714-.515,1.429-.515.714.515,1.429.515.715-.515,1.43-.515.716.515,1.432.515.716-.515,1.432-.515" transform="translate(-1012.338 -867.058)" fill="#dfe4ef" stroke="#e1e1e1" stroke-miterlimit="10" stroke-width="1"/></g><g transform="translate(13.169 0)"><path d="M885.9,750.194c.867,2.09.8,4.1-.141,4.494s-2.414-.984-3.282-3.073-.8-4.1.141-4.494S885.031,748.1,885.9,750.194Z" transform="translate(-881.865 -744.088)" fill="#dfe4ef"/><line x2="2.911" y2="7.013" transform="translate(1.537 4.925)" fill="#e1e1e1"/><path d="M899.284,745.55c-.739,2.793-2.362,4.786-3.625,4.452s-1.688-2.869-.949-5.662,2.362-4.786,3.625-4.451S900.024,742.757,899.284,745.55Z" transform="translate(-889.207 -739.851)" fill="#dfe4ef"/><line x1="2.48" y2="9.373" transform="translate(5.979 2.565)" fill="#e1e1e1"/><path d="M883.98,768.23c.714,0,.714.515,1.428.515s.715-.515,1.429-.515.714.515,1.429.515.715-.515,1.43-.515.716.515,1.432.515.716-.515,1.432-.515" transform="translate(-883.109 -756.543)" fill="#dfe4ef" stroke="#e1e1e1" stroke-miterlimit="10" stroke-width="1"/></g><g transform="translate(0 32.787)"><ellipse cx="4.097" cy="1.853" rx="4.097" ry="1.853" transform="translate(4.837 9.89) rotate(-67.46)" fill="#dfe4ef"/><line x1="2.911" y2="7.013" transform="translate(5.993 4.925)" fill="#e1e1e1"/><path d="M925.991,854.764c.739,2.793,2.362,4.786,3.625,4.452s1.688-2.869.949-5.662-2.362-4.786-3.625-4.452S925.252,851.971,925.991,854.764Z" transform="translate(-925.628 -849.065)" fill="#dfe4ef"/><line x2="2.48" y2="9.373" transform="translate(1.981 2.565)" fill="#e1e1e1"/><path d="M936.611,877.444c-.714,0-.714.515-1.428.515s-.714-.515-1.429-.515-.714.515-1.429.515-.715-.515-1.43-.515-.716.515-1.432.515-.716-.515-1.432-.515" transform="translate(-927.041 -865.757)" fill="#dfe4ef" stroke="#e1e1e1" stroke-miterlimit="10" stroke-width="1"/></g></g><g transform="translate(47.953 80.905)"><g transform="translate(62.827 16.312)"><path d="M1240.286,810c.038.3-.327.628-.313.916.015.3.411.594.4.88-.01.306-.425.569-.462.849-.041.307.289.672.22.941-.079.307-.546.454-.66.7-.138.3.02.765-.163.954-.224.232-.645.043-.926.079s-.643.324-.918.155c-.224-.137-.189-.629-.4-.881-.172-.21-.661-.235-.815-.511-.135-.243.092-.679-.024-.966-.106-.262-.574-.411-.661-.7-.081-.274.228-.656.167-.953s-.5-.509-.533-.808.327-.628.313-.916-.411-.594-.4-.879c.01-.306.425-.569.462-.849.04-.307-.289-.673-.22-.941.079-.307.546-.454.66-.7.138-.3-.02-.765.163-.954.224-.231.645-.043.926-.079s.643-.324.918-.155c.224.137.189.629.4.881.172.209.661.234.815.511.135.243-.093.679.023.966.106.262.574.411.661.7.081.274-.229.656-.167.953S1240.248,809.7,1240.286,810Z" transform="translate(-1234.249 -805.126)" fill="#dfe4ef"/><line x2="1.23" y2="9.617" transform="translate(3.163 2.607)" fill="#e1e1e1"/><path d="M1233.014,833.946c.714,0,.714.515,1.427.515s.715-.515,1.429-.515.715.515,1.43.515.715-.515,1.43-.515.716.515,1.432.515.716-.515,1.432-.515" transform="translate(-1233.014 -822.078)" fill="#dfe4ef" stroke="#e1e1e1" stroke-miterlimit="10" stroke-width="1"/></g><g transform="translate(90.76 16.312)"><path d="M1308.116,810c.038.3-.327.628-.313.916.015.3.411.594.4.88-.01.306-.426.569-.462.849-.04.307.29.672.22.941-.079.307-.546.454-.661.7-.138.3.02.765-.163.954-.224.232-.645.043-.926.079s-.643.324-.918.155c-.224-.137-.188-.629-.4-.881-.173-.21-.661-.235-.815-.511-.135-.243.092-.679-.023-.966-.106-.262-.574-.411-.661-.7-.081-.274.228-.656.167-.953s-.5-.509-.533-.808.327-.628.313-.916-.411-.594-.4-.879c.01-.306.426-.569.462-.849.04-.307-.29-.673-.22-.941.08-.307.546-.454.661-.7.138-.3-.02-.765.163-.954.224-.231.645-.043.925-.079s.643-.324.918-.155c.224.137.189.629.4.881.172.209.661.234.815.511.135.243-.093.679.024.966.106.262.574.411.661.7.081.274-.228.656-.167.953S1308.078,809.7,1308.116,810Z" transform="translate(-1302.079 -805.126)" fill="#dfe4ef"/><line x2="1.23" y2="9.617" transform="translate(3.163 2.607)" fill="#e1e1e1"/><path d="M1300.844,833.946c.714,0,.714.515,1.428.515s.714-.515,1.429-.515.715.515,1.43.515.715-.515,1.43-.515.716.515,1.432.515.716-.515,1.432-.515" transform="translate(-1300.844 -822.078)" fill="#dfe4ef" stroke="#e1e1e1" stroke-miterlimit="10" stroke-width="1"/></g><g transform="translate(103.633 16.493)"><path d="M1346.788,815.91c-.867,2.089-.8,4.1.141,4.494s2.414-.984,3.282-3.074.8-4.1-.141-4.494S1347.655,813.82,1346.788,815.91Z" transform="translate(-1340.381 -809.804)" fill="#dfe4ef"/><line x1="2.911" y2="7.013" transform="translate(5.993 4.925)" fill="#e1e1e1"/><path d="M1332.466,811.266c.739,2.793,2.362,4.786,3.625,4.452s1.688-2.87.949-5.662-2.362-4.786-3.625-4.452S1331.727,808.473,1332.466,811.266Z" transform="translate(-1332.103 -805.567)" fill="#dfe4ef"/><line x2="2.48" y2="9.373" transform="translate(1.981 2.565)" fill="#e1e1e1"/><path d="M1343.086,833.946c-.714,0-.714.515-1.428.515s-.714-.515-1.429-.515-.715.515-1.43.515-.715-.515-1.43-.515-.716.515-1.432.515-.716-.515-1.432-.515" transform="translate(-1333.516 -822.259)" fill="#dfe4ef" stroke="#e1e1e1" stroke-miterlimit="10" stroke-width="1"/></g><g transform="translate(105.494 33.075)"><path d="M1342.67,850.707c-.038.3.327.628.313.916s-.411.594-.4.879c.01.306.425.569.462.849.04.307-.29.673-.22.941.079.307.546.454.66.7.138.3-.02.765.164.954.224.231.645.043.925.079s.643.324.918.155c.224-.137.189-.629.4-.881.172-.209.662-.234.816-.511.135-.242-.093-.679.023-.966.106-.262.574-.411.661-.7.081-.274-.228-.656-.167-.953s.495-.509.533-.808-.327-.628-.313-.916.411-.594.4-.879c-.01-.306-.425-.569-.462-.849-.04-.307.29-.672.22-.941-.079-.307-.546-.454-.66-.7-.138-.3.02-.765-.163-.954-.224-.231-.645-.043-.926-.079s-.642-.324-.918-.155c-.224.137-.188.629-.4.881-.172.21-.661.234-.815.512-.135.243.092.679-.024.966-.106.262-.574.411-.661.7-.081.274.228.656.167.953S1342.709,850.408,1342.67,850.707Z" transform="translate(-1340.127 -845.831)" fill="#dfe4ef"/><line x1="1.23" y2="9.617" transform="translate(4.187 2.607)" fill="#e1e1e1"/><path d="M1345.2,874.65c-.714,0-.714.515-1.428.515s-.715-.515-1.429-.515-.714.515-1.43.515-.715-.515-1.43-.515-.716.515-1.432.515-.716-.515-1.432-.515" transform="translate(-1336.621 -862.782)" fill="#dfe4ef" stroke="#e1e1e1" stroke-miterlimit="10" stroke-width="1"/></g><g transform="translate(77.56 33.075)"><path d="M1274.84,850.707c-.038.3.327.628.313.916s-.41.594-.4.879c.01.306.425.569.462.849.04.307-.29.673-.22.941.079.307.546.454.66.7.138.3-.02.765.163.954.224.231.645.043.926.079s.643.324.918.155c.224-.137.189-.629.4-.881.172-.209.661-.234.815-.511.135-.242-.092-.679.024-.966.106-.262.574-.411.661-.7.081-.274-.228-.656-.167-.953s.5-.509.534-.808-.328-.628-.313-.916.411-.594.4-.879c-.01-.306-.426-.569-.462-.849-.04-.307.289-.672.22-.941-.08-.307-.546-.454-.661-.7-.138-.3.02-.765-.163-.954-.224-.231-.646-.043-.926-.079s-.643-.324-.918-.155c-.224.137-.189.629-.4.881-.173.21-.661.234-.816.512-.135.243.093.679-.023.966-.106.262-.574.411-.661.7-.081.274.228.656.167.953S1274.879,850.408,1274.84,850.707Z" transform="translate(-1272.297 -845.831)" fill="#dfe4ef"/><line x1="1.23" y2="9.617" transform="translate(4.187 2.607)" fill="#e1e1e1"/><path d="M1277.371,874.65c-.714,0-.714.515-1.428.515s-.715-.515-1.429-.515-.715.515-1.43.515-.715-.515-1.43-.515-.716.515-1.432.515-.716-.515-1.432-.515" transform="translate(-1268.791 -862.782)" fill="#dfe4ef" stroke="#e1e1e1" stroke-miterlimit="10" stroke-width="1"/></g><ellipse cx="4.097" cy="1.853" rx="4.097" ry="1.853" transform="translate(4.837 9.89) rotate(-67.46)" fill="#dfe4ef"/><line x1="2.911" y2="7.013" transform="translate(5.993 4.925)" fill="#e1e1e1"/><path d="M1080.818,771.216c.739,2.793,2.362,4.786,3.625,4.452s1.688-2.87.949-5.662-2.362-4.786-3.625-4.452S1080.079,768.423,1080.818,771.216Z" transform="translate(-1080.455 -765.517)" fill="#dfe4ef"/><line x2="2.48" y2="9.373" transform="translate(1.981 2.565)" fill="#e1e1e1"/><path d="M1091.437,793.9c-.714,0-.714.515-1.428.515s-.714-.515-1.429-.515-.715.515-1.429.515-.715-.515-1.43-.515-.716.515-1.432.515-.716-.515-1.432-.515" transform="translate(-1081.868 -782.209)" fill="#dfe4ef" stroke="#e1e1e1" stroke-miterlimit="10" stroke-width="1"/><g transform="translate(49.314 33.075)"><path d="M1206.25,850.707c-.038.3.327.628.313.916s-.411.594-.4.879c.01.306.426.569.462.849.04.307-.29.673-.22.941.08.307.546.454.66.7.138.3-.019.765.164.954.224.231.645.043.925.079s.643.324.918.155c.224-.137.189-.629.4-.881.173-.209.661-.234.815-.511.135-.242-.093-.679.024-.966.106-.262.574-.411.661-.7.081-.274-.228-.656-.167-.953s.5-.509.533-.808-.327-.628-.313-.916.411-.594.4-.879c-.01-.306-.425-.569-.462-.849-.04-.307.29-.672.22-.941-.079-.307-.546-.454-.66-.7-.138-.3.019-.765-.164-.954-.224-.231-.645-.043-.926-.079s-.643-.324-.918-.155c-.224.137-.188.629-.4.881-.173.21-.661.234-.815.512-.135.243.092.679-.024.966-.106.262-.574.411-.661.7-.081.274.228.656.167.953S1206.289,850.408,1206.25,850.707Z" transform="translate(-1203.707 -845.831)" fill="#dfe4ef"/><line x1="1.23" y2="9.617" transform="translate(4.187 2.607)" fill="#e1e1e1"/><path d="M1208.782,874.65c-.714,0-.714.515-1.428.515s-.715-.515-1.429-.515-.715.515-1.429.515-.715-.515-1.43-.515-.716.515-1.432.515-.716-.515-1.432-.515" transform="translate(-1200.201 -862.782)" fill="#dfe4ef" stroke="#e1e1e1" stroke-miterlimit="10" stroke-width="1"/></g><g transform="translate(22.545 22.594)"><path d="M1139.234,830.725c.867,2.09.8,4.1-.141,4.494s-2.414-.984-3.282-3.073-.8-4.1.141-4.494S1138.367,828.635,1139.234,830.725Z" transform="translate(-1135.2 -824.618)" fill="#dfe4ef"/><line x2="2.911" y2="7.013" transform="translate(1.538 4.925)" fill="#e1e1e1"/><path d="M1152.62,826.08c-.739,2.793-2.362,4.786-3.625,4.452s-1.688-2.869-.949-5.662,2.362-4.786,3.625-4.452S1153.359,823.287,1152.62,826.08Z" transform="translate(-1142.542 -820.381)" fill="#dfe4ef"/><line x1="2.48" y2="9.373" transform="translate(5.98 2.565)" fill="#e1e1e1"/><path d="M1137.316,848.76c.714,0,.714.515,1.428.515s.714-.515,1.429-.515.715.515,1.429.515.715-.515,1.43-.515.716.515,1.432.515.716-.515,1.432-.515" transform="translate(-1136.445 -837.073)" fill="#dfe4ef" stroke="#e1e1e1" stroke-miterlimit="10" stroke-width="1"/></g></g><path d="M1486.579,571.181a3.941,3.941,0,0,0-4.331,0s8.492,5.1,11.633,10.02c0,0,.425-9.681-6.963-12.143Z" transform="translate(-1268.829 -569.058)" fill="#2d2d2d"/><path d="M1474.244,574.168s-4.925-.595-4.84,3.4c0,0,.255,2.462-.764,2.632,0,0,6.369-.595,9.171,3.991,0,0,3.482-.934,2.717,3.991a2.882,2.882,0,0,1,1.953,2.718s.509-2.037,1.613-1.868c1,.153.891-1.588.886-2.173a7.189,7.189,0,0,1,.034-1.42c.015-.079.588-1.684.863-1.247C1485.876,584.186,1482.819,579.347,1474.244,574.168Z" transform="translate(-1260.825 -572.045)" fill="#e2edff" stroke="#4e4c4c" stroke-width="0.3"/><path d="M1465.382,588.228s-.152,2.179-.747,2.577c0,0-2.462,4.474-2.208,5.578h1.868s-.8,1.444-.4,2.038a12.182,12.182,0,0,1,.4,3.312s.051.934,1.087.594c0,0,3.414-.849,4.009-.594,0,0,1.613,1.019,1.188,2.208,0,0-3.227,4.586-3.227,6.284,0,0,4.845-7.048,9.046-5.944a22.566,22.566,0,0,1,0-3.057s-2.592-1.1-2-2.8l2.463-1.953s1.359-4.415-2.717-3.991C1474.146,592.476,1471.988,588.48,1465.382,588.228Z" transform="translate(-1257.16 -580.333)" fill="#f8feff" stroke="#4e4c4c" stroke-width="0.3"/><path d="M1484.165,592.564s.849,4.5-.679,5.265c0,0,2.123,1.443,3.057-2.8A3.938,3.938,0,0,0,1484.165,592.564Z" transform="translate(-1269.558 -582.884)" fill="#2d2d2d"/><path d="M1466.107,607.9a4,4,0,0,1,4.416,2.123l-4.712.367A1.975,1.975,0,0,1,1466.107,607.9Z" transform="translate(-1258.972 -591.849)" fill="#2d2d2d"/><path d="M1472.536,610.953a7.041,7.041,0,0,0,.51,5.859s4.755,10.785,5.095,17.663c0,0,.764,8.067-1.784,10.784l.425.634-3.482,4.037-1.169.34v16.049l-5.794.34s-1.528-5.52-1.528-7.812h-.51l-1.528,7.812-8.492-1.359.594-5.6,1.255-11.209-4.4-7.133s.255-1.7,1.359-1.953l3.821-1.358s1.1-11.379,4.161-16.049c0,0,3.826-6.454,9.046-5.944,0,0-.04-1.868,0-3.057,0,0-2.507-.679-2-2.8l2.463-1.953A3.108,3.108,0,0,1,1472.536,610.953Z" transform="translate(-1250.88 -592.101)" fill="#97a7d1" stroke="#4e4c4c" stroke-width="0.3"/><path d="M1486.488,639.784s-2.293,4.585,2.972,11.633c0,0,2.123,4.415-.679,6.709h-.764l-2.025,3.821,6.957,6.685" transform="translate(-1271.031 -610.658)" fill="none" stroke="#4e4c4c" stroke-width="0.3"/><line x2="6.618" y2="5.898" transform="translate(218.439 47.893)" fill="none" stroke="#4e4c4c" stroke-width="0.3"/><path d="M1500.6,679.168s3.83.764,4.08,2.547" transform="translate(-1279.624 -633.823)" fill="none" stroke="#4e4c4c" stroke-width="0.3"/><path d="M1500.6,676.436a5.037,5.037,0,0,1,3.057.594" transform="translate(-1279.624 -632.195)" fill="none" stroke="#4e4c4c" stroke-width="0.3"/><path d="M1463.749,694.761l-9.426,6.207h-2.208l-3.566,3.251v1.528a6.105,6.105,0,0,1,1.1,3.991h-2.321s5.973,1.359,8.817-.17l.552-5.6,11.137-5.275Z" transform="translate(-1248.292 -642.994)" fill="#f8feff" stroke="#4e4c4c" stroke-width="0.3"/><line x1="0.425" y2="8.237" transform="translate(205.607 46.619)" fill="none" stroke="#4e4c4c" stroke-width="0.3"/><path d="M1429.24,692.261l-5.926,2s-3.312-1.868-5.01-1.444a33.725,33.725,0,0,1-6.369,3.567s1.019,1.359,2.8,0c0,0-1.019,2.632.255,4.246l4.84,1.019a1,1,0,0,0,0-1.443s2.8.425,3.737-1.7l8.21-2.123Z" transform="translate(-1227.473 -641.524)" fill="#f8feff" stroke="#4e4c4c" stroke-width="0.3"/><path d="M1309.415,594.871s-1.953-.509-1.358,1.443c0,0,34.506,25.11,44.256,40.62l12.552,16.868s1.783.764,1.7-1.1C1366.564,652.7,1341.344,615.251,1309.415,594.871Z" transform="translate(-1166.307 -584.205)" fill="#292949"/><path d="M1420.577,711.624s-11.807-4.331-16.9-3.142l-3.566,1.468s-.764,8.382,0,9.571,4.67.595,4.67.595l3.4-4.586,12.992,1.528s1.066-.357.478-2.189Z" transform="translate(-1220.317 -650.943)" fill="#292949"/><path d="M1449.237,737.729l-6.6,24.565s-1.529,7.473-.849,9.256l11.294,1.189v-7.727l3.652-11.039,3.155,19.106,10.6-1.783-5.351-32.632-4.754.279s-1.274-5.265-1.528-7.812h-.51l-1.529,7.812Z" transform="translate(-1244.931 -664.386)" fill="#292949" stroke="#4e4c4c" stroke-width="0.3"/><line x1="2.645" y2="10.36" transform="translate(212.315 76.424)" fill="none" stroke="#000" stroke-miterlimit="10" stroke-width="0.404"/><path d="M1433.316,830.437a84.4,84.4,0,0,1-2.46,8.465s-1.783,2.463-.849,4.416c0,0,2.463,5.18.34,6.624,0,0-3.142.594-3.227-.764a3.057,3.057,0,0,0-2.972.255s-3.057,1.444-5.095.255l-3.736.085s-.679-.255-.509-.764h-1.529s-.764-1.274.595-1.613h3.651l7.812-4.331s.569-4.358,1.215-7.627a16.636,16.636,0,0,0,.316-3.2l0-2.478Z" transform="translate(-1228.137 -722.398)" fill="#f8feff" stroke="#4e4c4c" stroke-width="0.3"/><path d="M1486.538,830.232a14.581,14.581,0,0,0,1.685,6.544s1.869,2.633,1.274,4.67l-3.991,6.454h-3.858s-2.064.934.472,1.613h1.942s.085,2.038,4.756,1.019c0,0,2.377-3.906,6.2-4.5a2.659,2.659,0,0,0,2.005-2.405,1.951,1.951,0,0,0-1.049-1.73c-.795-.438-1.9-1.212-2.06-2.2l-1.95-10.38Z" transform="translate(-1268.01 -722.139)" fill="#f8feff" stroke="#4e4c4c" stroke-width="0.3"/><path d="M1391.572,736.757l-8.917,36.132s-3.251.609-3.536-1.046l8.844-36.259s.471,1,3.1.733l.678-.041Z" transform="translate(-1208.171 -667.005)" fill="#e2edff" stroke="#4e4c4c" stroke-width="0.3"/><path d="M1361.452,824.792h-1.508s-3.5,15.57-11.209,21.3c0,0,.064,1.4,2.42.955l11.654-10.508s2.229-8.543,1.974-11.181C1364.784,825.36,1362.322,825.844,1361.452,824.792Z" transform="translate(-1190.299 -719.476)" fill="#292949"/><path d="M1323.647,774.092l-44.092-13.146v1.529l43.643,13.459Z" transform="translate(-1149.609 -681.923)" fill="#292949"/><path d="M972.274,651.525a30.478,30.478,0,0,0-3.439,11.846s-1.274,4.331-3.694,5.732c0,0-2.038.815-.637,3.465,0,0,1.274,3.668,4.586,2.777l5.477-2.777h2.548s7.133-.662,8.789-3.465l3.948,2.42s.255,1.579,3.694,1.044c0,0,2.675,1.121,2.547,5.2,0,0-1.52,6.369,0,8.662l-2.043,4.458-4.076,3.949-.764,9.935s.637,3.694,0,4.713c0,0-1.147,3.184-.128,5.477l5.35,7.77,3.948,3.694,3.057-6.114-2.675-3.057-.255-2.165a29.474,29.474,0,0,0-3.694-3.185l.892-11.082s-.892-1.656,1.529-3.439l4.2-3.566s9.171,8.406,17.068,3.821c0,0,1.783,1.91,1.783,2.93,0,0-.382,9.044,1.911,11.845,0,0,1.911,10.056,1.4,13.18l-2.165,6.054s-1.656,3.185-.765,4.586l7.643.533s-.382-3.336.637-4.992c0,0,1.528.128,1.783-1.783V717.76a49.691,49.691,0,0,0-2.8-8.916s-2.165-10.4-.127-13.226c0,0,17.02,5.484,45.6,1,0,0,1.911,8.916,4.076,11.082a3.608,3.608,0,0,1-1.274,3.694s-10.19,15.539-10.19,18.342a5.751,5.751,0,0,0-1.783,4.331s2.675,4.633,10.19,2.7l-.128-4.737s2.038.473,2.038-2.8a15.858,15.858,0,0,1,2.675-9.808s3.949-6.5,5.987-7.515c0,0-.255-9.426-1.274-13.374,0,0,.255-.509,1.274,0l8.959,5.987,3.779,16.431v2.93s-2.548,5.1-2.675,5.477c0,0-2.8,3.821-2.165,5.477,0,0,3.312,2.038,8.789.127l.637-5.6s-.127-.637,1.4-.764c0,0,2.577-.764,1.926-3.948,0,0-3.582-6.369-2.69-17.705,0,0,1.274-2.929-3.184-6.878,0,0-8.025-6.878-5.1-14.011,0,0,6.114-17.2,6.241-22.928,0,0-.51-2.384.509-1.7,0,0-2.307,23.467,14.931,31,0,0-3.192,5.135,8.777,6.856,0,0,2.4-7.238-7.022-7.748,0,0-5.987-1.571-6.751-3.4,0,0-8.661-6.248-8.661-26.71,0,0-.764-13.965-17.068-17.4l-39.359,1.4s-16.3,1.274-17.96-.127a14.574,14.574,0,0,1-8.279-6.878s-4.2-3.694-10.19,1.529l-2.675,2.8s-10.7,6.5-22.8,1.656C984.374,644.392,974.837,644.808,972.274,651.525Z" transform="translate(-964.012 -609.101)" fill="#f0f5fd" stroke="#4e4c4c" stroke-width="0.3"/><path d="M1017.744,620.112c0,.746-1.957,2.121-2.471,2.462-2.117,1.4-4.771.729-7.136.934a25.368,25.368,0,0,0-4.994.9c-3.848,1.137-7.407,3.518-8.582,7.547,0,0-2.675,7.133,1.273,8.534,0,0,4.3.2,4.84-2.929.867-5.031,3.819-7.725,8.729-8.544a10.073,10.073,0,0,0,8.34-7.888Z" transform="translate(-981.46 -599.087)" fill="#4e6ebe" stroke="#4e4c4c" stroke-width="0.3"/><path d="M1001.437,616.71s-2.038,3.312-4.968,3.312c0,0-12.483,1.91-14.266,11.718,0,0-1.483,4.973.978,6.753a6.74,6.74,0,0,1,3.492-3.626s-.954-9.961,10.217-12.658l4.239-.7A3.405,3.405,0,0,0,1001.437,616.71Z" transform="translate(-974.451 -597.086)" fill="#4e6ebe" stroke="#4e4c4c" stroke-width="0.3"/><path d="M972.547,704.839s8.007,1.716,8.9,7.549H978.9s-3.579-4.747-7.522-5.38Z" transform="translate(-968.344 -648.922)" fill="#292949"/><path d="M989.071,692.868l20.1-13.371v1.783L989.96,693.708Z" transform="translate(-978.751 -634.016)" fill="#292949"/><path d="M1032.988,657.856l4.213-.7s-4.076,23.77-6.751,27.184a2.886,2.886,0,0,1-3.694-1.044Z" transform="translate(-1000.917 -620.878)" fill="#292949"/><path d="M1013.481,676.4s7.887,9.426,10.689,10.19c0,0-9.023,4.2-10.689-6.623" transform="translate(-993.109 -632.197)" fill="#f0f5fd" stroke="#4e4c4c" stroke-width="0.3"/><path d="M1222.249,717.718c-1.274-2.42-.509-6.114-.509-6.114-12.865-20.507,4.84-35.92,5.35-35.92,0,0,12.737-7.26,21.017,2.165" transform="translate(-1112.853 -630.203)" fill="#f0f5fd" stroke="#4e4c4c" stroke-width="0.3"/><path d="M1260.894,753.373s8.916-10.869,9.681-15.986" transform="translate(-1138.633 -668.066)" fill="#dcf5f8" stroke="#4e4c4c" stroke-width="0.3"/><path d="M1079.337,701.708c0-.552,2.293-8.923,9.171-6.33,0,0,7.388,2.854,7.006,12.849,0,0-1.911,7.428-.637,12.151,0,0,1.543,6.273.764,9.2" transform="translate(-1031.844 -643.065)" fill="none" stroke="#4e4c4c" stroke-width="0.3"/><path d="M1041.08,740.084s-.04,8.167,3.4,10.841l2.293,3.439" transform="translate(-1009.342 -669.652)" fill="none" stroke="#4e4c4c" stroke-width="0.3"/><path d="M1070.567,648.827s-1.768,12.885,15.555,5.5" transform="translate(-1026.656 -615.977)" fill="none" stroke="#4e4c4c" stroke-width="0.3"/><circle cx="6.416" cy="6.416" r="6.416" transform="translate(31.014 27.346)" fill="#292949"/><path d="M1037.891,837.149l4.331-5.477,2.675,3.057-3.057,6.114Z" transform="translate(-1007.466 -723.523)" fill="#292949"/><path d="M1102.351,863.78s3.548,2.378,7.1,1.3a8.979,8.979,0,0,0-.637,4.992l-7.642-.533s-.708-.917.028-2.751Z" transform="translate(-1044.505 -742.408)" fill="#292949"/><path d="M1209.168,861.983a10.306,10.306,0,0,0,8.279,2.293l.128,4.737s-6.789,2.4-10.19-2.7A6.335,6.335,0,0,1,1209.168,861.983Z" transform="translate(-1107.16 -741.351)" fill="#292949"/><path d="M1278.039,865.241s6.717,1.1,8.143.23l-.415,3.651s-5.118,2.165-8.789-.127A7.485,7.485,0,0,1,1278.039,865.241Z" transform="translate(-1148.093 -743.268)" fill="#292949"/><g transform="translate(243.707 82.525)"><g transform="translate(13.169 0)"><path d="M885.9,750.194c.867,2.09.8,4.1-.141,4.494s-2.414-.984-3.282-3.073-.8-4.1.141-4.494S885.031,748.1,885.9,750.194Z" transform="translate(-881.865 -744.088)" fill="#dfe4ef"/><line x2="2.911" y2="7.013" transform="translate(1.537 4.925)" fill="#e1e1e1"/><path d="M899.284,745.55c-.739,2.793-2.362,4.786-3.625,4.452s-1.688-2.869-.949-5.662,2.362-4.786,3.625-4.451S900.024,742.757,899.284,745.55Z" transform="translate(-889.207 -739.851)" fill="#dfe4ef"/><line x1="2.48" y2="9.373" transform="translate(5.979 2.565)" fill="#e1e1e1"/><path d="M883.98,768.23c.714,0,.714.515,1.428.515s.715-.515,1.429-.515.714.515,1.429.515.715-.515,1.43-.515.716.515,1.432.515.716-.515,1.432-.515" transform="translate(-883.109 -756.543)" fill="#dfe4ef" stroke="#e1e1e1" stroke-miterlimit="10" stroke-width="1"/></g><g transform="translate(0 32.787)"><ellipse cx="4.097" cy="1.853" rx="4.097" ry="1.853" transform="translate(4.837 9.89) rotate(-67.46)" fill="#dfe4ef"/><line x1="2.911" y2="7.013" transform="translate(5.993 4.925)" fill="#e1e1e1"/><path d="M925.991,854.764c.739,2.793,2.362,4.786,3.625,4.452s1.688-2.869.949-5.662-2.362-4.786-3.625-4.452S925.252,851.971,925.991,854.764Z" transform="translate(-925.628 -849.065)" fill="#dfe4ef"/><line x2="2.48" y2="9.373" transform="translate(1.981 2.565)" fill="#e1e1e1"/><path d="M936.611,877.444c-.714,0-.714.515-1.428.515s-.714-.515-1.429-.515-.714.515-1.429.515-.715-.515-1.43-.515-.716.515-1.432.515-.716-.515-1.432-.515" transform="translate(-927.041 -865.757)" fill="#dfe4ef" stroke="#e1e1e1" stroke-miterlimit="10" stroke-width="1"/></g></g></g></g></g></svg>