<svg xmlns="http://www.w3.org/2000/svg" width="58.705" height="59.667" viewBox="0 0 58.705 59.667">
  <g id="Layer_14" data-name="Layer 14" transform="translate(-1 -1)" opacity="0.5">
    <path id="Path_4721" data-name="Path 4721" d="M25.7,45.586v-7.7a2.887,2.887,0,0,0-5.774,0v7.7a4.812,4.812,0,0,0,1.742,8.507,5.167,5.167,0,0,0,1.145.154A4.812,4.812,0,0,0,25.7,45.586Zm-1.1,6.092a2.887,2.887,0,1,1-3.234-4.744.962.962,0,0,0,.481-.837V37.887a.962.962,0,0,1,1.925,0v8.228a.962.962,0,0,0,.481.837A2.887,2.887,0,0,1,24.6,51.7Z" transform="translate(-0.64 -1.28)" fill="#071e54"/>
    <path id="Path_4722" data-name="Path 4722" d="M58.954,36.608l-3.185-.7a12.155,12.155,0,0,1-7.7-5.582.962.962,0,0,0-1.655,0A12.078,12.078,0,0,1,41.419,34.9V30.833a4.812,4.812,0,0,0-2.887-4.408V17.36a16.36,16.36,0,1,0-32.72,0v9.065a4.812,4.812,0,0,0-2.887,4.408V33.72H1.962A.962.962,0,0,0,1,34.683V52.005a.962.962,0,0,0,.962.962h.962v2.887a4.812,4.812,0,0,0,4.812,4.812H36.608a4.812,4.812,0,0,0,4.812-4.812V55.73A27.986,27.986,0,0,0,45.846,59.9l.77.577a.962.962,0,0,0,1.155,0l.77-.577A28.053,28.053,0,0,0,59.7,37.57a.962.962,0,0,0-.751-.962ZM7.737,17.36a14.435,14.435,0,0,1,28.871,0v8.661H32.758V17.36a10.586,10.586,0,0,0-21.172,0v8.661H7.737Zm23.1,8.661H13.511V17.36a8.661,8.661,0,0,1,17.323,0ZM12.548,35.645v3.849H2.925V35.645Zm-9.624,15.4V47.194h9.624v3.849Zm9.624-5.774H2.925V41.419h9.624ZM39.495,55.855a2.887,2.887,0,0,1-2.887,2.887H7.737a2.887,2.887,0,0,1-2.887-2.887V52.968h8.661a.962.962,0,0,0,.962-.962V34.683a.962.962,0,0,0-.962-.962H4.849V30.833a2.887,2.887,0,0,1,2.887-2.887H36.608a2.887,2.887,0,0,1,2.887,2.887v4.812c-.289.087-.577.173-.876.241l-3.185.722a.962.962,0,0,0-.751.962A28.043,28.043,0,0,0,39.495,53.2Zm7.891,2.5-.192.144L47,58.357A26.128,26.128,0,0,1,36.608,38.34l2.416-.539a14.079,14.079,0,0,0,8.17-5.245A14.079,14.079,0,0,0,55.354,37.8l2.425.539A26.128,26.128,0,0,1,47.386,58.357Z" transform="translate(0)" fill="#071e54"/>
    <path id="Path_4723" data-name="Path 4723" d="M54.395,40.416l-1.713-.866-.654,1.3a6.823,6.823,0,1,0,1.511,1.213Zm-.857,6.3a4.86,4.86,0,1,1-2.377-4.129l-2.6,5.2L46.638,45.18,45.1,46.335l2.887,3.849a.962.962,0,0,0,.77.385h.087a.962.962,0,0,0,.77-.529l3.051-6.1A4.735,4.735,0,0,1,53.538,46.72Z" transform="translate(-1.533 -1.451)" fill="#071e54"/>
  </g>
</svg>
