<svg xmlns="http://www.w3.org/2000/svg" width="85.372" height="40.712" viewBox="0 0 85.372 40.712"><defs><style>.a{fill:#7a86a2;stroke:#7a86a2;stroke-miterlimit:10;stroke-width:0.5px;}</style></defs><g transform="translate(-0.67 -4.643)"><g transform="translate(0.926 4.893)"><path class="a" d="M19.524,284.96c-.024,0-.049,0-.073.005a.746.746,0,0,0-.66.759v5.207h-5.21q-.038,0-.075,0a.744.744,0,0,0-.672.747v14.133H1.67a.745.745,0,0,0-.7.988l5.957,17.854a.746.746,0,0,0,.7.518H73.119a.745.745,0,0,0,.648-.384l11.912-20.834a.746.746,0,0,0-.648-1.122h-5.21V300.66c0-.019,0-.039,0-.058v-2.919c0-.019,0-.039,0-.058v-2.977a.744.744,0,0,0-.747-.738H34.416q-.032,0-.064,0a.745.745,0,0,0-.672.738v11.165H29.209v-8.187a.744.744,0,0,0-.747-.736h-2.23v-5.21a.744.744,0,0,0-.738-.747H20.274v-5.207a.745.745,0,0,0-.75-.765Zm-5.2,7.455h4.861a.746.746,0,0,0,.686,0h4.87v4.474H14.328Zm20.834,2.98H42.6v1.494h-7.44v-1.494Zm8.935,0h7.44v1.494H44.1Zm8.934,0h7.44v1.494h-7.44Zm8.923,0H69.4v1.494H61.954Zm8.934,0h7.449v1.494H70.889Zm-56.56,2.977h13.4v7.44h-13.4Zm20.834,0H42.6v1.494h-7.44v-1.494Zm8.935,0h7.44v1.494H44.1Zm8.934,0h7.44v1.494h-7.44Zm8.923,0H69.4v1.494H61.954Zm8.934,0h7.449v1.494H70.889Zm-35.726,2.977H42.6v1.494h-7.44v-1.494Zm8.935,0h7.44v1.494H44.1Zm8.934,0h7.44v1.483h-7.44Zm8.923,0H69.4v1.483H64.2a.733.733,0,0,0-.113.011H61.954Zm8.934,0h7.449v1.483H70.889Zm-35.726,2.977H42.6v1.486h-7.44v-1.486Zm8.935,0h7.44v1.486H44.1Zm8.934,0h7.44v.285l-2.407,1.2H53.031Zm11.339,0H83.745L72.688,323.678H8.164L2.7,307.306H58.238q.038,0,.075-.006a.744.744,0,0,0,.145-.028.771.771,0,0,0,.11-.045Z" transform="translate(-0.926 -284.96)"/><path class="a" d="M6.769,289.724a3.726,3.726,0,1,0,3.713,3.724A3.74,3.74,0,0,0,6.769,289.724Zm0,1.494a2.231,2.231,0,1,1-2.233,2.23,2.218,2.218,0,0,1,2.233-2.23Z" transform="translate(8.866 -262.918)"/><path class="a" d="M8.875,289.724a3.726,3.726,0,1,0,3.724,3.724A3.73,3.73,0,0,0,8.875,289.724Zm0,1.494a2.231,2.231,0,1,1-2.23,2.23A2.218,2.218,0,0,1,8.875,291.219Z" transform="translate(18.661 -262.918)"/><path class="a" d="M11,289.724a3.726,3.726,0,1,0,3.724,3.724A3.738,3.738,0,0,0,11,289.724Zm0,1.494a2.231,2.231,0,1,1-2.23,2.23,2.219,2.219,0,0,1,2.23-2.23Z" transform="translate(28.448 -262.918)"/></g></g></svg>