<svg xmlns="http://www.w3.org/2000/svg" xmlns:xlink="http://www.w3.org/1999/xlink" width="203.477" height="122.379" viewBox="0 0 203.477 122.379"><defs><style>.a{fill:#f5f5f5;}.b{filter:url(#a);}</style><filter id="a" x="0" y="0" width="203.477" height="122.379" filterUnits="userSpaceOnUse"><feOffset dx="3" dy="3" input="SourceAlpha"/><feGaussianBlur stdDeviation="3" result="b"/><feFlood flood-opacity="0.102"/><feComposite operator="in" in2="b"/><feComposite in="SourceGraphic"/></filter></defs><g class="b" transform="matrix(1, 0, 0, 1, 0, 0)"><path class="a" d="M175.478,104.379H10a10.011,10.011,0,0,1-10-10V10A10.011,10.011,0,0,1,10,0H175.478a10.011,10.011,0,0,1,10,10v84.38A10.011,10.011,0,0,1,175.478,104.379ZM22.673,7.069a10.011,10.011,0,0,0-10,10V87.2a10.011,10.011,0,0,0,10,10H162.9a10.011,10.011,0,0,0,10-10V17.068a10.011,10.011,0,0,0-10-10Z" transform="translate(6 6)"/></g></svg>