<svg xmlns="http://www.w3.org/2000/svg" width="216.633" height="158.968" viewBox="0 0 216.633 158.968"><g transform="translate(0)"><g transform="translate(0 0)"><g transform="translate(0 0)"><g transform="translate(0 0)"><g transform="translate(59.4)"><ellipse cx="16.899" cy="16.899" rx="16.899" ry="16.899" fill="#97a7d1"/><ellipse cx="14.533" cy="14.533" rx="14.533" ry="14.533" transform="translate(2.366 2.366)" opacity="0.1"/><path d="M66.459,4.1H64.145A4.56,4.56,0,0,0,62.318.911h4.141a.456.456,0,0,0,0-.911H56.82a.456.456,0,0,0,0,.911h2.76A3.681,3.681,0,0,1,63.229,4.1H56.82a.456.456,0,0,0,0,.911h6.409a3.687,3.687,0,0,1-3.649,3.234H56.825a.463.463,0,0,0-.455.469.47.47,0,0,0,.141.328L63.4,15.56a.454.454,0,0,0,.642-.018.465.465,0,0,0-.018-.651L57.964,9.156h1.612a4.6,4.6,0,0,0,4.569-4.145h2.314a.456.456,0,0,0,0-.911Z" transform="translate(-44.766 9.061)" fill="#f2f2f2" stroke="#f2f2f2" stroke-width="1"/></g><g transform="translate(0 22.58)"><ellipse cx="28.765" cy="28.765" rx="28.765" ry="28.765" transform="translate(0 0)" fill="#97a7d1"/><ellipse cx="24.738" cy="24.738" rx="24.738" ry="24.738" transform="translate(4.027 4.027)" opacity="0.1"/><path d="M73.546,6.978H69.608A7.763,7.763,0,0,0,66.5,1.551h7.048a.775.775,0,0,0,0-1.551H57.14a.775.775,0,0,0,0,1.551h4.7a6.265,6.265,0,0,1,6.21,5.427H57.14a.775.775,0,0,0,0,1.551H68.049a6.276,6.276,0,0,1-6.21,5.5H57.148a.788.788,0,0,0-.775.8.8.8,0,0,0,.24.558l11.731,11.1a.773.773,0,0,0,1.093-.031.791.791,0,0,0-.031-1.109l-10.32-9.761h2.745a7.832,7.832,0,0,0,7.777-7.056h3.939a.775.775,0,0,0,0-1.551Z" transform="translate(-36.621 15.423)" fill="#f2f2f2" stroke="#f2f2f2" stroke-width="1"/></g></g></g></g><g transform="translate(34.201 54.495)"><g transform="translate(0)"><path d="M15.051,0H147.957a15.051,15.051,0,0,1,15.051,15.051V87.418a15.052,15.052,0,0,1-15.052,15.052H15.051A15.051,15.051,0,0,1,0,87.418V15.051A15.051,15.051,0,0,1,15.051,0Z" fill="#b7c9e2" stroke="#4e4c4c" stroke-width="0.3"/><path d="M14.028,0H148.98a14.028,14.028,0,0,1,14.028,14.028V88.441a14.028,14.028,0,0,1-14.028,14.028H14.028A14.028,14.028,0,0,1,0,88.441V14.028A14.028,14.028,0,0,1,14.028,0Z" fill="#b7c9e2" stroke="#4e4c4c" stroke-width="0.3"/><g transform="translate(15.839 11.995)"><g transform="translate(110.236 2.592)"><ellipse cx="10.547" cy="10.547" rx="10.547" ry="10.547" fill="#97a7d1"/></g><ellipse cx="10.547" cy="10.547" rx="10.547" ry="10.547" transform="translate(96.623 2.592)" fill="#292949"/><g transform="translate(0 23.687)"><rect width="32.448" height="23.751" rx="6.484" fill="#f0f5fd" stroke="#4e4c4c" stroke-width="0.3"/><rect width="32.448" height="23.751" rx="6.484" fill="#f0f5fd" stroke="#4e4c4c" stroke-width="0.3" opacity="0.3"/></g><path d="M2.592,0H46.179a2.592,2.592,0,0,1,2.592,2.592v0a2.592,2.592,0,0,1-2.592,2.592H2.592A2.592,2.592,0,0,1,0,2.592v0A2.592,2.592,0,0,1,2.592,0Z" fill="#f0f5fd" stroke="#4e4c4c" stroke-width="0.3"/><path d="M2.592,0H46.179a2.592,2.592,0,0,1,2.592,2.592v0a2.592,2.592,0,0,1-2.592,2.592H2.592A2.592,2.592,0,0,1,0,2.592v0A2.592,2.592,0,0,1,2.592,0Z" fill="#f0f5fd" stroke="#4e4c4c" stroke-width="0.3" opacity="0.3"/><g transform="translate(0 59.222)"><rect width="27.208" height="11.157" rx="5.579" fill="#f0f5fd" stroke="#4e4c4c" stroke-width="0.3"/><rect width="27.208" height="11.157" rx="5.579" fill="#f0f5fd" stroke="#4e4c4c" stroke-width="0.3" opacity="0.3"/></g><g transform="translate(34.707 59.222)"><rect width="27.208" height="11.157" rx="5.579" fill="#f0f5fd" stroke="#4e4c4c" stroke-width="0.3"/><rect width="27.208" height="11.157" rx="5.579" fill="#f0f5fd" stroke="#4e4c4c" stroke-width="0.3" opacity="0.3"/></g><g transform="translate(69.415 59.222)"><rect width="27.208" height="11.157" rx="5.579" fill="#f0f5fd" stroke="#4e4c4c" stroke-width="0.3"/><rect width="27.208" height="11.157" rx="5.579" fill="#f0f5fd" stroke="#4e4c4c" stroke-width="0.3" opacity="0.3"/></g><g transform="translate(104.122 59.222)"><rect width="27.208" height="11.157" rx="5.579" fill="#f0f5fd" stroke="#4e4c4c" stroke-width="0.3"/><rect width="27.208" height="11.157" rx="5.579" fill="#f0f5fd" stroke="#4e4c4c" stroke-width="0.3" opacity="0.3"/></g></g></g></g></g><g transform="translate(154.35 116.79)"><path d="M4033.307,1533.818l38.7-.045a9.184,9.184,0,0,0,9.146-9.167l-.02-16.77a9.184,9.184,0,0,0-9.168-9.146l-38.7.045a9.184,9.184,0,0,0-9.146,9.168l.02,16.769A9.184,9.184,0,0,0,4033.307,1533.818Z" transform="translate(-4019.017 -1491.791)" fill="#292949" stroke="#4e4c4c" stroke-width="0.3"/><path d="M4056.5,1478.305v0a9.226,9.226,0,0,0-7.071-4.585h-.009c-.3-.028-.595-.045-.9-.044l-7.705.011,0-3.619a3.035,3.035,0,0,0-3.036-3.028l-2.01,0-8.091.009-1.458,0a3.036,3.036,0,0,0-3.028,3.036l0,3.619-13.3.014a9.221,9.221,0,0,0-9.182,9.2l.022,16.965a9.216,9.216,0,0,0,9.2,9.179l38.627-.043a8.994,8.994,0,0,0,1.983-.221h.007a9.037,9.037,0,0,0,2.847-1.17,9.208,9.208,0,0,0,4.344-7.811l-.019-16.963A9.114,9.114,0,0,0,4056.5,1478.305Zm-31.413-8.221a1.137,1.137,0,0,1,1.132-1.134l1.718,0,6.368-.006,3.471,0a1.133,1.133,0,0,1,1.133,1.13l.005,3.619-13.822.014Z" transform="translate(-4000.711 -1467.037)" fill="#4e6ebe" stroke="#4e4c4c" stroke-width="0.3"/></g></svg>