<svg xmlns="http://www.w3.org/2000/svg" width="24.396" height="25.12" viewBox="0 0 24.396 25.12"><defs><style>.a{opacity:0.5;}.b{fill:#071e54;}</style></defs><g class="a"><path class="b" d="M40.934,39.02l-.161-.081c-.2-.081-1.328-.644-1.369-1.49L38.237,20.22c0-.2-.04-.4-.04-.564-.04-2.214.523-4.227,1.449-5.153a1.832,1.832,0,0,1,1.288-.6c1.771,0,2.737,2.858,2.737,5.515v.242a2.852,2.852,0,0,1-.04.564L42.464,37.45c-.04.845-1.167,1.369-1.369,1.49Zm0-24.356a1.044,1.044,0,0,0-.725.362c-.765.765-1.248,2.617-1.208,4.589a2.3,2.3,0,0,0,.04.523L40.21,37.37c0,.242.4.523.725.725.322-.2.725-.483.725-.725l1.167-17.23a2.3,2.3,0,0,1,.04-.523v-.2C42.867,16.839,41.981,14.665,40.934,14.665Z" transform="translate(-28.737 -13.9)"/><path class="b" d="M25.328,33.061H14.7l.443-2.5L24.966,26.7v.564a2.3,2.3,0,0,0,.04.523Zm-9.7-.805h8.857L24.2,27.867l-8.373,3.3Z" transform="translate(-14.7 -21.547)"/><path class="b" d="M59.528,33.061H48.9l.362-5.274a2.3,2.3,0,0,1,.04-.523V26.7l9.823,3.865Zm-9.782-.805H58.6l-.2-1.127-8.373-3.3Z" transform="translate(-35.132 -21.547)"/><path class="b" d="M33.6,67.617H27.2l.4-1.328L33.44,65Zm-4.71-.805h3.865l-.04-.845Z" transform="translate(-22.168 -44.429)"/><path class="b" d="M53.3,67.557H46.9l.2-2.657,5.837,1.328Zm-5.555-.805H51.57l-3.784-.845Z" transform="translate(-33.937 -44.369)"/></g></svg>