<svg xmlns="http://www.w3.org/2000/svg" width="66.096" height="36.765" viewBox="0 0 66.096 36.765"><defs><style>.a{fill:#071e54;stroke:rgba(0,0,0,0);opacity:0.5;}</style></defs><g transform="translate(0.496 0.5)"><path class="a" d="M3302.2,1648.822l-.006-.05-.28,0c-.106,0-.229,0-.366,0h-.188c0-.956,0-2.3,0-3.724,0-2.318,0-4.831,0-6.156h0a6.943,6.943,0,0,0-6.739-6.726l-.925,0c-.574.008-1.067.009-1.554-.008-1.694-3.328-3.074-6.087-4.337-8.666a2.81,2.81,0,0,0-2.693-1.719c-7.7.016-15.516.016-23.22,0a2.847,2.847,0,0,0-2.6,1.493c-.977,1.648-1.968,3.3-2.926,4.9l-2.376,4h-3.063a.367.367,0,0,0-.076.008l-2.879,0-2.907,0a6.873,6.873,0,0,0-6.683,6.651c-.011,3.382-.005,6.776,0,10.058a2.445,2.445,0,0,0,2.686,2.675h2.863a7.2,7.2,0,0,0,1.968,3.878,7.375,7.375,0,0,0,5.266,2.112h.019a7.383,7.383,0,0,0,5.273-2.1,7.139,7.139,0,0,0,1.963-3.893h21.8a7.188,7.188,0,0,0,1.939,3.87,7.372,7.372,0,0,0,5.275,2.12h.019a7.385,7.385,0,0,0,5.273-2.1,7.176,7.176,0,0,0,1.986-3.892h4.274c.5,0,.987,0,1.424,0,.651,0,1.213,0,1.554,0h.015l.131-.011a1.514,1.514,0,0,0,1.362-1.376C3303.467,1649.208,3302.987,1648.914,3302.2,1648.822Zm-45-16.655,1.539-2.577c.958-1.593,1.947-3.241,2.933-4.908.061-.1.081-.121.078-.122a.684.684,0,0,1,.133-.007c2.283.006,4.605,0,6.851,0l3.115,0v7.614Zm28.022-7.615a1.2,1.2,0,0,1,.086.156c1.244,2.545,2.52,5.071,3.73,7.456H3274.62v-7.614h3.291c2.358,0,4.8,0,7.2,0C3285.146,1624.55,3285.192,1624.55,3285.219,1624.552Zm13.361,23.028v1.2H3294.7a7.165,7.165,0,0,0-1.991-3.9,7.406,7.406,0,0,0-5.291-2.092,7.056,7.056,0,0,0-7.209,5.988h-21.807a7.146,7.146,0,0,0-1.967-3.9,7.4,7.4,0,0,0-5.291-2.092,7.062,7.062,0,0,0-7.237,5.99l-2.766,0c-.006-3.262-.011-6.632,0-9.948a4.123,4.123,0,0,1,3.914-3.885h.667c2.754-.005,5.6-.01,8.405.012h.016a.349.349,0,0,0,.1-.014h37.678a.45.45,0,0,0,.113-.015c.517.017,1.063.024,1.667.02l.9,0a4.088,4.088,0,0,1,3.974,3.958C3298.581,1640.738,3298.581,1644.856,3298.58,1647.58Zm-52.006,2.549a4.392,4.392,0,0,1,4.587-4.569,4.688,4.688,0,0,1,3.325,7.917h0a4.6,4.6,0,0,1-7.912-3.309Zm40.86-4.567a4.412,4.412,0,0,1,4.611,4.6,4.583,4.583,0,0,1-1.286,3.313h0a4.6,4.6,0,0,1-7.915-3.343A4.4,4.4,0,0,1,3287.434,1645.563Z" transform="translate(-3238.367 -1621.776)"/></g></svg>