<svg xmlns="http://www.w3.org/2000/svg" width="22.159" height="30.818" viewBox="0 0 22.159 30.818"><defs><style>.a{opacity:0.5;}.b{fill:#264a9f;}</style></defs><g class="a" transform="translate(0 0)"><g transform="translate(0 0)"><g transform="translate(0 0)"><path class="b" d="M138.454,28.324v4.969a18.1,18.1,0,0,1-.074,2.382l.066-.495a8.253,8.253,0,0,1-.565,2.064l.188-.444a8.3,8.3,0,0,1-1.056,1.805l.291-.377a8.353,8.353,0,0,1-1.47,1.47l.377-.291a8.3,8.3,0,0,1-1.805,1.056l.444-.188a8.253,8.253,0,0,1-2.064.565l.495-.066a19.833,19.833,0,0,1-2.606.074h-2.618a1.878,1.878,0,0,0-1.86,1.86v.277a1.886,1.886,0,0,0,.549,1.336l.059.06.316.32,1.294,1.312,4.189,4.246,4.327,4.386,2.068,2.1,0,0a1.86,1.86,0,1,0,2.631-2.631l-1.964-1.991-4.294-4.352-4.228-4.286-1.773-1.8L129.916,43v-.293l-1.86,1.86h2.292c.822,0,1.656.037,2.477-.026a9.995,9.995,0,0,0,8.35-5.626A9.832,9.832,0,0,0,142,36.394a11.6,11.6,0,0,0,.174-1.914V28.324a1.86,1.86,0,0,0-3.721,0Z" transform="translate(-126.195 -26.464)"/></g></g><g transform="translate(0 0)"><g transform="translate(0 0)"><path class="b" d="M128.057,30.184H146.5a1.86,1.86,0,0,0,0-3.721H128.057a1.86,1.86,0,0,0,0,3.721Z" transform="translate(-126.197 -26.463)"/></g></g><g transform="translate(0 7.109)"><g transform="translate(0)"><path class="b" d="M146.494,240.463H128.056a1.86,1.86,0,0,0,0,3.721h18.438a1.86,1.86,0,0,0,0-3.721Z" transform="translate(-126.196 -240.463)"/></g></g></g></svg>