<?xml version="1.0" encoding="utf-8"?>
<!-- Generator: Adobe Illustrator 23.1.1, SVG Export Plug-In . SVG Version: 6.00 Build 0)  -->
<svg version="1.1" id="Layer_1" xmlns="http://www.w3.org/2000/svg" xmlns:xlink="http://www.w3.org/1999/xlink" x="0px" y="0px"
	 viewBox="0 0 55 55"  xml:space="preserve">
<style type="text/css">
	.st0{fill:none;}
	<!-- .st1{fill:#264A9F;} -->
	.st2{fill:none;stroke:#264A9F;stroke-miterlimit:10;}
</style>
<path class="st1" d="M47.6,33.4L47.6,33.4l-0.2,0c-0.1,0-0.1,0-0.2,0c0,0-0.1,0-0.1,0c0-0.6,0-1.5,0-2.4c0-1.5,0-3.1,0-4v0
	c0-2.3-2-4.3-4.3-4.3l-0.6,0c-0.4,0-0.7,0-1,0c-1.1-2.1-2-3.9-2.8-5.6c-0.4-0.7-0.9-1.1-1.7-1.1c-5,0-10,0-15,0
	c-0.7,0-1.3,0.3-1.7,1C19.3,17.9,18.6,19,18,20l-1.5,2.6h-2c0,0,0,0,0,0c-0.6,0-1.2,0-1.9,0c-0.6,0-1.2,0-1.9,0
	c-2.3,0-4.3,2-4.3,4.3c0,2.2,0,4.4,0,6.5c0,1.1,0.6,1.7,1.7,1.7H10c0.2,1,0.6,1.8,1.3,2.5c0.9,0.9,2.1,1.4,3.4,1.4h0
	c1.3,0,2.5-0.5,3.4-1.4c0.7-0.7,1.1-1.5,1.3-2.5h14.1c0.2,1,0.6,1.8,1.3,2.5c0.9,0.9,2.1,1.4,3.4,1.4h0c1.3,0,2.5-0.5,3.4-1.4
	c0.7-0.7,1.1-1.5,1.3-2.5h2.8c0.3,0,0.6,0,0.9,0c0.4,0,0.8,0,1,0l0,0l0.1,0c0.4-0.1,0.9-0.4,0.9-0.9C48.4,33.6,48.1,33.4,47.6,33.4z
	 M18.6,22.6l1-1.7c0.6-1,1.3-2.1,1.9-3.2c0-0.1,0.1-0.1,0.1-0.1c0,0,0,0,0.1,0c1.5,0,3,0,4.4,0c0.7,0,1.3,0,2,0v4.9H18.6z
	 M36.6,17.7c0,0,0,0,0.1,0.1c0.8,1.6,1.6,3.3,2.4,4.8h-9.3v-4.9c0.7,0,1.4,0,2.1,0C33.4,17.7,35,17.7,36.6,17.7
	C36.6,17.7,36.6,17.7,36.6,17.7z M45.2,32.6l0,0.8h-2.5c-0.2-1-0.6-1.8-1.3-2.5c-0.9-0.9-2.1-1.3-3.4-1.3c-2.4,0-4.3,1.6-4.6,3.9
	H19.3c-0.2-1-0.6-1.9-1.3-2.5c-0.9-0.9-2.1-1.3-3.4-1.3c-2.4,0-4.3,1.6-4.7,3.9l-1.8,0c0-2.1,0-4.3,0-6.4c0-1.3,1.2-2.5,2.5-2.5
	l0.4,0c1.8,0,3.6,0,5.4,0h0c0,0,0,0,0.1,0h24.3c0,0,0.1,0,0.1,0c0.3,0,0.7,0,1.1,0l0.6,0c1.4,0,2.6,1.2,2.6,2.6
	C45.2,28.1,45.2,30.8,45.2,32.6z M11.7,34.2c0-1.7,1.2-2.9,3-2.9c0.8,0,1.6,0.3,2.1,0.8c0.5,0.5,0.8,1.3,0.8,2.1
	c0,0.8-0.3,1.6-0.8,2.1l0,0c-0.5,0.5-1.3,0.8-2.1,0.8c-0.8,0-1.6-0.3-2.1-0.8C12,35.8,11.7,35.1,11.7,34.2L11.7,34.2z M38.1,31.3
	c0.8,0,1.6,0.3,2.1,0.8c0.5,0.5,0.8,1.3,0.8,2.1c0,0.8-0.3,1.6-0.8,2.1l0,0c-0.5,0.5-1.3,0.8-2.1,0.8c-0.8,0-1.6-0.3-2.1-0.8
	c-0.5-0.5-0.8-1.3-0.8-2.1C35.1,32.5,36.3,31.3,38.1,31.3z"/>
</svg>



