<svg xmlns="http://www.w3.org/2000/svg" width="32.333" height="33.132" viewBox="0 0 32.333 33.132">
<defs><style>.a{opacity:0.5;}.b{fill:#264a9f;}</style></defs><g class="a" transform="translate(-6.169)">
<g transform="translate(6.169 3.193)">
<path class="b"
 d="M36.506,49.349H8.165a2,2,0,0,0-2,2V77.291a2,2,0,0,0,2,2H36.506a2,2,0,0,0,2-2V51.345A2,2,0,0,0,36.506,49.349Zm-.4,27.543H8.564V51.744H36.107V76.892Z"
  transform="translate(-6.169 -49.349)"/></g><g transform="translate(7.367 11.177)"><rect class="b" width="29.938" height="2.395"/></g><g transform="translate(13.354)"><path class="b" d="M118.4,0a1.2,1.2,0,0,0-1.2,1.2V7.584a1.2,1.2,0,0,0,2.4,0V1.2A1.2,1.2,0,0,0,118.4,0Z" transform="translate(-117.205)"/></g><g transform="translate(29.321)"><path class="b" d="M365.15,0a1.2,1.2,0,0,0-1.2,1.2V7.584a1.2,1.2,0,1,0,2.4,0V1.2A1.2,1.2,0,0,0,365.15,0Z" transform="translate(-363.952)"/></g>
</g></svg>