<svg xmlns="http://www.w3.org/2000/svg" width="13.675" height="30.323" viewBox="0 0 13.675 30.323"><defs><style>.a{opacity:0.33;}.b{fill:#071e54;}</style></defs><g class="a" transform="translate(13.675 30.323) rotate(180)"><g transform="translate(0 0)"><g transform="translate(0 0)"><path class="b" d="M13.229,5.8,7.878.446,7.766.334C7.729.3,7.692.26,7.655.26,7.618.223,7.581.223,7.543.186a1.812,1.812,0,0,0-.26-.111c-.037,0-.074-.037-.111-.037A1.029,1.029,0,0,0,6.837,0,1.029,1.029,0,0,0,6.5.037a.137.137,0,0,0-.111.037,1.812,1.812,0,0,1-.26.111C6.094.223,6.057.223,6.02.26c-.037,0-.074.037-.111.074L5.8.446.446,5.8a1.437,1.437,0,0,0,0,2.081,1.437,1.437,0,0,0,2.081,0L5.351,5.054V28.836a1.486,1.486,0,1,0,2.973,0V5.054l2.824,2.824A1.471,1.471,0,0,0,13.229,5.8Z"/></g></g></g></svg>