<svg id="Layer_1" data-name="Layer 1" xmlns="http://www.w3.org/2000/svg" viewBox="0 0 22.7 23.73"><defs><style>.cls-1{fill:#fff;isolation:isolate;}.cls-2{fill:#dadce5;stroke:#fff;stroke-linecap:round;stroke-width:0.7px;}</style></defs><path class="cls-1" d="M37.55,4.34h2.27A.38.38,0,0,0,40.2,4h0V2.5a.38.38,0,0,0-.38-.38H37.55a.38.38,0,0,0-.37.38h0V4A.38.38,0,0,0,37.55,4.34Zm.38-1.52h1.51v.76H37.93Z" transform="translate(-32.24 1)"/><path class="cls-1" d="M41.33,4.34H43.6A.38.38,0,0,0,44,4h0V2.5a.38.38,0,0,0-.38-.38H41.33A.38.38,0,0,0,41,2.5h0V4a.38.38,0,0,0,.38.38Zm.41-1.52h1.51v.76H41.74Z" transform="translate(-32.24 1)"/><path class="cls-1" d="M45.11,4.34h2.27A.38.38,0,0,0,47.74,4h0V2.5a.38.38,0,0,0-.38-.38H45.11a.38.38,0,0,0-.37.38h0V4a.38.38,0,0,0,.38.38h0Zm.38-1.52H47v.76H45.49Z" transform="translate(-32.24 1)"/><path class="cls-1" d="M37.55,8.11h2.27a.38.38,0,0,0,.38-.37h0V6.22a.38.38,0,0,0-.38-.37H37.55a.38.38,0,0,0-.37.37h0V7.74A.38.38,0,0,0,37.55,8.11Zm.38-1.51h1.51v.76H37.93Z" transform="translate(-32.24 1)"/><path class="cls-1" d="M41.33,8.11H43.6A.38.38,0,0,0,44,7.74h0V6.22a.38.38,0,0,0-.38-.37H41.33a.37.37,0,0,0-.38.37h0V7.74A.37.37,0,0,0,41.33,8.11Zm.41-1.51h1.51v.76H41.74Z" transform="translate(-32.24 1)"/><path class="cls-1" d="M45.11,8.11h2.27a.39.39,0,0,0,.36-.37h0V6.22a.38.38,0,0,0-.38-.37H45.11a.37.37,0,0,0-.38.37h0V7.74A.37.37,0,0,0,45.11,8.11Zm.38-1.51H47v.76H45.49Z" transform="translate(-32.24 1)"/><path class="cls-1" d="M37.55,11.89h2.27a.38.38,0,0,0,.38-.38h0V10a.38.38,0,0,0-.38-.38H37.55a.38.38,0,0,0-.37.38h0v1.5a.38.38,0,0,0,.37.38Zm.38-1.51h1.51v.76H37.93Z" transform="translate(-32.24 1)"/><path class="cls-1" d="M41.33,11.89H43.6a.38.38,0,0,0,.38-.38h0V10a.38.38,0,0,0-.38-.38H41.33A.38.38,0,0,0,41,10h0v1.5a.38.38,0,0,0,.38.38h0Zm.41-1.51h1.51v.76H41.74Z" transform="translate(-32.24 1)"/><path class="cls-1" d="M45.11,11.89h2.27a.39.39,0,0,0,.36-.39h0V10a.38.38,0,0,0-.38-.38H45.11a.38.38,0,0,0-.38.38h0v1.5a.38.38,0,0,0,.38.38h0Zm.38-1.51H47v.76H45.49Z" transform="translate(-32.24 1)"/><path class="cls-1" d="M39.82,15.67a.38.38,0,0,0,.38-.38h0V13.78a.38.38,0,0,0-.38-.38H37.55a.38.38,0,0,0-.37.38h0v1.51a.38.38,0,0,0,.37.38Zm-1.89-1.51h1.51v.76H37.93Z" transform="translate(-32.24 1)"/><path class="cls-1" d="M41.33,15.67H43.6a.38.38,0,0,0,.38-.38h0V13.78a.38.38,0,0,0-.38-.38H41.33a.38.38,0,0,0-.38.38h0v1.51A.38.38,0,0,0,41.33,15.67Zm.41-1.51h1.51v.76H41.74Z" transform="translate(-32.24 1)"/><path class="cls-1" d="M32.24,22.05a.38.38,0,0,0,.38.38H52.29a.38.38,0,0,0,0-.76H50V.93A1.93,1.93,0,0,0,48.11-1H36.83A1.91,1.91,0,0,0,34.91.92h0V21.67H32.64a.38.38,0,0,0-.4.37Zm12.09-.38H40.55V17.89h3.78ZM35.66.93A1.18,1.18,0,0,1,36.83-.24H48.09A1.17,1.17,0,0,1,49.27.92h0V21.67H45.11V17.5a.38.38,0,0,0-.38-.37H40.2a.37.37,0,0,0-.38.37h0v4.16H35.66Z" transform="translate(-32.24 1)"/><path class="cls-2" d="M54.58,17.9a4.48,4.48,0,0,1-9,0,4.36,4.36,0,0,1,.65-2.33s.57,1.21,1.55.82a.85.85,0,0,0,.55-1,1,1,0,0,0-.14-.25A1.59,1.59,0,0,1,48.8,13l.21-.11c1.1-.46,1.1-2,1.1-2s1.73,1.14,1.13,2.53c-.35.82-.4,1.83.34,2,.89.26,1.36-1,1.36-1a4.51,4.51,0,0,1,1.65,3.47Z" transform="translate(-32.24 1)"/><path class="cls-2" d="M52.26,20.23a2.15,2.15,0,1,1-4.3,0h0a3.52,3.52,0,0,1,.36-1.59l.88.26A2.34,2.34,0,0,1,50.11,17a2.52,2.52,0,0,1,.7-.44A5.22,5.22,0,0,0,52,19.19,2,2,0,0,1,52.26,20.23Z" transform="translate(-32.24 1)"/></svg>