<svg xmlns="http://www.w3.org/2000/svg" width="35.615" height="13.586" viewBox="0 0 35.615 13.586"><g transform="translate(-65.385 -13.556)"><g transform="translate(65.385 13.556)"><path d="M46.1,47.2c-1.439,0-2.6,1.119-2.6,1.838a.662.662,0,0,0,.2.48c.36.36,1.119.36,2.2.36h.719a3.153,3.153,0,0,0,1.958-.36.737.737,0,0,0,.2-.48A2.779,2.779,0,0,0,46.1,47.2Zm.24,1.878h-.48A8.262,8.262,0,0,1,44.3,49a2.194,2.194,0,0,1,1.8-1,2.042,2.042,0,0,1,1.8,1A8.263,8.263,0,0,1,46.337,49.078Z" transform="translate(-28.27 -41.526)" fill="#6c7997"/><path d="M40.554,41.271l-7.712,1.4h0l-1.239.24h0l-4.6.839a5.414,5.414,0,0,0,.48-2.038,4.432,4.432,0,0,0-.32-1.638h3.357a.4.4,0,1,0,0-.8h-3.8a4.187,4.187,0,0,0-3.077-1.8V33.4a.4.4,0,0,0-.8,0v4.076a4.187,4.187,0,0,0-3.077,1.8h-3.8a.4.4,0,0,0,0,.8h3.357a4.474,4.474,0,0,0,.16,3.676l-4.675-.839h0l-1.239-.24h0l-7.712-1.4a.407.407,0,0,0-.16.8l6.953,1.279a1.38,1.38,0,0,0-.2.719,1.478,1.478,0,1,0,2.957,0,.3.3,0,0,0-.04-.2l4.475.8h.04a4.152,4.152,0,0,0,3.317,1.918,4.068,4.068,0,0,0,3.277-1.958h.04l4.475-.8a1.73,1.73,0,0,1-.04.2,1.479,1.479,0,1,0,2.757-.719l6.953-1.279a.414.414,0,0,0,.32-.48A.4.4,0,0,0,40.554,41.271Zm-26.013,2.4a.645.645,0,0,1,.12.36.679.679,0,1,1-1.079-.559l.559.08Zm8.671,2.118c-1.918,0-3.476-2.238-3.476-4.116a3.476,3.476,0,0,1,6.953,0C26.689,43.549,25.13,45.787,23.212,45.787Zm9.91-1.718a.679.679,0,1,1-1.359,0,.558.558,0,0,1,.12-.36l.959-.16A.507.507,0,0,1,33.122,44.069Z" transform="translate(-5.385 -33)" fill="#6c7997"/></g></g></svg>