<svg id="Layer_1" data-name="Layer 1" xmlns="http://www.w3.org/2000/svg" viewBox="0 0 35.62 13.59"><defs><style>.cls-1{fill:#fff;}</style></defs><path class="cls-1" d="M17.83,5.67c-1.44,0-2.6,1.12-2.6,1.84a.66.66,0,0,0,.2.48c.36.36,1.12.36,2.2.36h.72a3.12,3.12,0,0,0,2-.36.77.77,0,0,0,.2-.48A2.81,2.81,0,0,0,17.83,5.67Zm.24,1.88h-.48A7.42,7.42,0,0,1,16,7.47a2.22,2.22,0,0,1,1.8-1,2.06,2.06,0,0,1,1.8,1,7.42,7.42,0,0,1-1.56.08Z" transform="translate(0.02 0)"/><path class="cls-1" d="M35.17,8.27l-7.71,1.4h0l-1.24.24h0l-4.6.84a5.49,5.49,0,0,0,.48-2,4.39,4.39,0,0,0-.32-1.64h3.36a.39.39,0,0,0,.4-.4.4.4,0,0,0-.4-.4h-3.8a4.26,4.26,0,0,0-3.08-1.8V.4a.4.4,0,1,0-.8,0V4.48a4.19,4.19,0,0,0-3.08,1.8h-3.8a.4.4,0,1,0,0,.8h3.36a4.44,4.44,0,0,0,.16,3.67L9.42,9.91h0L8.18,9.67h0L.47,8.27A.42.42,0,0,0,0,8.59a.41.41,0,0,0,.32.48l7,1.28a1.25,1.25,0,0,0-.2.72,1.48,1.48,0,1,0,2.95,0h0a.28.28,0,0,0,0-.2l4.48.8h0a4.14,4.14,0,0,0,3.31,1.92,4.07,4.07,0,0,0,3.28-2h0l4.48-.8c0,.07,0,.14,0,.2a1.48,1.48,0,0,0,2.95.05,1.41,1.41,0,0,0-.2-.77l7-1.28a.42.42,0,0,0,.32-.48A.41.41,0,0,0,35.17,8.27Zm-26,2.4a.77.77,0,0,1,.12.36.68.68,0,0,1-1.36,0,.66.66,0,0,1,.28-.54l.56.08Zm8.67,2.12c-1.92,0-3.48-2.24-3.48-4.12a3.48,3.48,0,0,1,7,0c0,1.88-1.56,4.12-3.47,4.12Zm9.91-1.72a.68.68,0,0,1-1.36,0,.52.52,0,0,1,.12-.36l1-.16a.53.53,0,0,1,.28.52Z" transform="translate(0.02 0)"/></svg>