<svg id="Layer_1" data-name="Layer 1" xmlns="http://www.w3.org/2000/svg" viewBox="0 0 20.98 19.59"><defs><style>.cls-1{fill:#fff;}</style></defs><path class="cls-1" d="M19.87,3.31H14.76a4.41,4.41,0,0,0-8.54,0H1.1A1.11,1.11,0,0,0,0,4.42V18.49a1.1,1.1,0,0,0,1.1,1.1H19.87a1.1,1.1,0,0,0,1.1-1.1V4.42A1.11,1.11,0,0,0,19.87,3.31ZM10.49.83A3.59,3.59,0,0,1,13.9,3.31H7.08A3.58,3.58,0,0,1,10.49.83ZM20.15,18.5a.27.27,0,0,1-.27.27H1.1a.28.28,0,0,1-.28-.27V12.84h6.9v.69a1.12,1.12,0,0,0,1.1,1.1h3.32a1.12,1.12,0,0,0,1.1-1.1v-.69h6.9Zm-11.59-5V11.32A.28.28,0,0,1,8.83,11h3.32a.28.28,0,0,1,.27.28v2.21a.27.27,0,0,1-.27.27H8.83A.27.27,0,0,1,8.56,13.53ZM20.15,12h-6.9v-.69a1.1,1.1,0,0,0-1.1-1.1H8.83a1.11,1.11,0,0,0-1.1,1.1V12H.83V4.42a.28.28,0,0,1,.27-.28H19.87a.28.28,0,0,1,.28.28V12Z" transform="translate(0 0)"/></svg>