<svg xmlns="http://www.w3.org/2000/svg" width="20.98" height="19.6" viewBox="0 0 20.98 19.6"><g transform="translate(-1.52 -16.843)"><g transform="translate(1.519 16.843)"><path d="M19.876,20.156H14.761a4.41,4.41,0,0,0-8.542,0H1.1A1.107,1.107,0,0,0,0,21.26V35.338a1.108,1.108,0,0,0,1.1,1.1H19.876a1.107,1.107,0,0,0,1.1-1.1V21.26A1.107,1.107,0,0,0,19.876,20.156Zm-9.385-2.485a3.591,3.591,0,0,1,3.41,2.485H7.08a3.592,3.592,0,0,1,3.411-2.485Zm9.661,17.668a.28.28,0,0,1-.276.276H1.1a.28.28,0,0,1-.276-.276V29.679h6.9v.69a1.108,1.108,0,0,0,1.1,1.1h3.313a1.108,1.108,0,0,0,1.1-1.1v-.69h6.9ZM8.559,30.37V28.161a.28.28,0,0,1,.276-.276h3.312a.28.28,0,0,1,.276.276V30.37a.28.28,0,0,1-.276.276H8.834a.28.28,0,0,1-.275-.276Zm11.594-1.518h-6.9v-.69a1.108,1.108,0,0,0-1.1-1.1H8.834a1.108,1.108,0,0,0-1.1,1.1v.69H.828V21.26a.28.28,0,0,1,.276-.276H19.876a.28.28,0,0,1,.276.276v7.592Z" transform="translate(0 -16.843)" fill="#7b86a2"/></g></g></svg>