<svg id="Layer_1" data-name="Layer 1" xmlns="http://www.w3.org/2000/svg" viewBox="0 0 22.64 24.36"><defs><style>.cls-1,.cls-3{fill:none;}.cls-2{fill:#6e7b9a;}.cls-3{stroke:#6e7b9a;stroke-width:0.7px;}</style></defs><path class="cls-1" d="M6.41,22.55a2.94,2.94,0,0,1,1.52-.27l7.74.78a2.09,2.09,0,0,0,1.62-.53L22.43,18a.63.63,0,0,0,.05-.88.68.68,0,0,0-.46-.21h0a.64.64,0,0,0-.35.12c-1.26.88-3.23,2.28-4.29,3a2.9,2.9,0,0,1-2,.51l-4.55-.6a1.35,1.35,0,0,1-.95-.62h0a1.32,1.32,0,0,1,.43-1.83,1.38,1.38,0,0,1,.6-.2h0l2.2-.13a.8.8,0,0,0,.74-.81h0A.77.77,0,0,0,13,15.6H8a2.13,2.13,0,0,0-1.1.32h0L0,19.64l2.66,4.72Z" transform="translate(0 0)"/><path class="cls-2" d="M3,23.44,6.1,21.92a3.58,3.58,0,0,1,1.54-.35l.36,0,7.74.77h.14a1.44,1.44,0,0,0,.95-.36l4.1-3.67c-1.12.79-2.38,1.69-3.15,2.25a3.56,3.56,0,0,1-2.07.66l-.47,0-4.55-.6a2,2,0,0,1,.1-4h0L13,16.44h0c.05,0,.07-.06.08-.1a.11.11,0,0,0-.09-.05l-5.07,0a1.46,1.46,0,0,0-.73.2.1.1,0,0,1,0,0L1,19.9l2,3.54m-.29.91L0,19.63l6.83-3.7h0a2.12,2.12,0,0,1,1.1-.31l5.07,0h0a.78.78,0,0,1,.79.74h0a.79.79,0,0,1-.74.81l-2.2.14h0a1.33,1.33,0,0,0-1,2h0a1.31,1.31,0,0,0,.95.61l4.55.6.38,0A2.85,2.85,0,0,0,17.37,20L21.66,17a.69.69,0,0,1,.35-.11h0A.62.62,0,0,1,22.43,18l-5.14,4.58a2.11,2.11,0,0,1-1.41.54h-.21l-7.74-.78H7.64a2.91,2.91,0,0,0-1.23.28Z" transform="translate(0 0)"/><path class="cls-2" d="M11,3.73H9.75a.37.37,0,0,1-.37-.37A.38.38,0,0,1,9.75,3H14a.38.38,0,0,1,.37.37.37.37,0,0,1-.37.37H12.58a2.31,2.31,0,0,1,.51,1.11H14a.37.37,0,0,1,0,.74H13.1A2.19,2.19,0,0,1,11,7.37h-.28L13,9.57a.35.35,0,0,1,0,.51h0a.37.37,0,0,1-.52,0h0l-3-2.84a.36.36,0,0,1,.25-.63H11a1.47,1.47,0,0,0,1.39-1H9.75a.37.37,0,0,1,0-.74h2.6A1.46,1.46,0,0,0,11,3.73Z" transform="translate(0 0)"/><circle class="cls-1" cx="11.66" cy="6.14" r="6.14"/><circle class="cls-3" cx="11.66" cy="6.14" r="5.79"/></svg>