<svg id="Layer_1" data-name="Layer 1" xmlns="http://www.w3.org/2000/svg" viewBox="0 0 22.67 24.36"><defs><style>.cls-1,.cls-3{fill:none;}.cls-2{fill:#fff;}.cls-3{stroke:#fff;stroke-width:0.7px;}</style></defs><path class="cls-1" d="M6.41,22.55a2.94,2.94,0,0,1,1.52-.27l7.74.78a2.09,2.09,0,0,0,1.62-.53L22.43,18a.63.63,0,0,0,.05-.88.68.68,0,0,0-.46-.21h0a.62.62,0,0,0-.35.12c-1.26.88-3.23,2.28-4.29,3a2.9,2.9,0,0,1-2,.51l-4.55-.6a1.35,1.35,0,0,1-.95-.62h0a1.32,1.32,0,0,1,.41-1.82h0a1.42,1.42,0,0,1,.6-.2h0l2.2-.13a.8.8,0,0,0,.74-.81h0a.76.76,0,0,0-.79-.75H8a2,2,0,0,0-1.1.32h0L0,19.64l2.66,4.72Z" transform="translate(0 0)"/><path class="cls-2" d="M3,23.44l3.1-1.52a3.58,3.58,0,0,1,1.54-.35H8l7.74.77h.14a1.44,1.44,0,0,0,.95-.36l4.1-3.67-3.15,2.25a3.56,3.56,0,0,1-2.07.66h-.47l-4.55-.6a2,2,0,0,1,.1-4h0L13,16.44h0c.05,0,.07-.06.08-.1a.11.11,0,0,0-.09-.05H7.92a1.43,1.43,0,0,0-.73.2h0L1,19.9l2,3.54m-.29.91L0,19.63l6.83-3.7h0a2.12,2.12,0,0,1,1.1-.31H13a.78.78,0,0,1,.79.74h0a.79.79,0,0,1-.74.81l-2.2.14h0a1.34,1.34,0,0,0-1.18,1.47,1.29,1.29,0,0,0,.18.53h0a1.31,1.31,0,0,0,1,.61l4.55.6h.38A2.83,2.83,0,0,0,17.37,20l4.29-3a.63.63,0,0,1,.35-.11h0a.62.62,0,0,1,.66.58.65.65,0,0,1-.24.53l-5.14,4.58a2.11,2.11,0,0,1-1.41.54h-.21l-7.74-.78H7.64a2.88,2.88,0,0,0-1.23.28Z" transform="translate(0 0)"/><path class="cls-2" d="M11,3.73H9.75a.37.37,0,1,1,0-.73H14a.39.39,0,0,1,.37.37.38.38,0,0,1-.37.37H12.58a2.31,2.31,0,0,1,.51,1.11H14a.37.37,0,1,1,0,.74h-.9A2.19,2.19,0,0,1,11,7.37h-.28L13,9.57a.35.35,0,0,1,0,.49l0,0h0a.37.37,0,0,1-.52,0h0l-3-2.84a.36.36,0,0,1,.25-.63H11a1.46,1.46,0,0,0,1.39-1H9.75a.37.37,0,0,1,0-.74h2.6A1.46,1.46,0,0,0,11,3.73Z" transform="translate(0 0)"/><circle class="cls-1" cx="11.66" cy="6.14" r="6.14"/><circle class="cls-3" cx="11.66" cy="6.14" r="5.79"/></svg>