<svg id="Layer_1" data-name="Layer 1" xmlns="http://www.w3.org/2000/svg" viewBox="0 0 22.08 19.85"><defs><style>.cls-1{fill:#6e7b9a;}.cls-2{fill:none;stroke:#6c7997;stroke-linecap:round;}</style></defs><path class="cls-1" d="M11,19.84,6.63,15.43h0L1.82,10.62a6.23,6.23,0,0,1,8.83-8.8l.4.4.4-.4a6.24,6.24,0,0,1,8.82,8.83ZM7.27,14.39,11,18.17l8.38-8.38A5,5,0,0,0,20.9,6.23a4.92,4.92,0,0,0-1.48-3.56,5.08,5.08,0,0,0-7.15,0L11,3.9,9.82,2.67A5.07,5.07,0,0,0,6.26,1.18,5,5,0,0,0,2.69,2.67a5.1,5.1,0,0,0,0,7.15l4.58,4.57Z" transform="translate(-0.01 0.01)"/><line class="cls-2" x1="11.12" y1="6.38" x2="11.12" y2="12.55"/><line class="cls-2" x1="8.03" y1="9.47" x2="14.21" y2="9.47"/></svg>