<svg id="Layer_1" data-name="Layer 1" xmlns="http://www.w3.org/2000/svg" viewBox="0 0 22.1 19.85"><defs><style>.cls-1{fill:#fff;}.cls-2{fill:none;stroke:#fff;stroke-linecap:round;}</style></defs><path class="cls-1" d="M11,19.85,6.62,15.44h0L1.81,10.63a6.23,6.23,0,1,1,8.83-8.8l.4.4.4-.4a6.24,6.24,0,1,1,8.82,8.83ZM7.26,14.4,11,18.18,19.37,9.8a5,5,0,0,0,1.52-3.56,4.92,4.92,0,0,0-1.48-3.56,5.08,5.08,0,0,0-7.15,0L11,3.91,9.81,2.68A5.05,5.05,0,0,0,6.25,1.19,5,5,0,0,0,2.68,2.68a5.1,5.1,0,0,0,0,7.15Z" transform="translate(0.01 0)"/><line class="cls-2" x1="11.13" y1="6.38" x2="11.13" y2="12.55"/><line class="cls-2" x1="8.04" y1="9.47" x2="14.22" y2="9.47"/></svg>