<svg id="Layer_1" data-name="Layer 1" xmlns="http://www.w3.org/2000/svg" viewBox="0 0 24.45 23.32"><defs><style>.cls-1{fill:#fff;isolation:isolate;}</style></defs><path class="cls-1" d="M24.12,7.88a.56.56,0,0,0-.6-.52h-.14a1.53,1.53,0,0,0-.95.79A17.33,17.33,0,0,0,22,11.52v.13a3.91,3.91,0,0,0-1.77,1c-.59.59-1.1,1.19-1.47,1.62l-.33.38-.44.09-.89.17a7.07,7.07,0,0,0-4.5,3.36,2.89,2.89,0,0,0-.27.71,2.89,2.89,0,0,0-.27-.71,7.07,7.07,0,0,0-4.5-3.36l-.9-.17-.42-.09c-.09-.1-.23-.25-.33-.38-.37-.43-.88-1-1.47-1.62a4.65,4.65,0,0,0-1.77-1V11.5a15.92,15.92,0,0,0-.48-3.37,1.54,1.54,0,0,0-.94-.79.58.58,0,0,0-.73.38h0v.12L0,12.59a.62.62,0,0,0,0,.27L2,17.3a.67.67,0,0,0,.23.27A29.87,29.87,0,0,1,7,20.93a2.88,2.88,0,0,1,.23,1.76.9.9,0,0,0,.08.51.37.37,0,0,0,.26.12h4.09a.58.58,0,0,0,.57-.58h0a.58.58,0,0,0,.57.58h4.09a.37.37,0,0,0,.26-.12c.12-.13.1-.26.08-.51a2.88,2.88,0,0,1,.23-1.76,29.87,29.87,0,0,1,4.84-3.36.57.57,0,0,0,.24-.27l1.88-4.44a.62.62,0,0,0,0-.27ZM11.67,21c-.08.72-.09,1.4-.1,1.66H8a3.23,3.23,0,0,0-.36-2.09C7,19.67,3,17.28,2.59,17L.71,12.62l.38-4.54a.69.69,0,0,1,.37.32,16.23,16.23,0,0,1,.44,3.18v.09a1.16,1.16,0,0,0-.43.25,1,1,0,0,0-.32.69.49.49,0,0,0,0,.17,3.85,3.85,0,0,0,.59.8,4.7,4.7,0,0,1,.57.83l.4.59.06.07h0l.4.39c.12.16.64,1.06,1,1.62a.33.33,0,0,0,.43.15h0a.35.35,0,0,0,.13-.47s-.82-1.43-1-1.7a2.1,2.1,0,0,0-.47-.47L3,14a5.25,5.25,0,0,0-.67-.95,4.26,4.26,0,0,1-.41-.54.39.39,0,0,1,.4-.24h0a4,4,0,0,1,1.61.84c.57.57,1.07,1.16,1.44,1.58.2.24.35.42.43.5a.35.35,0,0,0,.19.1l.53.1c.3.06.63.13.91.17a6.37,6.37,0,0,1,4,3A4.18,4.18,0,0,1,11.67,21ZM22,17c-.42.25-4.39,2.64-5,3.54a3.3,3.3,0,0,0-.36,2.09H13A14.84,14.84,0,0,0,12.93,21a4,4,0,0,1,.26-2.35,6.37,6.37,0,0,1,4-3l.93-.18.51-.1a.3.3,0,0,0,.19-.1c.08-.08.23-.25.44-.5.36-.42.86-1,1.43-1.58a3,3,0,0,1,1.61-.84.36.36,0,0,1,.4.29,3.17,3.17,0,0,1-.4.49,6,6,0,0,0-.66.93l-.37.56-.47.47c-.2.26-1,1.68-1,1.7a.35.35,0,0,0,.12.47h0a.34.34,0,0,0,.46-.1h0a15,15,0,0,1,1-1.62,4.89,4.89,0,0,1,.4-.39h0l.06-.06.4-.61a5.07,5.07,0,0,1,.56-.81,4.07,4.07,0,0,0,.53-.65V12.9a.29.29,0,0,0,0-.13V12.6a1,1,0,0,0-.73-.92v-.09A16.41,16.41,0,0,1,23,8.4a.71.71,0,0,1,.37-.31l.38,4.53ZM5.41,6.7h.83v5.8a1.17,1.17,0,0,0,1.09,1h9.89a.91.91,0,0,0,.82-1h0V6.7h1.11a.54.54,0,0,0,.48-.55.64.64,0,0,0-.19-.45L12.58.1a.64.64,0,0,0-.7,0L10.27,1.36V.73C10.27.4,10.2,0,9.6,0H8.77c-.64,0-1,.28-1,.72V3.44L5,5.72a.52.52,0,0,0-.1.6A.59.59,0,0,0,5.41,6.7Zm8,6.1H11V10h2.46Zm3.8,0h-3.1v-3a.49.49,0,0,0-.43-.54H11c-.36,0-.72.19-.72.54v3h-3a.64.64,0,0,1-.4-.3V6.7H17.36v5.8a.37.37,0,0,1-.14.3ZM8.28,3.86A.32.32,0,0,0,8.4,3.6V.77A.89.89,0,0,1,8.76.7h.82V2.06a.35.35,0,0,0,.35.35h0a.32.32,0,0,0,.21-.08L12.23.71,18.73,6h-13Z" transform="translate(-0.01 0)"/></svg>