<svg id="Layer_1" data-name="Layer 1" xmlns="http://www.w3.org/2000/svg" viewBox="0 0 24.51 23.32"><defs><style>.cls-1{fill:#071e54;opacity:0.5;isolation:isolate;}</style></defs><path class="cls-1" d="M24.1,7.88a.56.56,0,0,0-.62-.52l-.12,0a1.53,1.53,0,0,0-.95.79,17.44,17.44,0,0,0-.48,3.37v.13a3.91,3.91,0,0,0-1.77,1c-.59.59-1.1,1.19-1.47,1.62l-.33.38-.44.09-.89.17a7.1,7.1,0,0,0-4.5,3.36,2.89,2.89,0,0,0-.27.71,2.89,2.89,0,0,0-.27-.71,7.07,7.07,0,0,0-4.5-3.36l-.9-.17-.42-.09c-.09-.1-.23-.25-.33-.38-.37-.43-.88-1-1.47-1.62a4.6,4.6,0,0,0-1.77-1l0-.15a16,16,0,0,0-.48-3.37,1.51,1.51,0,0,0-.94-.79.58.58,0,0,0-.73.38.5.5,0,0,0,0,.12L0,12.59a.61.61,0,0,0,0,.27L1.93,17.3a.61.61,0,0,0,.23.27A29.52,29.52,0,0,1,7,20.93a2.88,2.88,0,0,1,.23,1.76c0,.25,0,.38.08.51a.36.36,0,0,0,.26.12h4.09a.58.58,0,0,0,.57-.58s0-.2,0-.51c0,.31,0,.51,0,.51a.58.58,0,0,0,.57.58h4.09a.36.36,0,0,0,.26-.12c.12-.13.1-.26.08-.51a2.88,2.88,0,0,1,.23-1.76,29.87,29.87,0,0,1,4.84-3.36.57.57,0,0,0,.24-.27l1.88-4.44a.51.51,0,0,0,0-.27ZM11.65,21c-.08.72-.09,1.4-.1,1.66H7.93a3.23,3.23,0,0,0-.36-2.09c-.63-.9-4.59-3.29-5-3.54L.69,12.62l.38-4.54a.69.69,0,0,1,.37.32,16.23,16.23,0,0,1,.44,3.18v.09a1.16,1.16,0,0,0-.43.25,1,1,0,0,0-.32.69.33.33,0,0,0,0,.17,4.24,4.24,0,0,0,.59.8,4.7,4.7,0,0,1,.57.83l.4.59.06.07h0l.4.39c.12.16.64,1.06,1,1.62a.33.33,0,0,0,.47.13.35.35,0,0,0,.13-.47s-.82-1.43-1-1.7-.3-.32-.47-.47L2.93,14a5.25,5.25,0,0,0-.67-.95,4.26,4.26,0,0,1-.41-.54.39.39,0,0,1,.4-.24h0a4,4,0,0,1,1.61.84c.57.57,1.07,1.16,1.44,1.58.2.24.35.42.43.5a.39.39,0,0,0,.19.1l.53.1c.3.06.63.13.91.17a6.37,6.37,0,0,1,4,3A4.14,4.14,0,0,1,11.65,21ZM22,17c-.42.25-4.39,2.64-5,3.54a3.31,3.31,0,0,0-.36,2.09H13c0-.26,0-.93-.09-1.66a4,4,0,0,1,.26-2.35,6.38,6.38,0,0,1,4-3l.93-.18.51-.1a.3.3,0,0,0,.19-.1c.08-.08.23-.25.44-.5.36-.42.86-1,1.43-1.58a3,3,0,0,1,1.61-.84.36.36,0,0,1,.4.29,3.17,3.17,0,0,1-.4.49,6,6,0,0,0-.66.93l-.37.56-.47.47c-.2.26-1,1.68-1,1.7a.34.34,0,0,0,.13.47.33.33,0,0,0,.47-.13h0c.32-.56.84-1.46,1-1.62a5.16,5.16,0,0,1,.4-.39l0,0,.06-.06.4-.61a5.07,5.07,0,0,1,.56-.81,4.07,4.07,0,0,0,.53-.65l0-.06,0-.06a.28.28,0,0,0,0-.13V12.6a1,1,0,0,0-.73-.92v-.09a16.23,16.23,0,0,1,.44-3.19.7.7,0,0,1,.37-.31l.38,4.53ZM5.39,6.7h.83v5.8a1.17,1.17,0,0,0,1.09,1H17.2a.91.91,0,0,0,.82-1V6.7h1.11a.53.53,0,0,0,.48-.55.64.64,0,0,0-.19-.45L12.56.1a.64.64,0,0,0-.7,0L10.25,1.36V.73c0-.33-.07-.72-.67-.72H8.75c-.64,0-1,.28-1,.72V3.44L5,5.72a.52.52,0,0,0-.1.6A.59.59,0,0,0,5.39,6.7Zm8,6.1H10.94V10H13.4Zm3.8,0H14.09v-3a.49.49,0,0,0-.44-.54H11c-.36,0-.72.19-.72.54v3H7.31a.64.64,0,0,1-.4-.3V6.7H17.34v5.8a.37.37,0,0,1-.14.3ZM8.26,3.86a.32.32,0,0,0,.12-.26V.77A.92.92,0,0,1,8.74.7h.82V2.06a.35.35,0,0,0,.35.35.34.34,0,0,0,.21-.08L12.21.71,18.71,6h-13Z" transform="translate(0 0)"/></svg>