<svg id="Layer_1" data-name="Layer 1" xmlns="http://www.w3.org/2000/svg" viewBox="0 0 27.24 14.96"><defs><style>.cls-1{fill:#6e7b9a;}</style></defs><path class="cls-1" d="M5.18,14.88A2.55,2.55,0,1,1,8.24,13v0h0A2.57,2.57,0,0,1,5.18,14.88Zm1-4.3a1.86,1.86,0,1,0,1.4,2.23h0a1.86,1.86,0,0,0-1.4-2.23h0Z" transform="translate(0 0)"/><path class="cls-1" d="M10.2,7.17,7.27,6.51,6.11,3.39A6,6,0,0,0,2.92.15L2.55,0,1.37,5.17l-.15.68L0,11.25l2.67.6.1-.3A3,3,0,0,1,6.37,9.5h.16a3,3,0,0,1,2.36,3.4v.32l3.29.74.6-2.66a3.35,3.35,0,0,0-2.32-4.11ZM3,1A5.36,5.36,0,0,1,5.46,3.64l1,2.69-4.41-1Zm8.58,12.2-2-.45a3.65,3.65,0,0,0-2.9-3.89H6.52A3.64,3.64,0,0,0,2.23,11l-1.4-.31L1.9,6,7.56,7.29l2.49.56a2.64,2.64,0,0,1,2.09,3.09V11l-.06.23Z" transform="translate(0 0)"/><path class="cls-1" d="M22,14.91a2.55,2.55,0,1,1,2-3h0A2.55,2.55,0,0,1,22,14.91Zm-.88-4.32a1.86,1.86,0,1,0,2.18,1.47V12a1.86,1.86,0,0,0-2.19-1.41Z" transform="translate(0 0)"/><path class="cls-1" d="M24.55.24a5.91,5.91,0,0,0-3.26,3.18L20.07,6.51l-2.95.6A3.33,3.33,0,0,0,14.44,11v0a.37.37,0,0,0,.05.22L15,13.88l3.31-.67v-.32a3,3,0,0,1,2.44-3.35h.16a3,3,0,0,1,3.56,2.12l.09.31,2.68-.55L26.13,6,26,5.29,24.93.09Zm1.87,10.61-1.4.29a3.66,3.66,0,0,0-4.25-2.31h-.16a3.66,3.66,0,0,0-3,3.79l-2,.42-.41-2A2.62,2.62,0,0,1,17,7.84a1,1,0,0,1,.23-.06l2.5-.51,5.69-1.16ZM20.88,6.34l1.05-2.66a5.35,5.35,0,0,1,2.49-2.63l.9,4.38Z" transform="translate(0 0)"/></svg>