<svg id="Layer_1" data-name="Layer 1" xmlns="http://www.w3.org/2000/svg" viewBox="0 0 21.7 19.58"><defs><style>.cls-1{opacity:0.5;}.cls-2{fill:#071e54;}</style></defs><g class="cls-1"><path class="cls-2" d="M21.41,2.56a1,1,0,0,0-.73-.31H15A2.27,2.27,0,0,0,13,0H9c-1,0-1.83.94-2,2.25H1a1,1,0,0,0-1,1V16.71a1,1,0,0,0,1,1h.68v1.34a.47.47,0,0,0,.5.42.45.45,0,0,0,.42-.43V17.73H19.28v1.41a.47.47,0,0,0,.46.44h0a.46.46,0,0,0,.45-.45v-1.4h.47a1,1,0,0,0,1-1V3.3A1.08,1.08,0,0,0,21.41,2.56ZM19.05,16.82V3.17h1.62a.1.1,0,0,1,.11.11V16.71a.12.12,0,0,1-.12.11ZM18.14,3.17V16.82h-.8V3.17ZM7.87,2.25C8,1.48,8.46.91,9,.91h4c.49,0,.94.57,1.07,1.34Zm8.56.92V16.82H5.49V3.17Zm-11.86,0V16.82h-.8V3.17Zm-1.72,0V16.82H1a.12.12,0,0,1-.12-.1V3.3A.11.11,0,0,1,1,3.19Zm17.82-.84Z" transform="translate(0 0)"/><path class="cls-2" d="M9,7.78h.1a1.7,1.7,0,0,0,1.65-1.3h1a.4.4,0,0,0,.39-.39.39.39,0,0,0-.39-.39h-1a1.68,1.68,0,0,0-.69-1,1.66,1.66,0,0,0-1.26-.27,1.62,1.62,0,0,0-1.08.7A1.66,1.66,0,0,0,7.45,6.4,1.68,1.68,0,0,0,9,7.78Zm.1-2.07a.4.4,0,0,0-.37.41.39.39,0,0,0,.37.36h.66a.73.73,0,0,1-.34.31.78.78,0,0,1-.58,0,.73.73,0,0,1-.44-.4.75.75,0,0,1,0-.59.77.77,0,0,1,.73-.51h0a.77.77,0,0,1,.66.38Z" transform="translate(0 0)"/><path class="cls-2" d="M10.59,9.79a.39.39,0,0,0,.36.37h.82l-.09.18a.46.46,0,0,0,.21.61l1.93,1A.5.5,0,0,0,14,12l.14,0a.47.47,0,0,0,.26-.24L15.67,9.2a.46.46,0,0,0-.2-.61l-1.94-1a.46.46,0,0,0-.59.18l-.8,1.57H11A.37.37,0,0,0,10.59,9.79Zm3.06.23a.35.35,0,0,0,.1-.28.39.39,0,0,0-.37-.36h-.2l.36-.72,1.11.55-.83,1.67-1.11-.55.08-.18h.6A.35.35,0,0,0,13.65,10Z" transform="translate(0 0)"/><path class="cls-2" d="M7.74,15.09a.46.46,0,0,0,.43.33h.14l2.07-.62a.47.47,0,0,0,.28-.59l-.16-.51H11a.38.38,0,0,0,.38-.38.39.39,0,0,0-.39-.41h-.69l-.38-1.37a.52.52,0,0,0-.22-.28.51.51,0,0,0-.34,0l-2.08.62a.46.46,0,0,0-.27.22.43.43,0,0,0,0,.35Zm1-2.18h0a.4.4,0,0,0-.39.37.39.39,0,0,0,.37.41h.8l.1.34-1.18.35-.54-1.79,1.19-.35.2.67Z" transform="translate(0 0)"/></g></svg>