<svg id="Layer_1" data-name="Layer 1" xmlns="http://www.w3.org/2000/svg" viewBox="0 0 28.38 15.07"><defs><style>.cls-1{fill:#fff;}</style></defs><path class="cls-1" d="M28.31,7.06a.51.51,0,0,0-.45-.26H25.6V5.74a.52.52,0,0,0-.52-.52H23.5V3.14a.52.52,0,0,0-.5-.52H20.92V.52A.52.52,0,0,0,20.4,0H15.21a.52.52,0,0,0-.52.52h0v2.1H12.63a.52.52,0,0,0-.52.52h0V5.22H10.52a.52.52,0,0,0-.52.52h0V7.8H7.9V2.1a.52.52,0,0,0-.52-.52H1.13a.52.52,0,0,0-.52.52h0V7.8H.52A.52.52,0,0,0,0,8.32a.48.48,0,0,0,.07.26l3.17,5.34a2.55,2.55,0,0,0,2,1.15H22.49a2.55,2.55,0,0,0,2-1.15L28.3,7.59A.53.53,0,0,0,28.31,7.06ZM24.56,6.8H20.92V6.26h3.64Zm-4.69-.54V6.8a2.73,2.73,0,0,0-1.78,1H15.73V6.26Zm2.59-1H18.29V3.66h4.17ZM15.73,1h4.14V2.62H15.73ZM13.15,3.66h4.1V5.22h-4.1Zm-2.1,2.6h3.64V7.8H11ZM1.65,2.62H6.86v1H5.81a.52.52,0,0,0,0,1H6.86v1.1H5.81a.52.52,0,0,0,0,1H6.86v1H1.65Zm22,10.76a1.52,1.52,0,0,1-1.13.64H5.26a1.51,1.51,0,0,1-1.13-.63L1.43,8.84H18.34a.54.54,0,0,0,.44-.23A1.76,1.76,0,0,1,20,7.84h6.9Z" transform="translate(0 0)"/><path class="cls-1" d="M4.25,3.63a.52.52,0,0,0-.52.52.54.54,0,0,0,.52.52.52.52,0,0,0,0-1Z" transform="translate(0 0)"/><path class="cls-1" d="M2.71,3.63a.52.52,0,0,0-.52.52.54.54,0,0,0,.52.52.52.52,0,0,0,0-1Z" transform="translate(0 0)"/><path class="cls-1" d="M4.25,5.73a.52.52,0,0,0-.52.52.54.54,0,0,0,.52.52.52.52,0,0,0,0-1Z" transform="translate(0 0)"/><path class="cls-1" d="M2.71,5.73a.52.52,0,0,0-.52.52.54.54,0,0,0,.52.52.52.52,0,0,0,0-1Z" transform="translate(0 0)"/><path class="cls-1" d="M11.84,9.9a.52.52,0,0,0-.52.52h0a.52.52,0,0,0,.51.53h0a.53.53,0,0,0,.53-.52.55.55,0,0,0-.16-.38A.49.49,0,0,0,11.84,9.9Z" transform="translate(0 0)"/><path class="cls-1" d="M13.93,9.9a.52.52,0,0,0-.52.52h0a.52.52,0,0,0,.52.52h0a.54.54,0,0,0,.52-.52.52.52,0,0,0-.16-.37A.49.49,0,0,0,13.93,9.9Z" transform="translate(0 0)"/><path class="cls-1" d="M16,9.9A.55.55,0,1,0,16,11a.53.53,0,0,0,.53-.53h0a.55.55,0,0,0-.16-.38A.54.54,0,0,0,16,9.9Z" transform="translate(0 0)"/></svg>