<svg id="Layer_1" data-name="Layer 1" xmlns="http://www.w3.org/2000/svg" viewBox="0 0 25.84 13.39"><defs><style>.cls-1{fill:#fff;isolation:isolate;}</style></defs><path class="cls-1" d="M24.11,5.28l-4.4-.76a1.29,1.29,0,0,1-.73-.4L16,1a3.16,3.16,0,0,0-2.27-1H6.25A3.15,3.15,0,0,0,4.13.83L1.45,3.32A4.52,4.52,0,0,0,0,6.61V10a1.13,1.13,0,0,0,1.12,1.12H2v.11a2.89,2.89,0,0,0,5.58,0v-.11H17.74v.11a2.89,2.89,0,0,0,5.59,0v-.11h1.39A1.12,1.12,0,0,0,25.84,10h0V7.38A2.12,2.12,0,0,0,24.11,5.28ZM13.75.92h1c.2,0-.3-.26-.3-.26l3.6,3.8H13L11.86.91Zm-2.83,0L12,4.46H6.65L8.29.92Zm-9.1,3.3L2,4H2L4.73,1.52A2.26,2.26,0,0,1,6.25.92H7.31L5.66,4.46h-4Zm2.95,8.3H4.63a1.94,1.94,0,1,1,.14,0Zm15.8,0h-.14a1.94,1.94,0,1,1,.14,0ZM25,10a.22.22,0,0,1-.21.23H23.45v-.13a2.89,2.89,0,0,0-5.73,0v.13h-10v-.13a2.89,2.89,0,0,0-5.73,0v.13H1.13A.23.23,0,0,1,.9,10V6.62a3.88,3.88,0,0,1,.2-1.17v-.1H19.56l4.4.77a1.22,1.22,0,0,1,1,1.25Z" transform="translate(0 -0.01)"/></svg>