<svg id="Layer_1" data-name="Layer 1" xmlns="http://www.w3.org/2000/svg" viewBox="0 0 16 21.7"><defs><style>.cls-1{fill:#fff;}</style></defs><path class="cls-1" d="M16,15.6v-.14a6.41,6.41,0,0,0-5.78-6.22A6,6,0,0,0,12.59,4.6,4.62,4.62,0,0,0,8,0H8A4.61,4.61,0,0,0,3.4,4.6,6,6,0,0,0,5.8,9.24a6.85,6.85,0,0,0-1.41.32L4,9.69a6.47,6.47,0,0,0-4,5.94v2A1.38,1.38,0,0,0,1.38,19v2.7H16ZM3.72,10.72,2.5,18.17H1.38a.59.59,0,0,1-.57-.57v-2A5.69,5.69,0,0,1,3.72,10.72ZM5.29,3.56,9.65,1.17a3.08,3.08,0,0,1,.62.39Zm5.62-1.39a3.83,3.83,0,0,1,.87,2.43c0,2.11-1.65,4.57-3.78,4.57S4.33,6.86,4.19,4.87ZM2.21,19h.14l-.12.72H9.84l-.4-1.47h1.9a1.33,1.33,0,0,0,.89-.35,1.27,1.27,0,0,0,.38-.9V15.47a1.25,1.25,0,0,0-1.25-1.25h-3L7.2,10H9.56a5.63,5.63,0,0,1,5.61,5.61v5.24h-13Zm9.14-4a.44.44,0,0,1,.44.44V17a.46.46,0,0,1-.45.44H9.22L8.57,15ZM8.78,18.89H3.18l1.43-8.57A5.76,5.76,0,0,1,6.36,10ZM4.5,3.07A3.81,3.81,0,0,1,8,.76a3.05,3.05,0,0,1,.6.06Z" transform="translate(0 0)"/></svg>