<svg xmlns="http://www.w3.org/2000/svg" width="22.714" height="24.281" viewBox="0 0 22.714 24.281"><g transform="translate(-181 -175)"><g transform="translate(180.5 175)"><path d="M113.507,13.133l.28-.286a2.348,2.348,0,0,1,4.028,1.643h.783V12.532a7.033,7.033,0,0,0-3.9-6.3,3.916,3.916,0,1,0-6.306,0,7.049,7.049,0,0,0-3.9,6.3V14.49h.783a2.348,2.348,0,0,1,4.028-1.643l.28.286.28-.286a2.33,2.33,0,0,1,1.287-.672V19.19a.783.783,0,1,1-1.567,0v-.783h-.783v.783a1.567,1.567,0,1,0,3.133,0V12.175a2.329,2.329,0,0,1,1.287.672Zm4.3-.713a3.119,3.119,0,0,0-3.935-.628,12.79,12.79,0,0,0-.984-4.2,3.926,3.926,0,0,0,1.26-.755,6.248,6.248,0,0,1,3.66,5.585ZM111.549.783a3.133,3.133,0,1,1-3.133,3.133A3.137,3.137,0,0,1,111.549.783ZM105.288,12.42a6.265,6.265,0,0,1,3.659-5.586,3.917,3.917,0,0,0,1.264.758,12.733,12.733,0,0,0-.478,1.3l.75.225a11.985,11.985,0,0,1,.5-1.334,3.524,3.524,0,0,0,1.145,0,12,12,0,0,1,.964,3.975,3.134,3.134,0,0,0-3.078,0,11.894,11.894,0,0,1,.272-1.883l-.763-.175a12.683,12.683,0,0,0-.3,2.089,3.119,3.119,0,0,0-3.934.628Zm0,0" transform="translate(-98.909 0)" fill="#6e7b9a"/><path d="M.5,320.213v5.253H7.549v-5.253l-3.525-3.525Zm4.308,4.47H3.241v-2.741H4.808Zm1.958,0H5.591v-3.525H2.458v3.525H1.283v-4.146L4.025,317.8l2.741,2.741Zm0,0" transform="translate(0 -301.185)" fill="#6e7b9a"/><path d="M296.614,362.8l-.994-2.32a.783.783,0,0,0-.72-.475h-4.183a.783.783,0,0,0-.72.475L289,362.8a.783.783,0,0,0-.5.729v.783a.784.784,0,0,0,.783.783v.392a1.175,1.175,0,0,0,2.35,0v-.392h2.35v.392a1.175,1.175,0,0,0,2.35,0v-.392a.784.784,0,0,0,.783-.783v-.783A.783.783,0,0,0,296.614,362.8Zm-5.9-2.013H294.9l.839,1.958h-5.862Zm.133,4.7a.392.392,0,0,1-.783,0v-.392h.783Zm4.7,0a.392.392,0,0,1-.783,0v-.392h.783Zm-6.266-1.175v-.783h7.049v.783Zm0,0" transform="translate(-273.902 -342.376)" fill="#6e7b9a"/></g><path d="M179.668,64.382h-.6a.185.185,0,1,1,0-.369h2.1a.185.185,0,0,1,0,.369h-.686a1.16,1.16,0,0,1,.256.554h.43a.185.185,0,1,1,0,.369h-.43a1.093,1.093,0,0,1-1.07.9h-.138l1.166,1.1a.181.181,0,0,1,.007.258.185.185,0,0,1-.261.008l-1.5-1.42a.182.182,0,0,1,.127-.315h.6a.733.733,0,0,0,.693-.527h-1.295a.185.185,0,1,1,0-.369h1.295A.726.726,0,0,0,179.668,64.382Z" transform="translate(12.899 113.268)" fill="#6e7b9a"/></g></svg>