<svg id="Layer_1" data-name="Layer 1" xmlns="http://www.w3.org/2000/svg" viewBox="0 0 16 21.68"><defs><style>.cls-1{fill:#6c7997;}</style></defs><path class="cls-1" d="M16,15.6v-.14a6.41,6.41,0,0,0-5.78-6.22A6,6,0,0,0,12.59,4.6,4.61,4.61,0,0,0,8,0H8a4.61,4.61,0,0,0-4.6,4.6,5.93,5.93,0,0,0,2.4,4.64,6.85,6.85,0,0,0-1.41.32L4,9.69a6.47,6.47,0,0,0-4,5.94v2A1.38,1.38,0,0,0,1.38,19l0,2.7H16ZM3.72,10.72,2.5,18.17H1.38a.58.58,0,0,1-.57-.57v-2A5.67,5.67,0,0,1,3.72,10.72ZM5.29,3.56,9.65,1.17a3.08,3.08,0,0,1,.62.39Zm5.62-1.39a3.83,3.83,0,0,1,.87,2.43c0,2.11-1.65,4.57-3.78,4.57S4.33,6.86,4.19,4.87ZM2.21,19h.14l-.12.72H9.84l-.4-1.47h1.9a1.35,1.35,0,0,0,.89-.35,1.3,1.3,0,0,0,.38-.9V15.47a1.25,1.25,0,0,0-1.25-1.25h-3L7.2,10H9.56a5.63,5.63,0,0,1,5.61,5.61v5.24h-13Zm9.14-4a.44.44,0,0,1,.44.44V17a.45.45,0,0,1-.45.44H9.22L8.57,15ZM8.78,18.89H3.18l1.43-8.57A5.74,5.74,0,0,1,6.36,10ZM4.5,3.07A3.81,3.81,0,0,1,8,.76,3.18,3.18,0,0,1,8.6.82Z" transform="translate(0 0)"/></svg>