<svg id="Layer_1" data-name="Layer 1" xmlns="http://www.w3.org/2000/svg" viewBox="0 0 22.71 24.29"><defs><style>.cls-1{fill:#fff;}</style></defs><path class="cls-1" d="M14.1,13.13l.28-.28a2.35,2.35,0,0,1,4,1.64h.78v-2a7,7,0,0,0-3.9-6.3A3.92,3.92,0,1,0,9,6.23a7.07,7.07,0,0,0-3.9,6.3v2h.79a2.34,2.34,0,0,1,4-1.64l.28.28.28-.28a2.39,2.39,0,0,1,1.29-.68v7a.79.79,0,0,1-1.57,0v-.78H9.39v.78a1.57,1.57,0,1,0,3.13.08v-7.1a2.39,2.39,0,0,1,1.29.68Zm4.3-.71a3.13,3.13,0,0,0-3.94-.63,12.74,12.74,0,0,0-1-4.2,3.94,3.94,0,0,0,1.26-.75,6.26,6.26,0,0,1,3.66,5.58ZM12.14.78A3.14,3.14,0,1,1,9,3.92,3.14,3.14,0,0,1,12.14.78ZM5.88,12.42A6.26,6.26,0,0,1,9.54,6.83a4,4,0,0,0,1.26.76c-.18.43-.34.86-.48,1.3l.75.23a12.68,12.68,0,0,1,.5-1.34,3.18,3.18,0,0,0,1.15,0,11.9,11.9,0,0,1,1,4,3.13,3.13,0,0,0-3.08,0,13.25,13.25,0,0,1,.28-1.89l-.77-.17a14.82,14.82,0,0,0-.3,2.09,3.11,3.11,0,0,0-3.93.63Z" transform="translate(0 0.01)"/><path class="cls-1" d="M0,19v5.25H7.05V19L3.52,15.5ZM4.31,23.5H2.74V20.76H4.31Zm2,0H5.09V20H2V23.5H.78V19.35l2.75-2.74,2.74,2.75Z" transform="translate(0 0.01)"/><path class="cls-1" d="M22.21,20.42l-1-2.32a.8.8,0,0,0-.72-.47H16.32a.78.78,0,0,0-.72.47l-1,2.32a.79.79,0,0,0-.5.73v.79a.78.78,0,0,0,.78.78v.39a1.18,1.18,0,1,0,2.35,0v-.39h2.35v.39a1.18,1.18,0,1,0,2.35,0v-.39a.78.78,0,0,0,.78-.78v-.79A.79.79,0,0,0,22.21,20.42Zm-5.9-2H20.5l.84,2H15.47Zm.14,4.7a.4.4,0,0,1-.42.37.39.39,0,0,1-.37-.37v-.39h.79Zm4.7,0a.4.4,0,0,1-.42.37.39.39,0,0,1-.37-.37v-.39h.79Zm-6.27-1.17v-.79h7v.79Z" transform="translate(0 0.01)"/><path class="cls-1" d="M11.57,2.65H11a.19.19,0,0,1,0-.37h2.13a.19.19,0,0,1,.17.2.19.19,0,0,1-.17.17h-.69a1.27,1.27,0,0,1,.26.55h.43a.2.2,0,0,1,.2.17.18.18,0,0,1-.18.2h-.45a1.1,1.1,0,0,1-1.07.9h-.14l1.16,1.1a.18.18,0,0,1,0,.26h0a.18.18,0,0,1-.26,0l-1.5-1.42a.19.19,0,0,1,0-.26A.2.2,0,0,1,11,4.1h.6a.72.72,0,0,0,.69-.52H11a.19.19,0,0,1-.2-.17.18.18,0,0,1,.17-.2h1.32A.74.74,0,0,0,11.57,2.65Z" transform="translate(0 0.01)"/></svg>