<svg id="Layer_1" data-name="Layer 1" xmlns="http://www.w3.org/2000/svg" viewBox="0 0 15.05 24.11"><defs><style>.cls-1{fill:#fff;}</style></defs><path class="cls-1" d="M13.74,18.62,10.8,17.19h0l-1-.46v-.31a9.65,9.65,0,0,0,3.28-4.84A1.55,1.55,0,0,0,14.5,9.36a1.31,1.31,0,0,0-.31-.43h.47V7.08l-.83-.23V6.73A6.3,6.3,0,0,0,10.3,1.08a1,1,0,0,0-1-.73H7.91V0H7.14V.33H5.69a1,1,0,0,0-.94.73A6.3,6.3,0,0,0,1.22,6.71v.12l-.83.25V8.93H.85a1.31,1.31,0,0,0-.31.43,1.62,1.62,0,0,0,.15,1.58,1.56,1.56,0,0,0,1.24.64,9.87,9.87,0,0,0,3.28,4.84v.31l-.72.34h0L1.31,18.62A2.33,2.33,0,0,0,0,20.7v3.41H15.05V20.7A2.33,2.33,0,0,0,13.74,18.62ZM9.05,17.23A.45.45,0,0,1,9,17.5H9v.21a.31.31,0,0,1-.05.1h0a1.61,1.61,0,0,1-.68.56H7.57A1.55,1.55,0,0,1,6,16.94v-.12a3.56,3.56,0,0,0,3.09,0V17A.59.59,0,0,0,9.05,17.23Zm4.69-6.73a.77.77,0,0,1-.35.27,9.66,9.66,0,0,0,.21-1.31.45.45,0,0,1,.22.25A.8.8,0,0,1,13.74,10.5ZM1.16,7.66,2,7.43v-.7A5.54,5.54,0,0,1,4.71,2V4.28h.77v-3a.23.23,0,0,1,.21-.21H7.14V5.54h.77V1.1H9.36a.21.21,0,0,1,.21.21h0V4.26h.77V2a5.49,5.49,0,0,1,2.72,4.76v.7l.83.23v.5H1.16Zm.15,2.84a.79.79,0,0,1-.07-.8.72.72,0,0,1,.21-.25,8.28,8.28,0,0,0,.23,1.32A1,1,0,0,1,1.31,10.5Zm1.26.57a9.72,9.72,0,0,1-.39-2.14H12.87a7.67,7.67,0,0,1-.37,2.12c-1.73,4.85-4.05,5.37-5,5.37S4.3,15.92,2.57,11.07ZM14.28,23.35H12.54v-.58h-.77v.58H3.28v-.58H2.51v.58H.77V20.7a1.55,1.55,0,0,1,.87-1.39l3.65-1.76v.14s0,.1.06.13,0,0,0,.06a.8.8,0,0,0,.08.16h0l.11.17v.06a.52.52,0,0,0,.1.11l.06.06.1.1.06.06.1.1.06.06.11.1h0l.18.11h0a1.11,1.11,0,0,0,.16.08c.06,0,0,0,.08,0h.21a.29.29,0,0,1,.13,0h1.3a.22.22,0,0,1,.16,0h0L8.5,19h.21l.16-.1h0L9,18.8H9l.12-.1h0l.1-.1v-.05s0-.06.08-.08.06-.06.08-.1h0a2,2,0,0,0,.33-.73l3.62,1.75a1.55,1.55,0,0,1,.87,1.39v2.63Z" transform="translate(0 0)"/><rect class="cls-1" x="3.38" y="6.75" width="8.3" height="0.77"/></svg>