<svg id="Layer_1" data-name="Layer 1" xmlns="http://www.w3.org/2000/svg" viewBox="0 0 20.12 21.92"><defs><style>.cls-1{fill:#fff;}</style></defs><path class="cls-1" d="M18.19,21a2.16,2.16,0,0,0-2.07-1.7,1.76,1.76,0,0,0-.71.14,2.11,2.11,0,0,0-2.1-1.83,1.72,1.72,0,0,0-.71.13,2.17,2.17,0,0,0-1.15-1.59,1.16,1.16,0,0,0,0-.37A2.07,2.07,0,0,0,10.43,14a10,10,0,0,1,.75-2.13,3.53,3.53,0,0,0,.74.4,3.31,3.31,0,0,0,1.12.2,3.11,3.11,0,0,0,3-2.44h0c.71-2.5,3.69-3.15,3.72-3.18a.41.41,0,0,0,.33-.48A.4.4,0,0,0,19.78,6c-.17,0-4.44-1-8,.54,0,0,0,0-.07,0a3.86,3.86,0,0,0-1.08-2.37C7.12.78,1.66,0,1.43,0A.41.41,0,0,0,1,.28a.42.42,0,0,0,.17.5s3.35,2.2,3,5.59v0A3.72,3.72,0,0,0,5.26,9.69,3.8,3.8,0,0,0,8,10.81a3.67,3.67,0,0,0,1.19-.2,10.94,10.94,0,0,1-.1,3.18,2.12,2.12,0,0,0-1.76,2.1v.17A2.1,2.1,0,0,0,5.6,17.85a2.48,2.48,0,0,0-.72-.13,2.1,2.1,0,0,0-2.06,1.69A2.18,2.18,0,0,0,.55,21.1c-1.41,0,.34.82.34.82a.42.42,0,0,0,.4-.41,1.28,1.28,0,0,1,1.28-1.28h0A2.13,2.13,0,0,1,3,20.3a.46.46,0,0,0,.41-.07.58.58,0,0,0,.17-.38v-.06A1.29,1.29,0,0,1,4.88,18.5h0a1.21,1.21,0,0,1,.91.41A.42.42,0,0,0,6.3,19a.41.41,0,0,0,.17-.5,2,2,0,0,1-.07-.41,1.25,1.25,0,0,1,1.26-1.25h.09a.58.58,0,0,0,.38-.17.46.46,0,0,0,.07-.41,1,1,0,0,1-.07-.44,1.28,1.28,0,0,1,1.28-1.28h0a.93.93,0,0,1,.34.06l.2.1h0a1.31,1.31,0,0,1,.71,1.12,1.33,1.33,0,0,1-.1.48.62.62,0,0,0,0,.33c.07.1.13.2.27.2a1.28,1.28,0,0,1,1,1.22,1.85,1.85,0,0,1-.07.41.43.43,0,0,0,.17.51.41.41,0,0,0,.51-.07,1.37,1.37,0,0,1,.91-.41,1.29,1.29,0,0,1,1.29,1.29h0a2,2,0,0,1-.07.41.41.41,0,0,0,.17.5.42.42,0,0,0,.51-.06,1.33,1.33,0,0,1,.91-.41,1.29,1.29,0,0,1,1.29,1.29h0a.4.4,0,0,0,.4.4ZM12.13,7.39A12.21,12.21,0,0,1,18,6.64a5.24,5.24,0,0,0-2.77,3.15s0,0,0,.07a2.1,2.1,0,0,1-1.29,1.59,2.19,2.19,0,0,1-1.72,0,1.84,1.84,0,0,1-.61-.38A7,7,0,0,1,14.74,8.4a.41.41,0,0,0-.34-.74h0a8,8,0,0,0-3.35,2.78s0-.07-.07-.1a2.51,2.51,0,0,1-.2-.85,3.61,3.61,0,0,0,.88-1.83A4.39,4.39,0,0,1,12.13,7.39ZM9.76,9.29A10.1,10.1,0,0,0,7,4.31a.43.43,0,0,0-.61.61A9.29,9.29,0,0,1,9,9.76a2.55,2.55,0,0,1-1,.2,3,3,0,0,1-3-3,2.94,2.94,0,0,1,0-.51V6.4a6.68,6.68,0,0,0-2.1-5.21A15.78,15.78,0,0,1,10,4.88,2.94,2.94,0,0,1,10,9l0,0a.91.91,0,0,1-.24.2ZM10,12.37a12.14,12.14,0,0,0-.1-2.17s.07,0,.1-.07a3.5,3.5,0,0,0,.17.55,3.3,3.3,0,0,0,.34.57A7.54,7.54,0,0,0,10,12.37Z" transform="translate(0 0)"/></svg>