<svg xmlns="http://www.w3.org/2000/svg" width="20.123" height="21.917" viewBox="0 0 20.123 21.917"><g transform="translate(-7.712 -63.544)"><path d="M25.9,38.721a2.139,2.139,0,0,0-2.066-1.693,1.666,1.666,0,0,0-.711.135,2.121,2.121,0,0,0-2.1-1.829,1.666,1.666,0,0,0-.711.135,2.16,2.16,0,0,0-1.151-1.592,1.389,1.389,0,0,0,.034-.373,2.092,2.092,0,0,0-1.05-1.829,10.092,10.092,0,0,1,.745-2.134,3.187,3.187,0,0,0,.745.406,3.251,3.251,0,0,0,1.118.2,3.205,3.205,0,0,0,1.253-.271,3.16,3.16,0,0,0,1.761-2.167h0c.711-2.506,3.692-3.15,3.725-3.184a.413.413,0,0,0,0-.813c-.169-.034-4.437-1.05-7.993.542-.034,0-.034.034-.068.034a3.838,3.838,0,0,0-1.084-2.371C14.83,18.469,9.377,17.69,9.14,17.69a.411.411,0,0,0-.44.271.434.434,0,0,0,.169.508c.034.034,3.353,2.2,3.014,5.588v.034a3.726,3.726,0,0,0,1.084,3.285,3.82,3.82,0,0,0,2.709,1.118,3.635,3.635,0,0,0,1.185-.2,10.823,10.823,0,0,1-.1,3.184A2.114,2.114,0,0,0,15,33.573v.169a2.125,2.125,0,0,0-1.693,1.795,2.638,2.638,0,0,0-.711-.135A2.11,2.11,0,0,0,10.529,37.1,2.169,2.169,0,0,0,8.26,38.789c-1.407,0,.339.813.339.813A.412.412,0,0,0,9,39.2a1.286,1.286,0,0,1,1.287-1.287,2.331,2.331,0,0,1,.44.068.448.448,0,0,0,.406-.068.544.544,0,0,0,.169-.373v-.068a1.286,1.286,0,0,1,1.287-1.287,1.21,1.21,0,0,1,.914.406.411.411,0,0,0,.508.068.42.42,0,0,0,.169-.508,1.7,1.7,0,0,1-.068-.406,1.258,1.258,0,0,1,1.287-1.253h.068a.544.544,0,0,0,.373-.169.432.432,0,0,0,.068-.406,1,1,0,0,1-.068-.44,1.286,1.286,0,0,1,1.287-1.287,1,1,0,0,1,.339.068l.2.1h.034a1.289,1.289,0,0,1,.711,1.118,1.2,1.2,0,0,1-.1.474.577.577,0,0,0,0,.339c.068.1.135.2.271.2a1.27,1.27,0,0,1,.948,1.219,2.028,2.028,0,0,1-.068.406.42.42,0,0,0,.169.508.411.411,0,0,0,.508-.068,1.343,1.343,0,0,1,.914-.406,1.286,1.286,0,0,1,1.287,1.287,2.028,2.028,0,0,1-.068.406.42.42,0,0,0,.169.508.411.411,0,0,0,.508-.068,1.342,1.342,0,0,1,.914-.406,1.286,1.286,0,0,1,1.287,1.287.412.412,0,0,0,.406.406ZM19.842,25.073a12.178,12.178,0,0,1,5.893-.745,5.208,5.208,0,0,0-2.777,3.15c0,.034,0,.034-.034.068a2.131,2.131,0,0,1-1.287,1.592,2.184,2.184,0,0,1-1.727.034,1.844,1.844,0,0,1-.61-.373,7.016,7.016,0,0,1,3.15-2.709.409.409,0,0,0-.339-.745,8,8,0,0,0-3.353,2.777c-.034-.034-.034-.068-.068-.1a2.575,2.575,0,0,1-.2-.847,3.555,3.555,0,0,0,.881-1.829A3.384,3.384,0,0,1,19.842,25.073Zm-2.371,1.9a10.085,10.085,0,0,0-2.743-4.978.431.431,0,0,0-.61.61,9.259,9.259,0,0,1,2.54,4.843,2.76,2.76,0,0,1-1.05.2A2.969,2.969,0,0,1,12.7,24.158v-.068a6.667,6.667,0,0,0-2.1-5.216,15.817,15.817,0,0,1,7.112,3.692,2.944,2.944,0,0,1,0,4.2A1.473,1.473,0,0,1,17.472,26.969Zm.271,3.082a12.434,12.434,0,0,0-.1-2.167c.034-.034.068-.034.1-.068a3.329,3.329,0,0,0,.169.542,3.216,3.216,0,0,0,.339.576A8.157,8.157,0,0,0,17.743,30.051Z" transform="translate(0 45.859)" fill="#6c7997"/></g></svg>