<svg id="Layer_1" data-name="Layer 1" xmlns="http://www.w3.org/2000/svg" viewBox="0 0 20.84 20.85"><defs><style>.cls-1{fill:#fff;}</style></defs><path class="cls-1" d="M19.12,0H1.73A1.75,1.75,0,0,0,0,1.73V12.81a1.72,1.72,0,0,0,1.73,1.73h8.34v.18a7.15,7.15,0,0,0,5.27,6.12.67.67,0,0,0,.2,0A7.1,7.1,0,0,0,20.84,14V1.73A1.74,1.74,0,0,0,19.12,0ZM20,14a6.33,6.33,0,0,1-4.5,6h-.11a6.34,6.34,0,0,1-4.51-6V10.8h.19a11,11,0,0,0,4.28-1.14h.18a11,11,0,0,0,4.28,1.14H20Zm0-4h-.21A10,10,0,0,1,15.6,8.76a.42.42,0,0,0-.38,0A10.21,10.21,0,0,1,10.44,10a.41.41,0,0,0-.43.39V13.7H1.73a.9.9,0,0,1-.89-.88V1.73A.91.91,0,0,1,1.73.84H19.12a.9.9,0,0,1,.88.89Z" transform="translate(0 0)"/><path class="cls-1" d="M10.6,6.29a2.3,2.3,0,0,0,3.24.21,1.34,1.34,0,0,0,.2-.21l.15-.17.15.17a2.29,2.29,0,1,0,1.72-3.8h0a2.26,2.26,0,0,0-1.72.78l-.15.17L14,3.27A2.28,2.28,0,0,0,10.82,3,2.31,2.31,0,0,0,10,4.63,2.29,2.29,0,0,0,10.6,6.29Zm5.46-3A1.45,1.45,0,1,1,14.6,4.78a1.45,1.45,0,0,1,1.46-1.49h0Zm-3.73,0a1.45,1.45,0,1,1-1.45,1.45h0a1.44,1.44,0,0,1,1.46-1.41Z" transform="translate(0 0)"/><path class="cls-1" d="M8,2.49H2.91a.42.42,0,0,0-.42.42h0V6.65a.42.42,0,0,0,.42.42H8a.42.42,0,0,0,.42-.42h0V2.91A.42.42,0,0,0,8,2.49ZM7.6,6.23H3.33V3.33H7.6Z" transform="translate(0 0)"/><path class="cls-1" d="M4.82,11.21H2.91a.42.42,0,1,0,0,.84h1.9a.4.4,0,0,0,.31-.11.37.37,0,0,0,.14-.29.42.42,0,0,0-.4-.44h0V11h0Z" transform="translate(0 0)"/><path class="cls-1" d="M6.81,11.21a.42.42,0,0,0-.39.44.41.41,0,0,0,.4.4H8.68a.42.42,0,1,0,0-.84Z" transform="translate(0 0)"/><path class="cls-1" d="M18.26,12.6h0a.43.43,0,0,0-.59-.07l-.07.07-2.82,2.82-.94-.94a.44.44,0,0,0-.3-.15h0a.43.43,0,0,0-.28.11.44.44,0,0,0-.14.29.4.4,0,0,0,.11.31h0l1.24,1.25a.43.43,0,0,0,.6,0l3.11-3.11A.43.43,0,0,0,18.26,12.6Z" transform="translate(0 0)"/></svg>