<svg id="Layer_1" data-name="Layer 1" xmlns="http://www.w3.org/2000/svg" viewBox="0 0 20.85 20.85"><defs><style>.cls-1{fill:#6c7997;}</style></defs><path class="cls-1" d="M19.52.4H2.13A1.74,1.74,0,0,0,.4,2.13V13.21a1.73,1.73,0,0,0,1.73,1.73h8.34v.18a7.14,7.14,0,0,0,5.27,6.12.67.67,0,0,0,.2,0,7.11,7.11,0,0,0,5.3-6.87V2.13A1.74,1.74,0,0,0,19.52.4Zm.88,14a6.34,6.34,0,0,1-4.5,6h-.11a6.34,6.34,0,0,1-4.51-6V11.2h.19a11,11,0,0,0,4.28-1.14l.09,0,.09,0a11,11,0,0,0,4.28,1.14h.19Zm0-4-.21,0A10.07,10.07,0,0,1,16,9.16a.42.42,0,0,0-.38,0,10.21,10.21,0,0,1-4.78,1.2.41.41,0,0,0-.43.42V14.1H2.13a.9.9,0,0,1-.89-.88V2.13a.91.91,0,0,1,.89-.89H19.52a.9.9,0,0,1,.88.89Z" transform="translate(-0.4 -0.4)"/><path class="cls-1" d="M11,6.69a2.3,2.3,0,0,0,3.24.21,1.34,1.34,0,0,0,.2-.21l.15-.17.15.17a2.29,2.29,0,1,0,1.72-3.8h0a2.28,2.28,0,0,0-1.72.78l-.15.17-.15-.17a2.28,2.28,0,0,0-4,1.36A2.29,2.29,0,0,0,11,6.69Zm5.46-3A1.45,1.45,0,1,1,15,5.18,1.45,1.45,0,0,1,16.47,3.73Zm-3.73,0a1.45,1.45,0,1,1-1.45,1.45A1.45,1.45,0,0,1,12.74,3.73Z" transform="translate(-0.4 -0.4)"/><path class="cls-1" d="M8.38,2.89H3.31a.42.42,0,0,0-.42.42V7.05a.42.42,0,0,0,.42.42H8.38a.42.42,0,0,0,.42-.42V3.31A.42.42,0,0,0,8.38,2.89ZM8,6.63H3.73V3.73H8Z" transform="translate(-0.4 -0.4)"/><path class="cls-1" d="M5.22,11.61H3.31a.42.42,0,0,0,0,.84h1.9a.42.42,0,0,0,.31-.11.38.38,0,0,0,.14-.29.42.42,0,0,0-.41-.44l0-.2h0Z" transform="translate(-0.4 -0.4)"/><path class="cls-1" d="M7.21,11.61a.42.42,0,0,0-.39.44.42.42,0,0,0,.4.4H9.08a.42.42,0,0,0,0-.84Z" transform="translate(-0.4 -0.4)"/><path class="cls-1" d="M18.66,13l0,0A.42.42,0,0,0,18,13l-2.82,2.82-.94-.94a.44.44,0,0,0-.3-.15h0a.43.43,0,0,0-.28.11.42.42,0,0,0-.14.29.39.39,0,0,0,.11.31l0,0,1.24,1.25a.43.43,0,0,0,.6,0l3.11-3.11A.43.43,0,0,0,18.66,13Z" transform="translate(-0.4 -0.4)"/></svg>