<svg id="Layer_1" data-name="Layer 1" xmlns="http://www.w3.org/2000/svg" viewBox="0 0 24.4 25.12"><defs><style>.cls-1{fill:#fff;}</style></defs><path class="cls-1" d="M12.2,25.12,12,25c-.2-.08-1.33-.65-1.37-1.49L9.5,6.32V5.76C9.5,3.54,10,1.53,11,.6A1.86,1.86,0,0,1,12.2,0c1.8,0,2.73,2.86,2.73,5.52v.24a1.75,1.75,0,0,1,0,.56l-1.2,17.23c0,.84-1.17,1.37-1.37,1.49ZM12.2.76a1,1,0,0,0-.73.37c-.76.76-1.25,2.61-1.21,4.58a2.35,2.35,0,0,0,0,.53l1.17,17.23c0,.24.4.52.73.72.32-.2.72-.48.72-.72L14.09,6.24a2.26,2.26,0,0,1,0-.52v-.2c0-2.58-.89-4.76-1.93-4.76Z" transform="translate(0 0)"/><path class="cls-1" d="M10.63,11.51H0L.44,9l9.83-3.86v.57a2.26,2.26,0,0,0,0,.52Zm-9.7-.8H9.79L9.5,6.32,1.13,9.62Z" transform="translate(0 0)"/><path class="cls-1" d="M24.4,11.51H13.77l.36-5.27a2.26,2.26,0,0,1,0-.52V5.15L24,9Zm-9.79-.8h8.86l-.2-1.13-8.38-3.3Z" transform="translate(0 0)"/><path class="cls-1" d="M11.43,23.19H5l.4-1.33,5.84-1.29Zm-4.71-.81h3.87v-.84Z" transform="translate(0 0)"/><path class="cls-1" d="M19.36,23.19H13l.2-2.66L19,21.86Zm-5.55-.81h3.82l-3.78-.84Z" transform="translate(0 0)"/></svg>