<?xml version="1.0" encoding="utf-8"?>
<!-- Generator: Adobe Illustrator 23.1.1, SVG Export Plug-In . SVG Version: 6.00 Build 0)  -->
<svg version="1.1" id="Layer_1" xmlns="http://www.w3.org/2000/svg" xmlns:xlink="http://www.w3.org/1999/xlink" x="0px" y="0px"
	 viewBox="0 0 55 55" style="enable-background:new 0 0 55 55;" xml:space="preserve">
<style type="text/css">
	.st0{fill:none;}
	.st1{fill:#264A9F;}
	.st2{fill:none;stroke:#264A9F;stroke-miterlimit:10;}
</style>
<g>
	<g>
		<path class="st1" d="M30.7,26.1c-1.3,0.1-2.9,0.2-4.5,0.3l0.5-3.3c1.2,0.1,2.6,0.2,3.9,0.4v-1.3c-1.1-0.2-2.1-0.3-2.9-0.4
			c-2.9-0.2-8,1.3-10.2,2.2c-1.3,0.5-9.1,3.1-9.9,3.4c-0.7,0.3-1.6,0.9-1.7,4c0,3.1,3.1,2.5,3.1,2.5h0.2c-0.2-0.5-0.3-1.1-0.2-1.7
			c0.2-1.9,1.8-3.3,3.8-3.3c2,0,3.7,1.7,3.7,3.7c0,0.4-0.1,0.9-0.2,1.3l14.5,0L30.7,26.1L30.7,26.1z M7.4,29.2
			C7.3,28.7,8,28.1,8,28.1l1.7,0.2C9.7,28.3,7.5,29.7,7.4,29.2z M13.9,27.1c0,0,8-3.9,12-4.1l-0.7,3.4C20,26.8,14.5,27.1,13.9,27.1z
			"/>
		<path class="st1" d="M12.2,29.8c-1.1,0.2-2,1.1-2.2,2.2c-0.1,0.7,0,1.3,0.3,1.8c0.5,0.9,1.4,1.5,2.5,1.5c1.1,0,2-0.6,2.5-1.5
			c0.2-0.4,0.3-0.8,0.3-1.3C15.5,30.9,14,29.5,12.2,29.8z"/>
	</g>
	<g>
		<path class="st1" d="M45.5,34.9v-2.8l-3.8,3.8h2.8C45.1,35.9,45.5,35.4,45.5,34.9L45.5,34.9z"/>
		<rect x="41" y="24.5" class="st1" width="1.3" height="1.3"/>
		<rect x="41" y="21" class="st1" width="1.3" height="1.3"/>
		<rect x="41" y="28.1" class="st1" width="1.3" height="1.3"/>
		<path class="st1" d="M31,18.4v16.6c0,0.5,0.4,1,1,1h4.7l3.9-3.9v-0.9h0.8l2.9-2.9c0-0.2,0.1-0.5,0.3-0.7l0.2-0.2
			c0.2-0.2,0.4-0.3,0.7-0.3v-8.7c0-0.5-0.4-1-1-1h-0.9c0,0,0,0,0,0.1c0.2,0.3,0.2,0.7,0,1c-0.2,0.3-0.5,0.5-0.9,0.5h-9.2
			c-0.4,0-0.7-0.2-0.9-0.5c-0.2-0.3-0.2-0.7,0-1c0,0,0,0,0-0.1H32C31.4,17.4,31,17.8,31,18.4z M40.6,27.6h2.2v2.2h-2.2V27.6z
			 M40.6,24.1h2.2v2.2h-2.2V24.1z M40.6,20.5h2.2v2.2h-2.2V20.5z M33.8,32.4h5.7v0.4h-5.7C33.8,32.9,33.8,32.4,33.8,32.4z
			 M33.8,28.7h5.7v0.4h-5.7V28.7z M33.8,24.9h5.7v0.4h-5.7C33.8,25.4,33.8,24.9,33.8,24.9z M33.8,21.2h5.7v0.4h-5.7V21.2z"/>
		<path class="st1" d="M43.1,17.9c-0.7-1.1-3-1-3-1v-1.7c0-0.2-0.1-0.4-0.2-0.5l-1.1-1.2c-0.3-0.3-0.7-0.3-1.1,0l-1.1,1.2
			c-0.1,0.1-0.2,0.3-0.2,0.5v1.7c0,0-2.3,0-3,1c-0.1,0.2,0,0.4,0.2,0.4h9.2C43.1,18.2,43.2,18,43.1,17.9z M39,14.7
			c0,0.4-0.3,0.7-0.7,0.7c-0.4,0-0.7-0.3-0.7-0.7c0-0.4,0.3-0.7,0.7-0.7C38.6,13.9,39,14.3,39,14.7z"/>
		<polygon class="st1" points="37.6,36 39.1,37.5 46.6,29.9 45.2,28.5 		"/>
		<path class="st1" d="M36.6,38.3c-0.1,0.2,0.1,0.3,0.2,0.2l1.9-0.7l-1.4-1.4L36.6,38.3z"/>
		<path class="st1" d="M45.7,27.9l1.4,1.4l0.9-0.9c0.1-0.1,0.1-0.3,0-0.4L47,27c-0.1-0.1-0.3-0.1-0.4,0L45.7,27.9z"/>
	</g>
</g>
</svg>
