<?xml version="1.0" encoding="utf-8"?>
<!-- Generator: Adobe Illustrator 23.1.1, SVG Export Plug-In . SVG Version: 6.00 Build 0)  -->
<svg version="1.1" id="Layer_1" xmlns="http://www.w3.org/2000/svg" xmlns:xlink="http://www.w3.org/1999/xlink" x="0px" y="0px"
	 viewBox="0 0 55 55" style="enable-background:new 0 0 55 55;" xml:space="preserve">
<style type="text/css">
	.st0{fill:none;}
	.st1{fill:#264A9F;}
	.st2{fill:none;stroke:#264A9F;stroke-miterlimit:10;}
</style>
<g>
	<path class="st1" d="M47.2,29.3c-0.3-0.5-0.9-3.3-0.9-3.3l1-1.3c0,0-10.7-3-16.1-3.4c-3.3-0.2-9.2,1.5-11.7,2.5
		c-1.5,0.6-10.5,3.6-11.3,3.9c-0.8,0.3-1.9,1-2,4.6C6,36,9.7,35.3,9.7,35.3l0.2,0c-0.2-0.5-0.3-1-0.3-1.5c0-2.4,1.9-4.3,4.3-4.3
		s4.3,1.9,4.3,4.3c0,0.5-0.1,1-0.3,1.4l18.2-0.1c-0.1-0.4-0.2-0.9-0.2-1.4c0-2.4,1.9-4.3,4.3-4.3c2.4,0,4.3,1.9,4.3,4.3
		c0,0.5-0.1,0.9-0.2,1.3c0.2,0,1.8,0,2.4-0.1c0.6-0.1,1.2-1.1,1.4-2.1C48.2,31.8,47.5,29.8,47.2,29.3z M7.8,29.9
		c-0.1-0.5,0.7-1.3,0.7-1.3l1.9,0.2C10.4,28.8,7.9,30.4,7.8,29.9z M15.3,27.5c0,0,9.2-4.5,13.8-4.7l-0.7,3.9
		C22.2,27,16,27.4,15.3,27.5z M40.1,25.9c0,0-5.1,0.3-10.6,0.7l0.6-3.8C34.5,23,41,24.5,41,24.5L40.1,25.9z"/>
	<path class="st1" d="M13.9,30.6c-1.8,0-3.2,1.4-3.2,3.2c0,0.5,0.1,1,0.4,1.5c0.5,1,1.6,1.7,2.9,1.7c1.3,0,2.3-0.7,2.9-1.8
		c0.2-0.4,0.3-0.9,0.3-1.4C17.1,32,15.7,30.6,13.9,30.6z"/>
	<path class="st1" d="M40.2,30.6c-1.8,0-3.2,1.4-3.2,3.2c0,0.5,0.1,1,0.3,1.4c0.5,1.1,1.6,1.9,2.9,1.9c1.3,0,2.4-0.8,2.9-1.9
		c0.2-0.4,0.3-0.9,0.3-1.3C43.4,32,41.9,30.6,40.2,30.6z"/>
</g>
</svg>
