<?xml version="1.0" encoding="utf-8"?>
<!-- Generator: Adobe Illustrator 23.1.1, SVG Export Plug-In . SVG Version: 6.00 Build 0)  -->
<svg version="1.1" id="Layer_1" xmlns="http://www.w3.org/2000/svg" xmlns:xlink="http://www.w3.org/1999/xlink" x="0px" y="0px"
	 viewBox="0 0 55 55" style="enable-background:new 0 0 55 55;" xml:space="preserve">
<style type="text/css">
	.st0{fill:none;}
	.st1{fill:#264A9F;}
	.st2{fill:none;stroke:#264A9F;stroke-miterlimit:10;}
</style>
<g>
	<path class="st1" d="M38.5,32.3c-4.9-1-8.7-5.4-8.7-10.6c0-5.7,4.5-10.4,10.1-10.8V6.6H8.1v41.5H37V36c0-0.3,0.2-0.5,0.5-0.5h0.9
		L38.5,32.3L38.5,32.3z M10.3,11.8h19.9c0.4,0,0.7,0.3,0.7,0.7c0,0.4-0.3,0.7-0.7,0.7H10.3c-0.4,0-0.7-0.3-0.7-0.7
		C9.5,12.2,9.9,11.8,10.3,11.8z M10.3,15.7H26c0.4,0,0.7,0.3,0.7,0.7c0,0.4-0.3,0.7-0.7,0.7H10.3c-0.4,0-0.7-0.3-0.7-0.7
		C9.5,16.1,9.9,15.7,10.3,15.7z M10.3,19.6H26c0.4,0,0.7,0.3,0.7,0.7c0,0.4-0.3,0.7-0.7,0.7H10.3c-0.4,0-0.7-0.3-0.7-0.7
		C9.5,19.9,9.9,19.6,10.3,19.6z M10.3,23.5H26c0.4,0,0.7,0.3,0.7,0.7c0,0.4-0.3,0.7-0.7,0.7H10.3c-0.4,0-0.7-0.3-0.7-0.7
		C9.5,23.8,9.9,23.5,10.3,23.5z M21.1,40.6c0,0.3-0.3,0.6-0.6,0.6H10.2c-0.3,0-0.6-0.3-0.6-0.6v-8.9c0-0.3,0.3-0.6,0.6-0.6h10.4
		c0.3,0,0.6,0.3,0.6,0.6L21.1,40.6L21.1,40.6z M30.9,38.6H23c-0.4,0-0.7-0.3-0.7-0.7c0-0.4,0.3-0.7,0.7-0.7h7.9
		c0.4,0,0.7,0.3,0.7,0.7C31.6,38.3,31.3,38.6,30.9,38.6z M30.9,35.6H23c-0.4,0-0.7-0.3-0.7-0.7c0-0.4,0.3-0.7,0.7-0.7h7.9
		c0.4,0,0.7,0.3,0.7,0.7C31.6,35.3,31.3,35.6,30.9,35.6z M30.9,32.6H23c-0.4,0-0.7-0.3-0.7-0.7c0-0.4,0.3-0.7,0.7-0.7h7.9
		c0.4,0,0.7,0.3,0.7,0.7C31.6,32.2,31.3,32.6,30.9,32.6z"/>
	<path class="st1" d="M38.5,46.3c0,1.2,1,2.2,2.2,2.2c1.2,0,2.2-1,2.2-2.2v-9.4h-4.3L38.5,46.3L38.5,46.3z M40.6,45.4
		c0.5,0,0.9,0.4,0.9,0.9c0,0.5-0.4,0.9-0.9,0.9c-0.5,0-0.9-0.4-0.9-0.9C39.8,45.8,40.2,45.4,40.6,45.4z"/>
	<path class="st1" d="M40.6,32.5c-0.2,0-0.5,0-0.7,0v2.9h1.4v-2.9C41.1,32.5,40.9,32.5,40.6,32.5z"/>
	<rect x="11" y="32.5" class="st1" width="8.7" height="7.2"/>
	<path class="st1" d="M40.6,12.3c-5.2,0-9.4,4.2-9.4,9.4s4.2,9.4,9.4,9.4s9.4-4.2,9.4-9.4S45.8,12.3,40.6,12.3z M46.7,18l-7.4,8.1
		c-0.1,0.2-0.3,0.2-0.6,0.2c-0.2,0-0.3-0.1-0.5-0.2l-3.2-2.5c-0.3-0.3-0.4-0.7-0.1-1.1c0.3-0.3,0.7-0.4,1-0.1l2.6,2.1l6.9-7.6
		c0.3-0.3,0.7-0.3,1.1,0C46.9,17.3,46.9,17.7,46.7,18z"/>
</g>
</svg>
