<?xml version="1.0" encoding="utf-8"?>
<!-- Generator: Adobe Illustrator 23.1.1, SVG Export Plug-In . SVG Version: 6.00 Build 0)  -->
<svg version="1.1" id="Layer_1" xmlns="http://www.w3.org/2000/svg" xmlns:xlink="http://www.w3.org/1999/xlink" x="0px" y="0px"
	 viewBox="0 0 55 55" style="enable-background:new 0 0 55 55;" xml:space="preserve">
<style type="text/css">
	.st0{fill:none;}
	.st1{fill:#264A9F;}
	.st2{fill:none;stroke:#264A9F;stroke-miterlimit:10;}
</style>
<g>
	<path class="st1" d="M38.4,27.5c-5.4,0-9.7,4.4-9.7,9.7c0,5.4,4.4,9.7,9.7,9.7s9.7-4.4,9.7-9.7S43.7,27.5,38.4,27.5z M43.7,35
		L36,40.9c-0.2,0.1-0.4,0.2-0.5,0.2c-0.1,0-0.2,0-0.2,0c-0.3-0.1-0.5-0.3-0.6-0.5l-1.9-3.8c-0.3-0.4,0-1,0.4-1.3
		c0.4-0.3,1,0,1.3,0.4l1.3,2.8l6.8-5.2c0.4-0.3,1-0.3,1.3,0.2C44.2,34.1,44.1,34.8,43.7,35z"/>
	<path class="st1" d="M40.8,12.5H6.6c-0.4,0-0.7,0.3-0.7,0.7v23.6c0,0.4,0.3,0.7,0.7,0.7h20.2c0-0.1,0-0.1,0-0.2
		c0-6.4,5.2-11.6,11.6-11.6c1.1,0,2.2,0.2,3.1,0.4V13.2C41.5,12.8,41.2,12.5,40.8,12.5z M10.8,20.8h5.6v5.8h-5.6V20.8z M15.8,34.1
		h-5c-0.5,0-0.9-0.4-0.9-0.9c0-0.5,0.4-0.9,0.9-0.9h5c0.5,0,0.9,0.4,0.9,0.9C16.8,33.8,16.4,34.1,15.8,34.1z M24.9,34.1h-5
		c-0.5,0-0.9-0.4-0.9-0.9c0-0.5,0.4-0.9,0.9-0.9h5c0.5,0,0.9,0.4,0.9,0.9C25.8,33.8,25.3,34.1,24.9,34.1z M36.6,17.6h-8.4
		c-0.5,0-0.9-0.4-0.9-0.9c0-0.5,0.4-0.9,0.9-0.9h8.4c0.5,0,0.9,0.4,0.9,0.9C37.5,17.2,37,17.6,36.6,17.6z"/>
</g>
</svg>
