<?xml version="1.0" encoding="utf-8"?>
<!-- Generator: Adobe Illustrator 23.1.1, SVG Export Plug-In . SVG Version: 6.00 Build 0)  -->
<svg version="1.1" id="Layer_1" xmlns="http://www.w3.org/2000/svg" xmlns:xlink="http://www.w3.org/1999/xlink" x="0px" y="0px"
	 viewBox="0 0 55 55" style="enable-background:new 0 0 55 55;" xml:space="preserve">
<style type="text/css">
	.st0{fill:none;}
	.st1{fill:#264A9F;}
	.st2{fill:none;stroke:#264A9F;stroke-miterlimit:10;}
</style>
<path class="st1" d="M18.5,5.6c-1.5,0-2.7,1.2-2.7,2.7v22.2L28.1,38l12.3-7.5v-15l-0.5-0.6h-4.6c-2.3,0-4.2-1.9-4.2-4.2V5.6H18.5
	L18.5,5.6z M32.6,6.8v3.9c0,1.5,1.2,2.7,2.7,2.7h3.2L32.6,6.8L32.6,6.8z M28.1,13.6c4.6,0,8.4,3.7,8.4,8.4c0,4.6-3.7,8.4-8.4,8.4
	c-4.6,0-8.4-3.7-8.4-8.4C19.7,17.4,23.5,13.6,28.1,13.6z M28.1,15.2c-3.8,0-6.8,3.1-6.8,6.8c0,3.8,3.1,6.8,6.8,6.8s6.8-3.1,6.8-6.8
	C34.9,18.2,31.9,15.2,28.1,15.2z M41.9,18.8v10.7l7.2-4.4V24c0-0.5-0.3-0.9-0.7-1.2L41.9,18.8z M14.3,18.9l-6.5,3.9
	c-0.4,0.3-0.7,0.7-0.7,1.2v1.2l7.2,4.4L14.3,18.9L14.3,18.9z M30.9,19.6c0.1,0,0.2,0,0.3,0c0.3,0.1,0.4,0.3,0.5,0.6
	c0,0.3-0.1,0.5-0.3,0.7l-3.9,3.2c-0.3,0.3-0.8,0.2-1.1-0.1l-1.7-2c-0.2-0.2-0.2-0.5-0.1-0.7c0.1-0.3,0.3-0.4,0.6-0.5
	c0.3,0,0.5,0.1,0.7,0.3l1.2,1.4l3.4-2.7C30.5,19.7,30.7,19.6,30.9,19.6z M7.1,27v18.2c0,2.2,1.8,4.1,4.1,4.1H45
	c2.2,0,4.1-1.8,4.1-4.1V27l-7.4,4.5c-0.1,0.1-0.2,0.1-0.3,0.2l-12.9,7.9c-0.2,0.1-0.5,0.1-0.8,0l-12.9-7.9c-0.1,0-0.2-0.1-0.3-0.2
	L7.1,27L7.1,27z"/>
</svg>
