<?xml version="1.0" encoding="utf-8"?>
<!-- Generator: Adobe Illustrator 23.1.1, SVG Export Plug-In . SVG Version: 6.00 Build 0)  -->
<svg version="1.1" id="Layer_1" xmlns="http://www.w3.org/2000/svg" xmlns:xlink="http://www.w3.org/1999/xlink" x="0px" y="0px"
	 viewBox="0 0 55 55" style="enable-background:new 0 0 55 55;" xml:space="preserve">
<style type="text/css">
	.st0{fill:none;}
	.st1{fill:#264A9F;}
	.st2{fill:none;stroke:#264A9F;stroke-miterlimit:10;}
</style>
<g>
	<path class="st1" d="M48.7,25.4h-5.9c-0.8-6.7-6.1-12-12.8-12.7V6.7c0-0.9-0.7-1.6-1.6-1.6s-1.6,0.7-1.6,1.6v5.9
		c-6.7,0.7-12,6.1-12.8,12.7H8.1c-0.9,0-1.6,0.7-1.6,1.6s0.7,1.6,1.6,1.6H14c0.7,6.7,6.1,12.1,12.8,12.8v5.8c0,0.9,0.7,1.6,1.6,1.6
		s1.6-0.7,1.6-1.6v-5.8c6.7-0.7,12.1-6.1,12.8-12.8h5.9c0.9,0,1.6-0.7,1.6-1.6S49.6,25.4,48.7,25.4z M26.8,34.3v3.9
		c-4.9-0.7-8.8-4.6-9.5-9.6h3.9c0,0,0,0,0.1,0C21.8,31.4,24,33.6,26.8,34.3C26.8,34.2,26.8,34.3,26.8,34.3z M21.2,25.4
		C21.2,25.4,21.2,25.4,21.2,25.4l-4,0c0.7-4.9,4.6-8.8,9.5-9.5v3.8c0,0,0,0.1,0,0.1C24,20.5,21.9,22.7,21.2,25.4z M30,19.8v-3.8
		c4.9,0.7,8.8,4.6,9.5,9.5h-3.9c0,0-0.1,0-0.1,0c-0.6-2.7-2.8-4.9-5.6-5.5C30,19.8,30,19.8,30,19.8z M30,38.2v-3.9c0,0,0,0,0,0
		c2.8-0.6,5-2.8,5.6-5.6c0,0,0,0,0.1,0h3.9C38.9,33.6,34.9,37.5,30,38.2z"/>
</g>
</svg>
