<?xml version="1.0" encoding="utf-8"?>
<!-- Generator: Adobe Illustrator 23.1.1, SVG Export Plug-In . SVG Version: 6.00 Build 0)  -->
<svg version="1.1" id="Layer_1" xmlns="http://www.w3.org/2000/svg" xmlns:xlink="http://www.w3.org/1999/xlink" x="0px" y="0px"
	 viewBox="0 0 55 55" style="enable-background:new 0 0 55 55;" xml:space="preserve">
<style type="text/css">
	.st0{fill:none;}
	.st1{fill:#264A9F;}
	.st2{fill:none;stroke:#264A9F;stroke-miterlimit:10;}
</style>
<path class="st1" d="M47.6,41.7L33,27.2l14.7-14.7c1.5-1.7,1.4-4.3-0.3-5.9c-1.6-1.5-4.1-1.4-5.7,0.1L27.1,21.3L12.4,6.6
	c-1.7-1.5-4.3-1.4-5.9,0.3C5.1,8.5,5.1,11,6.7,12.6l14.6,14.6L6.6,41.8c-1.5,1.7-1.4,4.3,0.3,5.9c1.6,1.5,4.1,1.4,5.7-0.1L27.1,33
	l14.5,14.5c0.7,0.8,1.8,1.3,2.9,1.3h0.2c2.2,0,4-1.8,4.1-4C48.9,43.7,48.4,42.6,47.6,41.7z"/>
</svg>
